<svg width="1000" height="1000" viewBox="0 0 1000 1000" fill="none" xmlns="http://www.w3.org/2000/svg">
<g clip-path="url(#clip0_71_6)">
<path d="M218.75 781.25C165.625 781.25 125 740.625 125 687.5V312.5C125 259.375 165.625 218.75 218.75 218.75C271.875 218.75 312.5 259.375 312.5 312.5V687.5C312.5 740.625 271.875 781.25 218.75 781.25Z" fill="#242424" style="mix-blend-mode:soft-light"/>
<path d="M781.25 781.25C728.125 781.25 687.5 740.625 687.5 687.5V312.5C687.5 259.375 728.125 218.75 781.25 218.75C834.375 218.75 875 259.375 875 312.5V687.5C875 740.625 834.375 781.25 781.25 781.25Z" fill="#242424" style="mix-blend-mode:soft-light"/>
<path d="M718.75 531.25H281.25C262.5 531.25 250 518.75 250 500C250 481.25 262.5 468.75 281.25 468.75H718.75C737.5 468.75 750 481.25 750 500C750 518.75 737.5 531.25 718.75 531.25Z" fill="#242424" style="mix-blend-mode:soft-light"/>
<path d="M62.5001 318.75C25.0001 331.25 0.00012207 365.625 0.00012207 406.25V593.75C0.00012207 634.375 25.0001 668.75 62.5001 681.25V318.75Z" fill="#242424" style="mix-blend-mode:soft-light"/>
<path d="M937.5 318.75V681.25C975 668.75 1000 634.375 1000 593.75V406.25C1000 365.625 975 331.25 937.5 318.75Z" fill="#242424" style="mix-blend-mode:soft-light"/>
</g>
<defs>
<clipPath id="clip0_71_6">
<rect width="1000" height="1000" fill="white"/>
</clipPath>
</defs>
</svg>
