<svg width="234" height="348" viewBox="0 0 234 348" fill="none" xmlns="http://www.w3.org/2000/svg">
<path d="M234 313.522C234 332.564 218.564 348 199.522 348H34.7182C15.6766 348 0.240326 332.564 0.240326 313.522V34.4778C0.240326 15.4362 15.6766 0 34.7182 0H199.522C218.564 0 234 15.4362 234 34.4778V313.522Z" fill="#3D3D3D"/>
<path d="M24.306 129.64H31.046V132.16H24.306V129.64ZM24.546 135.4H32.166V138H21.326V124H31.906V126.6H24.546V135.4ZM34.0468 138L38.8668 131.68L38.8068 133.4L34.1868 127.24H37.6868L40.6068 131.26L39.2868 131.3L42.3068 127.24H45.6268L40.9868 133.34V131.66L45.7868 138H42.2468L39.1868 133.72L40.4868 133.9L37.4468 138H34.0468ZM54.6613 138.16C53.7547 138.16 52.9613 137.96 52.2813 137.56C51.6013 137.16 51.068 136.553 50.6813 135.74C50.308 134.913 50.1213 133.873 50.1213 132.62C50.1213 131.353 50.3013 130.313 50.6613 129.5C51.0213 128.687 51.5413 128.08 52.2213 127.68C52.9013 127.28 53.7147 127.08 54.6613 127.08C55.6747 127.08 56.5813 127.313 57.3813 127.78C58.1947 128.233 58.8347 128.873 59.3013 129.7C59.7813 130.527 60.0213 131.5 60.0213 132.62C60.0213 133.753 59.7813 134.733 59.3013 135.56C58.8347 136.387 58.1947 137.027 57.3813 137.48C56.5813 137.933 55.6747 138.16 54.6613 138.16ZM48.3013 141.88V127.24H51.2813V129.44L51.2213 132.64L51.4213 135.82V141.88H48.3013ZM54.1213 135.6C54.6413 135.6 55.1013 135.48 55.5013 135.24C55.9147 135 56.2413 134.66 56.4813 134.22C56.7347 133.767 56.8613 133.233 56.8613 132.62C56.8613 131.993 56.7347 131.46 56.4813 131.02C56.2413 130.58 55.9147 130.24 55.5013 130C55.1013 129.76 54.6413 129.64 54.1213 129.64C53.6013 129.64 53.1347 129.76 52.7213 130C52.308 130.24 51.9813 130.58 51.7413 131.02C51.5013 131.46 51.3813 131.993 51.3813 132.62C51.3813 133.233 51.5013 133.767 51.7413 134.22C51.9813 134.66 52.308 135 52.7213 135.24C53.1347 135.48 53.6013 135.6 54.1213 135.6ZM68.4499 138.16C67.2233 138.16 66.1433 137.92 65.2099 137.44C64.2899 136.96 63.5766 136.307 63.0699 135.48C62.5633 134.64 62.3099 133.687 62.3099 132.62C62.3099 131.54 62.5566 130.587 63.0499 129.76C63.5566 128.92 64.2433 128.267 65.1099 127.8C65.9766 127.32 66.9566 127.08 68.0499 127.08C69.1033 127.08 70.0499 127.307 70.8899 127.76C71.7433 128.2 72.4166 128.84 72.9099 129.68C73.4033 130.507 73.6499 131.5 73.6499 132.66C73.6499 132.78 73.6433 132.92 73.6299 133.08C73.6166 133.227 73.6033 133.367 73.5899 133.5H64.8499V131.68H71.9499L70.7499 132.22C70.7499 131.66 70.6366 131.173 70.4099 130.76C70.1833 130.347 69.8699 130.027 69.4699 129.8C69.0699 129.56 68.6033 129.44 68.0699 129.44C67.5366 129.44 67.0633 129.56 66.6499 129.8C66.2499 130.027 65.9366 130.353 65.7099 130.78C65.4833 131.193 65.3699 131.687 65.3699 132.26V132.74C65.3699 133.327 65.4966 133.847 65.7499 134.3C66.0166 134.74 66.3833 135.08 66.8499 135.32C67.3299 135.547 67.8899 135.66 68.5299 135.66C69.1033 135.66 69.6033 135.573 70.0299 135.4C70.4699 135.227 70.8699 134.967 71.2299 134.62L72.8899 136.42C72.3966 136.98 71.7766 137.413 71.0299 137.72C70.2833 138.013 69.4233 138.16 68.4499 138.16ZM76.7271 138V127.24H79.7071V130.28L79.2871 129.4C79.6071 128.64 80.1204 128.067 80.8271 127.68C81.5338 127.28 82.3938 127.08 83.4071 127.08V129.96C83.2738 129.947 83.1538 129.94 83.0471 129.94C82.9404 129.927 82.8271 129.92 82.7071 129.92C81.8538 129.92 81.1604 130.167 80.6271 130.66C80.1071 131.14 79.8471 131.893 79.8471 132.92V138H76.7271ZM91.0334 138.16C89.7667 138.16 88.78 137.84 88.0734 137.2C87.3667 136.547 87.0134 135.58 87.0134 134.3V124.86H90.1334V134.26C90.1334 134.713 90.2534 135.067 90.4934 135.32C90.7334 135.56 91.06 135.68 91.4734 135.68C91.9667 135.68 92.3867 135.547 92.7334 135.28L93.5734 137.48C93.2534 137.707 92.8667 137.88 92.4134 138C91.9734 138.107 91.5134 138.16 91.0334 138.16ZM85.3534 129.88V127.48H92.8134V129.88H85.3534ZM103.209 138V124H105.889L114.149 134.08H112.849V124H116.049V138H113.389L105.109 127.92H106.409V138H103.209ZM124.681 138.16C123.788 138.16 122.988 137.987 122.281 137.64C121.588 137.293 121.048 136.767 120.661 136.06C120.275 135.34 120.081 134.427 120.081 133.32V127.24H123.201V132.86C123.201 133.753 123.388 134.413 123.761 134.84C124.148 135.253 124.688 135.46 125.381 135.46C125.861 135.46 126.288 135.36 126.661 135.16C127.035 134.947 127.328 134.627 127.541 134.2C127.755 133.76 127.861 133.213 127.861 132.56V127.24H130.981V138H128.021V135.04L128.561 135.9C128.201 136.647 127.668 137.213 126.961 137.6C126.268 137.973 125.508 138.16 124.681 138.16ZM139.272 138.16C138.005 138.16 137.018 137.84 136.312 137.2C135.605 136.547 135.252 135.58 135.252 134.3V124.86H138.372V134.26C138.372 134.713 138.492 135.067 138.732 135.32C138.972 135.56 139.298 135.68 139.712 135.68C140.205 135.68 140.625 135.547 140.972 135.28L141.812 137.48C141.492 137.707 141.105 137.88 140.652 138C140.212 138.107 139.752 138.16 139.272 138.16ZM133.592 129.88V127.48H141.052V129.88H133.592ZM144.563 138V127.24H147.543V130.28L147.123 129.4C147.443 128.64 147.956 128.067 148.663 127.68C149.37 127.28 150.23 127.08 151.243 127.08V129.96C151.11 129.947 150.99 129.94 150.883 129.94C150.776 129.927 150.663 129.92 150.543 129.92C149.69 129.92 148.996 130.167 148.463 130.66C147.943 131.14 147.683 131.893 147.683 132.92V138H144.563ZM154.118 138V127.24H157.238V138H154.118ZM155.678 125.74C155.104 125.74 154.638 125.573 154.278 125.24C153.918 124.907 153.738 124.493 153.738 124C153.738 123.507 153.918 123.093 154.278 122.76C154.638 122.427 155.104 122.26 155.678 122.26C156.251 122.26 156.718 122.42 157.078 122.74C157.438 123.047 157.618 123.447 157.618 123.94C157.618 124.46 157.438 124.893 157.078 125.24C156.731 125.573 156.264 125.74 155.678 125.74ZM165.533 138.16C164.267 138.16 163.28 137.84 162.573 137.2C161.867 136.547 161.513 135.58 161.513 134.3V124.86H164.633V134.26C164.633 134.713 164.753 135.067 164.993 135.32C165.233 135.56 165.56 135.68 165.973 135.68C166.467 135.68 166.887 135.547 167.233 135.28L168.073 137.48C167.753 137.707 167.367 137.88 166.913 138C166.473 138.107 166.013 138.16 165.533 138.16ZM159.853 129.88V127.48H167.313V129.88H159.853ZM170.825 138V127.24H173.945V138H170.825ZM172.385 125.74C171.811 125.74 171.345 125.573 170.985 125.24C170.625 124.907 170.445 124.493 170.445 124C170.445 123.507 170.625 123.093 170.985 122.76C171.345 122.427 171.811 122.26 172.385 122.26C172.958 122.26 173.425 122.42 173.785 122.74C174.145 123.047 174.325 123.447 174.325 123.94C174.325 124.46 174.145 124.893 173.785 125.24C173.438 125.573 172.971 125.74 172.385 125.74ZM182.96 138.16C181.814 138.16 180.794 137.92 179.9 137.44C179.02 136.96 178.32 136.307 177.8 135.48C177.294 134.64 177.04 133.687 177.04 132.62C177.04 131.54 177.294 130.587 177.8 129.76C178.32 128.92 179.02 128.267 179.9 127.8C180.794 127.32 181.814 127.08 182.96 127.08C184.094 127.08 185.107 127.32 186 127.8C186.894 128.267 187.594 128.913 188.1 129.74C188.607 130.567 188.86 131.527 188.86 132.62C188.86 133.687 188.607 134.64 188.1 135.48C187.594 136.307 186.894 136.96 186 137.44C185.107 137.92 184.094 138.16 182.96 138.16ZM182.96 135.6C183.48 135.6 183.947 135.48 184.36 135.24C184.774 135 185.1 134.66 185.34 134.22C185.58 133.767 185.7 133.233 185.7 132.62C185.7 131.993 185.58 131.46 185.34 131.02C185.1 130.58 184.774 130.24 184.36 130C183.947 129.76 183.48 129.64 182.96 129.64C182.44 129.64 181.974 129.76 181.56 130C181.147 130.24 180.814 130.58 180.56 131.02C180.32 131.46 180.2 131.993 180.2 132.62C180.2 133.233 180.32 133.767 180.56 134.22C180.814 134.66 181.147 135 181.56 135.24C181.974 135.48 182.44 135.6 182.96 135.6ZM198.486 127.08C199.339 127.08 200.099 127.253 200.766 127.6C201.446 127.933 201.979 128.453 202.366 129.16C202.753 129.853 202.946 130.747 202.946 131.84V138H199.826V132.32C199.826 131.453 199.633 130.813 199.246 130.4C198.873 129.987 198.339 129.78 197.646 129.78C197.153 129.78 196.706 129.887 196.306 130.1C195.919 130.3 195.613 130.613 195.386 131.04C195.173 131.467 195.066 132.013 195.066 132.68V138H191.946V127.24H194.926V130.22L194.366 129.32C194.753 128.6 195.306 128.047 196.026 127.66C196.746 127.273 197.566 127.08 198.486 127.08ZM67.6348 162.24C66.5282 162.24 65.5082 162.067 64.5748 161.72C63.6548 161.36 62.8482 160.853 62.1548 160.2C61.4748 159.547 60.9415 158.78 60.5548 157.9C60.1815 157.02 59.9948 156.053 59.9948 155C59.9948 153.947 60.1815 152.98 60.5548 152.1C60.9415 151.22 61.4815 150.453 62.1748 149.8C62.8682 149.147 63.6815 148.647 64.6148 148.3C65.5482 147.94 66.5748 147.76 67.6948 147.76C68.9348 147.76 70.0482 147.967 71.0348 148.38C72.0348 148.793 72.8748 149.393 73.5548 150.18L71.4748 152.1C70.9682 151.567 70.4148 151.173 69.8148 150.92C69.2148 150.653 68.5615 150.52 67.8548 150.52C67.1748 150.52 66.5548 150.627 65.9948 150.84C65.4348 151.053 64.9482 151.36 64.5348 151.76C64.1348 152.16 63.8215 152.633 63.5948 153.18C63.3815 153.727 63.2748 154.333 63.2748 155C63.2748 155.653 63.3815 156.253 63.5948 156.8C63.8215 157.347 64.1348 157.827 64.5348 158.24C64.9482 158.64 65.4282 158.947 65.9748 159.16C66.5348 159.373 67.1482 159.48 67.8148 159.48C68.4548 159.48 69.0748 159.38 69.6748 159.18C70.2882 158.967 70.8815 158.613 71.4548 158.12L73.2948 160.46C72.5348 161.033 71.6482 161.473 70.6348 161.78C69.6348 162.087 68.6348 162.24 67.6348 162.24ZM70.3348 160.04V154.78H73.2948V160.46L70.3348 160.04ZM81.6245 162.16C80.7312 162.16 79.9312 161.987 79.2245 161.64C78.5312 161.293 77.9912 160.767 77.6045 160.06C77.2179 159.34 77.0245 158.427 77.0245 157.32V151.24H80.1445V156.86C80.1445 157.753 80.3312 158.413 80.7045 158.84C81.0912 159.253 81.6312 159.46 82.3245 159.46C82.8045 159.46 83.2312 159.36 83.6045 159.16C83.9779 158.947 84.2712 158.627 84.4845 158.2C84.6979 157.76 84.8045 157.213 84.8045 156.56V151.24H87.9245V162H84.9645V159.04L85.5045 159.9C85.1445 160.647 84.6112 161.213 83.9045 161.6C83.2112 161.973 82.4512 162.16 81.6245 162.16ZM91.815 162V151.24H94.935V162H91.815ZM93.375 149.74C92.8017 149.74 92.335 149.573 91.975 149.24C91.615 148.907 91.435 148.493 91.435 148C91.435 147.507 91.615 147.093 91.975 146.76C92.335 146.427 92.8017 146.26 93.375 146.26C93.9483 146.26 94.415 146.42 94.775 146.74C95.135 147.047 95.315 147.447 95.315 147.94C95.315 148.46 95.135 148.893 94.775 149.24C94.4283 149.573 93.9617 149.74 93.375 149.74ZM103.451 162.16C102.437 162.16 101.524 161.933 100.711 161.48C99.8973 161.013 99.2506 160.367 98.7706 159.54C98.304 158.713 98.0706 157.74 98.0706 156.62C98.0706 155.487 98.304 154.507 98.7706 153.68C99.2506 152.853 99.8973 152.213 100.711 151.76C101.524 151.307 102.437 151.08 103.451 151.08C104.357 151.08 105.151 151.28 105.831 151.68C106.511 152.08 107.037 152.687 107.411 153.5C107.784 154.313 107.971 155.353 107.971 156.62C107.971 157.873 107.791 158.913 107.431 159.74C107.071 160.553 106.551 161.16 105.871 161.56C105.204 161.96 104.397 162.16 103.451 162.16ZM103.991 159.6C104.497 159.6 104.957 159.48 105.371 159.24C105.784 159 106.111 158.66 106.351 158.22C106.604 157.767 106.731 157.233 106.731 156.62C106.731 155.993 106.604 155.46 106.351 155.02C106.111 154.58 105.784 154.24 105.371 154C104.957 153.76 104.497 153.64 103.991 153.64C103.471 153.64 103.004 153.76 102.591 154C102.177 154.24 101.844 154.58 101.591 155.02C101.351 155.46 101.231 155.993 101.231 156.62C101.231 157.233 101.351 157.767 101.591 158.22C101.844 158.66 102.177 159 102.591 159.24C103.004 159.48 103.471 159.6 103.991 159.6ZM106.811 162V159.8L106.871 156.6L106.671 153.42V147.16H109.791V162H106.811ZM120.278 162V159.9L120.078 159.44V155.68C120.078 155.013 119.872 154.493 119.458 154.12C119.058 153.747 118.438 153.56 117.598 153.56C117.025 153.56 116.458 153.653 115.898 153.84C115.352 154.013 114.885 154.253 114.498 154.56L113.378 152.38C113.965 151.967 114.672 151.647 115.498 151.42C116.325 151.193 117.165 151.08 118.018 151.08C119.658 151.08 120.932 151.467 121.838 152.24C122.745 153.013 123.198 154.22 123.198 155.86V162H120.278ZM116.998 162.16C116.158 162.16 115.438 162.02 114.838 161.74C114.238 161.447 113.778 161.053 113.458 160.56C113.138 160.067 112.978 159.513 112.978 158.9C112.978 158.26 113.132 157.7 113.438 157.22C113.758 156.74 114.258 156.367 114.938 156.1C115.618 155.82 116.505 155.68 117.598 155.68H120.458V157.5H117.938C117.205 157.5 116.698 157.62 116.418 157.86C116.152 158.1 116.018 158.4 116.018 158.76C116.018 159.16 116.172 159.48 116.478 159.72C116.798 159.947 117.232 160.06 117.778 160.06C118.298 160.06 118.765 159.94 119.178 159.7C119.592 159.447 119.892 159.08 120.078 158.6L120.558 160.04C120.332 160.733 119.918 161.26 119.318 161.62C118.718 161.98 117.945 162.16 116.998 162.16ZM133.562 151.08C134.415 151.08 135.175 151.253 135.842 151.6C136.522 151.933 137.055 152.453 137.442 153.16C137.829 153.853 138.022 154.747 138.022 155.84V162H134.902V156.32C134.902 155.453 134.709 154.813 134.322 154.4C133.949 153.987 133.415 153.78 132.722 153.78C132.229 153.78 131.782 153.887 131.382 154.1C130.995 154.3 130.689 154.613 130.462 155.04C130.249 155.467 130.142 156.013 130.142 156.68V162H127.022V151.24H130.002V154.22L129.442 153.32C129.829 152.6 130.382 152.047 131.102 151.66C131.822 151.273 132.642 151.08 133.562 151.08ZM147.128 162.16C145.968 162.16 144.935 161.927 144.028 161.46C143.122 160.98 142.408 160.32 141.888 159.48C141.382 158.64 141.128 157.687 141.128 156.62C141.128 155.54 141.382 154.587 141.888 153.76C142.408 152.92 143.122 152.267 144.028 151.8C144.935 151.32 145.968 151.08 147.128 151.08C148.262 151.08 149.248 151.32 150.088 151.8C150.928 152.267 151.548 152.94 151.948 153.82L149.528 155.12C149.248 154.613 148.895 154.24 148.468 154C148.055 153.76 147.602 153.64 147.108 153.64C146.575 153.64 146.095 153.76 145.668 154C145.242 154.24 144.902 154.58 144.648 155.02C144.408 155.46 144.288 155.993 144.288 156.62C144.288 157.247 144.408 157.78 144.648 158.22C144.902 158.66 145.242 159 145.668 159.24C146.095 159.48 146.575 159.6 147.108 159.6C147.602 159.6 148.055 159.487 148.468 159.26C148.895 159.02 149.248 158.64 149.528 158.12L151.948 159.44C151.548 160.307 150.928 160.98 150.088 161.46C149.248 161.927 148.262 162.16 147.128 162.16ZM159.948 162.16C158.721 162.16 157.641 161.92 156.708 161.44C155.788 160.96 155.075 160.307 154.568 159.48C154.061 158.64 153.808 157.687 153.808 156.62C153.808 155.54 154.055 154.587 154.548 153.76C155.055 152.92 155.741 152.267 156.608 151.8C157.475 151.32 158.455 151.08 159.548 151.08C160.601 151.08 161.548 151.307 162.388 151.76C163.241 152.2 163.915 152.84 164.408 153.68C164.901 154.507 165.148 155.5 165.148 156.66C165.148 156.78 165.141 156.92 165.128 157.08C165.115 157.227 165.101 157.367 165.088 157.5H156.348V155.68H163.448L162.248 156.22C162.248 155.66 162.135 155.173 161.908 154.76C161.681 154.347 161.368 154.027 160.968 153.8C160.568 153.56 160.101 153.44 159.568 153.44C159.035 153.44 158.561 153.56 158.148 153.8C157.748 154.027 157.435 154.353 157.208 154.78C156.981 155.193 156.868 155.687 156.868 156.26V156.74C156.868 157.327 156.995 157.847 157.248 158.3C157.515 158.74 157.881 159.08 158.348 159.32C158.828 159.547 159.388 159.66 160.028 159.66C160.601 159.66 161.101 159.573 161.528 159.4C161.968 159.227 162.368 158.967 162.728 158.62L164.388 160.42C163.895 160.98 163.275 161.413 162.528 161.72C161.781 162.013 160.921 162.16 159.948 162.16Z" fill="white"/>
<path d="M35.915 223.695H32.571L31.955 225.4H30.899L33.671 217.777H34.826L37.587 225.4H36.531L35.915 223.695ZM35.629 222.881L34.243 219.009L32.857 222.881H35.629ZM40.9291 225.499C40.4671 225.499 40.0528 225.422 39.6861 225.268C39.3195 225.107 39.0298 224.887 38.8171 224.608C38.6045 224.322 38.4871 223.996 38.4651 223.629H39.4991C39.5285 223.93 39.6678 224.175 39.9171 224.366C40.1738 224.557 40.5075 224.652 40.9181 224.652C41.2995 224.652 41.6001 224.568 41.8201 224.399C42.0401 224.23 42.1501 224.018 42.1501 223.761C42.1501 223.497 42.0328 223.303 41.7981 223.178C41.5635 223.046 41.2005 222.918 40.7091 222.793C40.2618 222.676 39.8951 222.558 39.6091 222.441C39.3305 222.316 39.0885 222.137 38.8831 221.902C38.6851 221.66 38.5861 221.345 38.5861 220.956C38.5861 220.648 38.6778 220.366 38.8611 220.109C39.0445 219.852 39.3048 219.651 39.6421 219.504C39.9795 219.35 40.3645 219.273 40.7971 219.273C41.4645 219.273 42.0035 219.442 42.4141 219.779C42.8248 220.116 43.0448 220.578 43.0741 221.165H42.0731C42.0511 220.85 41.9228 220.597 41.6881 220.406C41.4608 220.215 41.1528 220.12 40.7641 220.12C40.4048 220.12 40.1188 220.197 39.9061 220.351C39.6935 220.505 39.5871 220.707 39.5871 220.956C39.5871 221.154 39.6495 221.319 39.7741 221.451C39.9061 221.576 40.0675 221.678 40.2581 221.759C40.4561 221.832 40.7275 221.917 41.0721 222.012C41.5048 222.129 41.8568 222.247 42.1281 222.364C42.3995 222.474 42.6305 222.643 42.8211 222.87C43.0191 223.097 43.1218 223.394 43.1291 223.761C43.1291 224.091 43.0375 224.388 42.8541 224.652C42.6708 224.916 42.4105 225.125 42.0731 225.279C41.7431 225.426 41.3618 225.499 40.9291 225.499ZM52.0068 223.695H48.6628L48.0468 225.4H46.9908L49.7628 217.777H50.9178L53.6788 225.4H52.6228L52.0068 223.695ZM51.7208 222.881L50.3348 219.009L48.9488 222.881H51.7208ZM57.4456 221.561C57.4456 220.813 57.6142 220.142 57.9516 219.548C58.2889 218.947 58.7472 218.477 59.3266 218.14C59.9132 217.803 60.5622 217.634 61.2736 217.634C62.1096 217.634 62.8392 217.836 63.4626 218.239C64.0859 218.642 64.5406 219.214 64.8266 219.955H63.6276C63.4149 219.493 63.1069 219.137 62.7036 218.888C62.3076 218.639 61.8309 218.514 61.2736 218.514C60.7382 218.514 60.2579 218.639 59.8326 218.888C59.4072 219.137 59.0736 219.493 58.8316 219.955C58.5896 220.41 58.4686 220.945 58.4686 221.561C58.4686 222.17 58.5896 222.705 58.8316 223.167C59.0736 223.622 59.4072 223.974 59.8326 224.223C60.2579 224.472 60.7382 224.597 61.2736 224.597C61.8309 224.597 62.3076 224.476 62.7036 224.234C63.1069 223.985 63.4149 223.629 63.6276 223.167H64.8266C64.5406 223.9 64.0859 224.469 63.4626 224.872C62.8392 225.268 62.1096 225.466 61.2736 225.466C60.5622 225.466 59.9132 225.301 59.3266 224.971C58.7472 224.634 58.2889 224.168 57.9516 223.574C57.6142 222.98 57.4456 222.309 57.4456 221.561ZM71.8166 222.155C71.8166 222.346 71.8056 222.547 71.7836 222.76H66.9656C67.0023 223.354 67.204 223.82 67.5706 224.157C67.9446 224.487 68.3956 224.652 68.9236 224.652C69.3563 224.652 69.7156 224.553 70.0016 224.355C70.295 224.15 70.5003 223.878 70.6176 223.541H71.6956C71.5343 224.12 71.2116 224.593 70.7276 224.96C70.2436 225.319 69.6423 225.499 68.9236 225.499C68.3516 225.499 67.8383 225.371 67.3836 225.114C66.9363 224.857 66.5843 224.494 66.3276 224.025C66.071 223.548 65.9426 222.998 65.9426 222.375C65.9426 221.752 66.0673 221.205 66.3166 220.736C66.566 220.267 66.9143 219.907 67.3616 219.658C67.8163 219.401 68.337 219.273 68.9236 219.273C69.4956 219.273 70.0016 219.398 70.4416 219.647C70.8816 219.896 71.219 220.241 71.4536 220.681C71.6956 221.114 71.8166 221.605 71.8166 222.155ZM70.7826 221.946C70.7826 221.565 70.6983 221.238 70.5296 220.967C70.361 220.688 70.13 220.479 69.8366 220.34C69.5506 220.193 69.2316 220.12 68.8796 220.12C68.3736 220.12 67.941 220.281 67.5816 220.604C67.2296 220.927 67.028 221.374 66.9766 221.946H70.7826ZM74.1389 220.351C74.3149 220.006 74.5642 219.739 74.8869 219.548C75.2169 219.357 75.6166 219.262 76.0859 219.262V220.296H75.8219C74.6999 220.296 74.1389 220.905 74.1389 222.122V225.4H73.1379V219.372H74.1389V220.351ZM78.4624 220.197V223.75C78.4624 224.043 78.5248 224.252 78.6494 224.377C78.7741 224.494 78.9904 224.553 79.2984 224.553H80.0354V225.4H79.1334C78.5761 225.4 78.1581 225.272 77.8794 225.015C77.6008 224.758 77.4614 224.337 77.4614 223.75V220.197H76.6804V219.372H77.4614V217.854H78.4624V219.372H80.0354V220.197H78.4624ZM81.7653 218.393C81.5746 218.393 81.4133 218.327 81.2813 218.195C81.1493 218.063 81.0833 217.902 81.0833 217.711C81.0833 217.52 81.1493 217.359 81.2813 217.227C81.4133 217.095 81.5746 217.029 81.7653 217.029C81.9486 217.029 82.1026 217.095 82.2273 217.227C82.3593 217.359 82.4253 217.52 82.4253 217.711C82.4253 217.902 82.3593 218.063 82.2273 218.195C82.1026 218.327 81.9486 218.393 81.7653 218.393ZM82.2493 219.372V225.4H81.2483V219.372H82.2493ZM86.4083 220.197H85.1433V225.4H84.1423V220.197H83.3613V219.372H84.1423V218.943C84.1423 218.268 84.3146 217.777 84.6593 217.469C85.0113 217.154 85.5723 216.996 86.3423 216.996V217.832C85.9023 217.832 85.5906 217.92 85.4073 218.096C85.2313 218.265 85.1433 218.547 85.1433 218.943V219.372H86.4083V220.197ZM88.0924 218.393C87.9017 218.393 87.7404 218.327 87.6084 218.195C87.4764 218.063 87.4104 217.902 87.4104 217.711C87.4104 217.52 87.4764 217.359 87.6084 217.227C87.7404 217.095 87.9017 217.029 88.0924 217.029C88.2757 217.029 88.4297 217.095 88.5544 217.227C88.6864 217.359 88.7524 217.52 88.7524 217.711C88.7524 217.902 88.6864 218.063 88.5544 218.195C88.4297 218.327 88.2757 218.393 88.0924 218.393ZM88.5764 219.372V225.4H87.5754V219.372H88.5764ZM95.7824 222.155C95.7824 222.346 95.7714 222.547 95.7494 222.76H90.9314C90.9681 223.354 91.1698 223.82 91.5364 224.157C91.9104 224.487 92.3614 224.652 92.8894 224.652C93.3221 224.652 93.6814 224.553 93.9674 224.355C94.2608 224.15 94.4661 223.878 94.5834 223.541H95.6614C95.5001 224.12 95.1774 224.593 94.6934 224.96C94.2094 225.319 93.6081 225.499 92.8894 225.499C92.3174 225.499 91.8041 225.371 91.3494 225.114C90.9021 224.857 90.5501 224.494 90.2934 224.025C90.0368 223.548 89.9084 222.998 89.9084 222.375C89.9084 221.752 90.0331 221.205 90.2824 220.736C90.5318 220.267 90.8801 219.907 91.3274 219.658C91.7821 219.401 92.3028 219.273 92.8894 219.273C93.4614 219.273 93.9674 219.398 94.4074 219.647C94.8474 219.896 95.1848 220.241 95.4194 220.681C95.6614 221.114 95.7824 221.605 95.7824 222.155ZM94.7484 221.946C94.7484 221.565 94.6641 221.238 94.4954 220.967C94.3268 220.688 94.0958 220.479 93.8024 220.34C93.5164 220.193 93.1974 220.12 92.8454 220.12C92.3394 220.12 91.9068 220.281 91.5474 220.604C91.1954 220.927 90.9938 221.374 90.9424 221.946H94.7484ZM96.7297 222.364C96.7297 221.748 96.8544 221.209 97.1037 220.747C97.3531 220.278 97.6941 219.915 98.1267 219.658C98.5667 219.401 99.0581 219.273 99.6007 219.273C100.07 219.273 100.506 219.383 100.91 219.603C101.313 219.816 101.621 220.098 101.834 220.45V217.26H102.846V225.4H101.834V224.267C101.636 224.626 101.342 224.923 100.954 225.158C100.565 225.385 100.11 225.499 99.5897 225.499C99.0544 225.499 98.5667 225.367 98.1267 225.103C97.6941 224.839 97.3531 224.469 97.1037 223.992C96.8544 223.515 96.7297 222.973 96.7297 222.364ZM101.834 222.375C101.834 221.92 101.742 221.524 101.559 221.187C101.375 220.85 101.126 220.593 100.811 220.417C100.503 220.234 100.162 220.142 99.7877 220.142C99.4137 220.142 99.0727 220.23 98.7647 220.406C98.4567 220.582 98.2111 220.839 98.0277 221.176C97.8444 221.513 97.7527 221.909 97.7527 222.364C97.7527 222.826 97.8444 223.229 98.0277 223.574C98.2111 223.911 98.4567 224.172 98.7647 224.355C99.0727 224.531 99.4137 224.619 99.7877 224.619C100.162 224.619 100.503 224.531 100.811 224.355C101.126 224.172 101.375 223.911 101.559 223.574C101.742 223.229 101.834 222.83 101.834 222.375ZM113.498 225.4H112.497L108.471 219.295V225.4H107.47V217.722H108.471L112.497 223.816V217.722H113.498V225.4ZM120.55 219.372V225.4H119.549V224.509C119.359 224.817 119.091 225.059 118.746 225.235C118.409 225.404 118.035 225.488 117.624 225.488C117.155 225.488 116.733 225.393 116.359 225.202C115.985 225.004 115.688 224.711 115.468 224.322C115.256 223.933 115.149 223.46 115.149 222.903V219.372H116.139V222.771C116.139 223.365 116.29 223.823 116.59 224.146C116.891 224.461 117.302 224.619 117.822 224.619C118.358 224.619 118.779 224.454 119.087 224.124C119.395 223.794 119.549 223.314 119.549 222.683V219.372H120.55ZM123.461 220.197V223.75C123.461 224.043 123.524 224.252 123.648 224.377C123.773 224.494 123.989 224.553 124.297 224.553H125.034V225.4H124.132C123.575 225.4 123.157 225.272 122.878 225.015C122.6 224.758 122.46 224.337 122.46 223.75V220.197H121.679V219.372H122.46V217.854H123.461V219.372H125.034V220.197H123.461ZM127.248 220.351C127.424 220.006 127.674 219.739 127.996 219.548C128.326 219.357 128.726 219.262 129.195 219.262V220.296H128.931C127.809 220.296 127.248 220.905 127.248 222.122V225.4H126.247V219.372H127.248V220.351ZM130.868 218.393C130.677 218.393 130.516 218.327 130.384 218.195C130.252 218.063 130.186 217.902 130.186 217.711C130.186 217.52 130.252 217.359 130.384 217.227C130.516 217.095 130.677 217.029 130.868 217.029C131.051 217.029 131.205 217.095 131.33 217.227C131.462 217.359 131.528 217.52 131.528 217.711C131.528 217.902 131.462 218.063 131.33 218.195C131.205 218.327 131.051 218.393 130.868 218.393ZM131.352 219.372V225.4H130.351V219.372H131.352ZM134.279 220.197V223.75C134.279 224.043 134.341 224.252 134.466 224.377C134.591 224.494 134.807 224.553 135.115 224.553H135.852V225.4H134.95C134.393 225.4 133.975 225.272 133.696 225.015C133.417 224.758 133.278 224.337 133.278 223.75V220.197H132.497V219.372H133.278V217.854H134.279V219.372H135.852V220.197H134.279ZM137.582 218.393C137.391 218.393 137.23 218.327 137.098 218.195C136.966 218.063 136.9 217.902 136.9 217.711C136.9 217.52 136.966 217.359 137.098 217.227C137.23 217.095 137.391 217.029 137.582 217.029C137.765 217.029 137.919 217.095 138.044 217.227C138.176 217.359 138.242 217.52 138.242 217.711C138.242 217.902 138.176 218.063 138.044 218.195C137.919 218.327 137.765 218.393 137.582 218.393ZM138.066 219.372V225.4H137.065V219.372H138.066ZM142.401 225.499C141.836 225.499 141.323 225.371 140.861 225.114C140.406 224.857 140.047 224.494 139.783 224.025C139.526 223.548 139.398 222.998 139.398 222.375C139.398 221.759 139.53 221.216 139.794 220.747C140.065 220.27 140.432 219.907 140.894 219.658C141.356 219.401 141.873 219.273 142.445 219.273C143.017 219.273 143.534 219.401 143.996 219.658C144.458 219.907 144.821 220.267 145.085 220.736C145.356 221.205 145.492 221.752 145.492 222.375C145.492 222.998 145.352 223.548 145.074 224.025C144.802 224.494 144.432 224.857 143.963 225.114C143.493 225.371 142.973 225.499 142.401 225.499ZM142.401 224.619C142.76 224.619 143.097 224.535 143.413 224.366C143.728 224.197 143.981 223.944 144.172 223.607C144.37 223.27 144.469 222.859 144.469 222.375C144.469 221.891 144.373 221.48 144.183 221.143C143.992 220.806 143.743 220.556 143.435 220.395C143.127 220.226 142.793 220.142 142.434 220.142C142.067 220.142 141.73 220.226 141.422 220.395C141.121 220.556 140.879 220.806 140.696 221.143C140.512 221.48 140.421 221.891 140.421 222.375C140.421 222.866 140.509 223.281 140.685 223.618C140.868 223.955 141.11 224.208 141.411 224.377C141.711 224.538 142.041 224.619 142.401 224.619ZM149.745 219.262C150.478 219.262 151.072 219.486 151.527 219.933C151.982 220.373 152.209 221.011 152.209 221.847V225.4H151.219V221.99C151.219 221.389 151.069 220.93 150.768 220.615C150.467 220.292 150.057 220.131 149.536 220.131C149.008 220.131 148.586 220.296 148.271 220.626C147.963 220.956 147.809 221.436 147.809 222.067V225.4H146.808V219.372H147.809V220.23C148.007 219.922 148.275 219.684 148.612 219.515C148.957 219.346 149.334 219.262 149.745 219.262ZM154.361 218.393C154.17 218.393 154.009 218.327 153.877 218.195C153.745 218.063 153.679 217.902 153.679 217.711C153.679 217.52 153.745 217.359 153.877 217.227C154.009 217.095 154.17 217.029 154.361 217.029C154.544 217.029 154.698 217.095 154.823 217.227C154.955 217.359 155.021 217.52 155.021 217.711C155.021 217.902 154.955 218.063 154.823 218.195C154.698 218.327 154.544 218.393 154.361 218.393ZM154.845 219.372V225.4H153.844V219.372H154.845ZM158.685 225.499C158.223 225.499 157.809 225.422 157.442 225.268C157.075 225.107 156.786 224.887 156.573 224.608C156.36 224.322 156.243 223.996 156.221 223.629H157.255C157.284 223.93 157.424 224.175 157.673 224.366C157.93 224.557 158.263 224.652 158.674 224.652C159.055 224.652 159.356 224.568 159.576 224.399C159.796 224.23 159.906 224.018 159.906 223.761C159.906 223.497 159.789 223.303 159.554 223.178C159.319 223.046 158.956 222.918 158.465 222.793C158.018 222.676 157.651 222.558 157.365 222.441C157.086 222.316 156.844 222.137 156.639 221.902C156.441 221.66 156.342 221.345 156.342 220.956C156.342 220.648 156.434 220.366 156.617 220.109C156.8 219.852 157.061 219.651 157.398 219.504C157.735 219.35 158.12 219.273 158.553 219.273C159.22 219.273 159.759 219.442 160.17 219.779C160.581 220.116 160.801 220.578 160.83 221.165H159.829C159.807 220.85 159.679 220.597 159.444 220.406C159.217 220.215 158.909 220.12 158.52 220.12C158.161 220.12 157.875 220.197 157.662 220.351C157.449 220.505 157.343 220.707 157.343 220.956C157.343 221.154 157.405 221.319 157.53 221.451C157.662 221.576 157.823 221.678 158.014 221.759C158.212 221.832 158.483 221.917 158.828 222.012C159.261 222.129 159.613 222.247 159.884 222.364C160.155 222.474 160.386 222.643 160.577 222.87C160.775 223.097 160.878 223.394 160.885 223.761C160.885 224.091 160.793 224.388 160.61 224.652C160.427 224.916 160.166 225.125 159.829 225.279C159.499 225.426 159.118 225.499 158.685 225.499ZM163.519 220.197V223.75C163.519 224.043 163.581 224.252 163.706 224.377C163.831 224.494 164.047 224.553 164.355 224.553H165.092V225.4H164.19C163.633 225.4 163.215 225.272 162.936 225.015C162.657 224.758 162.518 224.337 162.518 223.75V220.197H161.737V219.372H162.518V217.854H163.519V219.372H165.092V220.197H163.519ZM167.339 224.014L166.107 226.973H165.436L166.239 224.014H167.339ZM172.419 217.733V225.4H171.418V217.733H172.419ZM180.534 225.477C179.823 225.477 179.174 225.312 178.587 224.982C178 224.645 177.535 224.179 177.19 223.585C176.853 222.984 176.684 222.309 176.684 221.561C176.684 220.813 176.853 220.142 177.19 219.548C177.535 218.947 178 218.481 178.587 218.151C179.174 217.814 179.823 217.645 180.534 217.645C181.253 217.645 181.905 217.814 182.492 218.151C183.079 218.481 183.541 218.943 183.878 219.537C184.215 220.131 184.384 220.806 184.384 221.561C184.384 222.316 184.215 222.991 183.878 223.585C183.541 224.179 183.079 224.645 182.492 224.982C181.905 225.312 181.253 225.477 180.534 225.477ZM180.534 224.608C181.069 224.608 181.55 224.483 181.975 224.234C182.408 223.985 182.745 223.629 182.987 223.167C183.236 222.705 183.361 222.17 183.361 221.561C183.361 220.945 183.236 220.41 182.987 219.955C182.745 219.493 182.411 219.137 181.986 218.888C181.561 218.639 181.077 218.514 180.534 218.514C179.991 218.514 179.507 218.639 179.082 218.888C178.657 219.137 178.319 219.493 178.07 219.955C177.828 220.41 177.707 220.945 177.707 221.561C177.707 222.17 177.828 222.705 178.07 223.167C178.319 223.629 178.657 223.985 179.082 224.234C179.515 224.483 179.999 224.608 180.534 224.608ZM188.158 220.197H186.893V225.4H185.892V220.197H185.111V219.372H185.892V218.943C185.892 218.268 186.065 217.777 186.409 217.469C186.761 217.154 187.322 216.996 188.092 216.996V217.832C187.652 217.832 187.341 217.92 187.157 218.096C186.981 218.265 186.893 218.547 186.893 218.943V219.372H188.158V220.197ZM191.778 220.197H190.513V225.4H189.512V220.197H188.731V219.372H189.512V218.943C189.512 218.268 189.685 217.777 190.029 217.469C190.381 217.154 190.942 216.996 191.712 216.996V217.832C191.272 217.832 190.961 217.92 190.777 218.096C190.601 218.265 190.513 218.547 190.513 218.943V219.372H191.778V220.197ZM198.446 222.155C198.446 222.346 198.435 222.547 198.413 222.76H193.595C193.631 223.354 193.833 223.82 194.2 224.157C194.574 224.487 195.025 224.652 195.553 224.652C195.985 224.652 196.345 224.553 196.631 224.355C196.924 224.15 197.129 223.878 197.247 223.541H198.325C198.163 224.12 197.841 224.593 197.357 224.96C196.873 225.319 196.271 225.499 195.553 225.499C194.981 225.499 194.467 225.371 194.013 225.114C193.565 224.857 193.213 224.494 192.957 224.025C192.7 223.548 192.572 222.998 192.572 222.375C192.572 221.752 192.696 221.205 192.946 220.736C193.195 220.267 193.543 219.907 193.991 219.658C194.445 219.401 194.966 219.273 195.553 219.273C196.125 219.273 196.631 219.398 197.071 219.647C197.511 219.896 197.848 220.241 198.083 220.681C198.325 221.114 198.446 221.605 198.446 222.155ZM197.412 221.946C197.412 221.565 197.327 221.238 197.159 220.967C196.99 220.688 196.759 220.479 196.466 220.34C196.18 220.193 195.861 220.12 195.509 220.12C195.003 220.12 194.57 220.281 194.211 220.604C193.859 220.927 193.657 221.374 193.606 221.946H197.412ZM200.768 220.351C200.944 220.006 201.193 219.739 201.516 219.548C201.846 219.357 202.245 219.262 202.715 219.262V220.296H202.451C201.329 220.296 200.768 220.905 200.768 222.122V225.4H199.767V219.372H200.768V220.351ZM34.6345 243.977C34.6345 244.615 34.4145 245.147 33.9745 245.572C33.5419 245.99 32.8782 246.199 31.9835 246.199H30.5095V249.4H29.5085V241.733H31.9835C32.8489 241.733 33.5052 241.942 33.9525 242.36C34.4072 242.778 34.6345 243.317 34.6345 243.977ZM31.9835 245.374C32.5409 245.374 32.9515 245.253 33.2155 245.011C33.4795 244.769 33.6115 244.424 33.6115 243.977C33.6115 243.031 33.0689 242.558 31.9835 242.558H30.5095V245.374H31.9835ZM41.3786 246.155C41.3786 246.346 41.3676 246.547 41.3456 246.76H36.5276C36.5643 247.354 36.766 247.82 37.1326 248.157C37.5066 248.487 37.9576 248.652 38.4856 248.652C38.9183 248.652 39.2776 248.553 39.5636 248.355C39.857 248.15 40.0623 247.878 40.1796 247.541H41.2576C41.0963 248.12 40.7736 248.593 40.2896 248.96C39.8056 249.319 39.2043 249.499 38.4856 249.499C37.9136 249.499 37.4003 249.371 36.9456 249.114C36.4983 248.857 36.1463 248.494 35.8896 248.025C35.633 247.548 35.5046 246.998 35.5046 246.375C35.5046 245.752 35.6293 245.205 35.8786 244.736C36.128 244.267 36.4763 243.907 36.9236 243.658C37.3783 243.401 37.899 243.273 38.4856 243.273C39.0576 243.273 39.5636 243.398 40.0036 243.647C40.4436 243.896 40.781 244.241 41.0156 244.681C41.2576 245.114 41.3786 245.605 41.3786 246.155ZM40.3446 245.946C40.3446 245.565 40.2603 245.238 40.0916 244.967C39.923 244.688 39.692 244.479 39.3986 244.34C39.1126 244.193 38.7936 244.12 38.4416 244.12C37.9356 244.12 37.503 244.281 37.1436 244.604C36.7916 244.927 36.59 245.374 36.5386 245.946H40.3446ZM43.7009 244.351C43.8769 244.006 44.1263 243.739 44.4489 243.548C44.7789 243.357 45.1786 243.262 45.6479 243.262V244.296H45.3839C44.2619 244.296 43.7009 244.905 43.7009 246.122V249.4H42.6999V243.372H43.7009V244.351ZM48.9374 249.499C48.4754 249.499 48.0611 249.422 47.6944 249.268C47.3278 249.107 47.0381 248.887 46.8254 248.608C46.6128 248.322 46.4954 247.996 46.4734 247.629H47.5074C47.5368 247.93 47.6761 248.175 47.9254 248.366C48.1821 248.557 48.5158 248.652 48.9264 248.652C49.3078 248.652 49.6084 248.568 49.8284 248.399C50.0484 248.23 50.1584 248.018 50.1584 247.761C50.1584 247.497 50.0411 247.303 49.8064 247.178C49.5718 247.046 49.2088 246.918 48.7174 246.793C48.2701 246.676 47.9034 246.558 47.6174 246.441C47.3388 246.316 47.0968 246.137 46.8914 245.902C46.6934 245.66 46.5944 245.345 46.5944 244.956C46.5944 244.648 46.6861 244.366 46.8694 244.109C47.0528 243.852 47.3131 243.651 47.6504 243.504C47.9878 243.35 48.3728 243.273 48.8054 243.273C49.4728 243.273 50.0118 243.442 50.4224 243.779C50.8331 244.116 51.0531 244.578 51.0824 245.165H50.0814C50.0594 244.85 49.9311 244.597 49.6964 244.406C49.4691 244.215 49.1611 244.12 48.7724 244.12C48.4131 244.12 48.1271 244.197 47.9144 244.351C47.7018 244.505 47.5954 244.707 47.5954 244.956C47.5954 245.154 47.6578 245.319 47.7824 245.451C47.9144 245.576 48.0758 245.678 48.2664 245.759C48.4644 245.832 48.7358 245.917 49.0804 246.012C49.5131 246.129 49.8651 246.247 50.1364 246.364C50.4078 246.474 50.6388 246.643 50.8294 246.87C51.0274 247.097 51.1301 247.394 51.1374 247.761C51.1374 248.091 51.0458 248.388 50.8624 248.652C50.6791 248.916 50.4188 249.125 50.0814 249.279C49.7514 249.426 49.3701 249.499 48.9374 249.499ZM55.1795 249.499C54.6148 249.499 54.1015 249.371 53.6395 249.114C53.1848 248.857 52.8255 248.494 52.5615 248.025C52.3048 247.548 52.1765 246.998 52.1765 246.375C52.1765 245.759 52.3085 245.216 52.5725 244.747C52.8438 244.27 53.2105 243.907 53.6725 243.658C54.1345 243.401 54.6515 243.273 55.2235 243.273C55.7955 243.273 56.3125 243.401 56.7745 243.658C57.2365 243.907 57.5995 244.267 57.8635 244.736C58.1348 245.205 58.2705 245.752 58.2705 246.375C58.2705 246.998 58.1312 247.548 57.8525 248.025C57.5812 248.494 57.2108 248.857 56.7415 249.114C56.2722 249.371 55.7515 249.499 55.1795 249.499ZM55.1795 248.619C55.5388 248.619 55.8762 248.535 56.1915 248.366C56.5068 248.197 56.7598 247.944 56.9505 247.607C57.1485 247.27 57.2475 246.859 57.2475 246.375C57.2475 245.891 57.1522 245.48 56.9615 245.143C56.7708 244.806 56.5215 244.556 56.2135 244.395C55.9055 244.226 55.5718 244.142 55.2125 244.142C54.8458 244.142 54.5085 244.226 54.2005 244.395C53.8998 244.556 53.6578 244.806 53.4745 245.143C53.2912 245.48 53.1995 245.891 53.1995 246.375C53.1995 246.866 53.2875 247.281 53.4635 247.618C53.6468 247.955 53.8888 248.208 54.1895 248.377C54.4902 248.538 54.8202 248.619 55.1795 248.619ZM62.5236 243.262C63.257 243.262 63.851 243.486 64.3056 243.933C64.7603 244.373 64.9876 245.011 64.9876 245.847V249.4H63.9976V245.99C63.9976 245.389 63.8473 244.93 63.5466 244.615C63.246 244.292 62.8353 244.131 62.3146 244.131C61.7866 244.131 61.365 244.296 61.0496 244.626C60.7416 244.956 60.5876 245.436 60.5876 246.067V249.4H59.5866V243.372H60.5876V244.23C60.7856 243.922 61.0533 243.684 61.3906 243.515C61.7353 243.346 62.113 243.262 62.5236 243.262ZM66.2488 246.364C66.2488 245.748 66.3734 245.209 66.6228 244.747C66.8721 244.278 67.2131 243.915 67.6458 243.658C68.0858 243.401 68.5734 243.273 69.1088 243.273C69.6368 243.273 70.0951 243.387 70.4838 243.614C70.8724 243.841 71.1621 244.127 71.3528 244.472V243.372H72.3648V249.4H71.3528V248.278C71.1548 248.63 70.8578 248.923 70.4618 249.158C70.0731 249.385 69.6184 249.499 69.0978 249.499C68.5624 249.499 68.0784 249.367 67.6458 249.103C67.2131 248.839 66.8721 248.469 66.6228 247.992C66.3734 247.515 66.2488 246.973 66.2488 246.364ZM71.3528 246.375C71.3528 245.92 71.2611 245.524 71.0778 245.187C70.8944 244.85 70.6451 244.593 70.3298 244.417C70.0218 244.234 69.6808 244.142 69.3068 244.142C68.9328 244.142 68.5918 244.23 68.2838 244.406C67.9758 244.582 67.7301 244.839 67.5468 245.176C67.3634 245.513 67.2718 245.909 67.2718 246.364C67.2718 246.826 67.3634 247.229 67.5468 247.574C67.7301 247.911 67.9758 248.172 68.2838 248.355C68.5918 248.531 68.9328 248.619 69.3068 248.619C69.6808 248.619 70.0218 248.531 70.3298 248.355C70.6451 248.172 70.8944 247.911 71.0778 247.574C71.2611 247.229 71.3528 246.83 71.3528 246.375ZM75.0574 241.26V249.4H74.0564V241.26H75.0574ZM77.2804 242.393C77.0897 242.393 76.9284 242.327 76.7964 242.195C76.6644 242.063 76.5984 241.902 76.5984 241.711C76.5984 241.52 76.6644 241.359 76.7964 241.227C76.9284 241.095 77.0897 241.029 77.2804 241.029C77.4637 241.029 77.6177 241.095 77.7424 241.227C77.8744 241.359 77.9404 241.52 77.9404 241.711C77.9404 241.902 77.8744 242.063 77.7424 242.195C77.6177 242.327 77.4637 242.393 77.2804 242.393ZM77.7644 243.372V249.4H76.7634V243.372H77.7644ZM80.2184 248.575H83.1774V249.4H79.0744V248.575L82.0004 244.186H79.0964V243.372H83.1554V244.186L80.2184 248.575ZM89.9763 246.155C89.9763 246.346 89.9653 246.547 89.9433 246.76H85.1253C85.162 247.354 85.3636 247.82 85.7303 248.157C86.1043 248.487 86.5553 248.652 87.0833 248.652C87.516 248.652 87.8753 248.553 88.1613 248.355C88.4546 248.15 88.66 247.878 88.7773 247.541H89.8553C89.694 248.12 89.3713 248.593 88.8873 248.96C88.4033 249.319 87.802 249.499 87.0833 249.499C86.5113 249.499 85.998 249.371 85.5433 249.114C85.096 248.857 84.744 248.494 84.4873 248.025C84.2306 247.548 84.1023 246.998 84.1023 246.375C84.1023 245.752 84.227 245.205 84.4763 244.736C84.7256 244.267 85.074 243.907 85.5213 243.658C85.976 243.401 86.4966 243.273 87.0833 243.273C87.6553 243.273 88.1613 243.398 88.6013 243.647C89.0413 243.896 89.3786 244.241 89.6133 244.681C89.8553 245.114 89.9763 245.605 89.9763 246.155ZM88.9423 245.946C88.9423 245.565 88.858 245.238 88.6893 244.967C88.5206 244.688 88.2896 244.479 87.9963 244.34C87.7103 244.193 87.3913 244.12 87.0393 244.12C86.5333 244.12 86.1006 244.281 85.7413 244.604C85.3893 244.927 85.1876 245.374 85.1363 245.946H88.9423ZM90.9236 246.364C90.9236 245.748 91.0483 245.209 91.2976 244.747C91.5469 244.278 91.8879 243.915 92.3206 243.658C92.7606 243.401 93.2519 243.273 93.7946 243.273C94.2639 243.273 94.7003 243.383 95.1036 243.603C95.5069 243.816 95.8149 244.098 96.0276 244.45V241.26H97.0396V249.4H96.0276V248.267C95.8296 248.626 95.5363 248.923 95.1476 249.158C94.7589 249.385 94.3043 249.499 93.7836 249.499C93.2483 249.499 92.7606 249.367 92.3206 249.103C91.8879 248.839 91.5469 248.469 91.2976 247.992C91.0483 247.515 90.9236 246.973 90.9236 246.364ZM96.0276 246.375C96.0276 245.92 95.9359 245.524 95.7526 245.187C95.5693 244.85 95.3199 244.593 95.0046 244.417C94.6966 244.234 94.3556 244.142 93.9816 244.142C93.6076 244.142 93.2666 244.23 92.9586 244.406C92.6506 244.582 92.4049 244.839 92.2216 245.176C92.0383 245.513 91.9466 245.909 91.9466 246.364C91.9466 246.826 92.0383 247.229 92.2216 247.574C92.4049 247.911 92.6506 248.172 92.9586 248.355C93.2666 248.531 93.6076 248.619 93.9816 248.619C94.3556 248.619 94.6966 248.531 95.0046 248.355C95.3199 248.172 95.5693 247.911 95.7526 247.574C95.9359 247.229 96.0276 246.83 96.0276 246.375ZM106.196 247.695H102.852L102.236 249.4H101.18L103.952 241.777H105.107L107.868 249.4H106.812L106.196 247.695ZM105.91 246.881L104.524 243.009L103.138 246.881H105.91ZM108.702 246.364C108.702 245.748 108.827 245.209 109.076 244.747C109.325 244.278 109.666 243.915 110.099 243.658C110.539 243.401 111.03 243.273 111.573 243.273C112.042 243.273 112.479 243.383 112.882 243.603C113.285 243.816 113.593 244.098 113.806 244.45V241.26H114.818V249.4H113.806V248.267C113.608 248.626 113.315 248.923 112.926 249.158C112.537 249.385 112.083 249.499 111.562 249.499C111.027 249.499 110.539 249.367 110.099 249.103C109.666 248.839 109.325 248.469 109.076 247.992C108.827 247.515 108.702 246.973 108.702 246.364ZM113.806 246.375C113.806 245.92 113.714 245.524 113.531 245.187C113.348 244.85 113.098 244.593 112.783 244.417C112.475 244.234 112.134 244.142 111.76 244.142C111.386 244.142 111.045 244.23 110.737 244.406C110.429 244.582 110.183 244.839 110 245.176C109.817 245.513 109.725 245.909 109.725 246.364C109.725 246.826 109.817 247.229 110 247.574C110.183 247.911 110.429 248.172 110.737 248.355C111.045 248.531 111.386 248.619 111.76 248.619C112.134 248.619 112.475 248.531 112.783 248.355C113.098 248.172 113.348 247.911 113.531 247.574C113.714 247.229 113.806 246.83 113.806 246.375ZM118.753 248.476L120.623 243.372H121.69L119.325 249.4H118.159L115.794 243.372H116.872L118.753 248.476ZM123.193 242.393C123.002 242.393 122.841 242.327 122.709 242.195C122.577 242.063 122.511 241.902 122.511 241.711C122.511 241.52 122.577 241.359 122.709 241.227C122.841 241.095 123.002 241.029 123.193 241.029C123.376 241.029 123.53 241.095 123.655 241.227C123.787 241.359 123.853 241.52 123.853 241.711C123.853 241.902 123.787 242.063 123.655 242.195C123.53 242.327 123.376 242.393 123.193 242.393ZM123.677 243.372V249.4H122.676V243.372H123.677ZM125.009 246.375C125.009 245.752 125.133 245.209 125.383 244.747C125.632 244.278 125.977 243.915 126.417 243.658C126.864 243.401 127.374 243.273 127.946 243.273C128.686 243.273 129.295 243.453 129.772 243.812C130.256 244.171 130.575 244.67 130.729 245.308H129.651C129.548 244.941 129.346 244.652 129.046 244.439C128.752 244.226 128.386 244.12 127.946 244.12C127.374 244.12 126.912 244.318 126.56 244.714C126.208 245.103 126.032 245.656 126.032 246.375C126.032 247.101 126.208 247.662 126.56 248.058C126.912 248.454 127.374 248.652 127.946 248.652C128.386 248.652 128.752 248.549 129.046 248.344C129.339 248.139 129.541 247.845 129.651 247.464H130.729C130.567 248.08 130.245 248.575 129.761 248.949C129.277 249.316 128.672 249.499 127.946 249.499C127.374 249.499 126.864 249.371 126.417 249.114C125.977 248.857 125.632 248.494 125.383 248.025C125.133 247.556 125.009 247.006 125.009 246.375ZM137.564 246.155C137.564 246.346 137.553 246.547 137.531 246.76H132.713C132.75 247.354 132.952 247.82 133.318 248.157C133.692 248.487 134.143 248.652 134.671 248.652C135.104 248.652 135.463 248.553 135.749 248.355C136.043 248.15 136.248 247.878 136.365 247.541H137.443C137.282 248.12 136.959 248.593 136.475 248.96C135.991 249.319 135.39 249.499 134.671 249.499C134.099 249.499 133.586 249.371 133.131 249.114C132.684 248.857 132.332 248.494 132.075 248.025C131.819 247.548 131.69 246.998 131.69 246.375C131.69 245.752 131.815 245.205 132.064 244.736C132.314 244.267 132.662 243.907 133.109 243.658C133.564 243.401 134.085 243.273 134.671 243.273C135.243 243.273 135.749 243.398 136.189 243.647C136.629 243.896 136.967 244.241 137.201 244.681C137.443 245.114 137.564 245.605 137.564 246.155ZM136.53 245.946C136.53 245.565 136.446 245.238 136.277 244.967C136.109 244.688 135.878 244.479 135.584 244.34C135.298 244.193 134.979 244.12 134.627 244.12C134.121 244.12 133.689 244.281 133.329 244.604C132.977 244.927 132.776 245.374 132.724 245.946H136.53ZM146.537 241.733V242.547H144.447V249.4H143.446V242.547H141.345V241.733H146.537ZM150.398 249.499C149.834 249.499 149.32 249.371 148.858 249.114C148.404 248.857 148.044 248.494 147.78 248.025C147.524 247.548 147.395 246.998 147.395 246.375C147.395 245.759 147.527 245.216 147.791 244.747C148.063 244.27 148.429 243.907 148.891 243.658C149.353 243.401 149.87 243.273 150.442 243.273C151.014 243.273 151.531 243.401 151.993 243.658C152.455 243.907 152.818 244.267 153.082 244.736C153.354 245.205 153.489 245.752 153.489 246.375C153.489 246.998 153.35 247.548 153.071 248.025C152.8 248.494 152.43 248.857 151.96 249.114C151.491 249.371 150.97 249.499 150.398 249.499ZM150.398 248.619C150.758 248.619 151.095 248.535 151.41 248.366C151.726 248.197 151.979 247.944 152.169 247.607C152.367 247.27 152.466 246.859 152.466 246.375C152.466 245.891 152.371 245.48 152.18 245.143C151.99 244.806 151.74 244.556 151.432 244.395C151.124 244.226 150.791 244.142 150.431 244.142C150.065 244.142 149.727 244.226 149.419 244.395C149.119 244.556 148.877 244.806 148.693 245.143C148.51 245.48 148.418 245.891 148.418 246.375C148.418 246.866 148.506 247.281 148.682 247.618C148.866 247.955 149.108 248.208 149.408 248.377C149.709 248.538 150.039 248.619 150.398 248.619ZM163.645 241.733V249.4H162.644V245.924H158.739V249.4H157.738V241.733H158.739V245.099H162.644V241.733H163.645ZM170.854 246.155C170.854 246.346 170.843 246.547 170.821 246.76H166.003C166.04 247.354 166.242 247.82 166.608 248.157C166.982 248.487 167.433 248.652 167.961 248.652C168.394 248.652 168.753 248.553 169.039 248.355C169.333 248.15 169.538 247.878 169.655 247.541H170.733C170.572 248.12 170.249 248.593 169.765 248.96C169.281 249.319 168.68 249.499 167.961 249.499C167.389 249.499 166.876 249.371 166.421 249.114C165.974 248.857 165.622 248.494 165.365 248.025C165.109 247.548 164.98 246.998 164.98 246.375C164.98 245.752 165.105 245.205 165.354 244.736C165.604 244.267 165.952 243.907 166.399 243.658C166.854 243.401 167.375 243.273 167.961 243.273C168.533 243.273 169.039 243.398 169.479 243.647C169.919 243.896 170.257 244.241 170.491 244.681C170.733 245.114 170.854 245.605 170.854 246.155ZM169.82 245.946C169.82 245.565 169.736 245.238 169.567 244.967C169.399 244.688 169.168 244.479 168.874 244.34C168.588 244.193 168.269 244.12 167.917 244.12C167.411 244.12 166.979 244.281 166.619 244.604C166.267 244.927 166.066 245.374 166.014 245.946H169.82ZM173.177 241.26V249.4H172.176V241.26H173.177ZM175.884 244.483C176.082 244.138 176.375 243.852 176.764 243.625C177.16 243.39 177.618 243.273 178.139 243.273C178.674 243.273 179.158 243.401 179.591 243.658C180.031 243.915 180.375 244.278 180.625 244.747C180.874 245.209 180.999 245.748 180.999 246.364C180.999 246.973 180.874 247.515 180.625 247.992C180.375 248.469 180.031 248.839 179.591 249.103C179.158 249.367 178.674 249.499 178.139 249.499C177.625 249.499 177.171 249.385 176.775 249.158C176.386 248.923 176.089 248.634 175.884 248.289V252.26H174.883V243.372H175.884V244.483ZM179.976 246.364C179.976 245.909 179.884 245.513 179.701 245.176C179.517 244.839 179.268 244.582 178.953 244.406C178.645 244.23 178.304 244.142 177.93 244.142C177.563 244.142 177.222 244.234 176.907 244.417C176.599 244.593 176.349 244.853 176.159 245.198C175.975 245.535 175.884 245.928 175.884 246.375C175.884 246.83 175.975 247.229 176.159 247.574C176.349 247.911 176.599 248.172 176.907 248.355C177.222 248.531 177.563 248.619 177.93 248.619C178.304 248.619 178.645 248.531 178.953 248.355C179.268 248.172 179.517 247.911 179.701 247.574C179.884 247.229 179.976 246.826 179.976 246.364ZM190.617 241.733L188.12 246.507V249.4H187.119V246.507L184.611 241.733H185.722L187.614 245.616L189.506 241.733H190.617ZM194.302 249.499C193.737 249.499 193.224 249.371 192.762 249.114C192.307 248.857 191.948 248.494 191.684 248.025C191.427 247.548 191.299 246.998 191.299 246.375C191.299 245.759 191.431 245.216 191.695 244.747C191.966 244.27 192.333 243.907 192.795 243.658C193.257 243.401 193.774 243.273 194.346 243.273C194.918 243.273 195.435 243.401 195.897 243.658C196.359 243.907 196.722 244.267 196.986 244.736C197.257 245.205 197.393 245.752 197.393 246.375C197.393 246.998 197.253 247.548 196.975 248.025C196.703 248.494 196.333 248.857 195.864 249.114C195.394 249.371 194.874 249.499 194.302 249.499ZM194.302 248.619C194.661 248.619 194.998 248.535 195.314 248.366C195.629 248.197 195.882 247.944 196.073 247.607C196.271 247.27 196.37 246.859 196.37 246.375C196.37 245.891 196.274 245.48 196.084 245.143C195.893 244.806 195.644 244.556 195.336 244.395C195.028 244.226 194.694 244.142 194.335 244.142C193.968 244.142 193.631 244.226 193.323 244.395C193.022 244.556 192.78 244.806 192.597 245.143C192.413 245.48 192.322 245.891 192.322 246.375C192.322 246.866 192.41 247.281 192.586 247.618C192.769 247.955 193.011 248.208 193.312 248.377C193.612 248.538 193.942 248.619 194.302 248.619ZM204.055 243.372V249.4H203.054V248.509C202.863 248.817 202.595 249.059 202.251 249.235C201.913 249.404 201.539 249.488 201.129 249.488C200.659 249.488 200.238 249.393 199.864 249.202C199.49 249.004 199.193 248.711 198.973 248.322C198.76 247.933 198.654 247.46 198.654 246.903V243.372H199.644V246.771C199.644 247.365 199.794 247.823 200.095 248.146C200.395 248.461 200.806 248.619 201.327 248.619C201.862 248.619 202.284 248.454 202.592 248.124C202.9 247.794 203.054 247.314 203.054 246.683V243.372H204.055ZM45.0513 271.695H41.7073L41.0913 273.4H40.0353L42.8073 265.777H43.9623L46.7233 273.4H45.6673L45.0513 271.695ZM44.7653 270.881L43.3793 267.009L41.9933 270.881H44.7653ZM47.5574 270.375C47.5574 269.752 47.682 269.209 47.9314 268.747C48.1807 268.278 48.5254 267.915 48.9654 267.658C49.4127 267.401 49.9224 267.273 50.4944 267.273C51.235 267.273 51.8437 267.453 52.3204 267.812C52.8044 268.171 53.1234 268.67 53.2774 269.308H52.1994C52.0967 268.941 51.895 268.652 51.5944 268.439C51.301 268.226 50.9344 268.12 50.4944 268.12C49.9224 268.12 49.4604 268.318 49.1084 268.714C48.7564 269.103 48.5804 269.656 48.5804 270.375C48.5804 271.101 48.7564 271.662 49.1084 272.058C49.4604 272.454 49.9224 272.652 50.4944 272.652C50.9344 272.652 51.301 272.549 51.5944 272.344C51.8877 272.139 52.0894 271.845 52.1994 271.464H53.2774C53.116 272.08 52.7934 272.575 52.3094 272.949C51.8254 273.316 51.2204 273.499 50.4944 273.499C49.9224 273.499 49.4127 273.371 48.9654 273.114C48.5254 272.857 48.1807 272.494 47.9314 272.025C47.682 271.556 47.5574 271.006 47.5574 270.375ZM57.605 267.262C58.0597 267.262 58.4703 267.361 58.837 267.559C59.2037 267.75 59.4897 268.039 59.695 268.428C59.9077 268.817 60.014 269.29 60.014 269.847V273.4H59.024V269.99C59.024 269.389 58.8737 268.93 58.573 268.615C58.2723 268.292 57.8617 268.131 57.341 268.131C56.813 268.131 56.3913 268.296 56.076 268.626C55.768 268.956 55.614 269.436 55.614 270.067V273.4H54.613V265.26H55.614V268.23C55.812 267.922 56.0833 267.684 56.428 267.515C56.78 267.346 57.1723 267.262 57.605 267.262ZM62.1661 266.393C61.9755 266.393 61.8141 266.327 61.6821 266.195C61.5501 266.063 61.4841 265.902 61.4841 265.711C61.4841 265.52 61.5501 265.359 61.6821 265.227C61.8141 265.095 61.9755 265.029 62.1661 265.029C62.3495 265.029 62.5035 265.095 62.6281 265.227C62.7601 265.359 62.8261 265.52 62.8261 265.711C62.8261 265.902 62.7601 266.063 62.6281 266.195C62.5035 266.327 62.3495 266.393 62.1661 266.393ZM62.6501 267.372V273.4H61.6491V267.372H62.6501ZM69.8562 270.155C69.8562 270.346 69.8452 270.547 69.8232 270.76H65.0052C65.0418 271.354 65.2435 271.82 65.6102 272.157C65.9842 272.487 66.4352 272.652 66.9632 272.652C67.3958 272.652 67.7552 272.553 68.0412 272.355C68.3345 272.15 68.5398 271.878 68.6572 271.541H69.7352C69.5738 272.12 69.2512 272.593 68.7672 272.96C68.2832 273.319 67.6818 273.499 66.9632 273.499C66.3912 273.499 65.8778 273.371 65.4232 273.114C64.9758 272.857 64.6238 272.494 64.3672 272.025C64.1105 271.548 63.9822 270.998 63.9822 270.375C63.9822 269.752 64.1068 269.205 64.3562 268.736C64.6055 268.267 64.9538 267.907 65.4012 267.658C65.8558 267.401 66.3765 267.273 66.9632 267.273C67.5352 267.273 68.0412 267.398 68.4812 267.647C68.9212 267.896 69.2585 268.241 69.4932 268.681C69.7352 269.114 69.8562 269.605 69.8562 270.155ZM68.8222 269.946C68.8222 269.565 68.7378 269.238 68.5692 268.967C68.4005 268.688 68.1695 268.479 67.8762 268.34C67.5902 268.193 67.2712 268.12 66.9192 268.12C66.4132 268.12 65.9805 268.281 65.6212 268.604C65.2692 268.927 65.0675 269.374 65.0162 269.946H68.8222ZM73.4215 272.476L75.2915 267.372H76.3585L73.9935 273.4H72.8275L70.4625 267.372H71.5405L73.4215 272.476ZM82.8435 270.155C82.8435 270.346 82.8325 270.547 82.8105 270.76H77.9925C78.0291 271.354 78.2308 271.82 78.5975 272.157C78.9715 272.487 79.4225 272.652 79.9505 272.652C80.3831 272.652 80.7425 272.553 81.0285 272.355C81.3218 272.15 81.5271 271.878 81.6445 271.541H82.7225C82.5611 272.12 82.2385 272.593 81.7545 272.96C81.2705 273.319 80.6691 273.499 79.9505 273.499C79.3785 273.499 78.8651 273.371 78.4105 273.114C77.9631 272.857 77.6111 272.494 77.3545 272.025C77.0978 271.548 76.9695 270.998 76.9695 270.375C76.9695 269.752 77.0941 269.205 77.3435 268.736C77.5928 268.267 77.9411 267.907 78.3885 267.658C78.8431 267.401 79.3638 267.273 79.9505 267.273C80.5225 267.273 81.0285 267.398 81.4685 267.647C81.9085 267.896 82.2458 268.241 82.4805 268.681C82.7225 269.114 82.8435 269.605 82.8435 270.155ZM81.8095 269.946C81.8095 269.565 81.7251 269.238 81.5565 268.967C81.3878 268.688 81.1568 268.479 80.8635 268.34C80.5775 268.193 80.2585 268.12 79.9065 268.12C79.4005 268.12 78.9678 268.281 78.6085 268.604C78.2565 268.927 78.0548 269.374 78.0035 269.946H81.8095ZM90.5734 273.477C89.8621 273.477 89.2131 273.312 88.6264 272.982C88.0397 272.645 87.5741 272.179 87.2294 271.585C86.8921 270.984 86.7234 270.309 86.7234 269.561C86.7234 268.813 86.8921 268.142 87.2294 267.548C87.5741 266.947 88.0397 266.481 88.6264 266.151C89.2131 265.814 89.8621 265.645 90.5734 265.645C91.2921 265.645 91.9447 265.814 92.5314 266.151C93.1181 266.481 93.5801 266.943 93.9174 267.537C94.2547 268.131 94.4234 268.806 94.4234 269.561C94.4234 270.316 94.2547 270.991 93.9174 271.585C93.5801 272.179 93.1181 272.645 92.5314 272.982C91.9447 273.312 91.2921 273.477 90.5734 273.477ZM90.5734 272.608C91.1087 272.608 91.5891 272.483 92.0144 272.234C92.4471 271.985 92.7844 271.629 93.0264 271.167C93.2757 270.705 93.4004 270.17 93.4004 269.561C93.4004 268.945 93.2757 268.41 93.0264 267.955C92.7844 267.493 92.4507 267.137 92.0254 266.888C91.6001 266.639 91.1161 266.514 90.5734 266.514C90.0307 266.514 89.5467 266.639 89.1214 266.888C88.6961 267.137 88.3587 267.493 88.1094 267.955C87.8674 268.41 87.7464 268.945 87.7464 269.561C87.7464 270.17 87.8674 270.705 88.1094 271.167C88.3587 271.629 88.6961 271.985 89.1214 272.234C89.5541 272.483 90.0381 272.608 90.5734 272.608ZM96.7459 268.483C96.9439 268.138 97.2372 267.852 97.6259 267.625C98.0219 267.39 98.4802 267.273 99.0009 267.273C99.5362 267.273 100.02 267.401 100.453 267.658C100.893 267.915 101.238 268.278 101.487 268.747C101.736 269.209 101.861 269.748 101.861 270.364C101.861 270.973 101.736 271.515 101.487 271.992C101.238 272.469 100.893 272.839 100.453 273.103C100.02 273.367 99.5362 273.499 99.0009 273.499C98.4875 273.499 98.0329 273.385 97.6369 273.158C97.2482 272.923 96.9512 272.634 96.7459 272.289V276.26H95.7449V267.372H96.7459V268.483ZM100.838 270.364C100.838 269.909 100.746 269.513 100.563 269.176C100.38 268.839 100.13 268.582 99.8149 268.406C99.5069 268.23 99.1659 268.142 98.7919 268.142C98.4252 268.142 98.0842 268.234 97.7689 268.417C97.4609 268.593 97.2115 268.853 97.0209 269.198C96.8375 269.535 96.7459 269.928 96.7459 270.375C96.7459 270.83 96.8375 271.229 97.0209 271.574C97.2115 271.911 97.4609 272.172 97.7689 272.355C98.0842 272.531 98.4252 272.619 98.7919 272.619C99.1659 272.619 99.5069 272.531 99.8149 272.355C100.13 272.172 100.38 271.911 100.563 271.574C100.746 271.229 100.838 270.826 100.838 270.364ZM104.399 268.197V271.75C104.399 272.043 104.462 272.252 104.586 272.377C104.711 272.494 104.927 272.553 105.235 272.553H105.972V273.4H105.07C104.513 273.4 104.095 273.272 103.816 273.015C103.538 272.758 103.398 272.337 103.398 271.75V268.197H102.617V267.372H103.398V265.854H104.399V267.372H105.972V268.197H104.399ZM107.702 266.393C107.512 266.393 107.35 266.327 107.218 266.195C107.086 266.063 107.02 265.902 107.02 265.711C107.02 265.52 107.086 265.359 107.218 265.227C107.35 265.095 107.512 265.029 107.702 265.029C107.886 265.029 108.04 265.095 108.164 265.227C108.296 265.359 108.362 265.52 108.362 265.711C108.362 265.902 108.296 266.063 108.164 266.195C108.04 266.327 107.886 266.393 107.702 266.393ZM108.186 267.372V273.4H107.185V267.372H108.186ZM117.141 267.262C117.611 267.262 118.029 267.361 118.395 267.559C118.762 267.75 119.052 268.039 119.264 268.428C119.477 268.817 119.583 269.29 119.583 269.847V273.4H118.593V269.99C118.593 269.389 118.443 268.93 118.142 268.615C117.849 268.292 117.449 268.131 116.943 268.131C116.423 268.131 116.008 268.3 115.7 268.637C115.392 268.967 115.238 269.447 115.238 270.078V273.4H114.248V269.99C114.248 269.389 114.098 268.93 113.797 268.615C113.504 268.292 113.104 268.131 112.598 268.131C112.078 268.131 111.663 268.3 111.355 268.637C111.047 268.967 110.893 269.447 110.893 270.078V273.4H109.892V267.372H110.893V268.241C111.091 267.926 111.355 267.684 111.685 267.515C112.023 267.346 112.393 267.262 112.796 267.262C113.302 267.262 113.75 267.376 114.138 267.603C114.527 267.83 114.817 268.164 115.007 268.604C115.176 268.179 115.455 267.849 115.843 267.614C116.232 267.379 116.665 267.262 117.141 267.262ZM120.851 270.364C120.851 269.748 120.976 269.209 121.225 268.747C121.475 268.278 121.816 267.915 122.248 267.658C122.688 267.401 123.176 267.273 123.711 267.273C124.239 267.273 124.698 267.387 125.086 267.614C125.475 267.841 125.765 268.127 125.955 268.472V267.372H126.967V273.4H125.955V272.278C125.757 272.63 125.46 272.923 125.064 273.158C124.676 273.385 124.221 273.499 123.7 273.499C123.165 273.499 122.681 273.367 122.248 273.103C121.816 272.839 121.475 272.469 121.225 271.992C120.976 271.515 120.851 270.973 120.851 270.364ZM125.955 270.375C125.955 269.92 125.864 269.524 125.68 269.187C125.497 268.85 125.248 268.593 124.932 268.417C124.624 268.234 124.283 268.142 123.909 268.142C123.535 268.142 123.194 268.23 122.886 268.406C122.578 268.582 122.333 268.839 122.149 269.176C121.966 269.513 121.874 269.909 121.874 270.364C121.874 270.826 121.966 271.229 122.149 271.574C122.333 271.911 122.578 272.172 122.886 272.355C123.194 272.531 123.535 272.619 123.909 272.619C124.283 272.619 124.624 272.531 124.932 272.355C125.248 272.172 125.497 271.911 125.68 271.574C125.864 271.229 125.955 270.83 125.955 270.375ZM129.66 265.26V273.4H128.659V265.26H129.66ZM140.206 265.733V273.4H139.205V269.924H135.3V273.4H134.299V265.733H135.3V269.099H139.205V265.733H140.206ZM147.415 270.155C147.415 270.346 147.404 270.547 147.382 270.76H142.564C142.6 271.354 142.802 271.82 143.169 272.157C143.543 272.487 143.994 272.652 144.522 272.652C144.954 272.652 145.314 272.553 145.6 272.355C145.893 272.15 146.098 271.878 146.216 271.541H147.294C147.132 272.12 146.81 272.593 146.326 272.96C145.842 273.319 145.24 273.499 144.522 273.499C143.95 273.499 143.436 273.371 142.982 273.114C142.534 272.857 142.182 272.494 141.926 272.025C141.669 271.548 141.541 270.998 141.541 270.375C141.541 269.752 141.665 269.205 141.915 268.736C142.164 268.267 142.512 267.907 142.96 267.658C143.414 267.401 143.935 267.273 144.522 267.273C145.094 267.273 145.6 267.398 146.04 267.647C146.48 267.896 146.817 268.241 147.052 268.681C147.294 269.114 147.415 269.605 147.415 270.155ZM146.381 269.946C146.381 269.565 146.296 269.238 146.128 268.967C145.959 268.688 145.728 268.479 145.435 268.34C145.149 268.193 144.83 268.12 144.478 268.12C143.972 268.12 143.539 268.281 143.18 268.604C142.828 268.927 142.626 269.374 142.575 269.946H146.381ZM148.362 270.364C148.362 269.748 148.487 269.209 148.736 268.747C148.985 268.278 149.326 267.915 149.759 267.658C150.199 267.401 150.687 267.273 151.222 267.273C151.75 267.273 152.208 267.387 152.597 267.614C152.986 267.841 153.275 268.127 153.466 268.472V267.372H154.478V273.4H153.466V272.278C153.268 272.63 152.971 272.923 152.575 273.158C152.186 273.385 151.732 273.499 151.211 273.499C150.676 273.499 150.192 273.367 149.759 273.103C149.326 272.839 148.985 272.469 148.736 271.992C148.487 271.515 148.362 270.973 148.362 270.364ZM153.466 270.375C153.466 269.92 153.374 269.524 153.191 269.187C153.008 268.85 152.758 268.593 152.443 268.417C152.135 268.234 151.794 268.142 151.42 268.142C151.046 268.142 150.705 268.23 150.397 268.406C150.089 268.582 149.843 268.839 149.66 269.176C149.477 269.513 149.385 269.909 149.385 270.364C149.385 270.826 149.477 271.229 149.66 271.574C149.843 271.911 150.089 272.172 150.397 272.355C150.705 272.531 151.046 272.619 151.42 272.619C151.794 272.619 152.135 272.531 152.443 272.355C152.758 272.172 153.008 271.911 153.191 271.574C153.374 271.229 153.466 270.83 153.466 270.375ZM157.171 265.26V273.4H156.17V265.26H157.171ZM160.098 268.197V271.75C160.098 272.043 160.16 272.252 160.285 272.377C160.409 272.494 160.626 272.553 160.934 272.553H161.671V273.4H160.769C160.211 273.4 159.793 273.272 159.515 273.015C159.236 272.758 159.097 272.337 159.097 271.75V268.197H158.316V267.372H159.097V265.854H160.098V267.372H161.671V268.197H160.098ZM165.876 267.262C166.33 267.262 166.741 267.361 167.108 267.559C167.474 267.75 167.76 268.039 167.966 268.428C168.178 268.817 168.285 269.29 168.285 269.847V273.4H167.295V269.99C167.295 269.389 167.144 268.93 166.844 268.615C166.543 268.292 166.132 268.131 165.612 268.131C165.084 268.131 164.662 268.296 164.347 268.626C164.039 268.956 163.885 269.436 163.885 270.067V273.4H162.884V265.26H163.885V268.23C164.083 267.922 164.354 267.684 164.699 267.515C165.051 267.346 165.443 267.262 165.876 267.262ZM177.384 271.695H174.04L173.424 273.4H172.368L175.14 265.777H176.295L179.056 273.4H178L177.384 271.695ZM177.098 270.881L175.712 267.009L174.326 270.881H177.098ZM183.201 267.262C183.935 267.262 184.529 267.486 184.983 267.933C185.438 268.373 185.665 269.011 185.665 269.847V273.4H184.675V269.99C184.675 269.389 184.525 268.93 184.224 268.615C183.924 268.292 183.513 268.131 182.992 268.131C182.464 268.131 182.043 268.296 181.727 268.626C181.419 268.956 181.265 269.436 181.265 270.067V273.4H180.264V267.372H181.265V268.23C181.463 267.922 181.731 267.684 182.068 267.515C182.413 267.346 182.791 267.262 183.201 267.262ZM186.927 270.364C186.927 269.748 187.051 269.209 187.301 268.747C187.55 268.278 187.891 267.915 188.324 267.658C188.764 267.401 189.255 267.273 189.798 267.273C190.267 267.273 190.703 267.383 191.107 267.603C191.51 267.816 191.818 268.098 192.031 268.45V265.26H193.043V273.4H192.031V272.267C191.833 272.626 191.539 272.923 191.151 273.158C190.762 273.385 190.307 273.499 189.787 273.499C189.251 273.499 188.764 273.367 188.324 273.103C187.891 272.839 187.55 272.469 187.301 271.992C187.051 271.515 186.927 270.973 186.927 270.364ZM192.031 270.375C192.031 269.92 191.939 269.524 191.756 269.187C191.572 268.85 191.323 268.593 191.008 268.417C190.7 268.234 190.359 268.142 189.985 268.142C189.611 268.142 189.27 268.23 188.962 268.406C188.654 268.582 188.408 268.839 188.225 269.176C188.041 269.513 187.95 269.909 187.95 270.364C187.95 270.826 188.041 271.229 188.225 271.574C188.408 271.911 188.654 272.172 188.962 272.355C189.27 272.531 189.611 272.619 189.985 272.619C190.359 272.619 190.7 272.531 191.008 272.355C191.323 272.172 191.572 271.911 191.756 271.574C191.939 271.229 192.031 270.83 192.031 270.375ZM51.261 289.733V290.547H47.928V293.132H50.634V293.946H47.928V297.4H46.927V289.733H51.261ZM52.9869 290.393C52.7963 290.393 52.6349 290.327 52.5029 290.195C52.3709 290.063 52.3049 289.902 52.3049 289.711C52.3049 289.52 52.3709 289.359 52.5029 289.227C52.6349 289.095 52.7963 289.029 52.9869 289.029C53.1703 289.029 53.3243 289.095 53.4489 289.227C53.5809 289.359 53.6469 289.52 53.6469 289.711C53.6469 289.902 53.5809 290.063 53.4489 290.195C53.3243 290.327 53.1703 290.393 52.9869 290.393ZM53.4709 291.372V297.4H52.4699V291.372H53.4709ZM56.398 292.197V295.75C56.398 296.043 56.4603 296.252 56.585 296.377C56.7096 296.494 56.926 296.553 57.234 296.553H57.971V297.4H57.069C56.5116 297.4 56.0936 297.272 55.815 297.015C55.5363 296.758 55.397 296.337 55.397 295.75V292.197H54.616V291.372H55.397V289.854H56.398V291.372H57.971V292.197H56.398ZM62.1208 291.262C62.8541 291.262 63.4481 291.486 63.9028 291.933C64.3575 292.373 64.5848 293.011 64.5848 293.847V297.4H63.5948V293.99C63.5948 293.389 63.4445 292.93 63.1438 292.615C62.8431 292.292 62.4325 292.131 61.9118 292.131C61.3838 292.131 60.9621 292.296 60.6468 292.626C60.3388 292.956 60.1848 293.436 60.1848 294.067V297.4H59.1838V291.372H60.1848V292.23C60.3828 291.922 60.6505 291.684 60.9878 291.515C61.3325 291.346 61.7101 291.262 62.1208 291.262ZM71.7199 294.155C71.7199 294.346 71.7089 294.547 71.6869 294.76H66.8689C66.9056 295.354 67.1073 295.82 67.4739 296.157C67.8479 296.487 68.2989 296.652 68.8269 296.652C69.2596 296.652 69.6189 296.553 69.9049 296.355C70.1983 296.15 70.4036 295.878 70.5209 295.541H71.5989C71.4376 296.12 71.1149 296.593 70.6309 296.96C70.1469 297.319 69.5456 297.499 68.8269 297.499C68.2549 297.499 67.7416 297.371 67.2869 297.114C66.8396 296.857 66.4876 296.494 66.2309 296.025C65.9743 295.548 65.8459 294.998 65.8459 294.375C65.8459 293.752 65.9706 293.205 66.2199 292.736C66.4693 292.267 66.8176 291.907 67.2649 291.658C67.7196 291.401 68.2403 291.273 68.8269 291.273C69.3989 291.273 69.9049 291.398 70.3449 291.647C70.7849 291.896 71.1223 292.241 71.3569 292.681C71.5989 293.114 71.7199 293.605 71.7199 294.155ZM70.6859 293.946C70.6859 293.565 70.6016 293.238 70.4329 292.967C70.2643 292.688 70.0333 292.479 69.7399 292.34C69.4539 292.193 69.1349 292.12 68.7829 292.12C68.2769 292.12 67.8443 292.281 67.4849 292.604C67.1329 292.927 66.9313 293.374 66.8799 293.946H70.6859ZM75.1752 297.499C74.7132 297.499 74.2989 297.422 73.9322 297.268C73.5656 297.107 73.2759 296.887 73.0632 296.608C72.8506 296.322 72.7332 295.996 72.7112 295.629H73.7452C73.7746 295.93 73.9139 296.175 74.1632 296.366C74.4199 296.557 74.7536 296.652 75.1642 296.652C75.5456 296.652 75.8462 296.568 76.0662 296.399C76.2862 296.23 76.3962 296.018 76.3962 295.761C76.3962 295.497 76.2789 295.303 76.0442 295.178C75.8096 295.046 75.4466 294.918 74.9552 294.793C74.5079 294.676 74.1412 294.558 73.8552 294.441C73.5766 294.316 73.3346 294.137 73.1292 293.902C72.9312 293.66 72.8322 293.345 72.8322 292.956C72.8322 292.648 72.9239 292.366 73.1072 292.109C73.2906 291.852 73.5509 291.651 73.8882 291.504C74.2256 291.35 74.6106 291.273 75.0432 291.273C75.7106 291.273 76.2496 291.442 76.6602 291.779C77.0709 292.116 77.2909 292.578 77.3202 293.165H76.3192C76.2972 292.85 76.1689 292.597 75.9342 292.406C75.7069 292.215 75.3989 292.12 75.0102 292.12C74.6509 292.12 74.3649 292.197 74.1522 292.351C73.9396 292.505 73.8332 292.707 73.8332 292.956C73.8332 293.154 73.8956 293.319 74.0202 293.451C74.1522 293.576 74.3136 293.678 74.5042 293.759C74.7022 293.832 74.9736 293.917 75.3182 294.012C75.7509 294.129 76.1029 294.247 76.3742 294.364C76.6456 294.474 76.8766 294.643 77.0672 294.87C77.2652 295.097 77.3679 295.394 77.3752 295.761C77.3752 296.091 77.2836 296.388 77.1002 296.652C76.9169 296.916 76.6566 297.125 76.3192 297.279C75.9892 297.426 75.6079 297.499 75.1752 297.499ZM80.9223 297.499C80.4603 297.499 80.046 297.422 79.6793 297.268C79.3126 297.107 79.023 296.887 78.8103 296.608C78.5976 296.322 78.4803 295.996 78.4583 295.629H79.4923C79.5216 295.93 79.661 296.175 79.9103 296.366C80.167 296.557 80.5006 296.652 80.9113 296.652C81.2926 296.652 81.5933 296.568 81.8133 296.399C82.0333 296.23 82.1433 296.018 82.1433 295.761C82.1433 295.497 82.026 295.303 81.7913 295.178C81.5566 295.046 81.1936 294.918 80.7023 294.793C80.255 294.676 79.8883 294.558 79.6023 294.441C79.3236 294.316 79.0816 294.137 78.8763 293.902C78.6783 293.66 78.5793 293.345 78.5793 292.956C78.5793 292.648 78.671 292.366 78.8543 292.109C79.0376 291.852 79.298 291.651 79.6353 291.504C79.9726 291.35 80.3576 291.273 80.7903 291.273C81.4576 291.273 81.9966 291.442 82.4073 291.779C82.818 292.116 83.038 292.578 83.0673 293.165H82.0663C82.0443 292.85 81.916 292.597 81.6813 292.406C81.454 292.215 81.146 292.12 80.7573 292.12C80.398 292.12 80.112 292.197 79.8993 292.351C79.6866 292.505 79.5803 292.707 79.5803 292.956C79.5803 293.154 79.6426 293.319 79.7673 293.451C79.8993 293.576 80.0606 293.678 80.2513 293.759C80.4493 293.832 80.7206 293.917 81.0653 294.012C81.498 294.129 81.85 294.247 82.1213 294.364C82.3926 294.474 82.6236 294.643 82.8143 294.87C83.0123 295.097 83.115 295.394 83.1223 295.761C83.1223 296.091 83.0306 296.388 82.8473 296.652C82.664 296.916 82.4036 297.125 82.0663 297.279C81.7363 297.426 81.355 297.499 80.9223 297.499ZM92.187 289.733V290.547H90.097V297.4H89.096V290.547H86.995V289.733H92.187ZM96.4112 291.262C96.8658 291.262 97.2765 291.361 97.6432 291.559C98.0098 291.75 98.2958 292.039 98.5012 292.428C98.7138 292.817 98.8202 293.29 98.8202 293.847V297.4H97.8302V293.99C97.8302 293.389 97.6798 292.93 97.3792 292.615C97.0785 292.292 96.6678 292.131 96.1472 292.131C95.6192 292.131 95.1975 292.296 94.8822 292.626C94.5742 292.956 94.4202 293.436 94.4202 294.067V297.4H93.4192V289.26H94.4202V292.23C94.6182 291.922 94.8895 291.684 95.2342 291.515C95.5862 291.346 95.9785 291.262 96.4112 291.262ZM101.456 292.351C101.632 292.006 101.882 291.739 102.204 291.548C102.534 291.357 102.934 291.262 103.403 291.262V292.296H103.139C102.017 292.296 101.456 292.905 101.456 294.122V297.4H100.455V291.372H101.456V292.351ZM107.188 297.499C106.623 297.499 106.11 297.371 105.648 297.114C105.193 296.857 104.834 296.494 104.57 296.025C104.313 295.548 104.185 294.998 104.185 294.375C104.185 293.759 104.317 293.216 104.581 292.747C104.852 292.27 105.219 291.907 105.681 291.658C106.143 291.401 106.66 291.273 107.232 291.273C107.804 291.273 108.321 291.401 108.783 291.658C109.245 291.907 109.608 292.267 109.872 292.736C110.143 293.205 110.279 293.752 110.279 294.375C110.279 294.998 110.139 295.548 109.861 296.025C109.589 296.494 109.219 296.857 108.75 297.114C108.28 297.371 107.76 297.499 107.188 297.499ZM107.188 296.619C107.547 296.619 107.884 296.535 108.2 296.366C108.515 296.197 108.768 295.944 108.959 295.607C109.157 295.27 109.256 294.859 109.256 294.375C109.256 293.891 109.16 293.48 108.97 293.143C108.779 292.806 108.53 292.556 108.222 292.395C107.914 292.226 107.58 292.142 107.221 292.142C106.854 292.142 106.517 292.226 106.209 292.395C105.908 292.556 105.666 292.806 105.483 293.143C105.299 293.48 105.208 293.891 105.208 294.375C105.208 294.866 105.296 295.281 105.472 295.618C105.655 295.955 105.897 296.208 106.198 296.377C106.498 296.538 106.828 296.619 107.188 296.619ZM116.941 291.372V297.4H115.94V296.509C115.749 296.817 115.482 297.059 115.137 297.235C114.8 297.404 114.426 297.488 114.015 297.488C113.546 297.488 113.124 297.393 112.75 297.202C112.376 297.004 112.079 296.711 111.859 296.322C111.646 295.933 111.54 295.46 111.54 294.903V291.372H112.53V294.771C112.53 295.365 112.68 295.823 112.981 296.146C113.282 296.461 113.692 296.619 114.213 296.619C114.748 296.619 115.17 296.454 115.478 296.124C115.786 295.794 115.94 295.314 115.94 294.683V291.372H116.941ZM121.117 291.273C121.638 291.273 122.092 291.387 122.481 291.614C122.877 291.841 123.17 292.127 123.361 292.472V291.372H124.373V297.532C124.373 298.082 124.256 298.57 124.021 298.995C123.786 299.428 123.449 299.765 123.009 300.007C122.576 300.249 122.07 300.37 121.491 300.37C120.699 300.37 120.039 300.183 119.511 299.809C118.983 299.435 118.671 298.925 118.576 298.28H119.566C119.676 298.647 119.903 298.94 120.248 299.16C120.593 299.387 121.007 299.501 121.491 299.501C122.041 299.501 122.488 299.329 122.833 298.984C123.185 298.639 123.361 298.155 123.361 297.532V296.267C123.163 296.619 122.87 296.912 122.481 297.147C122.092 297.382 121.638 297.499 121.117 297.499C120.582 297.499 120.094 297.367 119.654 297.103C119.221 296.839 118.88 296.469 118.631 295.992C118.382 295.515 118.257 294.973 118.257 294.364C118.257 293.748 118.382 293.209 118.631 292.747C118.88 292.278 119.221 291.915 119.654 291.658C120.094 291.401 120.582 291.273 121.117 291.273ZM123.361 294.375C123.361 293.92 123.269 293.524 123.086 293.187C122.903 292.85 122.653 292.593 122.338 292.417C122.03 292.234 121.689 292.142 121.315 292.142C120.941 292.142 120.6 292.23 120.292 292.406C119.984 292.582 119.738 292.839 119.555 293.176C119.372 293.513 119.28 293.909 119.28 294.364C119.28 294.826 119.372 295.229 119.555 295.574C119.738 295.911 119.984 296.172 120.292 296.355C120.6 296.531 120.941 296.619 121.315 296.619C121.689 296.619 122.03 296.531 122.338 296.355C122.653 296.172 122.903 295.911 123.086 295.574C123.269 295.229 123.361 294.83 123.361 294.375ZM129.057 291.262C129.511 291.262 129.922 291.361 130.289 291.559C130.655 291.75 130.941 292.039 131.147 292.428C131.359 292.817 131.466 293.29 131.466 293.847V297.4H130.476V293.99C130.476 293.389 130.325 292.93 130.025 292.615C129.724 292.292 129.313 292.131 128.793 292.131C128.265 292.131 127.843 292.296 127.528 292.626C127.22 292.956 127.066 293.436 127.066 294.067V297.4H126.065V289.26H127.066V292.23C127.264 291.922 127.535 291.684 127.88 291.515C128.232 291.346 128.624 291.262 129.057 291.262ZM139.872 293.451C140.151 293.495 140.404 293.609 140.631 293.792C140.866 293.975 141.049 294.203 141.181 294.474C141.321 294.745 141.39 295.035 141.39 295.343C141.39 295.732 141.291 296.084 141.093 296.399C140.895 296.707 140.606 296.953 140.224 297.136C139.85 297.312 139.407 297.4 138.893 297.4H136.033V289.733H138.783C139.304 289.733 139.748 289.821 140.114 289.997C140.481 290.166 140.756 290.397 140.939 290.69C141.123 290.983 141.214 291.313 141.214 291.68C141.214 292.135 141.09 292.512 140.84 292.813C140.598 293.106 140.276 293.319 139.872 293.451ZM137.034 293.044H138.717C139.187 293.044 139.55 292.934 139.806 292.714C140.063 292.494 140.191 292.19 140.191 291.801C140.191 291.412 140.063 291.108 139.806 290.888C139.55 290.668 139.179 290.558 138.695 290.558H137.034V293.044ZM138.805 296.575C139.304 296.575 139.693 296.458 139.971 296.223C140.25 295.988 140.389 295.662 140.389 295.244C140.389 294.819 140.243 294.485 139.949 294.243C139.656 293.994 139.264 293.869 138.772 293.869H137.034V296.575H138.805ZM142.406 294.364C142.406 293.748 142.53 293.209 142.78 292.747C143.029 292.278 143.37 291.915 143.803 291.658C144.243 291.401 144.73 291.273 145.266 291.273C145.794 291.273 146.252 291.387 146.641 291.614C147.029 291.841 147.319 292.127 147.51 292.472V291.372H148.522V297.4H147.51V296.278C147.312 296.63 147.015 296.923 146.619 297.158C146.23 297.385 145.775 297.499 145.255 297.499C144.719 297.499 144.235 297.367 143.803 297.103C143.37 296.839 143.029 296.469 142.78 295.992C142.53 295.515 142.406 294.973 142.406 294.364ZM147.51 294.375C147.51 293.92 147.418 293.524 147.235 293.187C147.051 292.85 146.802 292.593 146.487 292.417C146.179 292.234 145.838 292.142 145.464 292.142C145.09 292.142 144.749 292.23 144.441 292.406C144.133 292.582 143.887 292.839 143.704 293.176C143.52 293.513 143.429 293.909 143.429 294.364C143.429 294.826 143.52 295.229 143.704 295.574C143.887 295.911 144.133 296.172 144.441 296.355C144.749 296.531 145.09 296.619 145.464 296.619C145.838 296.619 146.179 296.531 146.487 296.355C146.802 296.172 147.051 295.911 147.235 295.574C147.418 295.229 147.51 294.83 147.51 294.375ZM151.214 289.26V297.4H150.213V289.26H151.214ZM152.546 294.364C152.546 293.748 152.671 293.209 152.92 292.747C153.169 292.278 153.51 291.915 153.943 291.658C154.383 291.401 154.871 291.273 155.406 291.273C155.934 291.273 156.392 291.387 156.781 291.614C157.17 291.841 157.459 292.127 157.65 292.472V291.372H158.662V297.4H157.65V296.278C157.452 296.63 157.155 296.923 156.759 297.158C156.37 297.385 155.916 297.499 155.395 297.499C154.86 297.499 154.376 297.367 153.943 297.103C153.51 296.839 153.169 296.469 152.92 295.992C152.671 295.515 152.546 294.973 152.546 294.364ZM157.65 294.375C157.65 293.92 157.558 293.524 157.375 293.187C157.192 292.85 156.942 292.593 156.627 292.417C156.319 292.234 155.978 292.142 155.604 292.142C155.23 292.142 154.889 292.23 154.581 292.406C154.273 292.582 154.027 292.839 153.844 293.176C153.661 293.513 153.569 293.909 153.569 294.364C153.569 294.826 153.661 295.229 153.844 295.574C154.027 295.911 154.273 296.172 154.581 296.355C154.889 296.531 155.23 296.619 155.604 296.619C155.978 296.619 156.319 296.531 156.627 296.355C156.942 296.172 157.192 295.911 157.375 295.574C157.558 295.229 157.65 294.83 157.65 294.375ZM163.291 291.262C164.024 291.262 164.618 291.486 165.073 291.933C165.527 292.373 165.755 293.011 165.755 293.847V297.4H164.765V293.99C164.765 293.389 164.614 292.93 164.314 292.615C164.013 292.292 163.602 292.131 163.082 292.131C162.554 292.131 162.132 292.296 161.817 292.626C161.509 292.956 161.355 293.436 161.355 294.067V297.4H160.354V291.372H161.355V292.23C161.553 291.922 161.82 291.684 162.158 291.515C162.502 291.346 162.88 291.262 163.291 291.262ZM167.016 294.375C167.016 293.752 167.141 293.209 167.39 292.747C167.639 292.278 167.984 291.915 168.424 291.658C168.871 291.401 169.381 291.273 169.953 291.273C170.694 291.273 171.302 291.453 171.779 291.812C172.263 292.171 172.582 292.67 172.736 293.308H171.658C171.555 292.941 171.354 292.652 171.053 292.439C170.76 292.226 170.393 292.12 169.953 292.12C169.381 292.12 168.919 292.318 168.567 292.714C168.215 293.103 168.039 293.656 168.039 294.375C168.039 295.101 168.215 295.662 168.567 296.058C168.919 296.454 169.381 296.652 169.953 296.652C170.393 296.652 170.76 296.549 171.053 296.344C171.346 296.139 171.548 295.845 171.658 295.464H172.736C172.575 296.08 172.252 296.575 171.768 296.949C171.284 297.316 170.679 297.499 169.953 297.499C169.381 297.499 168.871 297.371 168.424 297.114C167.984 296.857 167.639 296.494 167.39 296.025C167.141 295.556 167.016 295.006 167.016 294.375ZM179.572 294.155C179.572 294.346 179.561 294.547 179.539 294.76H174.721C174.757 295.354 174.959 295.82 175.326 296.157C175.7 296.487 176.151 296.652 176.679 296.652C177.111 296.652 177.471 296.553 177.757 296.355C178.05 296.15 178.255 295.878 178.373 295.541H179.451C179.289 296.12 178.967 296.593 178.483 296.96C177.999 297.319 177.397 297.499 176.679 297.499C176.107 297.499 175.593 297.371 175.139 297.114C174.691 296.857 174.339 296.494 174.083 296.025C173.826 295.548 173.698 294.998 173.698 294.375C173.698 293.752 173.822 293.205 174.072 292.736C174.321 292.267 174.669 291.907 175.117 291.658C175.571 291.401 176.092 291.273 176.679 291.273C177.251 291.273 177.757 291.398 178.197 291.647C178.637 291.896 178.974 292.241 179.209 292.681C179.451 293.114 179.572 293.605 179.572 294.155ZM178.538 293.946C178.538 293.565 178.453 293.238 178.285 292.967C178.116 292.688 177.885 292.479 177.592 292.34C177.306 292.193 176.987 292.12 176.635 292.12C176.129 292.12 175.696 292.281 175.337 292.604C174.985 292.927 174.783 293.374 174.732 293.946H178.538ZM180.519 294.364C180.519 293.748 180.643 293.209 180.893 292.747C181.142 292.278 181.483 291.915 181.916 291.658C182.356 291.401 182.847 291.273 183.39 291.273C183.859 291.273 184.295 291.383 184.699 291.603C185.102 291.816 185.41 292.098 185.623 292.45V289.26H186.635V297.4H185.623V296.267C185.425 296.626 185.131 296.923 184.743 297.158C184.354 297.385 183.899 297.499 183.379 297.499C182.843 297.499 182.356 297.367 181.916 297.103C181.483 296.839 181.142 296.469 180.893 295.992C180.643 295.515 180.519 294.973 180.519 294.364ZM185.623 294.375C185.623 293.92 185.531 293.524 185.348 293.187C185.164 292.85 184.915 292.593 184.6 292.417C184.292 292.234 183.951 292.142 183.577 292.142C183.203 292.142 182.862 292.23 182.554 292.406C182.246 292.582 182 292.839 181.817 293.176C181.633 293.513 181.542 293.909 181.542 294.364C181.542 294.826 181.633 295.229 181.817 295.574C182 295.911 182.246 296.172 182.554 296.355C182.862 296.531 183.203 296.619 183.577 296.619C183.951 296.619 184.292 296.531 184.6 296.355C184.915 296.172 185.164 295.911 185.348 295.574C185.531 295.229 185.623 294.83 185.623 294.375ZM99.3129 321.4H98.3119L94.2859 315.295V321.4H93.2849V313.722H94.2859L98.3119 319.816V313.722H99.3129V321.4ZM106.365 315.372V321.4H105.364V320.509C105.174 320.817 104.906 321.059 104.561 321.235C104.224 321.404 103.85 321.488 103.439 321.488C102.97 321.488 102.548 321.393 102.174 321.202C101.8 321.004 101.503 320.711 101.283 320.322C101.071 319.933 100.964 319.46 100.964 318.903V315.372H101.954V318.771C101.954 319.365 102.105 319.823 102.405 320.146C102.706 320.461 103.117 320.619 103.637 320.619C104.173 320.619 104.594 320.454 104.902 320.124C105.21 319.794 105.364 319.314 105.364 318.683V315.372H106.365ZM109.276 316.197V319.75C109.276 320.043 109.339 320.252 109.463 320.377C109.588 320.494 109.804 320.553 110.112 320.553H110.849V321.4H109.947C109.39 321.4 108.972 321.272 108.693 321.015C108.415 320.758 108.275 320.337 108.275 319.75V316.197H107.494V315.372H108.275V313.854H109.276V315.372H110.849V316.197H109.276ZM113.063 316.351C113.239 316.006 113.489 315.739 113.811 315.548C114.141 315.357 114.541 315.262 115.01 315.262V316.296H114.746C113.624 316.296 113.063 316.905 113.063 318.122V321.4H112.062V315.372H113.063V316.351ZM116.683 314.393C116.492 314.393 116.331 314.327 116.199 314.195C116.067 314.063 116.001 313.902 116.001 313.711C116.001 313.52 116.067 313.359 116.199 313.227C116.331 313.095 116.492 313.029 116.683 313.029C116.866 313.029 117.02 313.095 117.145 313.227C117.277 313.359 117.343 313.52 117.343 313.711C117.343 313.902 117.277 314.063 117.145 314.195C117.02 314.327 116.866 314.393 116.683 314.393ZM117.167 315.372V321.4H116.166V315.372H117.167ZM120.094 316.197V319.75C120.094 320.043 120.156 320.252 120.281 320.377C120.405 320.494 120.622 320.553 120.93 320.553H121.667V321.4H120.765C120.207 321.4 119.789 321.272 119.511 321.015C119.232 320.758 119.093 320.337 119.093 319.75V316.197H118.312V315.372H119.093V313.854H120.094V315.372H121.667V316.197H120.094ZM123.397 314.393C123.206 314.393 123.045 314.327 122.913 314.195C122.781 314.063 122.715 313.902 122.715 313.711C122.715 313.52 122.781 313.359 122.913 313.227C123.045 313.095 123.206 313.029 123.397 313.029C123.58 313.029 123.734 313.095 123.859 313.227C123.991 313.359 124.057 313.52 124.057 313.711C124.057 313.902 123.991 314.063 123.859 314.195C123.734 314.327 123.58 314.393 123.397 314.393ZM123.881 315.372V321.4H122.88V315.372H123.881ZM128.216 321.499C127.651 321.499 127.138 321.371 126.676 321.114C126.221 320.857 125.862 320.494 125.598 320.025C125.341 319.548 125.213 318.998 125.213 318.375C125.213 317.759 125.345 317.216 125.609 316.747C125.88 316.27 126.247 315.907 126.709 315.658C127.171 315.401 127.688 315.273 128.26 315.273C128.832 315.273 129.349 315.401 129.811 315.658C130.273 315.907 130.636 316.267 130.9 316.736C131.171 317.205 131.307 317.752 131.307 318.375C131.307 318.998 131.167 319.548 130.889 320.025C130.617 320.494 130.247 320.857 129.778 321.114C129.308 321.371 128.788 321.499 128.216 321.499ZM128.216 320.619C128.575 320.619 128.912 320.535 129.228 320.366C129.543 320.197 129.796 319.944 129.987 319.607C130.185 319.27 130.284 318.859 130.284 318.375C130.284 317.891 130.188 317.48 129.998 317.143C129.807 316.806 129.558 316.556 129.25 316.395C128.942 316.226 128.608 316.142 128.249 316.142C127.882 316.142 127.545 316.226 127.237 316.395C126.936 316.556 126.694 316.806 126.511 317.143C126.327 317.48 126.236 317.891 126.236 318.375C126.236 318.866 126.324 319.281 126.5 319.618C126.683 319.955 126.925 320.208 127.226 320.377C127.526 320.538 127.856 320.619 128.216 320.619ZM135.56 315.262C136.293 315.262 136.887 315.486 137.342 315.933C137.796 316.373 138.024 317.011 138.024 317.847V321.4H137.034V317.99C137.034 317.389 136.883 316.93 136.583 316.615C136.282 316.292 135.871 316.131 135.351 316.131C134.823 316.131 134.401 316.296 134.086 316.626C133.778 316.956 133.624 317.436 133.624 318.067V321.4H132.623V315.372H133.624V316.23C133.822 315.922 134.089 315.684 134.427 315.515C134.771 315.346 135.149 315.262 135.56 315.262ZM139.978 321.466C139.787 321.466 139.626 321.4 139.494 321.268C139.362 321.136 139.296 320.975 139.296 320.784C139.296 320.593 139.362 320.432 139.494 320.3C139.626 320.168 139.787 320.102 139.978 320.102C140.161 320.102 140.315 320.168 140.44 320.3C140.572 320.432 140.638 320.593 140.638 320.784C140.638 320.975 140.572 321.136 140.44 321.268C140.315 321.4 140.161 321.466 139.978 321.466Z" fill="#CFCFCF"/>
<line x1="36" y1="182.311" x2="198.069" y2="182.311" stroke="#7B7B7B" stroke-width="1.37911"/>
<path d="M123.443 25.1934H125.94V30.9512H123.443V25.1934Z" fill="#9E5E6A"/>
<path d="M118.45 25.1934H120.947V30.9512H118.45V25.1934Z" fill="#9E5E6A"/>
<path d="M117.202 36.709H142.168C142.857 36.709 143.417 36.0625 143.417 35.2695C143.417 34.4766 142.857 33.8301 142.168 33.8301H117.202C116.513 33.8301 115.953 34.4766 115.953 35.2695C115.953 36.0625 116.513 36.709 117.202 36.709Z" fill="#9B9998"/>
<path d="M128.437 25.1934H130.933V30.9512H128.437V25.1934Z" fill="#9E5E6A"/>
<path d="M133.43 25.1934H135.927V30.9512H133.43V25.1934Z" fill="#9E5E6A"/>
<path d="M138.424 25.1934H140.92V30.9512H138.424V25.1934Z" fill="#9E5E6A"/>
<path d="M138.424 20.8748C138.424 20.0818 137.864 19.4353 137.175 19.4353H122.195C121.507 19.4353 120.947 20.0818 120.947 20.8748V22.3142H138.424V20.8748Z" fill="#9B9998"/>
<path d="M153.258 55.4219H112.209V52.543H152.458C151.148 49.4051 148.583 47.0788 145.422 46.4716L138.423 45.1253V39.5879H120.946V45.1253L113.947 46.4709C110.787 47.0782 108.221 49.4058 106.911 52.5424L109.711 52.543V55.4219H106.111C106.018 56.044 105.967 56.6828 105.967 57.3337C105.967 57.8966 106.005 58.4692 106.081 59.0367L110.273 89.9696H143.416V92.8485H110.664L110.768 93.6113C111.498 99.008 115.466 102.925 120.204 102.925H139.167C143.905 102.925 147.873 99.0079 148.603 93.6113L148.706 92.8485H145.913V89.9696H149.096L153.288 59.0334C153.365 58.4692 153.403 57.8966 153.403 57.3337C153.403 56.6827 153.352 56.044 153.258 55.4219H153.258ZM137.947 82.2239C135.137 85.4628 131.447 87.0821 127.757 87.0821C124.067 87.0821 120.377 85.4627 117.567 82.2239L116.684 81.206L137.064 57.7057L137.947 58.7237C143.565 65.2026 143.565 75.7439 137.947 82.2239H137.947Z" fill="#9E8270"/>
<path d="M135.544 63.5307C136.597 65.3917 137.175 67.5785 137.175 69.8168C137.175 76.1666 132.695 81.3326 127.188 81.3326C125.247 81.3326 123.35 80.6662 121.736 79.4529L120.262 81.1526C124.938 85.523 131.836 85.2004 136.184 80.188C140.532 75.1756 140.81 67.22 137.02 61.8303L135.544 63.5307Z" fill="#9B9998"/>
<path d="M134.678 69.8167C134.678 68.3426 134.342 66.9004 133.727 65.625L123.553 77.3566C124.661 78.066 125.91 78.4535 127.188 78.4535C131.319 78.4535 134.678 74.5798 134.678 69.8167Z" fill="#9E5E6A"/>
<path d="M88.4899 65.4981H94.6056C94.0249 62.2176 91.5049 59.7402 88.4899 59.7402H82.3743C82.9538 63.0207 85.475 65.4981 88.4899 65.4981Z" fill="#046E0F"/>
<path d="M105.333 72.1692C103.012 70.0242 100.177 68.7247 97.2204 68.4381C97.1658 59.8033 96.613 51.1021 90.9866 51.1021V53.981C94.2858 53.981 94.6781 61.416 94.7255 68.4488C87.0505 69.1872 81 76.614 81 85.6484C81 95.1732 87.7199 102.922 95.9799 102.922C101.074 102.922 105.701 100.001 108.485 95.1128C108.414 94.7645 108.348 94.413 108.299 94.0531L105.333 72.1692ZM95.9799 100.045C89.0969 100.045 83.4967 93.5878 83.4967 85.6508H85.9933C85.9933 92.0006 90.4733 97.1666 95.9799 97.1666V100.045ZM95.9799 77.0141C93.1801 77.0141 90.9866 75.1171 90.9866 72.6957H93.4833C93.4833 73.283 94.4558 74.1351 95.9799 74.1351C97.5041 74.1351 98.4766 73.283 98.4766 72.6957H100.973C100.973 75.1171 98.7798 77.0141 95.9799 77.0141Z" fill="#9E5E6A"/>
</svg>
