<svg width="387" height="539" viewBox="0 0 387 539" fill="none" xmlns="http://www.w3.org/2000/svg">
<path d="M326.456 495.88C322.743 520.314 301.737 538.369 277.023 538.369H55.2696C25.6812 538.369 2.5647 512.816 5.51956 483.376L47.9357 60.7692C51.078 29.4616 82.0111 8.80334 112.134 17.8954L345.004 88.1838C368.817 95.3714 383.725 118.97 379.989 143.562L326.456 495.88Z" fill="#3D3D3D"/>
<path d="M81.7575 234.55H90.1825V237.7H81.7575V234.55ZM82.0575 241.75H91.5825V245H78.0325V227.5H91.2575V230.75H82.0575V241.75ZM93.9335 245L99.9585 237.1L99.8835 239.25L94.1085 231.55H98.4835L102.133 236.575L100.483 236.625L104.258 231.55H108.408L102.608 239.175V237.075L108.608 245H104.183L100.358 239.65L101.983 239.875L98.1835 245H93.9335ZM119.702 245.2C118.568 245.2 117.577 244.95 116.727 244.45C115.877 243.95 115.21 243.192 114.727 242.175C114.26 241.142 114.027 239.842 114.027 238.275C114.027 236.692 114.252 235.392 114.702 234.375C115.152 233.358 115.802 232.6 116.652 232.1C117.502 231.6 118.518 231.35 119.702 231.35C120.968 231.35 122.102 231.642 123.102 232.225C124.118 232.792 124.918 233.592 125.502 234.625C126.102 235.658 126.402 236.875 126.402 238.275C126.402 239.692 126.102 240.917 125.502 241.95C124.918 242.983 124.118 243.783 123.102 244.35C122.102 244.917 120.968 245.2 119.702 245.2ZM111.752 249.85V231.55H115.477V234.3L115.402 238.3L115.652 242.275V249.85H111.752ZM119.027 242C119.677 242 120.252 241.85 120.752 241.55C121.268 241.25 121.677 240.825 121.977 240.275C122.293 239.708 122.452 239.042 122.452 238.275C122.452 237.492 122.293 236.825 121.977 236.275C121.677 235.725 121.268 235.3 120.752 235C120.252 234.7 119.677 234.55 119.027 234.55C118.377 234.55 117.793 234.7 117.277 235C116.76 235.3 116.352 235.725 116.052 236.275C115.752 236.825 115.602 237.492 115.602 238.275C115.602 239.042 115.752 239.708 116.052 240.275C116.352 240.825 116.76 241.25 117.277 241.55C117.793 241.85 118.377 242 119.027 242ZM136.937 245.2C135.404 245.2 134.054 244.9 132.887 244.3C131.737 243.7 130.846 242.883 130.212 241.85C129.579 240.8 129.262 239.608 129.262 238.275C129.262 236.925 129.571 235.733 130.187 234.7C130.821 233.65 131.679 232.833 132.762 232.25C133.846 231.65 135.071 231.35 136.437 231.35C137.754 231.35 138.937 231.633 139.987 232.2C141.054 232.75 141.896 233.55 142.512 234.6C143.129 235.633 143.437 236.875 143.437 238.325C143.437 238.475 143.429 238.65 143.412 238.85C143.396 239.033 143.379 239.208 143.362 239.375H132.437V237.1H141.312L139.812 237.775C139.812 237.075 139.671 236.467 139.387 235.95C139.104 235.433 138.712 235.033 138.212 234.75C137.712 234.45 137.129 234.3 136.462 234.3C135.796 234.3 135.204 234.45 134.687 234.75C134.187 235.033 133.796 235.442 133.512 235.975C133.229 236.492 133.087 237.108 133.087 237.825V238.425C133.087 239.158 133.246 239.808 133.562 240.375C133.896 240.925 134.354 241.35 134.937 241.65C135.537 241.933 136.237 242.075 137.037 242.075C137.754 242.075 138.379 241.967 138.912 241.75C139.462 241.533 139.962 241.208 140.412 240.775L142.487 243.025C141.871 243.725 141.096 244.267 140.162 244.65C139.229 245.017 138.154 245.2 136.937 245.2ZM147.284 245V231.55H151.009V235.35L150.484 234.25C150.884 233.3 151.526 232.583 152.409 232.1C153.292 231.6 154.367 231.35 155.634 231.35V234.95C155.467 234.933 155.317 234.925 155.184 234.925C155.051 234.908 154.909 234.9 154.759 234.9C153.692 234.9 152.826 235.208 152.159 235.825C151.509 236.425 151.184 237.367 151.184 238.65V245H147.284ZM165.167 245.2C163.583 245.2 162.35 244.8 161.467 244C160.583 243.183 160.142 241.975 160.142 240.375V228.575H164.042V240.325C164.042 240.892 164.192 241.333 164.492 241.65C164.792 241.95 165.2 242.1 165.717 242.1C166.333 242.1 166.858 241.933 167.292 241.6L168.342 244.35C167.942 244.633 167.458 244.85 166.892 245C166.342 245.133 165.767 245.2 165.167 245.2ZM158.067 234.85V231.85H167.392V234.85H158.067ZM180.386 245V227.5H183.736L194.061 240.1H192.436V227.5H196.436V245H193.111L182.761 232.4H184.386V245H180.386ZM207.226 245.2C206.11 245.2 205.11 244.983 204.226 244.55C203.36 244.117 202.685 243.458 202.201 242.575C201.718 241.675 201.476 240.533 201.476 239.15V231.55H205.376V238.575C205.376 239.692 205.61 240.517 206.076 241.05C206.56 241.567 207.235 241.825 208.101 241.825C208.701 241.825 209.235 241.7 209.701 241.45C210.168 241.183 210.535 240.783 210.801 240.25C211.068 239.7 211.201 239.017 211.201 238.2V231.55H215.101V245H211.401V241.3L212.076 242.375C211.626 243.308 210.96 244.017 210.076 244.5C209.21 244.967 208.26 245.2 207.226 245.2ZM225.465 245.2C223.881 245.2 222.648 244.8 221.765 244C220.881 243.183 220.44 241.975 220.44 240.375V228.575H224.34V240.325C224.34 240.892 224.49 241.333 224.79 241.65C225.09 241.95 225.498 242.1 226.015 242.1C226.631 242.1 227.156 241.933 227.59 241.6L228.64 244.35C228.24 244.633 227.756 244.85 227.19 245C226.64 245.133 226.065 245.2 225.465 245.2ZM218.365 234.85V231.85H227.69V234.85H218.365ZM232.079 245V231.55H235.804V235.35L235.279 234.25C235.679 233.3 236.32 232.583 237.204 232.1C238.087 231.6 239.162 231.35 240.429 231.35V234.95C240.262 234.933 240.112 234.925 239.979 234.925C239.845 234.908 239.704 234.9 239.554 234.9C238.487 234.9 237.62 235.208 236.954 235.825C236.304 236.425 235.979 237.367 235.979 238.65V245H232.079ZM244.022 245V231.55H247.922V245H244.022ZM245.972 229.675C245.256 229.675 244.672 229.467 244.222 229.05C243.772 228.633 243.547 228.117 243.547 227.5C243.547 226.883 243.772 226.367 244.222 225.95C244.672 225.533 245.256 225.325 245.972 225.325C246.689 225.325 247.272 225.525 247.722 225.925C248.172 226.308 248.397 226.808 248.397 227.425C248.397 228.075 248.172 228.617 247.722 229.05C247.289 229.467 246.706 229.675 245.972 229.675ZM258.292 245.2C256.708 245.2 255.475 244.8 254.592 244C253.708 243.183 253.267 241.975 253.267 240.375V228.575H257.167V240.325C257.167 240.892 257.317 241.333 257.617 241.65C257.917 241.95 258.325 242.1 258.842 242.1C259.458 242.1 259.983 241.933 260.417 241.6L261.467 244.35C261.067 244.633 260.583 244.85 260.017 245C259.467 245.133 258.892 245.2 258.292 245.2ZM251.192 234.85V231.85H260.517V234.85H251.192ZM264.906 245V231.55H268.806V245H264.906ZM266.856 229.675C266.139 229.675 265.556 229.467 265.106 229.05C264.656 228.633 264.431 228.117 264.431 227.5C264.431 226.883 264.656 226.367 265.106 225.95C265.556 225.533 266.139 225.325 266.856 225.325C267.573 225.325 268.156 225.525 268.606 225.925C269.056 226.308 269.281 226.808 269.281 227.425C269.281 228.075 269.056 228.617 268.606 229.05C268.173 229.467 267.589 229.675 266.856 229.675ZM280.075 245.2C278.642 245.2 277.367 244.9 276.25 244.3C275.15 243.7 274.275 242.883 273.625 241.85C272.992 240.8 272.675 239.608 272.675 238.275C272.675 236.925 272.992 235.733 273.625 234.7C274.275 233.65 275.15 232.833 276.25 232.25C277.367 231.65 278.642 231.35 280.075 231.35C281.492 231.35 282.759 231.65 283.875 232.25C284.992 232.833 285.867 233.642 286.5 234.675C287.134 235.708 287.45 236.908 287.45 238.275C287.45 239.608 287.134 240.8 286.5 241.85C285.867 242.883 284.992 243.7 283.875 244.3C282.759 244.9 281.492 245.2 280.075 245.2ZM280.075 242C280.725 242 281.309 241.85 281.825 241.55C282.342 241.25 282.75 240.825 283.05 240.275C283.35 239.708 283.5 239.042 283.5 238.275C283.5 237.492 283.35 236.825 283.05 236.275C282.75 235.725 282.342 235.3 281.825 235C281.309 234.7 280.725 234.55 280.075 234.55C279.425 234.55 278.842 234.7 278.325 235C277.809 235.3 277.392 235.725 277.075 236.275C276.775 236.825 276.625 237.492 276.625 238.275C276.625 239.042 276.775 239.708 277.075 240.275C277.392 240.825 277.809 241.25 278.325 241.55C278.842 241.85 279.425 242 280.075 242ZM299.482 231.35C300.549 231.35 301.499 231.567 302.332 232C303.182 232.417 303.849 233.067 304.332 233.95C304.816 234.817 305.057 235.933 305.057 237.3V245H301.157V237.9C301.157 236.817 300.916 236.017 300.432 235.5C299.966 234.983 299.299 234.725 298.432 234.725C297.816 234.725 297.257 234.858 296.757 235.125C296.274 235.375 295.891 235.767 295.607 236.3C295.341 236.833 295.207 237.517 295.207 238.35V245H291.307V231.55H295.032V235.275L294.332 234.15C294.816 233.25 295.507 232.558 296.407 232.075C297.307 231.592 298.332 231.35 299.482 231.35ZM135.919 275.3C134.535 275.3 133.26 275.083 132.094 274.65C130.944 274.2 129.935 273.567 129.069 272.75C128.219 271.933 127.552 270.975 127.069 269.875C126.602 268.775 126.369 267.567 126.369 266.25C126.369 264.933 126.602 263.725 127.069 262.625C127.552 261.525 128.227 260.567 129.094 259.75C129.96 258.933 130.977 258.308 132.144 257.875C133.31 257.425 134.594 257.2 135.994 257.2C137.544 257.2 138.935 257.458 140.169 257.975C141.419 258.492 142.469 259.242 143.319 260.225L140.719 262.625C140.085 261.958 139.394 261.467 138.644 261.15C137.894 260.817 137.077 260.65 136.194 260.65C135.344 260.65 134.569 260.783 133.869 261.05C133.169 261.317 132.56 261.7 132.044 262.2C131.544 262.7 131.152 263.292 130.869 263.975C130.602 264.658 130.469 265.417 130.469 266.25C130.469 267.067 130.602 267.817 130.869 268.5C131.152 269.183 131.544 269.783 132.044 270.3C132.56 270.8 133.16 271.183 133.844 271.45C134.544 271.717 135.31 271.85 136.144 271.85C136.944 271.85 137.719 271.725 138.469 271.475C139.235 271.208 139.977 270.767 140.694 270.15L142.994 273.075C142.044 273.792 140.935 274.342 139.669 274.725C138.419 275.108 137.169 275.3 135.919 275.3ZM139.294 272.55V265.975H142.994V273.075L139.294 272.55ZM153.406 275.2C152.289 275.2 151.289 274.983 150.406 274.55C149.539 274.117 148.864 273.458 148.381 272.575C147.897 271.675 147.656 270.533 147.656 269.15V261.55H151.556V268.575C151.556 269.692 151.789 270.517 152.256 271.05C152.739 271.567 153.414 271.825 154.281 271.825C154.881 271.825 155.414 271.7 155.881 271.45C156.347 271.183 156.714 270.783 156.981 270.25C157.247 269.7 157.381 269.017 157.381 268.2V261.55H161.281V275H157.581V271.3L158.256 272.375C157.806 273.308 157.139 274.017 156.256 274.5C155.389 274.967 154.439 275.2 153.406 275.2ZM166.144 275V261.55H170.044V275H166.144ZM168.094 259.675C167.377 259.675 166.794 259.467 166.344 259.05C165.894 258.633 165.669 258.117 165.669 257.5C165.669 256.883 165.894 256.367 166.344 255.95C166.794 255.533 167.377 255.325 168.094 255.325C168.81 255.325 169.394 255.525 169.844 255.925C170.294 256.308 170.519 256.808 170.519 257.425C170.519 258.075 170.294 258.617 169.844 259.05C169.41 259.467 168.827 259.675 168.094 259.675ZM180.688 275.2C179.422 275.2 178.28 274.917 177.263 274.35C176.247 273.767 175.438 272.958 174.838 271.925C174.255 270.892 173.963 269.675 173.963 268.275C173.963 266.858 174.255 265.633 174.838 264.6C175.438 263.567 176.247 262.767 177.263 262.2C178.28 261.633 179.422 261.35 180.688 261.35C181.822 261.35 182.813 261.6 183.663 262.1C184.513 262.6 185.172 263.358 185.638 264.375C186.105 265.392 186.338 266.692 186.338 268.275C186.338 269.842 186.113 271.142 185.663 272.175C185.213 273.192 184.563 273.95 183.713 274.45C182.88 274.95 181.872 275.2 180.688 275.2ZM181.363 272C181.997 272 182.572 271.85 183.088 271.55C183.605 271.25 184.013 270.825 184.313 270.275C184.63 269.708 184.788 269.042 184.788 268.275C184.788 267.492 184.63 266.825 184.313 266.275C184.013 265.725 183.605 265.3 183.088 265C182.572 264.7 181.997 264.55 181.363 264.55C180.713 264.55 180.13 264.7 179.613 265C179.097 265.3 178.68 265.725 178.363 266.275C178.063 266.825 177.913 267.492 177.913 268.275C177.913 269.042 178.063 269.708 178.363 270.275C178.68 270.825 179.097 271.25 179.613 271.55C180.13 271.85 180.713 272 181.363 272ZM184.888 275V272.25L184.963 268.25L184.713 264.275V256.45H188.613V275H184.888ZM201.723 275V272.375L201.473 271.8V267.1C201.473 266.267 201.215 265.617 200.698 265.15C200.198 264.683 199.423 264.45 198.373 264.45C197.656 264.45 196.948 264.567 196.248 264.8C195.565 265.017 194.981 265.317 194.498 265.7L193.098 262.975C193.831 262.458 194.715 262.058 195.748 261.775C196.781 261.492 197.831 261.35 198.898 261.35C200.948 261.35 202.54 261.833 203.673 262.8C204.806 263.767 205.373 265.275 205.373 267.325V275H201.723ZM197.623 275.2C196.573 275.2 195.673 275.025 194.923 274.675C194.173 274.308 193.598 273.817 193.198 273.2C192.798 272.583 192.598 271.892 192.598 271.125C192.598 270.325 192.79 269.625 193.173 269.025C193.573 268.425 194.198 267.958 195.048 267.625C195.898 267.275 197.006 267.1 198.373 267.1H201.948V269.375H198.798C197.881 269.375 197.248 269.525 196.898 269.825C196.565 270.125 196.398 270.5 196.398 270.95C196.398 271.45 196.59 271.85 196.973 272.15C197.373 272.433 197.915 272.575 198.598 272.575C199.248 272.575 199.831 272.425 200.348 272.125C200.865 271.808 201.24 271.35 201.473 270.75L202.073 272.55C201.79 273.417 201.273 274.075 200.523 274.525C199.773 274.975 198.806 275.2 197.623 275.2ZM218.328 261.35C219.394 261.35 220.344 261.567 221.178 262C222.028 262.417 222.694 263.067 223.178 263.95C223.661 264.817 223.903 265.933 223.903 267.3V275H220.003V267.9C220.003 266.817 219.761 266.017 219.278 265.5C218.811 264.983 218.144 264.725 217.278 264.725C216.661 264.725 216.103 264.858 215.603 265.125C215.119 265.375 214.736 265.767 214.453 266.3C214.186 266.833 214.053 267.517 214.053 268.35V275H210.153V261.55H213.878V265.275L213.178 264.15C213.661 263.25 214.353 262.558 215.253 262.075C216.153 261.592 217.178 261.35 218.328 261.35ZM235.285 275.2C233.835 275.2 232.544 274.908 231.41 274.325C230.277 273.725 229.385 272.9 228.735 271.85C228.102 270.8 227.785 269.608 227.785 268.275C227.785 266.925 228.102 265.733 228.735 264.7C229.385 263.65 230.277 262.833 231.41 262.25C232.544 261.65 233.835 261.35 235.285 261.35C236.702 261.35 237.935 261.65 238.985 262.25C240.035 262.833 240.81 263.675 241.31 264.775L238.285 266.4C237.935 265.767 237.494 265.3 236.96 265C236.444 264.7 235.877 264.55 235.26 264.55C234.594 264.55 233.994 264.7 233.46 265C232.927 265.3 232.502 265.725 232.185 266.275C231.885 266.825 231.735 267.492 231.735 268.275C231.735 269.058 231.885 269.725 232.185 270.275C232.502 270.825 232.927 271.25 233.46 271.55C233.994 271.85 234.594 272 235.26 272C235.877 272 236.444 271.858 236.96 271.575C237.494 271.275 237.935 270.8 238.285 270.15L241.31 271.8C240.81 272.883 240.035 273.725 238.985 274.325C237.935 274.908 236.702 275.2 235.285 275.2ZM251.31 275.2C249.777 275.2 248.427 274.9 247.26 274.3C246.11 273.7 245.218 272.883 244.585 271.85C243.952 270.8 243.635 269.608 243.635 268.275C243.635 266.925 243.943 265.733 244.56 264.7C245.193 263.65 246.052 262.833 247.135 262.25C248.218 261.65 249.443 261.35 250.81 261.35C252.127 261.35 253.31 261.633 254.36 262.2C255.427 262.75 256.268 263.55 256.885 264.6C257.502 265.633 257.81 266.875 257.81 268.325C257.81 268.475 257.802 268.65 257.785 268.85C257.768 269.033 257.752 269.208 257.735 269.375H246.81V267.1H255.685L254.185 267.775C254.185 267.075 254.043 266.467 253.76 265.95C253.477 265.433 253.085 265.033 252.585 264.75C252.085 264.45 251.502 264.3 250.835 264.3C250.168 264.3 249.577 264.45 249.06 264.75C248.56 265.033 248.168 265.442 247.885 265.975C247.602 266.492 247.46 267.108 247.46 267.825V268.425C247.46 269.158 247.618 269.808 247.935 270.375C248.268 270.925 248.727 271.35 249.31 271.65C249.91 271.933 250.61 272.075 251.41 272.075C252.127 272.075 252.752 271.967 253.285 271.75C253.835 271.533 254.335 271.208 254.785 270.775L256.86 273.025C256.243 273.725 255.468 274.267 254.535 274.65C253.602 275.017 252.527 275.2 251.31 275.2Z" fill="white"/>
<path d="M55.3787 346.85H50.5147L49.6187 349.33H48.0827L52.1147 338.242H53.7947L57.8107 349.33H56.2747L55.3787 346.85ZM54.9627 345.666L52.9467 340.034L50.9307 345.666H54.9627ZM62.6719 349.474C61.9999 349.474 61.3973 349.362 60.8639 349.138C60.3306 348.904 59.9093 348.584 59.5999 348.178C59.2906 347.762 59.1199 347.288 59.0879 346.754H60.5919C60.6346 347.192 60.8373 347.549 61.1999 347.826C61.5733 348.104 62.0586 348.242 62.6559 348.242C63.2106 348.242 63.6479 348.12 63.9679 347.874C64.2879 347.629 64.4479 347.32 64.4479 346.946C64.4479 346.562 64.2773 346.28 63.9359 346.098C63.5946 345.906 63.0666 345.72 62.3519 345.538C61.7013 345.368 61.1679 345.197 60.7519 345.026C60.3466 344.845 59.9946 344.584 59.6959 344.242C59.4079 343.89 59.2639 343.432 59.2639 342.866C59.2639 342.418 59.3973 342.008 59.6639 341.634C59.9306 341.261 60.3093 340.968 60.7999 340.754C61.2906 340.53 61.8506 340.418 62.4799 340.418C63.4506 340.418 64.2346 340.664 64.8319 341.154C65.4293 341.645 65.7493 342.317 65.7919 343.17H64.3359C64.3039 342.712 64.1173 342.344 63.7759 342.066C63.4453 341.789 62.9973 341.65 62.4319 341.65C61.9093 341.65 61.4933 341.762 61.1839 341.986C60.8746 342.21 60.7199 342.504 60.7199 342.866C60.7199 343.154 60.8106 343.394 60.9919 343.586C61.1839 343.768 61.4186 343.917 61.6959 344.034C61.9839 344.141 62.3786 344.264 62.8799 344.402C63.5093 344.573 64.0213 344.744 64.4159 344.914C64.8106 345.074 65.1466 345.32 65.4239 345.65C65.7119 345.981 65.8613 346.413 65.8719 346.946C65.8719 347.426 65.7386 347.858 65.4719 348.242C65.2053 348.626 64.8266 348.93 64.3359 349.154C63.8559 349.368 63.3013 349.474 62.6719 349.474ZM78.7849 346.85H73.9209L73.0249 349.33H71.4889L75.5209 338.242H77.2009L81.2169 349.33H79.6809L78.7849 346.85ZM78.3689 345.666L76.3529 340.034L74.3369 345.666H78.3689ZM86.6958 343.746C86.6958 342.658 86.9411 341.682 87.4318 340.818C87.9225 339.944 88.5891 339.261 89.4318 338.77C90.2851 338.28 91.2291 338.034 92.2638 338.034C93.4798 338.034 94.5411 338.328 95.4478 338.914C96.3545 339.501 97.0158 340.333 97.4318 341.41H95.6878C95.3785 340.738 94.9305 340.221 94.3438 339.858C93.7678 339.496 93.0745 339.314 92.2638 339.314C91.4851 339.314 90.7865 339.496 90.1678 339.858C89.5491 340.221 89.0638 340.738 88.7118 341.41C88.3598 342.072 88.1838 342.85 88.1838 343.746C88.1838 344.632 88.3598 345.41 88.7118 346.082C89.0638 346.744 89.5491 347.256 90.1678 347.618C90.7865 347.981 91.4851 348.162 92.2638 348.162C93.0745 348.162 93.7678 347.986 94.3438 347.634C94.9305 347.272 95.3785 346.754 95.6878 346.082H97.4318C97.0158 347.149 96.3545 347.976 95.4478 348.562C94.5411 349.138 93.4798 349.426 92.2638 349.426C91.2291 349.426 90.2851 349.186 89.4318 348.706C88.5891 348.216 87.9225 347.538 87.4318 346.674C86.9411 345.81 86.6958 344.834 86.6958 343.746ZM107.599 344.61C107.599 344.888 107.583 345.181 107.551 345.49H100.543C100.597 346.354 100.89 347.032 101.423 347.522C101.967 348.002 102.623 348.242 103.391 348.242C104.021 348.242 104.543 348.098 104.959 347.81C105.386 347.512 105.685 347.117 105.855 346.626H107.423C107.189 347.469 106.719 348.157 106.015 348.69C105.311 349.213 104.437 349.474 103.391 349.474C102.559 349.474 101.813 349.288 101.151 348.914C100.501 348.541 99.9885 348.013 99.6152 347.33C99.2419 346.637 99.0552 345.837 99.0552 344.93C99.0552 344.024 99.2365 343.229 99.5992 342.546C99.9619 341.864 100.469 341.341 101.119 340.978C101.781 340.605 102.538 340.418 103.391 340.418C104.223 340.418 104.959 340.6 105.599 340.962C106.239 341.325 106.73 341.826 107.071 342.466C107.423 343.096 107.599 343.81 107.599 344.61ZM106.095 344.306C106.095 343.752 105.973 343.277 105.727 342.882C105.482 342.477 105.146 342.173 104.719 341.97C104.303 341.757 103.839 341.65 103.327 341.65C102.591 341.65 101.962 341.885 101.439 342.354C100.927 342.824 100.634 343.474 100.559 344.306H106.095ZM110.977 341.986C111.233 341.485 111.596 341.096 112.065 340.818C112.545 340.541 113.126 340.402 113.809 340.402V341.906H113.425C111.793 341.906 110.977 342.792 110.977 344.562V349.33H109.521V340.562H110.977V341.986ZM117.266 341.762V346.93C117.266 347.357 117.356 347.661 117.538 347.842C117.719 348.013 118.034 348.098 118.482 348.098H119.554V349.33H118.242C117.431 349.33 116.823 349.144 116.418 348.77C116.012 348.397 115.81 347.784 115.81 346.93V341.762H114.674V340.562H115.81V338.354H117.266V340.562H119.554V341.762H117.266ZM122.07 339.138C121.793 339.138 121.558 339.042 121.366 338.85C121.174 338.658 121.078 338.424 121.078 338.146C121.078 337.869 121.174 337.634 121.366 337.442C121.558 337.25 121.793 337.154 122.07 337.154C122.337 337.154 122.561 337.25 122.742 337.442C122.934 337.634 123.03 337.869 123.03 338.146C123.03 338.424 122.934 338.658 122.742 338.85C122.561 339.042 122.337 339.138 122.07 339.138ZM122.774 340.562V349.33H121.318V340.562H122.774ZM128.823 341.762H126.983V349.33H125.527V341.762H124.391V340.562H125.527V339.938C125.527 338.957 125.778 338.242 126.279 337.794C126.791 337.336 127.607 337.106 128.727 337.106V338.322C128.087 338.322 127.634 338.45 127.367 338.706C127.111 338.952 126.983 339.362 126.983 339.938V340.562H128.823V341.762ZM131.273 339.138C130.996 339.138 130.761 339.042 130.569 338.85C130.377 338.658 130.281 338.424 130.281 338.146C130.281 337.869 130.377 337.634 130.569 337.442C130.761 337.25 130.996 337.154 131.273 337.154C131.54 337.154 131.764 337.25 131.945 337.442C132.137 337.634 132.233 337.869 132.233 338.146C132.233 338.424 132.137 338.658 131.945 338.85C131.764 339.042 131.54 339.138 131.273 339.138ZM131.977 340.562V349.33H130.521V340.562H131.977ZM142.459 344.61C142.459 344.888 142.443 345.181 142.411 345.49H135.403C135.456 346.354 135.749 347.032 136.283 347.522C136.827 348.002 137.483 348.242 138.251 348.242C138.88 348.242 139.403 348.098 139.819 347.81C140.245 347.512 140.544 347.117 140.715 346.626H142.283C142.048 347.469 141.579 348.157 140.875 348.69C140.171 349.213 139.296 349.474 138.251 349.474C137.419 349.474 136.672 349.288 136.011 348.914C135.36 348.541 134.848 348.013 134.475 347.33C134.101 346.637 133.915 345.837 133.915 344.93C133.915 344.024 134.096 343.229 134.459 342.546C134.821 341.864 135.328 341.341 135.979 340.978C136.64 340.605 137.397 340.418 138.251 340.418C139.083 340.418 139.819 340.6 140.459 340.962C141.099 341.325 141.589 341.826 141.931 342.466C142.283 343.096 142.459 343.81 142.459 344.61ZM140.955 344.306C140.955 343.752 140.832 343.277 140.587 342.882C140.341 342.477 140.005 342.173 139.579 341.97C139.163 341.757 138.699 341.65 138.187 341.65C137.451 341.65 136.821 341.885 136.299 342.354C135.787 342.824 135.493 343.474 135.419 344.306H140.955ZM143.836 344.914C143.836 344.018 144.018 343.234 144.38 342.562C144.743 341.88 145.239 341.352 145.868 340.978C146.508 340.605 147.223 340.418 148.012 340.418C148.695 340.418 149.33 340.578 149.916 340.898C150.503 341.208 150.951 341.618 151.26 342.13V337.49H152.732V349.33H151.26V347.682C150.972 348.205 150.546 348.637 149.98 348.978C149.415 349.309 148.754 349.474 147.996 349.474C147.218 349.474 146.508 349.282 145.868 348.898C145.239 348.514 144.743 347.976 144.38 347.282C144.018 346.589 143.836 345.8 143.836 344.914ZM151.26 344.93C151.26 344.269 151.127 343.693 150.86 343.202C150.594 342.712 150.231 342.338 149.772 342.082C149.324 341.816 148.828 341.682 148.284 341.682C147.74 341.682 147.244 341.81 146.796 342.066C146.348 342.322 145.991 342.696 145.724 343.186C145.458 343.677 145.324 344.253 145.324 344.914C145.324 345.586 145.458 346.173 145.724 346.674C145.991 347.165 146.348 347.544 146.796 347.81C147.244 348.066 147.74 348.194 148.284 348.194C148.828 348.194 149.324 348.066 149.772 347.81C150.231 347.544 150.594 347.165 150.86 346.674C151.127 346.173 151.26 345.592 151.26 344.93ZM168.227 349.33H166.771L160.915 340.45V349.33H159.459V338.162H160.915L166.771 347.026V338.162H168.227V349.33ZM178.485 340.562V349.33H177.029V348.034C176.751 348.482 176.362 348.834 175.861 349.09C175.37 349.336 174.826 349.458 174.229 349.458C173.546 349.458 172.933 349.32 172.389 349.042C171.845 348.754 171.413 348.328 171.093 347.762C170.783 347.197 170.629 346.509 170.629 345.698V340.562H172.069V345.506C172.069 346.37 172.287 347.037 172.725 347.506C173.162 347.965 173.759 348.194 174.517 348.194C175.295 348.194 175.909 347.954 176.357 347.474C176.805 346.994 177.029 346.296 177.029 345.378V340.562H178.485ZM182.719 341.762V346.93C182.719 347.357 182.81 347.661 182.991 347.842C183.172 348.013 183.487 348.098 183.935 348.098H185.007V349.33H183.695C182.884 349.33 182.276 349.144 181.871 348.77C181.466 348.397 181.263 347.784 181.263 346.93V341.762H180.127V340.562H181.263V338.354H182.719V340.562H185.007V341.762H182.719ZM188.227 341.986C188.483 341.485 188.846 341.096 189.315 340.818C189.795 340.541 190.376 340.402 191.059 340.402V341.906H190.675C189.043 341.906 188.227 342.792 188.227 344.562V349.33H186.771V340.562H188.227V341.986ZM193.492 339.138C193.214 339.138 192.98 339.042 192.788 338.85C192.596 338.658 192.5 338.424 192.5 338.146C192.5 337.869 192.596 337.634 192.788 337.442C192.98 337.25 193.214 337.154 193.492 337.154C193.758 337.154 193.982 337.25 194.164 337.442C194.356 337.634 194.452 337.869 194.452 338.146C194.452 338.424 194.356 338.658 194.164 338.85C193.982 339.042 193.758 339.138 193.492 339.138ZM194.196 340.562V349.33H192.74V340.562H194.196ZM198.453 341.762V346.93C198.453 347.357 198.544 347.661 198.725 347.842C198.907 348.013 199.221 348.098 199.669 348.098H200.741V349.33H199.429C198.619 349.33 198.011 349.144 197.605 348.77C197.2 348.397 196.997 347.784 196.997 346.93V341.762H195.861V340.562H196.997V338.354H198.453V340.562H200.741V341.762H198.453ZM203.257 339.138C202.98 339.138 202.745 339.042 202.553 338.85C202.361 338.658 202.265 338.424 202.265 338.146C202.265 337.869 202.361 337.634 202.553 337.442C202.745 337.25 202.98 337.154 203.257 337.154C203.524 337.154 203.748 337.25 203.929 337.442C204.121 337.634 204.217 337.869 204.217 338.146C204.217 338.424 204.121 338.658 203.929 338.85C203.748 339.042 203.524 339.138 203.257 339.138ZM203.961 340.562V349.33H202.505V340.562H203.961ZM210.267 349.474C209.446 349.474 208.699 349.288 208.027 348.914C207.366 348.541 206.843 348.013 206.459 347.33C206.086 346.637 205.899 345.837 205.899 344.93C205.899 344.034 206.091 343.245 206.475 342.562C206.87 341.869 207.403 341.341 208.075 340.978C208.747 340.605 209.499 340.418 210.331 340.418C211.163 340.418 211.915 340.605 212.587 340.978C213.259 341.341 213.787 341.864 214.171 342.546C214.566 343.229 214.763 344.024 214.763 344.93C214.763 345.837 214.56 346.637 214.155 347.33C213.76 348.013 213.222 348.541 212.539 348.914C211.856 349.288 211.099 349.474 210.267 349.474ZM210.267 348.194C210.79 348.194 211.28 348.072 211.739 347.826C212.198 347.581 212.566 347.213 212.843 346.722C213.131 346.232 213.275 345.634 213.275 344.93C213.275 344.226 213.136 343.629 212.859 343.138C212.582 342.648 212.219 342.285 211.771 342.05C211.323 341.805 210.838 341.682 210.315 341.682C209.782 341.682 209.291 341.805 208.843 342.05C208.406 342.285 208.054 342.648 207.787 343.138C207.52 343.629 207.387 344.226 207.387 344.93C207.387 345.645 207.515 346.248 207.771 346.738C208.038 347.229 208.39 347.597 208.827 347.842C209.264 348.077 209.744 348.194 210.267 348.194ZM220.949 340.402C222.016 340.402 222.88 340.728 223.541 341.378C224.203 342.018 224.533 342.946 224.533 344.162V349.33H223.093V344.37C223.093 343.496 222.875 342.829 222.437 342.37C222 341.901 221.403 341.666 220.645 341.666C219.877 341.666 219.264 341.906 218.805 342.386C218.357 342.866 218.133 343.565 218.133 344.482V349.33H216.677V340.562H218.133V341.81C218.421 341.362 218.811 341.016 219.301 340.77C219.803 340.525 220.352 340.402 220.949 340.402ZM227.664 339.138C227.386 339.138 227.152 339.042 226.96 338.85C226.768 338.658 226.672 338.424 226.672 338.146C226.672 337.869 226.768 337.634 226.96 337.442C227.152 337.25 227.386 337.154 227.664 337.154C227.93 337.154 228.154 337.25 228.336 337.442C228.528 337.634 228.624 337.869 228.624 338.146C228.624 338.424 228.528 338.658 228.336 338.85C228.154 339.042 227.93 339.138 227.664 339.138ZM228.368 340.562V349.33H226.912V340.562H228.368ZM233.953 349.474C233.281 349.474 232.679 349.362 232.145 349.138C231.612 348.904 231.191 348.584 230.881 348.178C230.572 347.762 230.401 347.288 230.369 346.754H231.873C231.916 347.192 232.119 347.549 232.481 347.826C232.855 348.104 233.34 348.242 233.937 348.242C234.492 348.242 234.929 348.12 235.249 347.874C235.569 347.629 235.729 347.32 235.729 346.946C235.729 346.562 235.559 346.28 235.217 346.098C234.876 345.906 234.348 345.72 233.633 345.538C232.983 345.368 232.449 345.197 232.033 345.026C231.628 344.845 231.276 344.584 230.977 344.242C230.689 343.89 230.545 343.432 230.545 342.866C230.545 342.418 230.679 342.008 230.945 341.634C231.212 341.261 231.591 340.968 232.081 340.754C232.572 340.53 233.132 340.418 233.761 340.418C234.732 340.418 235.516 340.664 236.113 341.154C236.711 341.645 237.031 342.317 237.073 343.17H235.617C235.585 342.712 235.399 342.344 235.057 342.066C234.727 341.789 234.279 341.65 233.713 341.65C233.191 341.65 232.775 341.762 232.465 341.986C232.156 342.21 232.001 342.504 232.001 342.866C232.001 343.154 232.092 343.394 232.273 343.586C232.465 343.768 232.7 343.917 232.977 344.034C233.265 344.141 233.66 344.264 234.161 344.402C234.791 344.573 235.303 344.744 235.697 344.914C236.092 345.074 236.428 345.32 236.705 345.65C236.993 345.981 237.143 346.413 237.153 346.946C237.153 347.426 237.02 347.858 236.753 348.242C236.487 348.626 236.108 348.93 235.617 349.154C235.137 349.368 234.583 349.474 233.953 349.474ZM240.985 341.762V346.93C240.985 347.357 241.075 347.661 241.257 347.842C241.438 348.013 241.753 348.098 242.201 348.098H243.273V349.33H241.961C241.15 349.33 240.542 349.144 240.137 348.77C239.731 348.397 239.529 347.784 239.529 346.93V341.762H238.393V340.562H239.529V338.354H240.985V340.562H243.273V341.762H240.985ZM246.541 347.314L244.749 351.618H243.773L244.941 347.314H246.541ZM253.93 338.178V349.33H252.474V338.178H253.93ZM265.733 349.442C264.699 349.442 263.755 349.202 262.901 348.722C262.048 348.232 261.371 347.554 260.869 346.69C260.379 345.816 260.133 344.834 260.133 343.746C260.133 342.658 260.379 341.682 260.869 340.818C261.371 339.944 262.048 339.266 262.901 338.786C263.755 338.296 264.699 338.05 265.733 338.05C266.779 338.05 267.728 338.296 268.581 338.786C269.435 339.266 270.107 339.938 270.597 340.802C271.088 341.666 271.333 342.648 271.333 343.746C271.333 344.845 271.088 345.826 270.597 346.69C270.107 347.554 269.435 348.232 268.581 348.722C267.728 349.202 266.779 349.442 265.733 349.442ZM265.733 348.178C266.512 348.178 267.211 347.997 267.829 347.634C268.459 347.272 268.949 346.754 269.301 346.082C269.664 345.41 269.845 344.632 269.845 343.746C269.845 342.85 269.664 342.072 269.301 341.41C268.949 340.738 268.464 340.221 267.845 339.858C267.227 339.496 266.523 339.314 265.733 339.314C264.944 339.314 264.24 339.496 263.621 339.858C263.003 340.221 262.512 340.738 262.149 341.41C261.797 342.072 261.621 342.85 261.621 343.746C261.621 344.632 261.797 345.41 262.149 346.082C262.512 346.754 263.003 347.272 263.621 347.634C264.251 347.997 264.955 348.178 265.733 348.178ZM276.823 341.762H274.983V349.33H273.527V341.762H272.391V340.562H273.527V339.938C273.527 338.957 273.778 338.242 274.279 337.794C274.791 337.336 275.607 337.106 276.727 337.106V338.322C276.087 338.322 275.634 338.45 275.367 338.706C275.111 338.952 274.983 339.362 274.983 339.938V340.562H276.823V341.762ZM282.089 341.762H280.249V349.33H278.793V341.762H277.657V340.562H278.793V339.938C278.793 338.957 279.044 338.242 279.545 337.794C280.057 337.336 280.873 337.106 281.993 337.106V338.322C281.353 338.322 280.9 338.45 280.633 338.706C280.377 338.952 280.249 339.362 280.249 339.938V340.562H282.089V341.762ZM291.787 344.61C291.787 344.888 291.771 345.181 291.739 345.49H284.731C284.784 346.354 285.077 347.032 285.611 347.522C286.155 348.002 286.811 348.242 287.579 348.242C288.208 348.242 288.731 348.098 289.147 347.81C289.573 347.512 289.872 347.117 290.043 346.626H291.611C291.376 347.469 290.907 348.157 290.203 348.69C289.499 349.213 288.624 349.474 287.579 349.474C286.747 349.474 286 349.288 285.339 348.914C284.688 348.541 284.176 348.013 283.803 347.33C283.429 346.637 283.243 345.837 283.243 344.93C283.243 344.024 283.424 343.229 283.787 342.546C284.149 341.864 284.656 341.341 285.307 340.978C285.968 340.605 286.725 340.418 287.579 340.418C288.411 340.418 289.147 340.6 289.787 340.962C290.427 341.325 290.917 341.826 291.259 342.466C291.611 343.096 291.787 343.81 291.787 344.61ZM290.283 344.306C290.283 343.752 290.16 343.277 289.915 342.882C289.669 342.477 289.333 342.173 288.907 341.97C288.491 341.757 288.027 341.65 287.515 341.65C286.779 341.65 286.149 341.885 285.627 342.354C285.115 342.824 284.821 343.474 284.747 344.306H290.283ZM295.165 341.986C295.421 341.485 295.783 341.096 296.253 340.818C296.733 340.541 297.314 340.402 297.997 340.402V341.906H297.613C295.981 341.906 295.165 342.792 295.165 344.562V349.33H293.709V340.562H295.165V341.986ZM53.5161 376.442C53.5161 377.37 53.1961 378.144 52.5561 378.762C51.9268 379.37 50.9615 379.674 49.6601 379.674H47.5161V384.33H46.0601V373.178H49.6601C50.9188 373.178 51.8735 373.482 52.5241 374.09C53.1855 374.698 53.5161 375.482 53.5161 376.442ZM49.6601 378.474C50.4708 378.474 51.0681 378.298 51.4521 377.946C51.8361 377.594 52.0281 377.093 52.0281 376.442C52.0281 375.066 51.2388 374.378 49.6601 374.378H47.5161V378.474H49.6601ZM63.3258 379.61C63.3258 379.888 63.3098 380.181 63.2778 380.49H56.2698C56.3231 381.354 56.6164 382.032 57.1498 382.522C57.6938 383.002 58.3498 383.242 59.1178 383.242C59.7471 383.242 60.2698 383.098 60.6858 382.81C61.1124 382.512 61.4111 382.117 61.5818 381.626H63.1498C62.9151 382.469 62.4458 383.157 61.7418 383.69C61.0378 384.213 60.1631 384.474 59.1178 384.474C58.2858 384.474 57.5391 384.288 56.8778 383.914C56.2271 383.541 55.7151 383.013 55.3418 382.33C54.9684 381.637 54.7818 380.837 54.7818 379.93C54.7818 379.024 54.9631 378.229 55.3258 377.546C55.6884 376.864 56.1951 376.341 56.8458 375.978C57.5071 375.605 58.2644 375.418 59.1178 375.418C59.9498 375.418 60.6858 375.6 61.3258 375.962C61.9658 376.325 62.4564 376.826 62.7978 377.466C63.1498 378.096 63.3258 378.81 63.3258 379.61ZM61.8218 379.306C61.8218 378.752 61.6991 378.277 61.4538 377.882C61.2084 377.477 60.8724 377.173 60.4458 376.97C60.0298 376.757 59.5658 376.65 59.0538 376.65C58.3178 376.65 57.6884 376.885 57.1658 377.354C56.6538 377.824 56.3604 378.474 56.2858 379.306H61.8218ZM66.7036 376.986C66.9596 376.485 67.3223 376.096 67.7916 375.818C68.2716 375.541 68.853 375.402 69.5356 375.402V376.906H69.1516C67.5196 376.906 66.7036 377.792 66.7036 379.562V384.33H65.2476V375.562H66.7036V376.986ZM74.3204 384.474C73.6484 384.474 73.0457 384.362 72.5124 384.138C71.979 383.904 71.5577 383.584 71.2484 383.178C70.939 382.762 70.7684 382.288 70.7364 381.754H72.2404C72.283 382.192 72.4857 382.549 72.8484 382.826C73.2217 383.104 73.707 383.242 74.3044 383.242C74.859 383.242 75.2964 383.12 75.6164 382.874C75.9364 382.629 76.0964 382.32 76.0964 381.946C76.0964 381.562 75.9257 381.28 75.5844 381.098C75.243 380.906 74.715 380.72 74.0004 380.538C73.3497 380.368 72.8164 380.197 72.4004 380.026C71.995 379.845 71.643 379.584 71.3444 379.242C71.0564 378.89 70.9124 378.432 70.9124 377.866C70.9124 377.418 71.0457 377.008 71.3124 376.634C71.579 376.261 71.9577 375.968 72.4484 375.754C72.939 375.53 73.499 375.418 74.1284 375.418C75.099 375.418 75.883 375.664 76.4804 376.154C77.0777 376.645 77.3977 377.317 77.4404 378.17H75.9844C75.9524 377.712 75.7657 377.344 75.4244 377.066C75.0937 376.789 74.6457 376.65 74.0804 376.65C73.5577 376.65 73.1417 376.762 72.8324 376.986C72.523 377.21 72.3684 377.504 72.3684 377.866C72.3684 378.154 72.459 378.394 72.6404 378.586C72.8324 378.768 73.067 378.917 73.3444 379.034C73.6324 379.141 74.027 379.264 74.5284 379.402C75.1577 379.573 75.6697 379.744 76.0644 379.914C76.459 380.074 76.795 380.32 77.0724 380.65C77.3604 380.981 77.5097 381.413 77.5204 381.946C77.5204 382.426 77.387 382.858 77.1204 383.242C76.8537 383.626 76.475 383.93 75.9844 384.154C75.5044 384.368 74.9497 384.474 74.3204 384.474ZM83.3998 384.474C82.5784 384.474 81.8318 384.288 81.1598 383.914C80.4984 383.541 79.9758 383.013 79.5918 382.33C79.2184 381.637 79.0318 380.837 79.0318 379.93C79.0318 379.034 79.2238 378.245 79.6078 377.562C80.0024 376.869 80.5358 376.341 81.2078 375.978C81.8798 375.605 82.6318 375.418 83.4638 375.418C84.2958 375.418 85.0478 375.605 85.7198 375.978C86.3918 376.341 86.9198 376.864 87.3038 377.546C87.6984 378.229 87.8958 379.024 87.8958 379.93C87.8958 380.837 87.6931 381.637 87.2878 382.33C86.8931 383.013 86.3544 383.541 85.6718 383.914C84.9891 384.288 84.2318 384.474 83.3998 384.474ZM83.3998 383.194C83.9224 383.194 84.4131 383.072 84.8718 382.826C85.3304 382.581 85.6984 382.213 85.9758 381.722C86.2638 381.232 86.4078 380.634 86.4078 379.93C86.4078 379.226 86.2691 378.629 85.9918 378.138C85.7144 377.648 85.3518 377.285 84.9038 377.05C84.4558 376.805 83.9704 376.682 83.4478 376.682C82.9144 376.682 82.4238 376.805 81.9758 377.05C81.5384 377.285 81.1864 377.648 80.9198 378.138C80.6531 378.629 80.5198 379.226 80.5198 379.93C80.5198 380.645 80.6478 381.248 80.9038 381.738C81.1704 382.229 81.5224 382.597 81.9598 382.842C82.3971 383.077 82.8771 383.194 83.3998 383.194ZM94.0821 375.402C95.1488 375.402 96.0128 375.728 96.6741 376.378C97.3355 377.018 97.6661 377.946 97.6661 379.162V384.33H96.2261V379.37C96.2261 378.496 96.0075 377.829 95.5701 377.37C95.1328 376.901 94.5355 376.666 93.7781 376.666C93.0101 376.666 92.3968 376.906 91.9381 377.386C91.4901 377.866 91.2661 378.565 91.2661 379.482V384.33H89.8101V375.562H91.2661V376.81C91.5541 376.362 91.9435 376.016 92.4341 375.77C92.9355 375.525 93.4848 375.402 94.0821 375.402ZM99.5005 379.914C99.5005 379.018 99.6818 378.234 100.045 377.562C100.407 376.88 100.903 376.352 101.533 375.978C102.173 375.605 102.882 375.418 103.661 375.418C104.429 375.418 105.095 375.584 105.661 375.914C106.226 376.245 106.647 376.661 106.925 377.162V375.562H108.397V384.33H106.925V382.698C106.637 383.21 106.205 383.637 105.629 383.978C105.063 384.309 104.402 384.474 103.645 384.474C102.866 384.474 102.162 384.282 101.533 383.898C100.903 383.514 100.407 382.976 100.045 382.282C99.6818 381.589 99.5005 380.8 99.5005 379.914ZM106.925 379.93C106.925 379.269 106.791 378.693 106.525 378.202C106.258 377.712 105.895 377.338 105.437 377.082C104.989 376.816 104.493 376.682 103.949 376.682C103.405 376.682 102.909 376.81 102.461 377.066C102.013 377.322 101.655 377.696 101.389 378.186C101.122 378.677 100.989 379.253 100.989 379.914C100.989 380.586 101.122 381.173 101.389 381.674C101.655 382.165 102.013 382.544 102.461 382.81C102.909 383.066 103.405 383.194 103.949 383.194C104.493 383.194 104.989 383.066 105.437 382.81C105.895 382.544 106.258 382.165 106.525 381.674C106.791 381.173 106.925 380.592 106.925 379.93ZM112.313 372.49V384.33H110.857V372.49H112.313ZM115.547 374.138C115.269 374.138 115.035 374.042 114.843 373.85C114.651 373.658 114.555 373.424 114.555 373.146C114.555 372.869 114.651 372.634 114.843 372.442C115.035 372.25 115.269 372.154 115.547 372.154C115.813 372.154 116.037 372.25 116.219 372.442C116.411 372.634 116.507 372.869 116.507 373.146C116.507 373.424 116.411 373.658 116.219 373.85C116.037 374.042 115.813 374.138 115.547 374.138ZM116.251 375.562V384.33H114.795V375.562H116.251ZM119.82 383.13H124.124V384.33H118.156V383.13L122.412 376.746H118.188V375.562H124.092V376.746L119.82 383.13ZM134.013 379.61C134.013 379.888 133.997 380.181 133.965 380.49H126.957C127.011 381.354 127.304 382.032 127.837 382.522C128.381 383.002 129.037 383.242 129.805 383.242C130.435 383.242 130.957 383.098 131.373 382.81C131.8 382.512 132.099 382.117 132.269 381.626H133.837C133.603 382.469 133.133 383.157 132.429 383.69C131.725 384.213 130.851 384.474 129.805 384.474C128.973 384.474 128.227 384.288 127.565 383.914C126.915 383.541 126.403 383.013 126.029 382.33C125.656 381.637 125.469 380.837 125.469 379.93C125.469 379.024 125.651 378.229 126.013 377.546C126.376 376.864 126.883 376.341 127.533 375.978C128.195 375.605 128.952 375.418 129.805 375.418C130.637 375.418 131.373 375.6 132.013 375.962C132.653 376.325 133.144 376.826 133.485 377.466C133.837 378.096 134.013 378.81 134.013 379.61ZM132.509 379.306C132.509 378.752 132.387 378.277 132.141 377.882C131.896 377.477 131.56 377.173 131.133 376.97C130.717 376.757 130.253 376.65 129.741 376.65C129.005 376.65 128.376 376.885 127.853 377.354C127.341 377.824 127.048 378.474 126.973 379.306H132.509ZM135.391 379.914C135.391 379.018 135.572 378.234 135.935 377.562C136.298 376.88 136.794 376.352 137.423 375.978C138.063 375.605 138.778 375.418 139.567 375.418C140.25 375.418 140.884 375.578 141.471 375.898C142.058 376.208 142.506 376.618 142.815 377.13V372.49H144.287V384.33H142.815V382.682C142.527 383.205 142.1 383.637 141.535 383.978C140.97 384.309 140.308 384.474 139.551 384.474C138.772 384.474 138.063 384.282 137.423 383.898C136.794 383.514 136.298 382.976 135.935 382.282C135.572 381.589 135.391 380.8 135.391 379.914ZM142.815 379.93C142.815 379.269 142.682 378.693 142.415 378.202C142.148 377.712 141.786 377.338 141.327 377.082C140.879 376.816 140.383 376.682 139.839 376.682C139.295 376.682 138.799 376.81 138.351 377.066C137.903 377.322 137.546 377.696 137.279 378.186C137.012 378.677 136.879 379.253 136.879 379.914C136.879 380.586 137.012 381.173 137.279 381.674C137.546 382.165 137.903 382.544 138.351 382.81C138.799 383.066 139.295 383.194 139.839 383.194C140.383 383.194 140.879 383.066 141.327 382.81C141.786 382.544 142.148 382.165 142.415 381.674C142.682 381.173 142.815 380.592 142.815 379.93ZM157.605 381.85H152.741L151.845 384.33H150.309L154.341 373.242H156.021L160.037 384.33H158.501L157.605 381.85ZM157.189 380.666L155.173 375.034L153.157 380.666H157.189ZM161.251 379.914C161.251 379.018 161.432 378.234 161.795 377.562C162.157 376.88 162.653 376.352 163.283 375.978C163.923 375.605 164.637 375.418 165.427 375.418C166.109 375.418 166.744 375.578 167.331 375.898C167.917 376.208 168.365 376.618 168.675 377.13V372.49H170.147V384.33H168.675V382.682C168.387 383.205 167.96 383.637 167.395 383.978C166.829 384.309 166.168 384.474 165.411 384.474C164.632 384.474 163.923 384.282 163.283 383.898C162.653 383.514 162.157 382.976 161.795 382.282C161.432 381.589 161.251 380.8 161.251 379.914ZM168.675 379.93C168.675 379.269 168.541 378.693 168.275 378.202C168.008 377.712 167.645 377.338 167.187 377.082C166.739 376.816 166.243 376.682 165.699 376.682C165.155 376.682 164.659 376.81 164.211 377.066C163.763 377.322 163.405 377.696 163.139 378.186C162.872 378.677 162.739 379.253 162.739 379.914C162.739 380.586 162.872 381.173 163.139 381.674C163.405 382.165 163.763 382.544 164.211 382.81C164.659 383.066 165.155 383.194 165.699 383.194C166.243 383.194 166.739 383.066 167.187 382.81C167.645 382.544 168.008 382.165 168.275 381.674C168.541 381.173 168.675 380.592 168.675 379.93ZM175.871 382.986L178.591 375.562H180.143L176.703 384.33H175.007L171.567 375.562H173.135L175.871 382.986ZM182.328 374.138C182.05 374.138 181.816 374.042 181.624 373.85C181.432 373.658 181.336 373.424 181.336 373.146C181.336 372.869 181.432 372.634 181.624 372.442C181.816 372.25 182.05 372.154 182.328 372.154C182.594 372.154 182.818 372.25 183 372.442C183.192 372.634 183.288 372.869 183.288 373.146C183.288 373.424 183.192 373.658 183 373.85C182.818 374.042 182.594 374.138 182.328 374.138ZM183.032 375.562V384.33H181.576V375.562H183.032ZM184.969 379.93C184.969 379.024 185.151 378.234 185.513 377.562C185.876 376.88 186.377 376.352 187.017 375.978C187.668 375.605 188.409 375.418 189.241 375.418C190.319 375.418 191.204 375.68 191.897 376.202C192.601 376.725 193.065 377.45 193.289 378.378H191.721C191.572 377.845 191.279 377.424 190.841 377.114C190.415 376.805 189.881 376.65 189.241 376.65C188.409 376.65 187.737 376.938 187.225 377.514C186.713 378.08 186.457 378.885 186.457 379.93C186.457 380.986 186.713 381.802 187.225 382.378C187.737 382.954 188.409 383.242 189.241 383.242C189.881 383.242 190.415 383.093 190.841 382.794C191.268 382.496 191.561 382.069 191.721 381.514H193.289C193.055 382.41 192.585 383.13 191.881 383.674C191.177 384.208 190.297 384.474 189.241 384.474C188.409 384.474 187.668 384.288 187.017 383.914C186.377 383.541 185.876 383.013 185.513 382.33C185.151 381.648 184.969 380.848 184.969 379.93ZM203.232 379.61C203.232 379.888 203.216 380.181 203.184 380.49H196.176C196.229 381.354 196.523 382.032 197.056 382.522C197.6 383.002 198.256 383.242 199.024 383.242C199.653 383.242 200.176 383.098 200.592 382.81C201.019 382.512 201.317 382.117 201.488 381.626H203.056C202.821 382.469 202.352 383.157 201.648 383.69C200.944 384.213 200.069 384.474 199.024 384.474C198.192 384.474 197.445 384.288 196.784 383.914C196.133 383.541 195.621 383.013 195.248 382.33C194.875 381.637 194.688 380.837 194.688 379.93C194.688 379.024 194.869 378.229 195.232 377.546C195.595 376.864 196.101 376.341 196.752 375.978C197.413 375.605 198.171 375.418 199.024 375.418C199.856 375.418 200.592 375.6 201.232 375.962C201.872 376.325 202.363 376.826 202.704 377.466C203.056 378.096 203.232 378.81 203.232 379.61ZM201.728 379.306C201.728 378.752 201.605 378.277 201.36 377.882C201.115 377.477 200.779 377.173 200.352 376.97C199.936 376.757 199.472 376.65 198.96 376.65C198.224 376.65 197.595 376.885 197.072 377.354C196.56 377.824 196.267 378.474 196.192 379.306H201.728ZM216.284 373.178V374.362H213.244V384.33H211.788V374.362H208.732V373.178H216.284ZM221.9 384.474C221.078 384.474 220.332 384.288 219.66 383.914C218.998 383.541 218.476 383.013 218.092 382.33C217.718 381.637 217.532 380.837 217.532 379.93C217.532 379.034 217.724 378.245 218.108 377.562C218.502 376.869 219.036 376.341 219.708 375.978C220.38 375.605 221.132 375.418 221.964 375.418C222.796 375.418 223.548 375.605 224.22 375.978C224.892 376.341 225.42 376.864 225.804 377.546C226.198 378.229 226.396 379.024 226.396 379.93C226.396 380.837 226.193 381.637 225.788 382.33C225.393 383.013 224.854 383.541 224.172 383.914C223.489 384.288 222.732 384.474 221.9 384.474ZM221.9 383.194C222.422 383.194 222.913 383.072 223.372 382.826C223.83 382.581 224.198 382.213 224.476 381.722C224.764 381.232 224.908 380.634 224.908 379.93C224.908 379.226 224.769 378.629 224.492 378.138C224.214 377.648 223.852 377.285 223.404 377.05C222.956 376.805 222.47 376.682 221.948 376.682C221.414 376.682 220.924 376.805 220.476 377.05C220.038 377.285 219.686 377.648 219.42 378.138C219.153 378.629 219.02 379.226 219.02 379.93C219.02 380.645 219.148 381.248 219.404 381.738C219.67 382.229 220.022 382.597 220.46 382.842C220.897 383.077 221.377 383.194 221.9 383.194ZM241.168 373.178V384.33H239.712V379.274H234.032V384.33H232.576V373.178H234.032V378.074H239.712V373.178H241.168ZM251.654 379.61C251.654 379.888 251.638 380.181 251.606 380.49H244.598C244.651 381.354 244.945 382.032 245.478 382.522C246.022 383.002 246.678 383.242 247.446 383.242C248.075 383.242 248.598 383.098 249.014 382.81C249.441 382.512 249.739 382.117 249.91 381.626H251.478C251.243 382.469 250.774 383.157 250.07 383.69C249.366 384.213 248.491 384.474 247.446 384.474C246.614 384.474 245.867 384.288 245.206 383.914C244.555 383.541 244.043 383.013 243.67 382.33C243.297 381.637 243.11 380.837 243.11 379.93C243.11 379.024 243.291 378.229 243.654 377.546C244.017 376.864 244.523 376.341 245.174 375.978C245.835 375.605 246.593 375.418 247.446 375.418C248.278 375.418 249.014 375.6 249.654 375.962C250.294 376.325 250.785 376.826 251.126 377.466C251.478 378.096 251.654 378.81 251.654 379.61ZM250.15 379.306C250.15 378.752 250.027 378.277 249.782 377.882C249.537 377.477 249.201 377.173 248.774 376.97C248.358 376.757 247.894 376.65 247.382 376.65C246.646 376.65 246.017 376.885 245.494 377.354C244.982 377.824 244.689 378.474 244.614 379.306H250.15ZM255.032 372.49V384.33H253.576V372.49H255.032ZM258.969 377.178C259.257 376.677 259.684 376.261 260.249 375.93C260.825 375.589 261.492 375.418 262.249 375.418C263.028 375.418 263.732 375.605 264.361 375.978C265.001 376.352 265.503 376.88 265.865 377.562C266.228 378.234 266.409 379.018 266.409 379.914C266.409 380.8 266.228 381.589 265.865 382.282C265.503 382.976 265.001 383.514 264.361 383.898C263.732 384.282 263.028 384.474 262.249 384.474C261.503 384.474 260.841 384.309 260.265 383.978C259.7 383.637 259.268 383.216 258.969 382.714V388.49H257.513V375.562H258.969V377.178ZM264.921 379.914C264.921 379.253 264.788 378.677 264.521 378.186C264.255 377.696 263.892 377.322 263.433 377.066C262.985 376.81 262.489 376.682 261.945 376.682C261.412 376.682 260.916 376.816 260.457 377.082C260.009 377.338 259.647 377.717 259.369 378.218C259.103 378.709 258.969 379.28 258.969 379.93C258.969 380.592 259.103 381.173 259.369 381.674C259.647 382.165 260.009 382.544 260.457 382.81C260.916 383.066 261.412 383.194 261.945 383.194C262.489 383.194 262.985 383.066 263.433 382.81C263.892 382.544 264.255 382.165 264.521 381.674C264.788 381.173 264.921 380.586 264.921 379.914ZM280.399 373.178L276.767 380.122V384.33H275.311V380.122L271.663 373.178H273.279L276.031 378.826L278.783 373.178H280.399ZM285.759 384.474C284.938 384.474 284.191 384.288 283.519 383.914C282.858 383.541 282.335 383.013 281.951 382.33C281.578 381.637 281.391 380.837 281.391 379.93C281.391 379.034 281.583 378.245 281.967 377.562C282.362 376.869 282.895 376.341 283.567 375.978C284.239 375.605 284.991 375.418 285.823 375.418C286.655 375.418 287.407 375.605 288.079 375.978C288.751 376.341 289.279 376.864 289.663 377.546C290.058 378.229 290.255 379.024 290.255 379.93C290.255 380.837 290.052 381.637 289.647 382.33C289.252 383.013 288.714 383.541 288.031 383.914C287.348 384.288 286.591 384.474 285.759 384.474ZM285.759 383.194C286.282 383.194 286.772 383.072 287.231 382.826C287.69 382.581 288.058 382.213 288.335 381.722C288.623 381.232 288.767 380.634 288.767 379.93C288.767 379.226 288.628 378.629 288.351 378.138C288.074 377.648 287.711 377.285 287.263 377.05C286.815 376.805 286.33 376.682 285.807 376.682C285.274 376.682 284.783 376.805 284.335 377.05C283.898 377.285 283.546 377.648 283.279 378.138C283.012 378.629 282.879 379.226 282.879 379.93C282.879 380.645 283.007 381.248 283.263 381.738C283.53 382.229 283.882 382.597 284.319 382.842C284.756 383.077 285.236 383.194 285.759 383.194ZM299.946 375.562V384.33H298.49V383.034C298.212 383.482 297.823 383.834 297.322 384.09C296.831 384.336 296.287 384.458 295.69 384.458C295.007 384.458 294.394 384.32 293.85 384.042C293.306 383.754 292.874 383.328 292.554 382.762C292.244 382.197 292.09 381.509 292.09 380.698V375.562H293.53V380.506C293.53 381.37 293.748 382.037 294.186 382.506C294.623 382.965 295.22 383.194 295.978 383.194C296.756 383.194 297.37 382.954 297.818 382.474C298.266 381.994 298.49 381.296 298.49 380.378V375.562H299.946ZM68.6678 416.85H63.8038L62.9078 419.33H61.3717L65.4038 408.242H67.0838L71.0998 419.33H69.5638L68.6678 416.85ZM68.2518 415.666L66.2358 410.034L64.2198 415.666H68.2518ZM72.313 414.93C72.313 414.024 72.4943 413.234 72.857 412.562C73.2197 411.88 73.721 411.352 74.361 410.978C75.0117 410.605 75.753 410.418 76.585 410.418C77.6623 410.418 78.5477 410.68 79.241 411.202C79.945 411.725 80.409 412.45 80.633 413.378H79.065C78.9157 412.845 78.6223 412.424 78.185 412.114C77.7583 411.805 77.225 411.65 76.585 411.65C75.753 411.65 75.081 411.938 74.569 412.514C74.057 413.08 73.801 413.885 73.801 414.93C73.801 415.986 74.057 416.802 74.569 417.378C75.081 417.954 75.753 418.242 76.585 418.242C77.225 418.242 77.7583 418.093 78.185 417.794C78.6117 417.496 78.905 417.069 79.065 416.514H80.633C80.3983 417.41 79.929 418.13 79.225 418.674C78.521 419.208 77.641 419.474 76.585 419.474C75.753 419.474 75.0117 419.288 74.361 418.914C73.721 418.541 73.2197 418.013 72.857 417.33C72.4943 416.648 72.313 415.848 72.313 414.93ZM86.9278 410.402C87.5891 410.402 88.1864 410.546 88.7198 410.834C89.2531 411.112 89.6691 411.533 89.9678 412.098C90.2771 412.664 90.4318 413.352 90.4318 414.162V419.33H88.9918V414.37C88.9918 413.496 88.7731 412.829 88.3358 412.37C87.8984 411.901 87.3011 411.666 86.5438 411.666C85.7758 411.666 85.1624 411.906 84.7038 412.386C84.2558 412.866 84.0318 413.565 84.0318 414.482V419.33H82.5758V407.49H84.0318V411.81C84.3198 411.362 84.7144 411.016 85.2158 410.77C85.7278 410.525 86.2984 410.402 86.9278 410.402ZM93.5621 409.138C93.2848 409.138 93.0501 409.042 92.8581 408.85C92.6661 408.658 92.5701 408.424 92.5701 408.146C92.5701 407.869 92.6661 407.634 92.8581 407.442C93.0501 407.25 93.2848 407.154 93.5621 407.154C93.8288 407.154 94.0528 407.25 94.2341 407.442C94.4261 407.634 94.5221 407.869 94.5221 408.146C94.5221 408.424 94.4261 408.658 94.2341 408.85C94.0528 409.042 93.8288 409.138 93.5621 409.138ZM94.2661 410.562V419.33H92.8101V410.562H94.2661ZM104.748 414.61C104.748 414.888 104.732 415.181 104.7 415.49H97.6916C97.745 416.354 98.0383 417.032 98.5716 417.522C99.1156 418.002 99.7716 418.242 100.54 418.242C101.169 418.242 101.692 418.098 102.108 417.81C102.534 417.512 102.833 417.117 103.004 416.626H104.572C104.337 417.469 103.868 418.157 103.164 418.69C102.46 419.213 101.585 419.474 100.54 419.474C99.7076 419.474 98.961 419.288 98.2996 418.914C97.649 418.541 97.137 418.013 96.7636 417.33C96.3903 416.637 96.2036 415.837 96.2036 414.93C96.2036 414.024 96.385 413.229 96.7476 412.546C97.1103 411.864 97.617 411.341 98.2676 410.978C98.929 410.605 99.6863 410.418 100.54 410.418C101.372 410.418 102.108 410.6 102.748 410.962C103.388 411.325 103.878 411.826 104.22 412.466C104.572 413.096 104.748 413.81 104.748 414.61ZM103.244 414.306C103.244 413.752 103.121 413.277 102.876 412.882C102.63 412.477 102.294 412.173 101.868 411.97C101.452 411.757 100.988 411.65 100.476 411.65C99.7396 411.65 99.1103 411.885 98.5876 412.354C98.0756 412.824 97.7823 413.474 97.7076 414.306H103.244ZM109.934 417.986L112.654 410.562H114.206L110.766 419.33H109.07L105.63 410.562H107.198L109.934 417.986ZM123.638 414.61C123.638 414.888 123.622 415.181 123.59 415.49H116.582C116.636 416.354 116.929 417.032 117.462 417.522C118.006 418.002 118.662 418.242 119.43 418.242C120.06 418.242 120.582 418.098 120.998 417.81C121.425 417.512 121.724 417.117 121.894 416.626H123.462C123.228 417.469 122.758 418.157 122.054 418.69C121.35 419.213 120.476 419.474 119.43 419.474C118.598 419.474 117.852 419.288 117.19 418.914C116.54 418.541 116.028 418.013 115.654 417.33C115.281 416.637 115.094 415.837 115.094 414.93C115.094 414.024 115.276 413.229 115.638 412.546C116.001 411.864 116.508 411.341 117.158 410.978C117.82 410.605 118.577 410.418 119.43 410.418C120.262 410.418 120.998 410.6 121.638 410.962C122.278 411.325 122.769 411.826 123.11 412.466C123.462 413.096 123.638 413.81 123.638 414.61ZM122.134 414.306C122.134 413.752 122.012 413.277 121.766 412.882C121.521 412.477 121.185 412.173 120.758 411.97C120.342 411.757 119.878 411.65 119.366 411.65C118.63 411.65 118.001 411.885 117.478 412.354C116.966 412.824 116.673 413.474 116.598 414.306H122.134ZM134.882 419.442C133.847 419.442 132.903 419.202 132.05 418.722C131.196 418.232 130.519 417.554 130.018 416.69C129.527 415.816 129.282 414.834 129.282 413.746C129.282 412.658 129.527 411.682 130.018 410.818C130.519 409.944 131.196 409.266 132.05 408.786C132.903 408.296 133.847 408.05 134.882 408.05C135.927 408.05 136.876 408.296 137.73 408.786C138.583 409.266 139.255 409.938 139.746 410.802C140.236 411.666 140.482 412.648 140.482 413.746C140.482 414.845 140.236 415.826 139.746 416.69C139.255 417.554 138.583 418.232 137.73 418.722C136.876 419.202 135.927 419.442 134.882 419.442ZM134.882 418.178C135.66 418.178 136.359 417.997 136.978 417.634C137.607 417.272 138.098 416.754 138.45 416.082C138.812 415.41 138.994 414.632 138.994 413.746C138.994 412.85 138.812 412.072 138.45 411.41C138.098 410.738 137.612 410.221 136.994 409.858C136.375 409.496 135.671 409.314 134.882 409.314C134.092 409.314 133.388 409.496 132.77 409.858C132.151 410.221 131.66 410.738 131.298 411.41C130.946 412.072 130.77 412.85 130.77 413.746C130.77 414.632 130.946 415.41 131.298 416.082C131.66 416.754 132.151 417.272 132.77 417.634C133.399 417.997 134.103 418.178 134.882 418.178ZM143.86 412.178C144.148 411.677 144.575 411.261 145.14 410.93C145.716 410.589 146.383 410.418 147.14 410.418C147.919 410.418 148.623 410.605 149.252 410.978C149.892 411.352 150.393 411.88 150.756 412.562C151.119 413.234 151.3 414.018 151.3 414.914C151.3 415.8 151.119 416.589 150.756 417.282C150.393 417.976 149.892 418.514 149.252 418.898C148.623 419.282 147.919 419.474 147.14 419.474C146.393 419.474 145.732 419.309 145.156 418.978C144.591 418.637 144.159 418.216 143.86 417.714V423.49H142.404V410.562H143.86V412.178ZM149.812 414.914C149.812 414.253 149.679 413.677 149.412 413.186C149.145 412.696 148.783 412.322 148.324 412.066C147.876 411.81 147.38 411.682 146.836 411.682C146.303 411.682 145.807 411.816 145.348 412.082C144.9 412.338 144.537 412.717 144.26 413.218C143.993 413.709 143.86 414.28 143.86 414.93C143.86 415.592 143.993 416.173 144.26 416.674C144.537 417.165 144.9 417.544 145.348 417.81C145.807 418.066 146.303 418.194 146.836 418.194C147.38 418.194 147.876 418.066 148.324 417.81C148.783 417.544 149.145 417.165 149.412 416.674C149.679 416.173 149.812 415.586 149.812 414.914ZM154.992 411.762V416.93C154.992 417.357 155.083 417.661 155.264 417.842C155.446 418.013 155.76 418.098 156.208 418.098H157.28V419.33H155.968C155.158 419.33 154.55 419.144 154.144 418.77C153.739 418.397 153.536 417.784 153.536 416.93V411.762H152.4V410.562H153.536V408.354H154.992V410.562H157.28V411.762H154.992ZM159.797 409.138C159.519 409.138 159.285 409.042 159.093 408.85C158.901 408.658 158.805 408.424 158.805 408.146C158.805 407.869 158.901 407.634 159.093 407.442C159.285 407.25 159.519 407.154 159.797 407.154C160.063 407.154 160.287 407.25 160.469 407.442C160.661 407.634 160.757 407.869 160.757 408.146C160.757 408.424 160.661 408.658 160.469 408.85C160.287 409.042 160.063 409.138 159.797 409.138ZM160.501 410.562V419.33H159.045V410.562H160.501ZM173.526 410.402C174.209 410.402 174.817 410.546 175.35 410.834C175.883 411.112 176.305 411.533 176.614 412.098C176.923 412.664 177.078 413.352 177.078 414.162V419.33H175.638V414.37C175.638 413.496 175.419 412.829 174.982 412.37C174.555 411.901 173.974 411.666 173.238 411.666C172.481 411.666 171.878 411.912 171.43 412.402C170.982 412.882 170.758 413.581 170.758 414.498V419.33H169.318V414.37C169.318 413.496 169.099 412.829 168.662 412.37C168.235 411.901 167.654 411.666 166.918 411.666C166.161 411.666 165.558 411.912 165.11 412.402C164.662 412.882 164.438 413.581 164.438 414.498V419.33H162.982V410.562H164.438V411.826C164.726 411.368 165.11 411.016 165.59 410.77C166.081 410.525 166.619 410.402 167.206 410.402C167.942 410.402 168.593 410.568 169.158 410.898C169.723 411.229 170.145 411.714 170.422 412.354C170.667 411.736 171.073 411.256 171.638 410.914C172.203 410.573 172.833 410.402 173.526 410.402ZM178.922 414.914C178.922 414.018 179.104 413.234 179.466 412.562C179.829 411.88 180.325 411.352 180.954 410.978C181.594 410.605 182.304 410.418 183.082 410.418C183.85 410.418 184.517 410.584 185.082 410.914C185.648 411.245 186.069 411.661 186.346 412.162V410.562H187.818V419.33H186.346V417.698C186.058 418.21 185.626 418.637 185.05 418.978C184.485 419.309 183.824 419.474 183.066 419.474C182.288 419.474 181.584 419.282 180.954 418.898C180.325 418.514 179.829 417.976 179.466 417.282C179.104 416.589 178.922 415.8 178.922 414.914ZM186.346 414.93C186.346 414.269 186.213 413.693 185.946 413.202C185.68 412.712 185.317 412.338 184.858 412.082C184.41 411.816 183.914 411.682 183.37 411.682C182.826 411.682 182.33 411.81 181.882 412.066C181.434 412.322 181.077 412.696 180.81 413.186C180.544 413.677 180.41 414.253 180.41 414.914C180.41 415.586 180.544 416.173 180.81 416.674C181.077 417.165 181.434 417.544 181.882 417.81C182.33 418.066 182.826 418.194 183.37 418.194C183.914 418.194 184.41 418.066 184.858 417.81C185.317 417.544 185.68 417.165 185.946 416.674C186.213 416.173 186.346 415.592 186.346 414.93ZM191.735 407.49V419.33H190.279V407.49H191.735ZM207.074 408.178V419.33H205.618V414.274H199.938V419.33H198.482V408.178H199.938V413.074H205.618V408.178H207.074ZM217.56 414.61C217.56 414.888 217.544 415.181 217.512 415.49H210.504C210.557 416.354 210.851 417.032 211.384 417.522C211.928 418.002 212.584 418.242 213.352 418.242C213.981 418.242 214.504 418.098 214.92 417.81C215.347 417.512 215.645 417.117 215.816 416.626H217.384C217.149 417.469 216.68 418.157 215.976 418.69C215.272 419.213 214.397 419.474 213.352 419.474C212.52 419.474 211.773 419.288 211.112 418.914C210.461 418.541 209.949 418.013 209.576 417.33C209.203 416.637 209.016 415.837 209.016 414.93C209.016 414.024 209.197 413.229 209.56 412.546C209.923 411.864 210.429 411.341 211.08 410.978C211.741 410.605 212.499 410.418 213.352 410.418C214.184 410.418 214.92 410.6 215.56 410.962C216.2 411.325 216.691 411.826 217.032 412.466C217.384 413.096 217.56 413.81 217.56 414.61ZM216.056 414.306C216.056 413.752 215.933 413.277 215.688 412.882C215.443 412.477 215.107 412.173 214.68 411.97C214.264 411.757 213.8 411.65 213.288 411.65C212.552 411.65 211.923 411.885 211.4 412.354C210.888 412.824 210.595 413.474 210.52 414.306H216.056ZM218.938 414.914C218.938 414.018 219.119 413.234 219.482 412.562C219.845 411.88 220.341 411.352 220.97 410.978C221.61 410.605 222.319 410.418 223.098 410.418C223.866 410.418 224.533 410.584 225.098 410.914C225.663 411.245 226.085 411.661 226.362 412.162V410.562H227.834V419.33H226.362V417.698C226.074 418.21 225.642 418.637 225.066 418.978C224.501 419.309 223.839 419.474 223.082 419.474C222.303 419.474 221.599 419.282 220.97 418.898C220.341 418.514 219.845 417.976 219.482 417.282C219.119 416.589 218.938 415.8 218.938 414.914ZM226.362 414.93C226.362 414.269 226.229 413.693 225.962 413.202C225.695 412.712 225.333 412.338 224.874 412.082C224.426 411.816 223.93 411.682 223.386 411.682C222.842 411.682 222.346 411.81 221.898 412.066C221.45 412.322 221.093 412.696 220.826 413.186C220.559 413.677 220.426 414.253 220.426 414.914C220.426 415.586 220.559 416.173 220.826 416.674C221.093 417.165 221.45 417.544 221.898 417.81C222.346 418.066 222.842 418.194 223.386 418.194C223.93 418.194 224.426 418.066 224.874 417.81C225.333 417.544 225.695 417.165 225.962 416.674C226.229 416.173 226.362 415.592 226.362 414.93ZM231.751 407.49V419.33H230.295V407.49H231.751ZM236.008 411.762V416.93C236.008 417.357 236.099 417.661 236.28 417.842C236.461 418.013 236.776 418.098 237.224 418.098H238.296V419.33H236.984C236.173 419.33 235.565 419.144 235.16 418.77C234.755 418.397 234.552 417.784 234.552 416.93V411.762H233.416V410.562H234.552V408.354H236.008V410.562H238.296V411.762H236.008ZM244.412 410.402C245.073 410.402 245.671 410.546 246.204 410.834C246.737 411.112 247.153 411.533 247.452 412.098C247.761 412.664 247.916 413.352 247.916 414.162V419.33H246.476V414.37C246.476 413.496 246.257 412.829 245.82 412.37C245.383 411.901 244.785 411.666 244.028 411.666C243.26 411.666 242.647 411.906 242.188 412.386C241.74 412.866 241.516 413.565 241.516 414.482V419.33H240.06V407.49H241.516V411.81C241.804 411.362 242.199 411.016 242.7 410.77C243.212 410.525 243.783 410.402 244.412 410.402ZM261.152 416.85H256.288L255.392 419.33H253.856L257.888 408.242H259.568L263.584 419.33H262.048L261.152 416.85ZM260.736 415.666L258.72 410.034L256.704 415.666H260.736ZM269.613 410.402C270.68 410.402 271.544 410.728 272.205 411.378C272.867 412.018 273.197 412.946 273.197 414.162V419.33H271.757V414.37C271.757 413.496 271.539 412.829 271.101 412.37C270.664 411.901 270.067 411.666 269.309 411.666C268.541 411.666 267.928 411.906 267.469 412.386C267.021 412.866 266.797 413.565 266.797 414.482V419.33H265.341V410.562H266.797V411.81C267.085 411.362 267.475 411.016 267.965 410.77C268.467 410.525 269.016 410.402 269.613 410.402ZM275.032 414.914C275.032 414.018 275.213 413.234 275.576 412.562C275.938 411.88 276.434 411.352 277.064 410.978C277.704 410.605 278.418 410.418 279.208 410.418C279.89 410.418 280.525 410.578 281.112 410.898C281.698 411.208 282.146 411.618 282.456 412.13V407.49H283.928V419.33H282.456V417.682C282.168 418.205 281.741 418.637 281.176 418.978C280.61 419.309 279.949 419.474 279.192 419.474C278.413 419.474 277.704 419.282 277.064 418.898C276.434 418.514 275.938 417.976 275.576 417.282C275.213 416.589 275.032 415.8 275.032 414.914ZM282.456 414.93C282.456 414.269 282.322 413.693 282.056 413.202C281.789 412.712 281.426 412.338 280.968 412.082C280.52 411.816 280.024 411.682 279.48 411.682C278.936 411.682 278.44 411.81 277.992 412.066C277.544 412.322 277.186 412.696 276.92 413.186C276.653 413.677 276.52 414.253 276.52 414.914C276.52 415.586 276.653 416.173 276.92 416.674C277.186 417.165 277.544 417.544 277.992 417.81C278.44 418.066 278.936 418.194 279.48 418.194C280.024 418.194 280.52 418.066 280.968 417.81C281.426 417.544 281.789 417.165 282.056 416.674C282.322 416.173 282.456 415.592 282.456 414.93ZM77.7001 443.178V444.362H72.8521V448.122H76.7881V449.306H72.8521V454.33H71.3961V443.178H77.7001ZM80.2106 444.138C79.9332 444.138 79.6986 444.042 79.5066 443.85C79.3146 443.658 79.2186 443.424 79.2186 443.146C79.2186 442.869 79.3146 442.634 79.5066 442.442C79.6986 442.25 79.9332 442.154 80.2106 442.154C80.4772 442.154 80.7012 442.25 80.8826 442.442C81.0746 442.634 81.1706 442.869 81.1706 443.146C81.1706 443.424 81.0746 443.658 80.8826 443.85C80.7012 444.042 80.4772 444.138 80.2106 444.138ZM80.9146 445.562V454.33H79.4586V445.562H80.9146ZM85.1721 446.762V451.93C85.1721 452.357 85.2627 452.661 85.4441 452.842C85.6254 453.013 85.9401 453.098 86.3881 453.098H87.4601V454.33H86.1481C85.3374 454.33 84.7294 454.144 84.3241 453.77C83.9187 453.397 83.7161 452.784 83.7161 451.93V446.762H82.5801V445.562H83.7161V443.354H85.1721V445.562H87.4601V446.762H85.1721ZM93.4962 445.402C94.5629 445.402 95.4269 445.728 96.0882 446.378C96.7495 447.018 97.0802 447.946 97.0802 449.162V454.33H95.6402V449.37C95.6402 448.496 95.4215 447.829 94.9842 447.37C94.5469 446.901 93.9495 446.666 93.1922 446.666C92.4242 446.666 91.8109 446.906 91.3522 447.386C90.9042 447.866 90.6802 448.565 90.6802 449.482V454.33H89.2242V445.562H90.6802V446.81C90.9682 446.362 91.3575 446.016 91.8482 445.77C92.3495 445.525 92.8989 445.402 93.4962 445.402ZM107.459 449.61C107.459 449.888 107.443 450.181 107.411 450.49H100.403C100.456 451.354 100.749 452.032 101.283 452.522C101.827 453.002 102.483 453.242 103.251 453.242C103.88 453.242 104.403 453.098 104.819 452.81C105.245 452.512 105.544 452.117 105.715 451.626H107.283C107.048 452.469 106.579 453.157 105.875 453.69C105.171 454.213 104.296 454.474 103.251 454.474C102.419 454.474 101.672 454.288 101.011 453.914C100.36 453.541 99.8479 453.013 99.4746 452.33C99.1012 451.637 98.9146 450.837 98.9146 449.93C98.9146 449.024 99.0959 448.229 99.4586 447.546C99.8212 446.864 100.328 446.341 100.979 445.978C101.64 445.605 102.397 445.418 103.251 445.418C104.083 445.418 104.819 445.6 105.459 445.962C106.099 446.325 106.589 446.826 106.931 447.466C107.283 448.096 107.459 448.81 107.459 449.61ZM105.955 449.306C105.955 448.752 105.832 448.277 105.587 447.882C105.341 447.477 105.005 447.173 104.579 446.97C104.163 446.757 103.699 446.65 103.187 446.65C102.451 446.65 101.821 446.885 101.299 447.354C100.787 447.824 100.493 448.474 100.419 449.306H105.955ZM112.484 454.474C111.812 454.474 111.21 454.362 110.676 454.138C110.143 453.904 109.722 453.584 109.412 453.178C109.103 452.762 108.932 452.288 108.9 451.754H110.404C110.447 452.192 110.65 452.549 111.012 452.826C111.386 453.104 111.871 453.242 112.468 453.242C113.023 453.242 113.46 453.12 113.78 452.874C114.1 452.629 114.26 452.32 114.26 451.946C114.26 451.562 114.09 451.28 113.748 451.098C113.407 450.906 112.879 450.72 112.164 450.538C111.514 450.368 110.98 450.197 110.564 450.026C110.159 449.845 109.807 449.584 109.508 449.242C109.22 448.89 109.076 448.432 109.076 447.866C109.076 447.418 109.21 447.008 109.476 446.634C109.743 446.261 110.122 445.968 110.612 445.754C111.103 445.53 111.663 445.418 112.292 445.418C113.263 445.418 114.047 445.664 114.644 446.154C115.242 446.645 115.562 447.317 115.604 448.17H114.148C114.116 447.712 113.93 447.344 113.588 447.066C113.258 446.789 112.81 446.65 112.244 446.65C111.722 446.65 111.306 446.762 110.996 446.986C110.687 447.21 110.532 447.504 110.532 447.866C110.532 448.154 110.623 448.394 110.804 448.586C110.996 448.768 111.231 448.917 111.508 449.034C111.796 449.141 112.191 449.264 112.692 449.402C113.322 449.573 113.834 449.744 114.228 449.914C114.623 450.074 114.959 450.32 115.236 450.65C115.524 450.981 115.674 451.413 115.684 451.946C115.684 452.426 115.551 452.858 115.284 453.242C115.018 453.626 114.639 453.93 114.148 454.154C113.668 454.368 113.114 454.474 112.484 454.474ZM120.844 454.474C120.172 454.474 119.569 454.362 119.036 454.138C118.502 453.904 118.081 453.584 117.772 453.178C117.462 452.762 117.292 452.288 117.26 451.754H118.764C118.806 452.192 119.009 452.549 119.372 452.826C119.745 453.104 120.23 453.242 120.828 453.242C121.382 453.242 121.82 453.12 122.14 452.874C122.46 452.629 122.62 452.32 122.62 451.946C122.62 451.562 122.449 451.28 122.108 451.098C121.766 450.906 121.238 450.72 120.524 450.538C119.873 450.368 119.34 450.197 118.924 450.026C118.518 449.845 118.166 449.584 117.868 449.242C117.58 448.89 117.436 448.432 117.436 447.866C117.436 447.418 117.569 447.008 117.836 446.634C118.102 446.261 118.481 445.968 118.972 445.754C119.462 445.53 120.022 445.418 120.652 445.418C121.622 445.418 122.406 445.664 123.004 446.154C123.601 446.645 123.921 447.317 123.964 448.17H122.508C122.476 447.712 122.289 447.344 121.948 447.066C121.617 446.789 121.169 446.65 120.604 446.65C120.081 446.65 119.665 446.762 119.356 446.986C119.046 447.21 118.892 447.504 118.892 447.866C118.892 448.154 118.982 448.394 119.164 448.586C119.356 448.768 119.59 448.917 119.868 449.034C120.156 449.141 120.55 449.264 121.052 449.402C121.681 449.573 122.193 449.744 122.588 449.914C122.982 450.074 123.318 450.32 123.596 450.65C123.884 450.981 124.033 451.413 124.044 451.946C124.044 452.426 123.91 452.858 123.644 453.242C123.377 453.626 122.998 453.93 122.508 454.154C122.028 454.368 121.473 454.474 120.844 454.474ZM137.229 443.178V444.362H134.189V454.33H132.733V444.362H129.677V443.178H137.229ZM143.373 445.402C144.034 445.402 144.632 445.546 145.165 445.834C145.698 446.112 146.114 446.533 146.413 447.098C146.722 447.664 146.877 448.352 146.877 449.162V454.33H145.437V449.37C145.437 448.496 145.218 447.829 144.781 447.37C144.344 446.901 143.746 446.666 142.989 446.666C142.221 446.666 141.608 446.906 141.149 447.386C140.701 447.866 140.477 448.565 140.477 449.482V454.33H139.021V442.49H140.477V446.81C140.765 446.362 141.16 446.016 141.661 445.77C142.173 445.525 142.744 445.402 143.373 445.402ZM150.711 446.986C150.967 446.485 151.33 446.096 151.799 445.818C152.279 445.541 152.861 445.402 153.543 445.402V446.906H153.159C151.527 446.906 150.711 447.792 150.711 449.562V454.33H149.255V445.562H150.711V446.986ZM159.048 454.474C158.227 454.474 157.48 454.288 156.808 453.914C156.147 453.541 155.624 453.013 155.24 452.33C154.867 451.637 154.68 450.837 154.68 449.93C154.68 449.034 154.872 448.245 155.256 447.562C155.651 446.869 156.184 446.341 156.856 445.978C157.528 445.605 158.28 445.418 159.112 445.418C159.944 445.418 160.696 445.605 161.368 445.978C162.04 446.341 162.568 446.864 162.952 447.546C163.347 448.229 163.544 449.024 163.544 449.93C163.544 450.837 163.342 451.637 162.936 452.33C162.542 453.013 162.003 453.541 161.32 453.914C160.638 454.288 159.88 454.474 159.048 454.474ZM159.048 453.194C159.571 453.194 160.062 453.072 160.52 452.826C160.979 452.581 161.347 452.213 161.624 451.722C161.912 451.232 162.056 450.634 162.056 449.93C162.056 449.226 161.918 448.629 161.64 448.138C161.363 447.648 161 447.285 160.552 447.05C160.104 446.805 159.619 446.682 159.096 446.682C158.563 446.682 158.072 446.805 157.624 447.05C157.187 447.285 156.835 447.648 156.568 448.138C156.302 448.629 156.168 449.226 156.168 449.93C156.168 450.645 156.296 451.248 156.552 451.738C156.819 452.229 157.171 452.597 157.608 452.842C158.046 453.077 158.526 453.194 159.048 453.194ZM173.235 445.562V454.33H171.779V453.034C171.501 453.482 171.112 453.834 170.611 454.09C170.12 454.336 169.576 454.458 168.979 454.458C168.296 454.458 167.683 454.32 167.139 454.042C166.595 453.754 166.163 453.328 165.843 452.762C165.533 452.197 165.379 451.509 165.379 450.698V445.562H166.819V450.506C166.819 451.37 167.037 452.037 167.475 452.506C167.912 452.965 168.509 453.194 169.267 453.194C170.045 453.194 170.659 452.954 171.107 452.474C171.555 451.994 171.779 451.296 171.779 450.378V445.562H173.235ZM179.309 445.418C180.066 445.418 180.728 445.584 181.293 445.914C181.869 446.245 182.296 446.661 182.573 447.162V445.562H184.045V454.522C184.045 455.322 183.874 456.032 183.533 456.65C183.192 457.28 182.701 457.77 182.061 458.122C181.432 458.474 180.696 458.65 179.853 458.65C178.701 458.65 177.741 458.378 176.973 457.834C176.205 457.29 175.752 456.549 175.613 455.61H177.053C177.213 456.144 177.544 456.57 178.045 456.89C178.546 457.221 179.149 457.386 179.853 457.386C180.653 457.386 181.304 457.136 181.805 456.634C182.317 456.133 182.573 455.429 182.573 454.522V452.682C182.285 453.194 181.858 453.621 181.293 453.962C180.728 454.304 180.066 454.474 179.309 454.474C178.53 454.474 177.821 454.282 177.181 453.898C176.552 453.514 176.056 452.976 175.693 452.282C175.33 451.589 175.149 450.8 175.149 449.914C175.149 449.018 175.33 448.234 175.693 447.562C176.056 446.88 176.552 446.352 177.181 445.978C177.821 445.605 178.53 445.418 179.309 445.418ZM182.573 449.93C182.573 449.269 182.44 448.693 182.173 448.202C181.906 447.712 181.544 447.338 181.085 447.082C180.637 446.816 180.141 446.682 179.597 446.682C179.053 446.682 178.557 446.81 178.109 447.066C177.661 447.322 177.304 447.696 177.037 448.186C176.77 448.677 176.637 449.253 176.637 449.914C176.637 450.586 176.77 451.173 177.037 451.674C177.304 452.165 177.661 452.544 178.109 452.81C178.557 453.066 179.053 453.194 179.597 453.194C180.141 453.194 180.637 453.066 181.085 452.81C181.544 452.544 181.906 452.165 182.173 451.674C182.44 451.173 182.573 450.592 182.573 449.93ZM190.857 445.402C191.519 445.402 192.116 445.546 192.649 445.834C193.183 446.112 193.599 446.533 193.897 447.098C194.207 447.664 194.361 448.352 194.361 449.162V454.33H192.921V449.37C192.921 448.496 192.703 447.829 192.265 447.37C191.828 446.901 191.231 446.666 190.473 446.666C189.705 446.666 189.092 446.906 188.633 447.386C188.185 447.866 187.961 448.565 187.961 449.482V454.33H186.505V442.49H187.961V446.81C188.249 446.362 188.644 446.016 189.145 445.77C189.657 445.525 190.228 445.402 190.857 445.402ZM206.589 448.586C206.995 448.65 207.363 448.816 207.693 449.082C208.035 449.349 208.301 449.68 208.493 450.074C208.696 450.469 208.797 450.89 208.797 451.338C208.797 451.904 208.653 452.416 208.365 452.874C208.077 453.322 207.656 453.68 207.101 453.946C206.557 454.202 205.912 454.33 205.165 454.33H201.005V443.178H205.005C205.763 443.178 206.408 443.306 206.941 443.562C207.475 443.808 207.875 444.144 208.141 444.57C208.408 444.997 208.541 445.477 208.541 446.01C208.541 446.672 208.36 447.221 207.997 447.658C207.645 448.085 207.176 448.394 206.589 448.586ZM202.461 447.994H204.909C205.592 447.994 206.12 447.834 206.493 447.514C206.867 447.194 207.053 446.752 207.053 446.186C207.053 445.621 206.867 445.178 206.493 444.858C206.12 444.538 205.581 444.378 204.877 444.378H202.461V447.994ZM205.037 453.13C205.763 453.13 206.328 452.96 206.733 452.618C207.139 452.277 207.341 451.802 207.341 451.194C207.341 450.576 207.128 450.09 206.701 449.738C206.275 449.376 205.704 449.194 204.989 449.194H202.461V453.13H205.037ZM210.274 449.914C210.274 449.018 210.455 448.234 210.818 447.562C211.181 446.88 211.677 446.352 212.306 445.978C212.946 445.605 213.655 445.418 214.434 445.418C215.202 445.418 215.869 445.584 216.434 445.914C216.999 446.245 217.421 446.661 217.698 447.162V445.562H219.17V454.33H217.698V452.698C217.41 453.21 216.978 453.637 216.402 453.978C215.837 454.309 215.175 454.474 214.418 454.474C213.639 454.474 212.935 454.282 212.306 453.898C211.677 453.514 211.181 452.976 210.818 452.282C210.455 451.589 210.274 450.8 210.274 449.914ZM217.698 449.93C217.698 449.269 217.565 448.693 217.298 448.202C217.031 447.712 216.669 447.338 216.21 447.082C215.762 446.816 215.266 446.682 214.722 446.682C214.178 446.682 213.682 446.81 213.234 447.066C212.786 447.322 212.429 447.696 212.162 448.186C211.895 448.677 211.762 449.253 211.762 449.914C211.762 450.586 211.895 451.173 212.162 451.674C212.429 452.165 212.786 452.544 213.234 452.81C213.682 453.066 214.178 453.194 214.722 453.194C215.266 453.194 215.762 453.066 216.21 452.81C216.669 452.544 217.031 452.165 217.298 451.674C217.565 451.173 217.698 450.592 217.698 449.93ZM223.086 442.49V454.33H221.63V442.49H223.086ZM225.024 449.914C225.024 449.018 225.205 448.234 225.568 447.562C225.931 446.88 226.427 446.352 227.056 445.978C227.696 445.605 228.405 445.418 229.184 445.418C229.952 445.418 230.619 445.584 231.184 445.914C231.749 446.245 232.171 446.661 232.448 447.162V445.562H233.92V454.33H232.448V452.698C232.16 453.21 231.728 453.637 231.152 453.978C230.587 454.309 229.925 454.474 229.168 454.474C228.389 454.474 227.685 454.282 227.056 453.898C226.427 453.514 225.931 452.976 225.568 452.282C225.205 451.589 225.024 450.8 225.024 449.914ZM232.448 449.93C232.448 449.269 232.315 448.693 232.048 448.202C231.781 447.712 231.419 447.338 230.96 447.082C230.512 446.816 230.016 446.682 229.472 446.682C228.928 446.682 228.432 446.81 227.984 447.066C227.536 447.322 227.179 447.696 226.912 448.186C226.645 448.677 226.512 449.253 226.512 449.914C226.512 450.586 226.645 451.173 226.912 451.674C227.179 452.165 227.536 452.544 227.984 452.81C228.432 453.066 228.928 453.194 229.472 453.194C230.016 453.194 230.512 453.066 230.96 452.81C231.419 452.544 231.781 452.165 232.048 451.674C232.315 451.173 232.448 450.592 232.448 449.93ZM240.652 445.402C241.719 445.402 242.583 445.728 243.244 446.378C243.906 447.018 244.236 447.946 244.236 449.162V454.33H242.796V449.37C242.796 448.496 242.578 447.829 242.14 447.37C241.703 446.901 241.106 446.666 240.348 446.666C239.58 446.666 238.967 446.906 238.508 447.386C238.06 447.866 237.836 448.565 237.836 449.482V454.33H236.38V445.562H237.836V446.81C238.124 446.362 238.514 446.016 239.004 445.77C239.506 445.525 240.055 445.402 240.652 445.402ZM246.071 449.93C246.071 449.024 246.252 448.234 246.615 447.562C246.977 446.88 247.479 446.352 248.119 445.978C248.769 445.605 249.511 445.418 250.343 445.418C251.42 445.418 252.305 445.68 252.999 446.202C253.703 446.725 254.167 447.45 254.391 448.378H252.823C252.673 447.845 252.38 447.424 251.943 447.114C251.516 446.805 250.983 446.65 250.343 446.65C249.511 446.65 248.839 446.938 248.327 447.514C247.815 448.08 247.559 448.885 247.559 449.93C247.559 450.986 247.815 451.802 248.327 452.378C248.839 452.954 249.511 453.242 250.343 453.242C250.983 453.242 251.516 453.093 251.943 452.794C252.369 452.496 252.663 452.069 252.823 451.514H254.391C254.156 452.41 253.687 453.13 252.983 453.674C252.279 454.208 251.399 454.474 250.343 454.474C249.511 454.474 248.769 454.288 248.119 453.914C247.479 453.541 246.977 453.013 246.615 452.33C246.252 451.648 246.071 450.848 246.071 449.93ZM264.334 449.61C264.334 449.888 264.318 450.181 264.286 450.49H257.278C257.331 451.354 257.624 452.032 258.158 452.522C258.702 453.002 259.358 453.242 260.126 453.242C260.755 453.242 261.278 453.098 261.694 452.81C262.12 452.512 262.419 452.117 262.59 451.626H264.158C263.923 452.469 263.454 453.157 262.75 453.69C262.046 454.213 261.171 454.474 260.126 454.474C259.294 454.474 258.547 454.288 257.886 453.914C257.235 453.541 256.723 453.013 256.35 452.33C255.976 451.637 255.79 450.837 255.79 449.93C255.79 449.024 255.971 448.229 256.334 447.546C256.696 446.864 257.203 446.341 257.854 445.978C258.515 445.605 259.272 445.418 260.126 445.418C260.958 445.418 261.694 445.6 262.334 445.962C262.974 446.325 263.464 446.826 263.806 447.466C264.158 448.096 264.334 448.81 264.334 449.61ZM262.83 449.306C262.83 448.752 262.707 448.277 262.462 447.882C262.216 447.477 261.88 447.173 261.454 446.97C261.038 446.757 260.574 446.65 260.062 446.65C259.326 446.65 258.696 446.885 258.174 447.354C257.662 447.824 257.368 448.474 257.294 449.306H262.83ZM265.711 449.914C265.711 449.018 265.893 448.234 266.255 447.562C266.618 446.88 267.114 446.352 267.743 445.978C268.383 445.605 269.098 445.418 269.887 445.418C270.57 445.418 271.205 445.578 271.791 445.898C272.378 446.208 272.826 446.618 273.135 447.13V442.49H274.607V454.33H273.135V452.682C272.847 453.205 272.421 453.637 271.855 453.978C271.29 454.309 270.629 454.474 269.871 454.474C269.093 454.474 268.383 454.282 267.743 453.898C267.114 453.514 266.618 452.976 266.255 452.282C265.893 451.589 265.711 450.8 265.711 449.914ZM273.135 449.93C273.135 449.269 273.002 448.693 272.735 448.202C272.469 447.712 272.106 447.338 271.647 447.082C271.199 446.816 270.703 446.682 270.159 446.682C269.615 446.682 269.119 446.81 268.671 447.066C268.223 447.322 267.866 447.696 267.599 448.186C267.333 448.677 267.199 449.253 267.199 449.914C267.199 450.586 267.333 451.173 267.599 451.674C267.866 452.165 268.223 452.544 268.671 452.81C269.119 453.066 269.615 453.194 270.159 453.194C270.703 453.194 271.199 453.066 271.647 452.81C272.106 452.544 272.469 452.165 272.735 451.674C273.002 451.173 273.135 450.592 273.135 449.93ZM147.594 489.33H146.138L140.282 480.45V489.33H138.826V478.162H140.282L146.138 487.026V478.162H147.594V489.33ZM157.852 480.562V489.33H156.396V488.034C156.118 488.482 155.729 488.834 155.228 489.09C154.737 489.336 154.193 489.458 153.596 489.458C152.913 489.458 152.3 489.32 151.756 489.042C151.212 488.754 150.78 488.328 150.46 487.762C150.15 487.197 149.996 486.509 149.996 485.698V480.562H151.436V485.506C151.436 486.37 151.654 487.037 152.092 487.506C152.529 487.965 153.126 488.194 153.884 488.194C154.662 488.194 155.276 487.954 155.724 487.474C156.172 486.994 156.396 486.296 156.396 485.378V480.562H157.852ZM162.086 481.762V486.93C162.086 487.357 162.177 487.661 162.358 487.842C162.539 488.013 162.854 488.098 163.302 488.098H164.374V489.33H163.062C162.251 489.33 161.643 489.144 161.238 488.77C160.833 488.397 160.63 487.784 160.63 486.93V481.762H159.494V480.562H160.63V478.354H162.086V480.562H164.374V481.762H162.086ZM167.594 481.986C167.85 481.485 168.213 481.096 168.682 480.818C169.162 480.541 169.744 480.402 170.426 480.402V481.906H170.042C168.41 481.906 167.594 482.792 167.594 484.562V489.33H166.138V480.562H167.594V481.986ZM172.859 479.138C172.582 479.138 172.347 479.042 172.155 478.85C171.963 478.658 171.867 478.424 171.867 478.146C171.867 477.869 171.963 477.634 172.155 477.442C172.347 477.25 172.582 477.154 172.859 477.154C173.126 477.154 173.35 477.25 173.531 477.442C173.723 477.634 173.819 477.869 173.819 478.146C173.819 478.424 173.723 478.658 173.531 478.85C173.35 479.042 173.126 479.138 172.859 479.138ZM173.563 480.562V489.33H172.107V480.562H173.563ZM177.821 481.762V486.93C177.821 487.357 177.911 487.661 178.093 487.842C178.274 488.013 178.589 488.098 179.036 488.098H180.109V489.33H178.797C177.986 489.33 177.378 489.144 176.973 488.77C176.567 488.397 176.365 487.784 176.365 486.93V481.762H175.229V480.562H176.365V478.354H177.821V480.562H180.109V481.762H177.821ZM182.625 479.138C182.347 479.138 182.113 479.042 181.921 478.85C181.729 478.658 181.633 478.424 181.633 478.146C181.633 477.869 181.729 477.634 181.921 477.442C182.113 477.25 182.347 477.154 182.625 477.154C182.891 477.154 183.115 477.25 183.297 477.442C183.489 477.634 183.585 477.869 183.585 478.146C183.585 478.424 183.489 478.658 183.297 478.85C183.115 479.042 182.891 479.138 182.625 479.138ZM183.329 480.562V489.33H181.873V480.562H183.329ZM189.634 489.474C188.813 489.474 188.066 489.288 187.394 488.914C186.733 488.541 186.21 488.013 185.826 487.33C185.453 486.637 185.266 485.837 185.266 484.93C185.266 484.034 185.458 483.245 185.842 482.562C186.237 481.869 186.77 481.341 187.442 480.978C188.114 480.605 188.866 480.418 189.698 480.418C190.53 480.418 191.282 480.605 191.954 480.978C192.626 481.341 193.154 481.864 193.538 482.546C193.933 483.229 194.13 484.024 194.13 484.93C194.13 485.837 193.927 486.637 193.522 487.33C193.127 488.013 192.589 488.541 191.906 488.914C191.223 489.288 190.466 489.474 189.634 489.474ZM189.634 488.194C190.157 488.194 190.647 488.072 191.106 487.826C191.565 487.581 191.933 487.213 192.21 486.722C192.498 486.232 192.642 485.634 192.642 484.93C192.642 484.226 192.503 483.629 192.226 483.138C191.949 482.648 191.586 482.285 191.138 482.05C190.69 481.805 190.205 481.682 189.682 481.682C189.149 481.682 188.658 481.805 188.21 482.05C187.773 482.285 187.421 482.648 187.154 483.138C186.887 483.629 186.754 484.226 186.754 484.93C186.754 485.645 186.882 486.248 187.138 486.738C187.405 487.229 187.757 487.597 188.194 487.842C188.631 488.077 189.111 488.194 189.634 488.194ZM200.317 480.402C201.383 480.402 202.247 480.728 202.909 481.378C203.57 482.018 203.901 482.946 203.901 484.162V489.33H202.461V484.37C202.461 483.496 202.242 482.829 201.805 482.37C201.367 481.901 200.77 481.666 200.013 481.666C199.245 481.666 198.631 481.906 198.173 482.386C197.725 482.866 197.501 483.565 197.501 484.482V489.33H196.045V480.562H197.501V481.81C197.789 481.362 198.178 481.016 198.669 480.77C199.17 480.525 199.719 480.402 200.317 480.402ZM206.743 489.426C206.466 489.426 206.231 489.33 206.039 489.138C205.847 488.946 205.751 488.712 205.751 488.434C205.751 488.157 205.847 487.922 206.039 487.73C206.231 487.538 206.466 487.442 206.743 487.442C207.01 487.442 207.234 487.538 207.415 487.73C207.607 487.922 207.703 488.157 207.703 488.434C207.703 488.712 207.607 488.946 207.415 489.138C207.234 489.33 207.01 489.426 206.743 489.426Z" fill="#CFCFCF"/>
<line x1="75" y1="292.128" x2="310.034" y2="292.128" stroke="#7B7B7B" stroke-width="2"/>
<path d="M206.552 100.241H210.172V107.483H206.552V100.241Z" fill="#9E5E6A"/>
<path d="M199.311 100.241H202.931V107.483H199.311V100.241Z" fill="#9E5E6A"/>
<path d="M197.5 114.724H233.706C234.705 114.724 235.517 113.911 235.517 112.914C235.517 111.916 234.705 111.103 233.706 111.103H197.5C196.501 111.103 195.689 111.916 195.689 112.914C195.689 113.911 196.501 114.724 197.5 114.724Z" fill="#9B9998"/>
<path d="M213.793 100.241H217.414V107.483H213.793V100.241Z" fill="#9E5E6A"/>
<path d="M221.034 100.241H224.655V107.483H221.034V100.241Z" fill="#9E5E6A"/>
<path d="M228.276 100.241H231.897V107.483H228.276V100.241Z" fill="#9E5E6A"/>
<path d="M228.276 94.8103C228.276 93.813 227.465 93 226.466 93H204.742C203.743 93 202.931 93.813 202.931 94.8103V96.6207H228.276V94.8103Z" fill="#9B9998"/>
<path d="M249.789 138.258H190.259V134.638H248.629C246.729 130.691 243.009 127.766 238.425 127.002L228.275 125.309V118.345H202.931V125.309L192.78 127.001C188.198 127.765 184.476 130.692 182.577 134.637L186.638 134.638V138.258H181.417C181.281 139.041 181.207 139.844 181.207 140.663C181.207 141.371 181.263 142.091 181.373 142.804L187.452 181.707H235.516V185.328H188.019L188.17 186.287C189.228 193.074 194.984 198 201.854 198H229.355C236.225 198 241.98 193.074 243.039 186.287L243.187 185.328H239.138V181.707H243.754L249.833 142.8C249.944 142.091 250 141.371 250 140.663C250 139.844 249.925 139.041 249.79 138.258H249.789ZM227.585 171.966C223.51 176.039 218.159 178.076 212.808 178.076C207.457 178.076 202.105 176.039 198.03 171.966L196.75 170.686L226.305 141.131L227.585 142.411C235.733 150.559 235.733 163.816 227.585 171.966H227.585Z" fill="#9E8270"/>
<path d="M224.101 148.456C225.627 150.797 226.465 153.547 226.465 156.362C226.465 164.348 219.968 170.845 211.982 170.845C209.167 170.845 206.417 170.007 204.076 168.481L201.939 170.618C208.719 176.115 218.722 175.709 225.028 169.405C231.334 163.101 231.737 153.096 226.241 146.318L224.101 148.456Z" fill="#9B9998"/>
<path d="M222.845 156.362C222.845 154.508 222.357 152.694 221.465 151.09L206.711 165.844C208.317 166.736 210.129 167.224 211.983 167.224C217.973 167.224 222.845 162.352 222.845 156.362Z" fill="#9E5E6A"/>
<path d="M155.862 150.931H164.731C163.889 146.805 160.234 143.689 155.862 143.689H146.993C147.834 147.815 151.49 150.931 155.862 150.931Z" fill="#046E0F"/>
<path d="M180.289 159.32C176.922 156.623 172.81 154.988 168.523 154.628C168.444 143.768 167.642 132.825 159.483 132.825V136.446C164.267 136.446 164.836 145.797 164.905 154.641C153.774 155.57 145 164.91 145 176.272C145 188.251 154.745 197.996 166.724 197.996C174.112 197.996 180.821 194.323 184.86 188.175C184.756 187.737 184.661 187.295 184.59 186.843L180.289 159.32ZM166.724 194.379C156.742 194.379 148.621 186.257 148.621 176.275H152.241C152.241 184.261 158.738 190.758 166.724 190.758V194.379ZM166.724 165.413C162.664 165.413 159.483 163.028 159.483 159.982H163.103C163.103 160.721 164.514 161.793 166.724 161.793C168.934 161.793 170.345 160.721 170.345 159.982H173.965C173.965 163.028 170.784 165.413 166.724 165.413Z" fill="#9E5E6A"/>
</svg>
