<svg width="44" height="44" viewBox="0 0 44 44" fill="none" xmlns="http://www.w3.org/2000/svg">
<g clip-path="url(#clip0_7_363)">
<path d="M9.85 34.15C7.555 34.15 5.8 32.395 5.8 30.1V13.9C5.8 11.605 7.555 9.85001 9.85 9.85001C12.145 9.85001 13.9 11.605 13.9 13.9V30.1C13.9 32.395 12.145 34.15 9.85 34.15Z" fill="#242424"/>
<path d="M34.15 34.15C31.855 34.15 30.1 32.395 30.1 30.1V13.9C30.1 11.605 31.855 9.85001 34.15 9.85001C36.445 9.85001 38.2 11.605 38.2 13.9V30.1C38.2 32.395 36.445 34.15 34.15 34.15Z" fill="#242424"/>
<path d="M31.45 23.35H12.55C11.74 23.35 11.2 22.81 11.2 22C11.2 21.19 11.74 20.65 12.55 20.65H31.45C32.26 20.65 32.8 21.19 32.8 22C32.8 22.81 32.26 23.35 31.45 23.35Z" fill="#242424"/>
<path d="M3.1 14.17C1.48 14.71 0.400002 16.195 0.400002 17.95V26.05C0.400002 27.805 1.48 29.29 3.1 29.83V14.17Z" fill="#242424"/>
<path d="M40.9 14.17V29.83C42.52 29.29 43.6 27.805 43.6 26.05V17.95C43.6 16.195 42.52 14.71 40.9 14.17Z" fill="#242424"/>
</g>
<defs>
<clipPath id="clip0_7_363">
<rect width="43.2" height="43.2" fill="white" transform="translate(0.400002 0.399994)"/>
</clipPath>
</defs>
</svg>
