<svg width="432" height="232" viewBox="0 0 432 232" fill="none" xmlns="http://www.w3.org/2000/svg">
<mask id="path-1-outside-1_84_62" maskUnits="userSpaceOnUse" x="1" y="40" width="244" height="55" fill="black">
<rect fill="white" x="1" y="40" width="244" height="55"/>
<path d="M2.4858 50.9652V42.0909H44.2969V50.9652H28.7109V93H18.0717V50.9652H2.4858ZM51.1825 93V42.0909H61.946V63.0959H83.7962V42.0909H94.5348V93H83.7962V71.9702H61.946V93H51.1825ZM114.173 42.0909V93H103.409V42.0909H114.173ZM150.645 56.7322C150.447 54.727 149.593 53.1693 148.085 52.0589C146.577 50.9486 144.53 50.3935 141.945 50.3935C140.189 50.3935 138.705 50.642 137.496 51.1392C136.286 51.6198 135.358 52.291 134.711 53.1527C134.082 54.0144 133.767 54.9922 133.767 56.0859C133.734 56.9974 133.924 57.7929 134.339 58.4723C134.769 59.1518 135.358 59.7401 136.104 60.2372C136.849 60.7178 137.711 61.1404 138.689 61.505C139.666 61.853 140.711 62.1513 141.821 62.3999L146.395 63.4936C148.615 63.9908 150.654 64.6536 152.51 65.4822C154.366 66.3108 155.973 67.33 157.332 68.5398C158.691 69.7495 159.743 71.1747 160.489 72.8153C161.251 74.456 161.641 76.3369 161.657 78.4581C161.641 81.5736 160.845 84.2749 159.271 86.5618C157.713 88.8321 155.46 90.5971 152.51 91.8565C149.577 93.0994 146.038 93.7209 141.895 93.7209C137.786 93.7209 134.206 93.0911 131.157 91.8317C128.124 90.5722 125.754 88.7079 124.047 86.2386C122.357 83.7528 121.47 80.6787 121.388 77.0163H131.803C131.919 78.7232 132.408 80.1484 133.27 81.2919C134.148 82.4188 135.316 83.2723 136.775 83.8523C138.25 84.4157 139.915 84.6974 141.771 84.6974C143.594 84.6974 145.177 84.4323 146.519 83.902C147.878 83.3717 148.93 82.6342 149.676 81.6896C150.422 80.745 150.795 79.6596 150.795 78.4332C150.795 77.2898 150.455 76.3286 149.775 75.5497C149.113 74.7708 148.135 74.108 146.842 73.5611C145.566 73.0142 144 72.517 142.144 72.0696L136.601 70.6776C132.309 69.6335 128.92 68.0012 126.434 65.7805C123.948 63.5599 122.713 60.5687 122.73 56.8068C122.713 53.7244 123.534 51.0315 125.191 48.728C126.865 46.4245 129.16 44.6264 132.077 43.3338C134.993 42.0412 138.308 41.3949 142.02 41.3949C145.798 41.3949 149.096 42.0412 151.913 43.3338C154.747 44.6264 156.951 46.4245 158.525 48.728C160.1 51.0315 160.912 53.6996 160.961 56.7322H150.645ZM195.862 42.0909V93H185.099V42.0909H195.862ZM232.335 56.7322C232.136 54.727 231.283 53.1693 229.775 52.0589C228.266 50.9486 226.22 50.3935 223.635 50.3935C221.878 50.3935 220.395 50.642 219.185 51.1392C217.975 51.6198 217.047 52.291 216.401 53.1527C215.771 54.0144 215.456 54.9922 215.456 56.0859C215.423 56.9974 215.614 57.7929 216.028 58.4723C216.459 59.1518 217.047 59.7401 217.793 60.2372C218.539 60.7178 219.4 61.1404 220.378 61.505C221.356 61.853 222.4 62.1513 223.51 62.3999L228.084 63.4936C230.305 63.9908 232.343 64.6536 234.199 65.4822C236.055 66.3108 237.663 67.33 239.022 68.5398C240.381 69.7495 241.433 71.1747 242.179 72.8153C242.941 74.456 243.33 76.3369 243.347 78.4581C243.33 81.5736 242.535 84.2749 240.961 86.5618C239.403 88.8321 237.149 90.5971 234.199 91.8565C231.266 93.0994 227.728 93.7209 223.585 93.7209C219.475 93.7209 215.895 93.0911 212.846 91.8317C209.814 90.5722 207.444 88.7079 205.737 86.2386C204.047 83.7528 203.16 80.6787 203.077 77.0163H213.493C213.609 78.7232 214.097 80.1484 214.959 81.2919C215.837 82.4188 217.006 83.2723 218.464 83.8523C219.939 84.4157 221.605 84.6974 223.461 84.6974C225.283 84.6974 226.866 84.4323 228.208 83.902C229.567 83.3717 230.62 82.6342 231.365 81.6896C232.111 80.745 232.484 79.6596 232.484 78.4332C232.484 77.2898 232.144 76.3286 231.465 75.5497C230.802 74.7708 229.824 74.108 228.532 73.5611C227.256 73.0142 225.69 72.517 223.833 72.0696L218.29 70.6776C213.998 69.6335 210.609 68.0012 208.123 65.7805C205.637 63.5599 204.403 60.5687 204.419 56.8068C204.403 53.7244 205.223 51.0315 206.88 48.728C208.554 46.4245 210.849 44.6264 213.766 43.3338C216.683 42.0412 219.997 41.3949 223.709 41.3949C227.488 41.3949 230.785 42.0412 233.603 43.3338C236.436 44.6264 238.641 46.4245 240.215 48.728C241.789 51.0315 242.601 53.6996 242.651 56.7322H232.335Z"/>
</mask>
<path d="M2.4858 50.9652H1.6858V51.7652H2.4858V50.9652ZM2.4858 42.0909V41.2909H1.6858V42.0909H2.4858ZM44.2969 42.0909H45.0969V41.2909H44.2969V42.0909ZM44.2969 50.9652V51.7652H45.0969V50.9652H44.2969ZM28.7109 50.9652V50.1652H27.9109V50.9652H28.7109ZM28.7109 93V93.8H29.5109V93H28.7109ZM18.0717 93H17.2717V93.8H18.0717V93ZM18.0717 50.9652H18.8717V50.1652H18.0717V50.9652ZM3.2858 50.9652V42.0909H1.6858V50.9652H3.2858ZM2.4858 42.8909H44.2969V41.2909H2.4858V42.8909ZM43.4969 42.0909V50.9652H45.0969V42.0909H43.4969ZM44.2969 50.1652H28.7109V51.7652H44.2969V50.1652ZM27.9109 50.9652V93H29.5109V50.9652H27.9109ZM28.7109 92.2H18.0717V93.8H28.7109V92.2ZM18.8717 93V50.9652H17.2717V93H18.8717ZM18.0717 50.1652H2.4858V51.7652H18.0717V50.1652ZM51.1825 93H50.3825V93.8H51.1825V93ZM51.1825 42.0909V41.2909H50.3825V42.0909H51.1825ZM61.946 42.0909H62.746V41.2909H61.946V42.0909ZM61.946 63.0959H61.146V63.8959H61.946V63.0959ZM83.7962 63.0959V63.8959H84.5962V63.0959H83.7962ZM83.7962 42.0909V41.2909H82.9962V42.0909H83.7962ZM94.5348 42.0909H95.3348V41.2909H94.5348V42.0909ZM94.5348 93V93.8H95.3348V93H94.5348ZM83.7962 93H82.9962V93.8H83.7962V93ZM83.7962 71.9702H84.5962V71.1702H83.7962V71.9702ZM61.946 71.9702V71.1702H61.146V71.9702H61.946ZM61.946 93V93.8H62.746V93H61.946ZM51.9825 93V42.0909H50.3825V93H51.9825ZM51.1825 42.8909H61.946V41.2909H51.1825V42.8909ZM61.146 42.0909V63.0959H62.746V42.0909H61.146ZM61.946 63.8959H83.7962V62.2959H61.946V63.8959ZM84.5962 63.0959V42.0909H82.9962V63.0959H84.5962ZM83.7962 42.8909H94.5348V41.2909H83.7962V42.8909ZM93.7348 42.0909V93H95.3348V42.0909H93.7348ZM94.5348 92.2H83.7962V93.8H94.5348V92.2ZM84.5962 93V71.9702H82.9962V93H84.5962ZM83.7962 71.1702H61.946V72.7702H83.7962V71.1702ZM61.146 71.9702V93H62.746V71.9702H61.146ZM61.946 92.2H51.1825V93.8H61.946V92.2ZM114.173 42.0909H114.973V41.2909H114.173V42.0909ZM114.173 93V93.8H114.973V93H114.173ZM103.409 93H102.609V93.8H103.409V93ZM103.409 42.0909V41.2909H102.609V42.0909H103.409ZM113.373 42.0909V93H114.973V42.0909H113.373ZM114.173 92.2H103.409V93.8H114.173V92.2ZM104.209 93V42.0909H102.609V93H104.209ZM103.409 42.8909H114.173V41.2909H103.409V42.8909ZM150.645 56.7322L149.849 56.8112L149.921 57.5322H150.645V56.7322ZM137.496 51.1392L137.791 51.8827L137.8 51.8792L137.496 51.1392ZM134.711 53.1527L134.071 52.6727L134.066 52.6807L134.711 53.1527ZM133.767 56.0859L134.566 56.115L134.567 56.1005V56.0859H133.767ZM134.339 58.4723L133.655 58.8889L133.663 58.9007L134.339 58.4723ZM136.104 60.2372L135.66 60.9029L135.67 60.9097L136.104 60.2372ZM138.689 61.505L138.409 62.2546L138.42 62.2587L138.689 61.505ZM141.821 62.3999L142.007 61.6217L141.996 61.6192L141.821 62.3999ZM146.395 63.4936L146.209 64.2718L146.22 64.2743L146.395 63.4936ZM152.51 65.4822L152.184 66.2128L152.184 66.2128L152.51 65.4822ZM157.332 68.5398L157.864 67.9422L157.864 67.9422L157.332 68.5398ZM160.489 72.8153L159.761 73.1464L159.764 73.1524L160.489 72.8153ZM161.657 78.4581L162.458 78.4624L162.457 78.4518L161.657 78.4581ZM159.271 86.5618L158.612 86.1082L158.611 86.1092L159.271 86.5618ZM152.51 91.8565L152.822 92.5931L152.824 92.5923L152.51 91.8565ZM131.157 91.8317L130.85 92.5705L130.851 92.5711L131.157 91.8317ZM124.047 86.2386L123.386 86.6885L123.389 86.6935L124.047 86.2386ZM121.388 77.0163V76.2163H120.569L120.588 77.0344L121.388 77.0163ZM131.803 77.0163L132.601 76.9621L132.551 76.2163H131.803V77.0163ZM133.27 81.2919L132.631 81.7734L132.639 81.7837L133.27 81.2919ZM136.775 83.8523L136.479 84.5957L136.489 84.5996L136.775 83.8523ZM146.519 83.902L146.228 83.1567L146.225 83.1579L146.519 83.902ZM149.676 81.6896L150.304 82.1853L150.304 82.1853L149.676 81.6896ZM149.775 75.5497L149.166 76.0682L149.173 76.0756L149.775 75.5497ZM146.842 73.5611L146.527 74.2964L146.53 74.2979L146.842 73.5611ZM142.144 72.0696L141.949 72.8455L141.957 72.8473L142.144 72.0696ZM136.601 70.6776L136.796 69.9016L136.79 69.9002L136.601 70.6776ZM126.434 65.7805L125.901 66.3771L125.901 66.3771L126.434 65.7805ZM122.73 56.8068L123.53 56.8103L123.53 56.8025L122.73 56.8068ZM125.191 48.728L124.544 48.2577L124.541 48.2608L125.191 48.728ZM151.913 43.3338L151.58 44.0609L151.581 44.0617L151.913 43.3338ZM158.525 48.728L157.865 49.1794L157.865 49.1794L158.525 48.728ZM160.961 56.7322V57.5322H161.775L161.761 56.7191L160.961 56.7322ZM151.442 56.6533C151.222 54.4419 150.265 52.6705 148.559 51.4147L147.611 52.7032C148.921 53.6681 149.671 55.0122 149.849 56.8112L151.442 56.6533ZM148.559 51.4147C146.87 50.1711 144.637 49.5935 141.945 49.5935V51.1935C144.423 51.1935 146.284 51.7261 147.611 52.7032L148.559 51.4147ZM141.945 49.5935C140.118 49.5935 138.525 49.8514 137.191 50.3993L137.8 51.8792C138.886 51.4327 140.259 51.1935 141.945 51.1935V49.5935ZM137.2 50.3957C135.882 50.9193 134.823 51.6706 134.071 52.6727L135.351 53.6327C135.893 52.9113 136.689 52.3203 137.791 51.8827L137.2 50.3957ZM134.066 52.6807C133.333 53.683 132.967 54.827 132.967 56.0859H134.567C134.567 55.1574 134.83 54.3458 135.357 53.6247L134.066 52.6807ZM132.967 56.0569C132.929 57.1015 133.148 58.0567 133.656 58.8888L135.022 58.0558C134.7 57.5291 134.538 56.8933 134.566 56.115L132.967 56.0569ZM133.663 58.9007C134.16 59.6848 134.832 60.3508 135.66 60.9029L136.547 59.5716C135.884 59.1293 135.379 58.6187 135.014 58.0439L133.663 58.9007ZM135.67 60.9097C136.472 61.4263 137.387 61.8733 138.409 62.2546L138.968 60.7554C138.035 60.4075 137.227 60.0093 136.537 59.5648L135.67 60.9097ZM138.42 62.2587C139.432 62.6185 140.507 62.9255 141.646 63.1805L141.996 61.6192C140.914 61.377 139.901 61.0874 138.957 60.7513L138.42 62.2587ZM141.635 63.1779L146.209 64.2717L146.581 62.7155L142.007 61.6218L141.635 63.1779ZM146.22 64.2743C148.395 64.7612 150.382 65.4083 152.184 66.2128L152.836 64.7517C150.926 63.899 148.836 63.2204 146.569 62.7129L146.22 64.2743ZM152.184 66.2128C153.973 67.0117 155.509 67.9882 156.8 69.1373L157.864 67.9422C156.437 66.6719 154.758 65.6099 152.836 64.7517L152.184 66.2128ZM156.8 69.1373C158.077 70.2736 159.062 71.6083 159.761 73.1464L161.217 72.4843C160.425 70.7411 159.306 69.2254 157.864 67.9422L156.8 69.1373ZM159.764 73.1524C160.47 74.673 160.842 76.4379 160.858 78.4643L162.457 78.4518C162.44 76.2358 162.033 74.2389 161.215 72.4782L159.764 73.1524ZM160.858 78.4538C160.842 81.4292 160.085 83.9693 158.612 86.1082L159.93 87.0154C161.606 84.5804 162.44 81.7181 162.457 78.4624L160.858 78.4538ZM158.611 86.1092C157.153 88.2348 155.029 89.911 152.196 91.1208L152.824 92.5923C155.89 91.2832 158.274 89.4295 159.931 87.0144L158.611 86.1092ZM152.198 91.1199C149.388 92.3105 145.962 92.9209 141.895 92.9209V94.5209C146.115 94.5209 149.765 93.8884 152.822 92.5931L152.198 91.1199ZM141.895 92.9209C137.865 92.9209 134.394 92.3032 131.462 91.0923L130.851 92.5711C134.018 93.8791 137.706 94.5209 141.895 94.5209V92.9209ZM131.464 91.0929C128.559 89.8866 126.317 88.1147 124.705 85.7837L123.389 86.6935C125.192 89.301 127.689 91.2578 130.85 92.5705L131.464 91.0929ZM124.709 85.7888C123.123 83.456 122.268 80.5404 122.187 76.9982L120.588 77.0344C120.673 80.8171 121.591 84.0497 123.386 86.6885L124.709 85.7888ZM121.388 77.8163H131.803V76.2163H121.388V77.8163ZM131.005 77.0706C131.129 78.9017 131.659 80.4836 132.631 81.7734L133.909 80.8104C133.157 79.8133 132.709 78.5448 132.601 76.9621L131.005 77.0706ZM132.639 81.7837C133.613 83.0336 134.902 83.9684 136.479 84.5956L137.07 83.1089C135.731 82.5761 134.683 81.804 133.901 80.8001L132.639 81.7837ZM136.489 84.5996C138.07 85.2034 139.834 85.4974 141.771 85.4974V83.8974C139.996 83.8974 138.429 83.628 137.06 83.1049L136.489 84.5996ZM141.771 85.4974C143.669 85.4974 145.356 85.2216 146.813 84.646L146.225 83.1579C144.997 83.643 143.519 83.8974 141.771 83.8974V85.4974ZM146.81 84.6473C148.273 84.0762 149.453 83.2631 150.304 82.1853L149.048 81.1939C148.407 82.0053 147.483 82.6672 146.228 83.1567L146.81 84.6473ZM150.304 82.1853C151.163 81.0967 151.595 79.8358 151.595 78.4332H149.995C149.995 79.4834 149.68 80.3934 149.048 81.1939L150.304 82.1853ZM151.595 78.4332C151.595 77.1185 151.199 75.9642 150.378 75.0238L149.173 76.0756C149.711 76.693 149.995 77.461 149.995 78.4332H151.595ZM150.385 75.0312C149.617 74.1288 148.521 73.4026 147.154 72.8243L146.53 74.2979C147.749 74.8133 148.608 75.4129 149.166 76.0682L150.385 75.0312ZM147.157 72.8258C145.828 72.256 144.216 71.7462 142.331 71.2919L141.957 72.8473C143.784 73.2878 145.304 73.7724 146.527 74.2964L147.157 72.8258ZM142.339 71.2937L136.796 69.9016L136.406 71.4535L141.949 72.8455L142.339 71.2937ZM136.79 69.9002C132.585 68.8775 129.328 67.2932 126.967 65.1839L125.901 66.3771C128.511 68.7092 132.032 70.3895 136.412 71.4549L136.79 69.9002ZM126.967 65.1839C124.675 63.1364 123.514 60.3759 123.53 56.8103L121.93 56.8033C121.913 60.7614 123.221 63.9834 125.901 66.3771L126.967 65.1839ZM123.53 56.8025C123.514 53.8739 124.29 51.3494 125.84 49.1952L124.541 48.2608C122.777 50.7136 121.913 53.575 121.93 56.8111L123.53 56.8025ZM125.838 49.1982C127.419 47.022 129.597 45.3078 132.401 44.0652L131.752 42.6024C128.723 43.9451 126.31 45.827 124.544 48.2577L125.838 49.1982ZM132.401 44.0652C135.2 42.8246 138.401 42.1949 142.02 42.1949V40.5949C138.214 40.5949 134.786 41.2578 131.752 42.6024L132.401 44.0652ZM142.02 42.1949C145.708 42.1949 148.887 42.8257 151.58 44.0609L152.247 42.6067C149.305 41.2567 145.889 40.5949 142.02 40.5949V42.1949ZM151.581 44.0617C154.298 45.301 156.382 47.0099 157.865 49.1794L159.186 48.2766C157.52 45.8391 155.196 43.9518 152.245 42.606L151.581 44.0617ZM157.865 49.1794C159.343 51.3423 160.114 53.855 160.162 56.7454L161.761 56.7191C161.709 53.5441 160.856 50.7207 159.186 48.2766L157.865 49.1794ZM160.961 55.9322H150.645V57.5322H160.961V55.9322ZM195.862 42.0909H196.662V41.2909H195.862V42.0909ZM195.862 93V93.8H196.662V93H195.862ZM185.099 93H184.299V93.8H185.099V93ZM185.099 42.0909V41.2909H184.299V42.0909H185.099ZM195.062 42.0909V93H196.662V42.0909H195.062ZM195.862 92.2H185.099V93.8H195.862V92.2ZM185.899 93V42.0909H184.299V93H185.899ZM185.099 42.8909H195.862V41.2909H185.099V42.8909ZM232.335 56.7322L231.539 56.8112L231.61 57.5322H232.335V56.7322ZM219.185 51.1392L219.48 51.8827L219.489 51.8792L219.185 51.1392ZM216.401 53.1527L215.761 52.6727L215.755 52.6807L216.401 53.1527ZM215.456 56.0859L216.256 56.115L216.256 56.1005V56.0859H215.456ZM216.028 58.4723L215.345 58.8889L215.352 58.9007L216.028 58.4723ZM217.793 60.2372L217.349 60.9029L217.36 60.9097L217.793 60.2372ZM220.378 61.505L220.099 62.2546L220.11 62.2587L220.378 61.505ZM223.51 62.3999L223.696 61.6217L223.685 61.6192L223.51 62.3999ZM228.084 63.4936L227.898 64.2718L227.909 64.2743L228.084 63.4936ZM234.199 65.4822L233.873 66.2128L233.873 66.2128L234.199 65.4822ZM239.022 68.5398L239.554 67.9422L239.554 67.9422L239.022 68.5398ZM242.179 72.8153L241.45 73.1464L241.453 73.1524L242.179 72.8153ZM243.347 78.4581L244.147 78.4624L244.147 78.4518L243.347 78.4581ZM240.961 86.5618L240.302 86.1082L240.301 86.1092L240.961 86.5618ZM234.199 91.8565L234.511 92.5931L234.513 92.5923L234.199 91.8565ZM212.846 91.8317L212.539 92.5705L212.541 92.5711L212.846 91.8317ZM205.737 86.2386L205.075 86.6885L205.079 86.6935L205.737 86.2386ZM203.077 77.0163V76.2163H202.259L202.277 77.0344L203.077 77.0163ZM213.493 77.0163L214.291 76.9621L214.24 76.2163H213.493V77.0163ZM214.959 81.2919L214.32 81.7734L214.328 81.7837L214.959 81.2919ZM218.464 83.8523L218.168 84.5957L218.179 84.5996L218.464 83.8523ZM228.208 83.902L227.918 83.1567L227.915 83.1579L228.208 83.902ZM231.365 81.6896L231.993 82.1853L231.993 82.1853L231.365 81.6896ZM231.465 75.5497L230.856 76.0682L230.862 76.0756L231.465 75.5497ZM228.532 73.5611L228.216 74.2964L228.22 74.2979L228.532 73.5611ZM223.833 72.0696L223.639 72.8455L223.646 72.8473L223.833 72.0696ZM218.29 70.6776L218.485 69.9016L218.479 69.9002L218.29 70.6776ZM208.123 65.7805L207.59 66.3771L207.59 66.3771L208.123 65.7805ZM204.419 56.8068L205.219 56.8103L205.219 56.8025L204.419 56.8068ZM206.88 48.728L206.233 48.2577L206.231 48.2608L206.88 48.728ZM233.603 43.3338L233.269 44.0609L233.271 44.0617L233.603 43.3338ZM240.215 48.728L239.554 49.1794L239.554 49.1794L240.215 48.728ZM242.651 56.7322V57.5322H243.464L243.451 56.7191L242.651 56.7322ZM233.131 56.6533C232.912 54.4419 231.954 52.6705 230.249 51.4147L229.3 52.7032C230.611 53.6681 231.36 55.0122 231.539 56.8112L233.131 56.6533ZM230.249 51.4147C228.56 50.1711 226.327 49.5935 223.635 49.5935V51.1935C226.113 51.1935 227.973 51.7261 229.3 52.7032L230.249 51.4147ZM223.635 49.5935C221.807 49.5935 220.214 49.8514 218.881 50.3993L219.489 51.8792C220.575 51.4327 221.949 51.1935 223.635 51.1935V49.5935ZM218.89 50.3957C217.572 50.9193 216.512 51.6706 215.761 52.6727L217.041 53.6327C217.582 52.9113 218.379 52.3203 219.48 51.8827L218.89 50.3957ZM215.755 52.6807C215.023 53.683 214.656 54.827 214.656 56.0859H216.256C216.256 55.1574 216.52 54.3458 217.047 53.6247L215.755 52.6807ZM214.657 56.0569C214.619 57.1015 214.838 58.0567 215.345 58.8888L216.711 58.0558C216.39 57.5291 216.227 56.8933 216.256 56.115L214.657 56.0569ZM215.352 58.9007C215.85 59.6848 216.521 60.3508 217.349 60.9029L218.237 59.5716C217.573 59.1293 217.068 58.6187 216.704 58.0439L215.352 58.9007ZM217.36 60.9097C218.161 61.4263 219.076 61.8733 220.099 62.2546L220.658 60.7554C219.725 60.4075 218.916 60.0093 218.226 59.5648L217.36 60.9097ZM220.11 62.2587C221.121 62.6185 222.197 62.9255 223.336 63.1805L223.685 61.6192C222.603 61.377 221.591 61.0874 220.646 60.7513L220.11 62.2587ZM223.324 63.1779L227.898 64.2717L228.27 62.7155L223.696 61.6218L223.324 63.1779ZM227.909 64.2743C230.084 64.7612 232.071 65.4083 233.873 66.2128L234.525 64.7517C232.615 63.899 230.526 63.2204 228.259 62.7129L227.909 64.2743ZM233.873 66.2128C235.663 67.0117 237.199 67.9882 238.49 69.1373L239.554 67.9422C238.127 66.6719 236.448 65.6099 234.525 64.7517L233.873 66.2128ZM238.49 69.1373C239.766 70.2736 240.751 71.6083 241.45 73.1464L242.907 72.4843C242.115 70.7411 240.995 69.2254 239.554 67.9422L238.49 69.1373ZM241.453 73.1524C242.16 74.673 242.531 76.4379 242.547 78.4643L244.147 78.4518C244.13 76.2358 243.722 74.2389 242.904 72.4782L241.453 73.1524ZM242.547 78.4538C242.531 81.4292 241.774 83.9693 240.302 86.1082L241.62 87.0154C243.296 84.5804 244.13 81.7181 244.147 78.4624L242.547 78.4538ZM240.301 86.1092C238.843 88.2348 236.719 89.911 233.885 91.1208L234.513 92.5923C237.579 91.2832 239.963 89.4295 241.62 87.0144L240.301 86.1092ZM233.887 91.1199C231.077 92.3105 227.651 92.9209 223.585 92.9209V94.5209C227.804 94.5209 231.455 93.8884 234.511 92.5931L233.887 91.1199ZM223.585 92.9209C219.555 92.9209 216.083 92.3032 213.152 91.0923L212.541 92.5711C215.708 93.8791 219.395 94.5209 223.585 94.5209V92.9209ZM213.153 91.0929C210.248 89.8866 208.006 88.1147 206.395 85.7837L205.079 86.6935C206.881 89.301 209.379 91.2578 212.539 92.5705L213.153 91.0929ZM206.398 85.7888C204.812 83.456 203.957 80.5404 203.877 76.9982L202.277 77.0344C202.363 80.8171 203.281 84.0497 205.075 86.6885L206.398 85.7888ZM203.077 77.8163H213.493V76.2163H203.077V77.8163ZM212.694 77.0706C212.819 78.9017 213.348 80.4836 214.32 81.7734L215.598 80.8104C214.847 79.8133 214.398 78.5448 214.291 76.9621L212.694 77.0706ZM214.328 81.7837C215.302 83.0336 216.591 83.9684 218.168 84.5956L218.76 83.1089C217.42 82.5761 216.373 81.804 215.59 80.8001L214.328 81.7837ZM218.179 84.5996C219.759 85.2034 221.524 85.4974 223.461 85.4974V83.8974C221.685 83.8974 220.119 83.628 218.75 83.1049L218.179 84.5996ZM223.461 85.4974C225.359 85.4974 227.045 85.2216 228.502 84.646L227.915 83.1579C226.687 83.643 225.208 83.8974 223.461 83.8974V85.4974ZM228.499 84.6473C229.963 84.0762 231.142 83.2631 231.993 82.1853L230.738 81.1939C230.097 82.0053 229.172 82.6672 227.918 83.1567L228.499 84.6473ZM231.993 82.1853C232.853 81.0967 233.284 79.8358 233.284 78.4332H231.684C231.684 79.4834 231.37 80.3934 230.738 81.1939L231.993 82.1853ZM233.284 78.4332C233.284 77.1185 232.888 75.9642 232.068 75.0238L230.862 76.0756C231.401 76.693 231.684 77.461 231.684 78.4332H233.284ZM232.074 75.0312C231.306 74.1288 230.21 73.4026 228.843 72.8243L228.22 74.2979C229.438 74.8133 230.298 75.4129 230.856 76.0682L232.074 75.0312ZM228.847 72.8258C227.517 72.256 225.906 71.7462 224.021 71.2919L223.646 72.8473C225.473 73.2878 226.994 73.7724 228.216 74.2964L228.847 72.8258ZM224.028 71.2937L218.485 69.9016L218.095 71.4535L223.639 72.8455L224.028 71.2937ZM218.479 69.9002C214.275 68.8775 211.017 67.2932 208.656 65.1839L207.59 66.3771C210.201 68.7092 213.721 70.3895 218.101 71.4549L218.479 69.9002ZM208.656 65.1839C206.364 63.1364 205.204 60.3759 205.219 56.8103L203.619 56.8033C203.602 60.7614 204.911 63.9834 207.59 66.3771L208.656 65.1839ZM205.219 56.8025C205.204 53.8739 205.98 51.3494 207.53 49.1952L206.231 48.2608C204.466 50.7136 203.602 53.575 203.619 56.8111L205.219 56.8025ZM207.528 49.1982C209.109 47.022 211.286 45.3078 214.09 44.0652L213.442 42.6024C210.412 43.9451 207.999 45.827 206.233 48.2577L207.528 49.1982ZM214.09 44.0652C216.889 42.8246 220.091 42.1949 223.709 42.1949V40.5949C219.903 40.5949 216.476 41.2578 213.442 42.6024L214.09 44.0652ZM223.709 42.1949C227.397 42.1949 230.577 42.8257 233.269 44.0609L233.936 42.6067C230.994 41.2567 227.578 40.5949 223.709 40.5949V42.1949ZM233.271 44.0617C235.988 45.301 238.072 47.0099 239.554 49.1794L240.875 48.2766C239.209 45.8391 236.885 43.9518 233.935 42.606L233.271 44.0617ZM239.554 49.1794C241.033 51.3423 241.804 53.855 241.851 56.7454L243.451 56.7191C243.399 53.5441 242.546 50.7207 240.875 48.2766L239.554 49.1794ZM242.651 55.9322H232.335V57.5322H242.651V55.9322Z" fill="white" mask="url(#path-1-outside-1_84_62)"/>
<g clip-path="url(#clip0_84_62)">
<mask id="mask0_84_62" style="mask-type:luminance" maskUnits="userSpaceOnUse" x="0" y="125" width="432" height="84">
<path d="M432 125H0V209H432V125Z" fill="white"/>
<path d="M1.32104 199V126.273H49.4744V138.95H16.6974V156.28H46.2784V168.957H16.6974V199H1.32104ZM63.2706 199H46.7933L71.8999 126.273H91.7152L116.786 199H100.309L82.0916 142.892H81.5234L63.2706 199ZM62.2408 170.413H101.161V182.416H62.2408V170.413ZM140.916 126.273V199H125.54V126.273H140.916ZM152.786 199V189.874L189.078 138.95H152.715V126.273H208.397V135.399L172.069 186.322H208.468V199H152.786ZM232.802 199H216.325L241.431 126.273H261.246L286.317 199H269.84L251.623 142.892H251.055L232.802 199ZM231.772 170.413H270.692V182.416H231.772V170.413ZM307.607 199H291.129L316.236 126.273H336.051L361.122 199H344.645L326.428 142.892H325.859L307.607 199ZM306.577 170.413H345.497V182.416H306.577V170.413ZM430.707 126.273V199H417.425L385.785 153.226H385.252V199H369.876V126.273H383.37L414.762 172.011H415.401V126.273H430.707Z" fill="black"/>
</mask>
<g mask="url(#mask0_84_62)">
<path d="M1.321 199H0.520996V199.8H1.321V199ZM1.321 126.273V125.473H0.520996V126.273H1.321ZM49.4744 126.273H50.2744V125.473H49.4744V126.273ZM49.4744 138.95V139.75H50.2744V138.95H49.4744ZM16.6974 138.95V138.15H15.8974V138.95H16.6974ZM16.6974 156.28H15.8974V157.08H16.6974V156.28ZM46.2784 156.28H47.0784V155.48H46.2784V156.28ZM46.2784 168.957V169.757H47.0784V168.957H46.2784ZM16.6974 168.957V168.157H15.8974V168.957H16.6974ZM16.6974 199V199.8H17.4974V199H16.6974ZM2.12099 199V126.273H0.520996V199H2.12099ZM1.321 127.073H49.4744V125.473H1.321V127.073ZM48.6744 126.273V138.95H50.2744V126.273H48.6744ZM49.4744 138.15H16.6974V139.75H49.4744V138.15ZM15.8974 138.95V156.28H17.4974V138.95H15.8974ZM16.6974 157.08H46.2784V155.48H16.6974V157.08ZM45.4784 156.28V168.957H47.0784V156.28H45.4784ZM46.2784 168.157H16.6974V169.757H46.2784V168.157ZM15.8974 168.957V199H17.4974V168.957H15.8974ZM16.6974 198.2H1.321V199.8H16.6974V198.2ZM63.2706 199V199.8H63.8516L64.0314 199.247L63.2706 199ZM46.7933 199L46.0371 198.739L45.6708 199.8H46.7933V199ZM71.8999 126.273V125.473H71.3297L71.1437 126.012L71.8999 126.273ZM91.7152 126.273L92.4715 126.012L92.2856 125.473H91.7152V126.273ZM116.786 199V199.8H117.908L117.543 198.739L116.786 199ZM100.309 199L99.5481 199.247L99.7276 199.8H100.309V199ZM82.0916 142.892L82.8525 142.645L82.673 142.092H82.0916V142.892ZM81.5234 142.892V142.092H80.9424L80.7627 142.645L81.5234 142.892ZM62.2408 170.413V169.613H61.4408V170.413H62.2408ZM101.161 170.413H101.961V169.613H101.161V170.413ZM101.161 182.416V183.216H101.961V182.416H101.161ZM62.2408 182.416H61.4408V183.216H62.2408V182.416ZM63.2706 198.2H46.7933V199.8H63.2706V198.2ZM47.5495 199.261L72.6561 126.534L71.1437 126.012L46.0371 198.739L47.5495 199.261ZM71.8999 127.073H91.7152V125.473H71.8999V127.073ZM90.9589 126.533L116.03 199.261L117.543 198.739L92.4715 126.012L90.9589 126.533ZM116.786 198.2H100.309V199.8H116.786V198.2ZM101.07 198.753L82.8525 142.645L81.3307 143.139L99.5481 199.247L101.07 198.753ZM82.0916 142.092H81.5234V143.692H82.0916V142.092ZM80.7627 142.645L62.5098 198.753L64.0314 199.247L82.2842 143.139L80.7627 142.645ZM62.2408 171.213H101.161V169.613H62.2408V171.213ZM100.361 170.413V182.416H101.961V170.413H100.361ZM101.161 181.616H62.2408V183.216H101.161V181.616ZM63.0408 182.416V170.413H61.4408V182.416H63.0408ZM140.916 126.273H141.716V125.473H140.916V126.273ZM140.916 199V199.8H141.716V199H140.916ZM125.54 199H124.74V199.8H125.54V199ZM125.54 126.273V125.473H124.74V126.273H125.54ZM140.116 126.273V199H141.716V126.273H140.116ZM140.916 198.2H125.54V199.8H140.916V198.2ZM126.34 199V126.273H124.74V199H126.34ZM125.54 127.073H140.916V125.473H125.54V127.073ZM152.786 199H151.986V199.8H152.786V199ZM152.786 189.874L152.134 189.409L151.986 189.618V189.874H152.786ZM189.078 138.95L189.73 139.415L190.631 138.15H189.078V138.95ZM152.715 138.95H151.915V139.75H152.715V138.95ZM152.715 126.273V125.473H151.915V126.273H152.715ZM208.397 126.273H209.197V125.473H208.397V126.273ZM208.397 135.399L209.048 135.864L209.197 135.655V135.399H208.397ZM172.069 186.322L171.417 185.858L170.515 187.122H172.069V186.322ZM208.468 186.322H209.268V185.522H208.468V186.322ZM208.468 199V199.8H209.268V199H208.468ZM153.586 199V189.874H151.986V199H153.586ZM153.437 190.338L189.73 139.415L188.427 138.486L152.134 189.409L153.437 190.338ZM189.078 138.15H152.715V139.75H189.078V138.15ZM153.515 138.95V126.273H151.915V138.95H153.515ZM152.715 127.073H208.397V125.473H152.715V127.073ZM207.597 126.273V135.399H209.197V126.273H207.597ZM207.745 134.935L171.417 185.858L172.72 186.787L209.048 135.864L207.745 134.935ZM172.069 187.122H208.468V185.522H172.069V187.122ZM207.668 186.322V199H209.268V186.322H207.668ZM208.468 198.2H152.786V199.8H208.468V198.2ZM232.802 199V199.8H233.383L233.563 199.247L232.802 199ZM216.325 199L215.568 198.739L215.202 199.8H216.325V199ZM241.431 126.273V125.473H240.861L240.675 126.012L241.431 126.273ZM261.246 126.273L262.003 126.012L261.817 125.473H261.246V126.273ZM286.317 199V199.8H287.439L287.074 198.739L286.317 199ZM269.84 199L269.079 199.247L269.259 199.8H269.84V199ZM251.623 142.892L252.384 142.645L252.204 142.092H251.623V142.892ZM251.055 142.892V142.092H250.474L250.294 142.645L251.055 142.892ZM231.772 170.413V169.613H230.972V170.413H231.772ZM270.692 170.413H271.492V169.613H270.692V170.413ZM270.692 182.416V183.216H271.492V182.416H270.692ZM231.772 182.416H230.972V183.216H231.772V182.416ZM232.802 198.2H216.325V199.8H232.802V198.2ZM217.081 199.261L242.187 126.534L240.675 126.012L215.568 198.739L217.081 199.261ZM241.431 127.073H261.246V125.473H241.431V127.073ZM260.49 126.533L285.561 199.261L287.074 198.739L262.003 126.012L260.49 126.533ZM286.317 198.2H269.84V199.8H286.317V198.2ZM270.601 198.753L252.384 142.645L250.862 143.139L269.079 199.247L270.601 198.753ZM251.623 142.092H251.055V143.692H251.623V142.092ZM250.294 142.645L232.041 198.753L233.563 199.247L251.815 143.139L250.294 142.645ZM231.772 171.213H270.692V169.613H231.772V171.213ZM269.892 170.413V182.416H271.492V170.413H269.892ZM270.692 181.616H231.772V183.216H270.692V181.616ZM232.572 182.416V170.413H230.972V182.416H232.572ZM307.607 199V199.8H308.188L308.367 199.247L307.607 199ZM291.129 199L290.373 198.739L290.007 199.8H291.129V199ZM316.236 126.273V125.473H315.666L315.48 126.012L316.236 126.273ZM336.051 126.273L336.807 126.012L336.622 125.473H336.051V126.273ZM361.122 199V199.8H362.244L361.878 198.739L361.122 199ZM344.645 199L343.884 199.247L344.064 199.8H344.645V199ZM326.428 142.892L327.188 142.645L327.009 142.092H326.428V142.892ZM325.859 142.892V142.092H325.278L325.099 142.645L325.859 142.892ZM306.577 170.413V169.613H305.777V170.413H306.577ZM345.497 170.413H346.297V169.613H345.497V170.413ZM345.497 182.416V183.216H346.297V182.416H345.497ZM306.577 182.416H305.777V183.216H306.577V182.416ZM307.607 198.2H291.129V199.8H307.607V198.2ZM291.885 199.261L316.992 126.534L315.48 126.012L290.373 198.739L291.885 199.261ZM316.236 127.073H336.051V125.473H316.236V127.073ZM335.295 126.533L360.366 199.261L361.878 198.739L336.807 126.012L335.295 126.533ZM361.122 198.2H344.645V199.8H361.122V198.2ZM345.406 198.753L327.188 142.645L325.667 143.139L343.884 199.247L345.406 198.753ZM326.428 142.092H325.859V143.692H326.428V142.092ZM325.099 142.645L306.846 198.753L308.367 199.247L326.62 143.139L325.099 142.645ZM306.577 171.213H345.497V169.613H306.577V171.213ZM344.697 170.413V182.416H346.297V170.413H344.697ZM345.497 181.616H306.577V183.216H345.497V181.616ZM307.377 182.416V170.413H305.777V182.416H307.377ZM430.707 126.273H431.507V125.473H430.707V126.273ZM430.707 199V199.8H431.507V199H430.707ZM417.425 199L416.767 199.455L417.006 199.8H417.425V199ZM385.785 153.226L386.443 152.771L386.204 152.426H385.785V153.226ZM385.252 153.226V152.426H384.452V153.226H385.252ZM385.252 199V199.8H386.052V199H385.252ZM369.876 199H369.076V199.8H369.876V199ZM369.876 126.273V125.473H369.076V126.273H369.876ZM383.37 126.273L384.03 125.82L383.791 125.473H383.37V126.273ZM414.762 172.011L414.102 172.464L414.341 172.811H414.762V172.011ZM415.401 172.011V172.811H416.201V172.011H415.401ZM415.401 126.273V125.473H414.601V126.273H415.401ZM429.907 126.273V199H431.507V126.273H429.907ZM430.707 198.2H417.425V199.8H430.707V198.2ZM418.084 198.545L386.443 152.771L385.127 153.681L416.767 199.455L418.084 198.545ZM385.785 152.426H385.252V154.026H385.785V152.426ZM384.452 153.226V199H386.052V153.226H384.452ZM385.252 198.2H369.876V199.8H385.252V198.2ZM370.676 199V126.273H369.076V199H370.676ZM369.876 127.073H383.37V125.473H369.876V127.073ZM382.71 126.725L414.102 172.464L415.422 171.559L384.03 125.82L382.71 126.725ZM414.762 172.811H415.401V171.211H414.762V172.811ZM416.201 172.011V126.273H414.601V172.011H416.201ZM415.401 127.073H430.707V125.473H415.401V127.073Z" fill="white"/>
</g>
</g>
<defs>
<clipPath id="clip0_84_62">
<rect width="432" height="84" fill="white" transform="translate(0 125)"/>
</clipPath>
</defs>
</svg>
