<svg width="496" height="124" viewBox="0 0 496 124" fill="none" xmlns="http://www.w3.org/2000/svg">
<mask id="path-1-outside-1_6_95" maskUnits="userSpaceOnUse" x="-1" y="-1" width="499" height="126" fill="black">
<rect fill="white" x="-1" y="-1" width="499" height="126"/>
<path d="M73.6912 0.636363V37H67.0506L51.2303 14.1129H50.964V37H43.2757V0.636363H50.0229L65.7189 23.5057H66.0385V0.636363H73.6912ZM102.504 0.636363H110.192V24.2514C110.192 26.9029 109.559 29.223 108.293 31.2116C107.038 33.2003 105.28 34.7509 103.019 35.8636C100.758 36.9645 98.1245 37.5149 95.1179 37.5149C92.0994 37.5149 89.4598 36.9645 87.1989 35.8636C84.938 34.7509 83.1802 33.2003 81.9254 31.2116C80.6707 29.223 80.0433 26.9029 80.0433 24.2514V0.636363H87.7315V23.5945C87.7315 24.9794 88.0334 26.2105 88.6371 27.2876C89.2526 28.3648 90.1167 29.2112 91.2294 29.8267C92.3421 30.4422 93.6383 30.75 95.1179 30.75C96.6094 30.75 97.9055 30.4422 99.0064 29.8267C100.119 29.2112 100.977 28.3648 101.581 27.2876C102.196 26.2105 102.504 24.9794 102.504 23.5945V0.636363ZM115.133 6.97514V0.636363H144.998V6.97514H133.865V37H126.266V6.97514H115.133ZM149.916 37V0.636363H164.263C167.009 0.636363 169.353 1.1276 171.294 2.11008C173.247 3.08073 174.733 4.45975 175.751 6.24716C176.781 8.02273 177.296 10.112 177.296 12.5149C177.296 14.9297 176.775 17.0071 175.733 18.7472C174.691 20.4754 173.182 21.8011 171.205 22.7244C169.24 23.6477 166.861 24.1094 164.068 24.1094H154.462V17.9304H162.825C164.293 17.9304 165.512 17.7292 166.482 17.3267C167.453 16.9242 168.175 16.3205 168.649 15.5156C169.134 14.7107 169.377 13.7105 169.377 12.5149C169.377 11.3075 169.134 10.2895 168.649 9.46094C168.175 8.63234 167.447 8.00497 166.465 7.57883C165.494 7.14086 164.269 6.92188 162.789 6.92188H157.605V37H149.916ZM169.554 20.4517L178.592 37H170.105L161.262 20.4517H169.554ZM190.417 0.636363V37H182.729V0.636363H190.417ZM195.358 6.97514V0.636363H225.223V6.97514H214.09V37H206.49V6.97514H195.358ZM237.829 0.636363V37H230.141V0.636363H237.829ZM277.571 18.8182C277.571 22.7836 276.819 26.1572 275.316 28.9389C273.824 31.7206 271.788 33.8454 269.208 35.3132C266.639 36.7692 263.751 37.4972 260.543 37.4972C257.312 37.4972 254.412 36.7633 251.843 35.2955C249.274 33.8277 247.244 31.7029 245.753 28.9212C244.261 26.1394 243.515 22.7718 243.515 18.8182C243.515 14.8527 244.261 11.4792 245.753 8.69744C247.244 5.91572 249.274 3.79687 251.843 2.34091C254.412 0.873105 257.312 0.139203 260.543 0.139203C263.751 0.139203 266.639 0.873105 269.208 2.34091C271.788 3.79687 273.824 5.91572 275.316 8.69744C276.819 11.4792 277.571 14.8527 277.571 18.8182ZM269.776 18.8182C269.776 16.2495 269.391 14.0833 268.622 12.3196C267.864 10.5559 266.793 9.21828 265.408 8.30682C264.023 7.39536 262.402 6.93963 260.543 6.93963C258.685 6.93963 257.063 7.39536 255.678 8.30682C254.293 9.21828 253.216 10.5559 252.447 12.3196C251.689 14.0833 251.31 16.2495 251.31 18.8182C251.31 21.3868 251.689 23.553 252.447 25.3168C253.216 27.0805 254.293 28.4181 255.678 29.3295C257.063 30.241 258.685 30.6967 260.543 30.6967C262.402 30.6967 264.023 30.241 265.408 29.3295C266.793 28.4181 267.864 27.0805 268.622 25.3168C269.391 23.553 269.776 21.3868 269.776 18.8182ZM313.681 0.636363V37H307.041L291.221 14.1129H290.954V37H283.266V0.636363H290.013L305.709 23.5057H306.029V0.636363H313.681ZM327.722 0.636363V37H320.034V0.636363H327.722ZM353.774 11.0945C353.632 9.66217 353.022 8.54948 351.945 7.75639C350.868 6.9633 349.406 6.56676 347.559 6.56676C346.305 6.56676 345.245 6.74432 344.381 7.09943C343.517 7.44271 342.854 7.92211 342.392 8.53764C341.943 9.15317 341.718 9.85156 341.718 10.6328C341.694 11.2839 341.83 11.852 342.126 12.3374C342.434 12.8227 342.854 13.2429 343.387 13.598C343.919 13.9413 344.535 14.2431 345.233 14.5036C345.932 14.7521 346.677 14.9652 347.471 15.1428L350.738 15.924C352.324 16.2791 353.78 16.7526 355.105 17.3445C356.431 17.9363 357.579 18.6643 358.55 19.5284C359.521 20.3925 360.272 21.4105 360.805 22.5824C361.35 23.7543 361.628 25.0978 361.64 26.6129C361.628 28.8383 361.06 30.7678 359.935 32.4013C358.822 34.023 357.212 35.2836 355.105 36.1832C353.01 37.071 350.483 37.5149 347.524 37.5149C344.588 37.5149 342.031 37.0651 339.853 36.1655C337.687 35.2659 335.994 33.9342 334.775 32.1705C333.568 30.3949 332.935 28.1991 332.875 25.5831H340.315C340.398 26.8023 340.747 27.8203 341.363 28.6371C341.99 29.442 342.824 30.0516 343.866 30.4659C344.92 30.8684 346.109 31.0696 347.435 31.0696C348.737 31.0696 349.868 30.8802 350.826 30.5014C351.797 30.1226 352.549 29.5959 353.081 28.9212C353.614 28.2464 353.88 27.4711 353.88 26.5952C353.88 25.7784 353.638 25.0919 353.152 24.5355C352.679 23.9792 351.98 23.5057 351.057 23.1151C350.146 22.7244 349.027 22.3693 347.701 22.0497L343.742 21.0554C340.676 20.3097 338.255 19.1437 336.48 17.5575C334.704 15.9714 333.822 13.8348 333.834 11.1477C333.822 8.94602 334.408 7.02249 335.592 5.37713C336.788 3.73177 338.427 2.44744 340.51 1.52415C342.594 0.600851 344.961 0.139203 347.613 0.139203C350.311 0.139203 352.667 0.600851 354.679 1.52415C356.703 2.44744 358.278 3.73177 359.402 5.37713C360.527 7.02249 361.107 8.92827 361.142 11.0945H353.774ZM365.426 6.97514V0.636363H395.291V6.97514H384.158V37H376.559V6.97514H365.426ZM422.79 37.5327C420.281 37.5327 418.114 37.0829 416.292 36.1832C414.469 35.2836 413.066 34.0644 412.083 32.5256C411.113 30.9749 410.627 29.2467 410.627 27.3409C410.627 25.9205 410.912 24.6598 411.48 23.5589C412.048 22.4581 412.841 21.446 413.859 20.5227C414.877 19.5876 416.061 18.6584 417.41 17.7351L424.459 13.1009C425.371 12.5208 426.039 11.9112 426.466 11.272C426.892 10.621 427.105 9.91667 427.105 9.15909C427.105 8.43703 426.815 7.76823 426.235 7.1527C425.655 6.53717 424.832 6.23532 423.767 6.24716C423.056 6.24716 422.441 6.40696 421.92 6.72656C421.399 7.03433 420.991 7.44271 420.695 7.9517C420.411 8.44886 420.269 9.00521 420.269 9.62074C420.269 10.3783 420.482 11.1477 420.908 11.929C421.334 12.7102 421.902 13.5388 422.613 14.4148C423.323 15.2789 424.098 16.214 424.939 17.2202L442.179 37H434.296L419.914 20.9844C418.967 19.9072 418.02 18.7827 417.073 17.6108C416.138 16.4271 415.356 15.1723 414.729 13.8466C414.102 12.509 413.788 11.0589 413.788 9.49645C413.788 7.73272 414.196 6.14654 415.013 4.73793C415.842 3.32931 417.002 2.21662 418.493 1.39986C419.985 0.571258 421.725 0.156959 423.713 0.156959C425.655 0.156959 427.33 0.553503 428.738 1.34659C430.159 2.12784 431.248 3.16951 432.005 4.47159C432.775 5.76184 433.159 7.18229 433.159 8.73295C433.159 10.4493 432.733 12.0059 431.881 13.4027C431.041 14.7876 429.857 16.0305 428.33 17.1314L420.908 22.4759C419.902 23.2098 419.156 23.9614 418.671 24.7308C418.197 25.4884 417.961 26.2164 417.961 26.9148C417.961 27.7789 418.174 28.5542 418.6 29.2408C419.026 29.9273 419.63 30.4718 420.411 30.8743C421.192 31.2649 422.109 31.4602 423.163 31.4602C424.441 31.4602 425.702 31.1702 426.945 30.5902C428.2 29.9983 429.336 29.1638 430.354 28.0866C431.384 26.9976 432.207 25.7074 432.822 24.2159C433.438 22.7244 433.745 21.0732 433.745 19.2621H440.013C440.013 21.4875 439.77 23.4938 439.285 25.2812C438.8 27.0568 438.125 28.6075 437.261 29.9332C436.397 31.2472 435.408 32.3243 434.296 33.1648C433.941 33.3897 433.597 33.6027 433.266 33.804C432.935 34.0052 432.591 34.2183 432.236 34.4432C430.887 35.5322 429.377 36.3194 427.708 36.8047C426.051 37.29 424.412 37.5327 422.79 37.5327ZM0.355824 123V86.6364H14.7024C17.4605 86.6364 19.8101 87.1631 21.7514 88.2166C23.6927 89.2583 25.1723 90.7083 26.1903 92.5668C27.2202 94.4134 27.7351 96.544 27.7351 98.9588C27.7351 101.374 27.2143 103.504 26.1726 105.351C25.1309 107.197 23.6217 108.636 21.6449 109.665C19.6799 110.695 17.3007 111.21 14.5071 111.21H5.36293V105.049H13.2642C14.7438 105.049 15.9631 104.795 16.9219 104.286C17.8925 103.765 18.6146 103.049 19.0881 102.137C19.5734 101.214 19.8161 100.154 19.8161 98.9588C19.8161 97.7514 19.5734 96.6979 19.0881 95.7983C18.6146 94.8868 17.8925 94.1825 16.9219 93.6854C15.9512 93.1764 14.7202 92.9219 13.2287 92.9219H8.04403V123H0.355824ZM32.7289 123V86.6364H57.2317V92.9751H40.4171V101.64H55.9711V107.979H40.4171V116.661H57.3027V123H32.7289ZM63.3441 123V86.6364H77.6907C80.4369 86.6364 82.7807 87.1276 84.7219 88.1101C86.6751 89.0807 88.1606 90.4598 89.1786 92.2472C90.2085 94.0227 90.7234 96.112 90.7234 98.5149C90.7234 100.93 90.2025 103.007 89.1609 104.747C88.1192 106.475 86.61 107.801 84.6332 108.724C82.6682 109.648 80.2889 110.109 77.4954 110.109H67.8896V103.93H76.2525C77.7203 103.93 78.9395 103.729 79.9102 103.327C80.8808 102.924 81.6029 102.321 82.0763 101.516C82.5617 100.711 82.8043 99.7105 82.8043 98.5149C82.8043 97.3075 82.5617 96.2895 82.0763 95.4609C81.6029 94.6323 80.8749 94.005 79.8924 93.5788C78.9218 93.1409 77.6966 92.9219 76.217 92.9219H71.0323V123H63.3441ZM82.9819 106.452L92.0195 123H83.5323L74.69 106.452H82.9819ZM115.883 97.0945C115.741 95.6622 115.132 94.5495 114.054 93.7564C112.977 92.9633 111.515 92.5668 109.669 92.5668C108.414 92.5668 107.355 92.7443 106.49 93.0994C105.626 93.4427 104.963 93.9221 104.502 94.5376C104.052 95.1532 103.827 95.8516 103.827 96.6328C103.803 97.2839 103.94 97.852 104.235 98.3374C104.543 98.8227 104.963 99.2429 105.496 99.598C106.029 99.9413 106.644 100.243 107.343 100.504C108.041 100.752 108.787 100.965 109.58 101.143L112.847 101.924C114.433 102.279 115.889 102.753 117.215 103.344C118.541 103.936 119.689 104.664 120.659 105.528C121.63 106.393 122.382 107.411 122.914 108.582C123.459 109.754 123.737 111.098 123.749 112.613C123.737 114.838 123.169 116.768 122.044 118.401C120.932 120.023 119.322 121.284 117.215 122.183C115.12 123.071 112.592 123.515 109.633 123.515C106.698 123.515 104.141 123.065 101.963 122.165C99.7965 121.266 98.1038 119.934 96.8846 118.17C95.6772 116.395 95.0439 114.199 94.9847 111.583H102.424C102.507 112.802 102.856 113.82 103.472 114.637C104.099 115.442 104.934 116.052 105.975 116.466C107.029 116.868 108.219 117.07 109.544 117.07C110.846 117.07 111.977 116.88 112.936 116.501C113.906 116.123 114.658 115.596 115.191 114.921C115.723 114.246 115.99 113.471 115.99 112.595C115.99 111.778 115.747 111.092 115.262 110.536C114.788 109.979 114.09 109.506 113.167 109.115C112.255 108.724 111.136 108.369 109.811 108.05L105.851 107.055C102.785 106.31 100.365 105.144 98.5891 103.558C96.8136 101.971 95.9317 99.8348 95.9435 97.1477C95.9317 94.946 96.5176 93.0225 97.7013 91.3771C98.8969 89.7318 100.536 88.4474 102.62 87.5241C104.703 86.6009 107.07 86.1392 109.722 86.1392C112.421 86.1392 114.776 86.6009 116.789 87.5241C118.813 88.4474 120.387 89.7318 121.512 91.3771C122.636 93.0225 123.216 94.9283 123.252 97.0945H115.883ZM162.336 104.818C162.336 108.784 161.585 112.157 160.081 114.939C158.59 117.721 156.554 119.845 153.974 121.313C151.405 122.769 148.517 123.497 145.309 123.497C142.077 123.497 139.177 122.763 136.608 121.295C134.04 119.828 132.01 117.703 130.518 114.921C129.027 112.139 128.281 108.772 128.281 104.818C128.281 100.853 129.027 97.4792 130.518 94.6974C132.01 91.9157 134.04 89.7969 136.608 88.3409C139.177 86.8731 142.077 86.1392 145.309 86.1392C148.517 86.1392 151.405 86.8731 153.974 88.3409C156.554 89.7969 158.59 91.9157 160.081 94.6974C161.585 97.4792 162.336 100.853 162.336 104.818ZM154.542 104.818C154.542 102.25 154.157 100.083 153.388 98.3196C152.63 96.5559 151.559 95.2183 150.174 94.3068C148.789 93.3954 147.167 92.9396 145.309 92.9396C143.45 92.9396 141.829 93.3954 140.444 94.3068C139.059 95.2183 137.982 96.5559 137.212 98.3196C136.455 100.083 136.076 102.25 136.076 104.818C136.076 107.387 136.455 109.553 137.212 111.317C137.982 113.08 139.059 114.418 140.444 115.33C141.829 116.241 143.45 116.697 145.309 116.697C147.167 116.697 148.789 116.241 150.174 115.33C151.559 114.418 152.63 113.08 153.388 111.317C154.157 109.553 154.542 107.387 154.542 104.818ZM198.447 86.6364V123H191.806L175.986 100.113H175.72V123H168.032V86.6364H174.779L190.475 109.506H190.794V86.6364H198.447ZM211.067 123H202.828L215.382 86.6364H225.289L237.825 123H229.586L220.477 94.946H220.193L211.067 123ZM210.552 108.707H230.012V114.708H210.552V108.707ZM242.202 123V86.6364H249.89V116.661H265.479V123H242.202ZM280.758 92.9751V86.6364H310.623V92.9751H299.49V123H291.891V92.9751H280.758ZM315.541 123V86.6364H329.888C332.634 86.6364 334.978 87.1276 336.919 88.1101C338.872 89.0807 340.358 90.4598 341.376 92.2472C342.406 94.0227 342.921 96.112 342.921 98.5149C342.921 100.93 342.4 103.007 341.358 104.747C340.316 106.475 338.807 107.801 336.83 108.724C334.865 109.648 332.486 110.109 329.693 110.109H320.087V103.93H328.45C329.918 103.93 331.137 103.729 332.107 103.327C333.078 102.924 333.8 102.321 334.274 101.516C334.759 100.711 335.002 99.7105 335.002 98.5149C335.002 97.3075 334.759 96.2895 334.274 95.4609C333.8 94.6323 333.072 94.005 332.09 93.5788C331.119 93.1409 329.894 92.9219 328.414 92.9219H323.23V123H315.541ZM335.179 106.452L344.217 123H335.73L326.887 106.452H335.179ZM354.622 123H346.383L358.936 86.6364H368.844L381.379 123H373.141L364.032 94.946H363.748L354.622 123ZM354.107 108.707H373.567V114.708H354.107V108.707ZM393.444 86.6364V123H385.756V86.6364H393.444ZM430.185 86.6364V123H423.545L407.724 100.113H407.458V123H399.77V86.6364H406.517L422.213 109.506H422.533V86.6364H430.185ZM436.537 123V86.6364H461.04V92.9751H444.226V101.64H459.78V107.979H444.226V116.661H461.111V123H436.537ZM467.153 123V86.6364H481.499C484.246 86.6364 486.589 87.1276 488.531 88.1101C490.484 89.0807 491.969 90.4598 492.987 92.2472C494.017 94.0227 494.532 96.112 494.532 98.5149C494.532 100.93 494.011 103.007 492.969 104.747C491.928 106.475 490.419 107.801 488.442 108.724C486.477 109.648 484.098 110.109 481.304 110.109H471.698V103.93H480.061C481.529 103.93 482.748 103.729 483.719 103.327C484.689 102.924 485.411 102.321 485.885 101.516C486.37 100.711 486.613 99.7105 486.613 98.5149C486.613 97.3075 486.37 96.2895 485.885 95.4609C485.411 94.6323 484.683 94.005 483.701 93.5788C482.73 93.1409 481.505 92.9219 480.026 92.9219H474.841V123H467.153ZM486.79 106.452L495.828 123H487.341L478.499 106.452H486.79Z"/>
</mask>
<path d="M73.6912 0.636362H74.6912V-0.363638H73.6912V0.636362ZM73.6912 37V38H74.6912V37H73.6912ZM67.0506 37L66.228 37.5686L66.5262 38H67.0506V37ZM51.2303 14.1129L52.0529 13.5443L51.7547 13.1129H51.2303V14.1129ZM50.964 14.1129V13.1129H49.964V14.1129H50.964ZM50.964 37V38H51.964V37H50.964ZM43.2757 37H42.2757V38H43.2757V37ZM43.2757 0.636362V-0.363638H42.2757V0.636362H43.2757ZM50.0229 0.636362L50.8474 0.0704861L50.5494 -0.363638H50.0229V0.636362ZM65.7189 23.5057L64.8944 24.0716L65.1924 24.5057H65.7189V23.5057ZM66.0385 23.5057V24.5057H67.0385V23.5057H66.0385ZM66.0385 0.636362V-0.363638H65.0385V0.636362H66.0385ZM72.6912 0.636362V37H74.6912V0.636362H72.6912ZM73.6912 36H67.0506V38H73.6912V36ZM67.8732 36.4314L52.0529 13.5443L50.4077 14.6815L66.228 37.5686L67.8732 36.4314ZM51.2303 13.1129H50.964V15.1129H51.2303V13.1129ZM49.964 14.1129V37H51.964V14.1129H49.964ZM50.964 36H43.2757V38H50.964V36ZM44.2757 37V0.636362H42.2757V37H44.2757ZM43.2757 1.63636H50.0229V-0.363638H43.2757V1.63636ZM49.1984 1.20224L64.8944 24.0716L66.5434 22.9398L50.8474 0.0704861L49.1984 1.20224ZM65.7189 24.5057H66.0385V22.5057H65.7189V24.5057ZM67.0385 23.5057V0.636362H65.0385V23.5057H67.0385ZM66.0385 1.63636H73.6912V-0.363638H66.0385V1.63636ZM102.504 0.636362V-0.363638H101.504V0.636362H102.504ZM110.192 0.636362H111.192V-0.363638H110.192V0.636362ZM108.293 31.2116L107.449 30.6744L107.447 30.678L108.293 31.2116ZM103.019 35.8636L103.457 36.7627L103.461 36.7609L103.019 35.8636ZM87.1989 35.8636L86.7573 36.7609L86.7611 36.7627L87.1989 35.8636ZM81.9254 31.2116L81.0797 31.7453L81.9254 31.2116ZM80.0433 0.636362V-0.363638H79.0433V0.636362H80.0433ZM87.7315 0.636362H88.7315V-0.363638H87.7315V0.636362ZM88.6371 27.2876L87.7647 27.7766L87.7688 27.7838L88.6371 27.2876ZM91.2294 29.8267L90.7453 30.7017L91.2294 29.8267ZM99.0064 29.8267L98.5223 28.9517L98.5184 28.9539L99.0064 29.8267ZM101.581 27.2876L100.713 26.7915L100.709 26.7987L101.581 27.2876ZM102.504 1.63636H110.192V-0.363638H102.504V1.63636ZM109.192 0.636362V24.2514H111.192V0.636362H109.192ZM109.192 24.2514C109.192 26.737 108.601 28.8658 107.449 30.6744L109.136 31.7488C110.517 29.5803 111.192 27.0688 111.192 24.2514H109.192ZM107.447 30.678C106.298 32.4992 104.685 33.9292 102.578 34.9664L103.461 36.7609C105.875 35.5727 107.778 33.9013 109.138 31.7453L107.447 30.678ZM102.581 34.9646C100.481 35.9872 98.0022 36.5149 95.1179 36.5149V38.5149C98.2469 38.5149 101.036 37.9417 103.457 36.7627L102.581 34.9646ZM95.1179 36.5149C92.2211 36.5149 89.7365 35.987 87.6366 34.9646L86.7611 36.7627C89.183 37.942 91.9778 38.5149 95.1179 38.5149V36.5149ZM87.6404 34.9664C85.5329 33.9292 83.9202 32.4992 82.7712 30.678L81.0797 31.7453C82.4401 33.9013 84.343 35.5727 86.7573 36.7609L87.6404 34.9664ZM82.7712 30.678C81.6297 28.8689 81.0433 26.7389 81.0433 24.2514H79.0433C79.0433 27.067 79.7117 29.5771 81.0797 31.7453L82.7712 30.678ZM81.0433 24.2514V0.636362H79.0433V24.2514H81.0433ZM80.0433 1.63636H87.7315V-0.363638H80.0433V1.63636ZM86.7315 0.636362V23.5945H88.7315V0.636362H86.7315ZM86.7315 23.5945C86.7315 25.1294 87.0675 26.5325 87.7647 27.7765L89.5094 26.7987C88.9992 25.8884 88.7315 24.8294 88.7315 23.5945H86.7315ZM87.7688 27.7838C88.4776 29.0242 89.4765 29.9998 90.7453 30.7017L91.7135 28.9517C90.7569 28.4225 90.0276 27.7054 89.5053 26.7915L87.7688 27.7838ZM90.7453 30.7017C92.0288 31.4118 93.4968 31.75 95.1179 31.75V29.75C93.7797 29.75 92.6553 29.4727 91.7135 28.9517L90.7453 30.7017ZM95.1179 31.75C96.749 31.75 98.2193 31.4125 99.4944 30.6995L98.5184 28.9539C97.5918 29.472 96.4698 29.75 95.1179 29.75V31.75ZM99.4905 30.7017C100.761 29.999 101.756 29.0211 102.453 27.7765L100.709 26.7987C100.199 27.7086 99.4773 28.4234 98.5223 28.9517L99.4905 30.7017ZM102.449 27.7838C103.161 26.5385 103.504 25.1327 103.504 23.5945H101.504C101.504 24.8261 101.232 25.8824 100.713 26.7915L102.449 27.7838ZM103.504 23.5945V0.636362H101.504V23.5945H103.504ZM115.133 6.97514H114.133V7.97514H115.133V6.97514ZM115.133 0.636362V-0.363638H114.133V0.636362H115.133ZM144.998 0.636362H145.998V-0.363638H144.998V0.636362ZM144.998 6.97514V7.97514H145.998V6.97514H144.998ZM133.865 6.97514V5.97514H132.865V6.97514H133.865ZM133.865 37V38H134.865V37H133.865ZM126.266 37H125.266V38H126.266V37ZM126.266 6.97514H127.266V5.97514H126.266V6.97514ZM116.133 6.97514V0.636362H114.133V6.97514H116.133ZM115.133 1.63636H144.998V-0.363638H115.133V1.63636ZM143.998 0.636362V6.97514H145.998V0.636362H143.998ZM144.998 5.97514H133.865V7.97514H144.998V5.97514ZM132.865 6.97514V37H134.865V6.97514H132.865ZM133.865 36H126.266V38H133.865V36ZM127.266 37V6.97514H125.266V37H127.266ZM126.266 5.97514H115.133V7.97514H126.266V5.97514ZM149.916 37H148.916V38H149.916V37ZM149.916 0.636362V-0.363638H148.916V0.636362H149.916ZM171.294 2.11008L170.843 3.00235L170.849 3.00559L171.294 2.11008ZM175.751 6.24716L174.882 6.74207L174.886 6.74888L175.751 6.24716ZM175.733 18.7472L176.59 19.2634L176.591 19.2608L175.733 18.7472ZM171.205 22.7244L170.782 21.8184L170.78 21.8194L171.205 22.7244ZM154.462 24.1094H153.462V25.1094H154.462V24.1094ZM154.462 17.9304V16.9304H153.462V17.9304H154.462ZM166.482 17.3267L166.865 18.2504L166.482 17.3267ZM168.649 15.5156L167.792 14.9992L167.787 15.0086L168.649 15.5156ZM168.649 9.46094L167.78 9.9571L167.786 9.96634L168.649 9.46094ZM166.465 7.57883L166.053 8.49034L166.06 8.49335L166.067 8.49626L166.465 7.57883ZM157.605 6.92188V5.92188H156.605V6.92188H157.605ZM157.605 37V38H158.605V37H157.605ZM169.554 20.4517L170.432 19.9724L170.147 19.4517H169.554V20.4517ZM178.592 37V38H180.277L179.469 36.5207L178.592 37ZM170.105 37L169.223 37.4713L169.505 38H170.105V37ZM161.262 20.4517V19.4517H159.594L160.38 20.923L161.262 20.4517ZM150.916 37V0.636362H148.916V37H150.916ZM149.916 1.63636H164.263V-0.363638H149.916V1.63636ZM164.263 1.63636C166.892 1.63636 169.073 2.10681 170.843 3.00233L171.746 1.21784C169.633 0.148396 167.126 -0.363638 164.263 -0.363638V1.63636ZM170.849 3.00559C172.636 3.89341 173.968 5.138 174.882 6.74206L176.62 5.75226C175.497 3.78151 173.859 2.26805 171.739 1.21457L170.849 3.00559ZM174.886 6.74888C175.813 8.34775 176.296 10.2578 176.296 12.5149H178.296C178.296 9.96611 177.748 7.6977 176.616 5.74544L174.886 6.74888ZM176.296 12.5149C176.296 14.7835 175.808 16.676 174.875 18.2335L176.591 19.2608C177.742 17.3382 178.296 15.0759 178.296 12.5149H176.296ZM174.877 18.2309C173.946 19.7752 172.594 20.972 170.782 21.8184L171.629 23.6305C173.77 22.6303 175.437 21.1756 176.59 19.2634L174.877 18.2309ZM170.78 21.8194C168.981 22.6649 166.755 23.1094 164.068 23.1094V25.1094C166.968 25.1094 169.5 24.6306 171.631 23.6295L170.78 21.8194ZM164.068 23.1094H154.462V25.1094H164.068V23.1094ZM155.462 24.1094V17.9304H153.462V24.1094H155.462ZM154.462 18.9304H162.825V16.9304H154.462V18.9304ZM162.825 18.9304C164.375 18.9304 165.735 18.719 166.865 18.2504L166.099 16.403C165.288 16.7393 164.21 16.9304 162.825 16.9304V18.9304ZM166.865 18.2504C168.01 17.7757 168.913 17.038 169.511 16.0226L167.787 15.0086C167.437 15.6031 166.896 16.0728 166.099 16.403L166.865 18.2504ZM169.505 16.032C170.107 15.0341 170.377 13.8436 170.377 12.5149H168.377C168.377 13.5773 168.161 14.3873 167.792 14.9993L169.505 16.032ZM170.377 12.5149C170.377 11.175 170.107 9.97218 169.512 8.95553L167.786 9.96634C168.161 10.6069 168.377 11.44 168.377 12.5149H170.377ZM169.517 8.9648C168.923 7.92597 168.018 7.16248 166.863 6.66141L166.067 8.49626C166.876 8.84746 167.427 9.3387 167.78 9.95708L169.517 8.9648ZM166.876 6.66733C165.736 6.15297 164.359 5.92188 162.789 5.92188V7.92188C164.179 7.92188 165.252 8.12876 166.053 8.49034L166.876 6.66733ZM162.789 5.92188H157.605V7.92188H162.789V5.92188ZM156.605 6.92188V37H158.605V6.92188H156.605ZM157.605 36H149.916V38H157.605V36ZM168.677 20.931L177.714 37.4793L179.469 36.5207L170.432 19.9724L168.677 20.931ZM178.592 36H170.105V38H178.592V36ZM170.987 36.5287L162.144 19.9804L160.38 20.923L169.223 37.4713L170.987 36.5287ZM161.262 21.4517H169.554V19.4517H161.262V21.4517ZM190.417 0.636362H191.417V-0.363638H190.417V0.636362ZM190.417 37V38H191.417V37H190.417ZM182.729 37H181.729V38H182.729V37ZM182.729 0.636362V-0.363638H181.729V0.636362H182.729ZM189.417 0.636362V37H191.417V0.636362H189.417ZM190.417 36H182.729V38H190.417V36ZM183.729 37V0.636362H181.729V37H183.729ZM182.729 1.63636H190.417V-0.363638H182.729V1.63636ZM195.358 6.97514H194.358V7.97514H195.358V6.97514ZM195.358 0.636362V-0.363638H194.358V0.636362H195.358ZM225.223 0.636362H226.223V-0.363638H225.223V0.636362ZM225.223 6.97514V7.97514H226.223V6.97514H225.223ZM214.09 6.97514V5.97514H213.09V6.97514H214.09ZM214.09 37V38H215.09V37H214.09ZM206.49 37H205.49V38H206.49V37ZM206.49 6.97514H207.49V5.97514H206.49V6.97514ZM196.358 6.97514V0.636362H194.358V6.97514H196.358ZM195.358 1.63636H225.223V-0.363638H195.358V1.63636ZM224.223 0.636362V6.97514H226.223V0.636362H224.223ZM225.223 5.97514H214.09V7.97514H225.223V5.97514ZM213.09 6.97514V37H215.09V6.97514H213.09ZM214.09 36H206.49V38H214.09V36ZM207.49 37V6.97514H205.49V37H207.49ZM206.49 5.97514H195.358V7.97514H206.49V5.97514ZM237.829 0.636362H238.829V-0.363638H237.829V0.636362ZM237.829 37V38H238.829V37H237.829ZM230.141 37H229.141V38H230.141V37ZM230.141 0.636362V-0.363638H229.141V0.636362H230.141ZM236.829 0.636362V37H238.829V0.636362H236.829ZM237.829 36H230.141V38H237.829V36ZM231.141 37V0.636362H229.141V37H231.141ZM230.141 1.63636H237.829V-0.363638H230.141V1.63636ZM275.316 28.9389L274.436 28.4635L274.435 28.4664L275.316 28.9389ZM269.208 35.3132L269.701 36.1832L269.702 36.1824L269.208 35.3132ZM251.843 35.2955L252.339 34.4272L251.843 35.2955ZM245.753 28.9212L244.871 29.3937L245.753 28.9212ZM245.753 8.69744L246.634 9.16998L245.753 8.69744ZM251.843 2.34091L252.336 3.21088L252.339 3.20915L251.843 2.34091ZM269.208 2.34091L268.712 3.20917L268.717 3.21184L269.208 2.34091ZM275.316 8.69744L274.435 9.16998L274.436 9.17288L275.316 8.69744ZM268.622 12.3196L267.703 12.7143L267.705 12.7195L268.622 12.3196ZM265.408 8.30682L264.858 9.14215L265.408 8.30682ZM255.678 8.30682L256.228 9.14215L255.678 8.30682ZM252.447 12.3196L251.53 11.9197L251.528 11.9249L252.447 12.3196ZM252.447 25.3168L251.528 25.7114L251.53 25.7166L252.447 25.3168ZM255.678 29.3295L256.228 28.4942L255.678 29.3295ZM265.408 29.3295L264.858 28.4942L265.408 29.3295ZM268.622 25.3168L267.705 24.9169L267.703 24.9221L268.622 25.3168ZM276.571 18.8182C276.571 22.659 275.843 25.8603 274.436 28.4635L276.196 29.4144C277.795 26.4541 278.571 22.9082 278.571 18.8182H276.571ZM274.435 28.4664C273.026 31.093 271.12 33.0753 268.714 34.444L269.702 36.1824C272.457 34.6155 274.623 32.3482 276.197 29.4115L274.435 28.4664ZM268.715 34.4432C266.309 35.8067 263.594 36.4972 260.543 36.4972V38.4972C263.908 38.4972 266.969 37.7317 269.701 36.1832L268.715 34.4432ZM260.543 36.4972C257.469 36.4972 254.743 35.8008 252.339 34.4272L251.347 36.1637C254.08 37.7257 257.154 38.4972 260.543 38.4972V36.4972ZM252.339 34.4272C249.944 33.0588 248.043 31.0765 246.634 28.4486L244.871 29.3937C246.445 32.3293 248.604 34.5965 251.347 36.1637L252.339 34.4272ZM246.634 28.4486C245.238 25.8444 244.515 22.6478 244.515 18.8182H242.515C242.515 22.8958 243.285 26.4345 244.871 29.3937L246.634 28.4486ZM244.515 18.8182C244.515 14.9762 245.238 11.7738 246.634 9.16998L244.871 8.22491C243.284 11.1845 242.515 14.7293 242.515 18.8182H244.515ZM246.634 9.16998C248.043 6.54274 249.943 4.5672 252.336 3.21087L251.35 1.47094C248.605 3.02655 246.446 5.28869 244.871 8.22491L246.634 9.16998ZM252.339 3.20915C254.743 1.83553 257.469 1.1392 260.543 1.1392V-0.860797C257.154 -0.860797 254.08 -0.0893211 251.347 1.47267L252.339 3.20915ZM260.543 1.1392C263.592 1.1392 266.307 1.83489 268.712 3.20915L269.704 1.47267C266.972 -0.0886822 263.91 -0.860797 260.543 -0.860797V1.1392ZM268.717 3.21184C271.121 4.56849 273.027 6.54392 274.435 9.16998L276.197 8.22491C274.622 5.28751 272.456 3.02526 269.699 1.46997L268.717 3.21184ZM274.436 9.17288C275.843 11.776 276.571 14.9773 276.571 18.8182H278.571C278.571 14.7281 277.795 11.1823 276.196 8.222L274.436 9.17288ZM270.776 18.8182C270.776 16.1556 270.378 13.8443 269.539 11.9198L267.705 12.7195C268.405 14.3224 268.776 16.3435 268.776 18.8182H270.776ZM269.541 11.9249C268.718 10.0104 267.531 8.50672 265.958 7.47149L264.858 9.14215C266.055 9.92983 267.01 11.1013 267.703 12.7143L269.541 11.9249ZM265.958 7.47149C264.391 6.43991 262.573 5.93963 260.543 5.93963V7.93963C262.231 7.93963 263.656 8.35081 264.858 9.14215L265.958 7.47149ZM260.543 5.93963C258.514 5.93963 256.696 6.43991 255.128 7.47149L256.228 9.14215C257.43 8.35081 258.856 7.93963 260.543 7.93963V5.93963ZM255.128 7.47149C253.557 8.50574 252.364 10.0076 251.53 11.9198L253.363 12.7195C254.068 11.1042 255.029 9.93081 256.228 9.14215L255.128 7.47149ZM251.528 11.9249C250.702 13.8479 250.31 16.1572 250.31 18.8182H252.31C252.31 16.3418 252.676 14.3188 253.365 12.7143L251.528 11.9249ZM250.31 18.8182C250.31 21.4791 250.702 23.7885 251.528 25.7114L253.365 24.9221C252.676 23.3176 252.31 21.2945 252.31 18.8182H250.31ZM251.53 25.7166C252.364 27.6288 253.557 29.1306 255.128 30.1649L256.228 28.4942C255.029 27.7056 254.068 26.5322 253.363 24.9169L251.53 25.7166ZM255.128 30.1649C256.696 31.1964 258.514 31.6967 260.543 31.6967V29.6967C258.856 29.6967 257.43 29.2856 256.228 28.4942L255.128 30.1649ZM260.543 31.6967C262.573 31.6967 264.391 31.1964 265.958 30.1649L264.858 28.4942C263.656 29.2856 262.231 29.6967 260.543 29.6967V31.6967ZM265.958 30.1649C267.531 29.1296 268.718 27.6259 269.541 25.7114L267.703 24.9221C267.01 26.5351 266.055 27.7065 264.858 28.4942L265.958 30.1649ZM269.539 25.7166C270.378 23.7921 270.776 21.4808 270.776 18.8182H268.776C268.776 21.2929 268.405 23.314 267.705 24.9169L269.539 25.7166ZM313.681 0.636362H314.681V-0.363638H313.681V0.636362ZM313.681 37V38H314.681V37H313.681ZM307.041 37L306.218 37.5686L306.516 38H307.041V37ZM291.221 14.1129L292.043 13.5443L291.745 13.1129H291.221V14.1129ZM290.954 14.1129V13.1129H289.954V14.1129H290.954ZM290.954 37V38H291.954V37H290.954ZM283.266 37H282.266V38H283.266V37ZM283.266 0.636362V-0.363638H282.266V0.636362H283.266ZM290.013 0.636362L290.838 0.0704861L290.54 -0.363638H290.013V0.636362ZM305.709 23.5057L304.885 24.0716L305.183 24.5057H305.709V23.5057ZM306.029 23.5057V24.5057H307.029V23.5057H306.029ZM306.029 0.636362V-0.363638H305.029V0.636362H306.029ZM312.681 0.636362V37H314.681V0.636362H312.681ZM313.681 36H307.041V38H313.681V36ZM307.863 36.4314L292.043 13.5443L290.398 14.6815L306.218 37.5686L307.863 36.4314ZM291.221 13.1129H290.954V15.1129H291.221V13.1129ZM289.954 14.1129V37H291.954V14.1129H289.954ZM290.954 36H283.266V38H290.954V36ZM284.266 37V0.636362H282.266V37H284.266ZM283.266 1.63636H290.013V-0.363638H283.266V1.63636ZM289.189 1.20224L304.885 24.0716L306.534 22.9398L290.838 0.0704861L289.189 1.20224ZM305.709 24.5057H306.029V22.5057H305.709V24.5057ZM307.029 23.5057V0.636362H305.029V23.5057H307.029ZM306.029 1.63636H313.681V-0.363638H306.029V1.63636ZM327.722 0.636362H328.722V-0.363638H327.722V0.636362ZM327.722 37V38H328.722V37H327.722ZM320.034 37H319.034V38H320.034V37ZM320.034 0.636362V-0.363638H319.034V0.636362H320.034ZM326.722 0.636362V37H328.722V0.636362H326.722ZM327.722 36H320.034V38H327.722V36ZM321.034 37V0.636362H319.034V37H321.034ZM320.034 1.63636H327.722V-0.363638H320.034V1.63636ZM353.774 11.0945L352.779 11.1931L352.868 12.0945H353.774V11.0945ZM344.381 7.09943L344.75 8.02885L344.761 8.02437L344.381 7.09943ZM342.392 8.53764L341.592 7.93759L341.585 7.94762L342.392 8.53764ZM341.718 10.6328L342.717 10.6692L342.718 10.651V10.6328H341.718ZM342.126 12.3374L341.272 12.858L341.277 12.8655L341.282 12.8729L342.126 12.3374ZM343.387 13.598L342.832 14.4301L342.838 14.4344L342.845 14.4386L343.387 13.598ZM345.233 14.5035L344.884 15.4405L344.891 15.4431L344.898 15.4457L345.233 14.5035ZM347.471 15.1428L347.703 14.1702L347.696 14.1685L347.689 14.1669L347.471 15.1428ZM350.738 15.924L350.505 16.8966L350.512 16.8983L350.519 16.8998L350.738 15.924ZM355.105 17.3445L354.698 18.2576L355.105 17.3445ZM358.55 19.5284L359.215 18.7815L358.55 19.5284ZM360.805 22.5824L359.895 22.9962L359.898 23.0038L360.805 22.5824ZM361.64 26.6129L362.64 26.6182L362.64 26.6051L361.64 26.6129ZM359.935 32.4013L359.111 31.8342L359.11 31.8355L359.935 32.4013ZM355.105 36.1832L355.496 37.104L355.498 37.1029L355.105 36.1832ZM339.853 36.1655L339.47 37.089L339.472 37.0897L339.853 36.1655ZM334.775 32.1705L333.948 32.7328L333.953 32.7391L334.775 32.1705ZM332.875 25.5831V24.5831H331.852L331.876 25.6057L332.875 25.5831ZM340.315 25.5831L341.313 25.5153L341.249 24.5831H340.315V25.5831ZM341.363 28.6371L340.564 29.2389L340.569 29.2454L340.574 29.2518L341.363 28.6371ZM343.866 30.4659L343.497 31.3952L343.509 31.4001L343.866 30.4659ZM350.826 30.5014L350.463 29.5698L350.459 29.5714L350.826 30.5014ZM353.081 28.9212L353.866 29.5408L353.081 28.9212ZM353.152 24.5355L352.391 25.1837L352.399 25.1929L353.152 24.5355ZM351.057 23.1151L350.663 24.0342L350.668 24.036L351.057 23.1151ZM347.701 22.0497L347.458 23.0196L347.467 23.0219L347.701 22.0497ZM343.742 21.0554L343.985 20.0855L343.978 20.0837L343.742 21.0554ZM336.48 17.5575L335.814 18.3033L336.48 17.5575ZM333.834 11.1477L334.834 11.1521L334.834 11.1423L333.834 11.1477ZM335.592 5.37713L334.783 4.7893L334.78 4.79313L335.592 5.37713ZM354.679 1.52415L354.262 2.43305L354.264 2.43397L354.679 1.52415ZM359.402 5.37713L358.577 5.94139L359.402 5.37713ZM361.142 11.0945V12.0945H362.159L362.142 11.0781L361.142 11.0945ZM354.769 10.9958C354.601 9.3057 353.862 7.92597 352.538 6.95111L351.352 8.56167C352.182 9.17299 352.662 10.0186 352.779 11.1931L354.769 10.9958ZM352.538 6.95111C351.234 5.9914 349.54 5.56676 347.559 5.56676V7.56676C349.272 7.56676 350.501 7.93521 351.352 8.56167L352.538 6.95111ZM347.559 5.56676C346.216 5.56676 345.019 5.75598 344.001 6.17449L344.761 8.02437C345.471 7.73266 346.393 7.56676 347.559 7.56676V5.56676ZM344.012 6.17008C343.012 6.56713 342.186 7.14668 341.592 7.93764L343.192 9.13764C343.522 8.69754 344.021 8.31828 344.75 8.02878L344.012 6.17008ZM341.585 7.94762C341.007 8.73892 340.718 9.64507 340.718 10.6328H342.718C342.718 10.0581 342.878 9.56743 343.2 9.12766L341.585 7.94762ZM340.718 10.5965C340.689 11.414 340.86 12.1818 341.272 12.858L342.98 11.8167C342.8 11.5223 342.699 11.1537 342.717 10.6692L340.718 10.5965ZM341.282 12.8729C341.672 13.489 342.196 14.0063 342.832 14.4301L343.941 12.766C343.512 12.4795 343.195 12.1563 342.971 11.8018L341.282 12.8729ZM342.845 14.4386C343.448 14.8269 344.13 15.1593 344.884 15.4405L345.583 13.5666C344.94 13.327 344.391 13.0557 343.928 12.7574L342.845 14.4386ZM344.898 15.4457C345.638 15.7091 346.423 15.933 347.252 16.1186L347.689 14.1669C346.932 13.9974 346.225 13.7952 345.569 13.5614L344.898 15.4457ZM347.238 16.1153L350.505 16.8966L350.97 14.9514L347.703 14.1702L347.238 16.1153ZM350.519 16.8998C352.048 17.2421 353.44 17.6959 354.698 18.2576L355.513 16.4313C354.12 15.8093 352.6 15.3161 350.956 14.9482L350.519 16.8998ZM354.698 18.2576C355.941 18.8124 357 19.487 357.885 20.2753L359.215 18.7815C358.159 17.8416 356.922 17.0602 355.513 16.4313L354.698 18.2576ZM357.885 20.2753C358.753 21.0476 359.42 21.9525 359.895 22.9962L361.715 22.1686C361.124 20.8685 360.289 19.7374 359.215 18.7815L357.885 20.2753ZM359.898 23.0038C360.373 24.0256 360.629 25.2241 360.64 26.6207L362.64 26.6051C362.627 24.9715 362.326 23.483 361.712 22.161L359.898 23.0038ZM360.64 26.6076C360.629 28.6577 360.108 30.3858 359.111 31.8342L360.759 32.9683C362.011 31.1497 362.627 29.0189 362.64 26.6182L360.64 26.6076ZM359.11 31.8355C358.122 33.2762 356.674 34.426 354.713 35.2636L355.498 37.1029C357.75 36.1413 359.523 34.7697 360.76 32.967L359.11 31.8355ZM354.715 35.2625C352.775 36.0848 350.387 36.5149 347.524 36.5149V38.5149C350.579 38.5149 353.246 38.0572 355.496 37.104L354.715 35.2625ZM347.524 36.5149C344.688 36.5149 342.266 36.0802 340.235 35.2412L339.472 37.0897C341.796 38.05 344.488 38.5149 347.524 38.5149V36.5149ZM340.237 35.242C338.231 34.4088 336.698 33.1928 335.598 31.6018L333.953 32.7391C335.291 34.6756 337.144 36.1229 339.47 37.089L340.237 35.242ZM335.602 31.6081C334.525 30.0239 333.931 28.0261 333.875 25.5605L331.876 25.6057C331.938 28.3721 332.611 30.7659 333.948 32.7328L335.602 31.6081ZM332.875 26.5831H340.315V24.5831H332.875V26.5831ZM339.317 25.6509C339.411 27.0254 339.811 28.2392 340.564 29.2389L342.161 28.0352C341.684 27.4014 341.385 26.5792 341.313 25.5153L339.317 25.6509ZM340.574 29.2518C341.321 30.2105 342.306 30.9218 343.497 31.3951L344.236 29.5367C343.342 29.1814 342.659 28.6735 342.151 28.0223L340.574 29.2518ZM343.509 31.4001C344.695 31.853 346.008 32.0696 347.435 32.0696V30.0696C346.21 30.0696 345.144 29.8838 344.223 29.5318L343.509 31.4001ZM347.435 32.0696C348.831 32.0696 350.092 31.8669 351.194 31.4315L350.459 29.5714C349.643 29.8935 348.643 30.0696 347.435 30.0696V32.0696ZM351.19 31.433C352.291 31.0033 353.202 30.382 353.866 29.5408L352.296 28.3015C351.895 28.8098 351.303 29.242 350.463 29.5698L351.19 31.433ZM353.866 29.5408C354.541 28.686 354.88 27.6914 354.88 26.5952H352.88C352.88 27.2509 352.687 27.8069 352.296 28.3015L353.866 29.5408ZM354.88 26.5952C354.88 25.5643 354.567 24.6364 353.906 23.8781L352.399 25.1929C352.708 25.5473 352.88 25.9925 352.88 26.5952H354.88ZM353.914 23.8874C353.309 23.1766 352.463 22.624 351.447 22.1941L350.668 24.036C351.498 24.3873 352.049 24.7817 352.391 25.1836L353.914 23.8874ZM351.451 22.1959C350.473 21.7767 349.297 21.4058 347.936 21.0776L347.467 23.0219C348.757 23.3328 349.818 23.6722 350.663 24.0342L351.451 22.1959ZM347.945 21.0798L343.985 20.0855L343.498 22.0253L347.458 23.0196L347.945 21.0798ZM343.978 20.0837C341.022 19.3647 338.766 18.2587 337.146 16.8118L335.814 18.3033C337.745 20.0287 340.33 21.2546 343.505 22.0271L343.978 20.0837ZM337.146 16.8118C335.613 15.442 334.823 13.5938 334.834 11.1521L332.834 11.1433C332.821 14.0757 333.796 16.5007 335.814 18.3033L337.146 16.8118ZM334.834 11.1423C334.823 9.13282 335.354 7.41988 336.404 5.96113L334.78 4.79313C333.462 6.6251 332.821 8.75923 332.834 11.1531L334.834 11.1423ZM336.401 5.96496C337.481 4.47862 338.973 3.29911 340.915 2.43839L340.105 0.609907C337.881 1.59577 336.094 2.98492 334.783 4.78931L336.401 5.96496ZM340.915 2.43839C342.852 1.58014 345.078 1.1392 347.613 1.1392V-0.860797C344.844 -0.860797 342.335 -0.378437 340.105 0.609907L340.915 2.43839ZM347.613 1.1392C350.198 1.1392 352.406 1.58144 354.262 2.43304L355.096 0.615251C352.928 -0.379736 350.424 -0.860797 347.613 -0.860797V1.1392ZM354.264 2.43397C356.142 3.29067 357.567 4.46349 358.577 5.94139L360.228 4.81287C358.989 3.00005 357.264 1.60421 355.094 0.614327L354.264 2.43397ZM358.577 5.94139C359.581 7.41103 360.11 9.12261 360.143 11.1108L362.142 11.0781C362.104 8.73392 361.473 6.63395 360.228 4.81287L358.577 5.94139ZM361.142 10.0945H353.774V12.0945H361.142V10.0945ZM365.426 6.97514H364.426V7.97514H365.426V6.97514ZM365.426 0.636362V-0.363638H364.426V0.636362H365.426ZM395.291 0.636362H396.291V-0.363638H395.291V0.636362ZM395.291 6.97514V7.97514H396.291V6.97514H395.291ZM384.158 6.97514V5.97514H383.158V6.97514H384.158ZM384.158 37V38H385.158V37H384.158ZM376.559 37H375.559V38H376.559V37ZM376.559 6.97514H377.559V5.97514H376.559V6.97514ZM366.426 6.97514V0.636362H364.426V6.97514H366.426ZM365.426 1.63636H395.291V-0.363638H365.426V1.63636ZM394.291 0.636362V6.97514H396.291V0.636362H394.291ZM395.291 5.97514H384.158V7.97514H395.291V5.97514ZM383.158 6.97514V37H385.158V6.97514H383.158ZM384.158 36H376.559V38H384.158V36ZM377.559 37V6.97514H375.559V37H377.559ZM376.559 5.97514H365.426V7.97514H376.559V5.97514ZM416.292 36.1832L416.734 35.2865L416.292 36.1832ZM412.083 32.5256L411.236 33.0562L411.241 33.0637L412.083 32.5256ZM413.859 20.5227L414.531 21.2635L414.536 21.2592L413.859 20.5227ZM417.41 17.7351L416.861 16.8995L416.853 16.9046L416.845 16.9098L417.41 17.7351ZM424.459 13.1009L423.922 12.2572L423.916 12.2612L423.91 12.2653L424.459 13.1009ZM426.466 11.272L427.298 11.8267L427.302 11.8197L426.466 11.272ZM426.235 7.1527L426.963 6.4669V6.46689L426.235 7.1527ZM423.767 6.24716V7.24722L423.778 7.2471L423.767 6.24716ZM421.92 6.72656L422.429 7.58749L422.436 7.58325L422.443 7.57889L421.92 6.72656ZM420.695 7.9517L419.83 7.44907L419.827 7.45556L420.695 7.9517ZM420.908 11.929L421.786 11.4501L420.908 11.929ZM422.613 14.4148L421.836 15.0446L421.84 15.0497L422.613 14.4148ZM424.939 17.2202L424.171 17.8612L424.178 17.8693L424.185 17.8772L424.939 17.2202ZM442.179 37V38H444.378L442.933 36.3429L442.179 37ZM434.296 37L433.552 37.6681L433.85 38H434.296V37ZM419.914 20.9844L419.163 21.6447L419.17 21.6525L419.914 20.9844ZM417.073 17.6108L416.288 18.2307L416.295 18.2393L417.073 17.6108ZM414.729 13.8466L413.824 14.2712L413.825 14.2743L414.729 13.8466ZM415.013 4.73792L414.151 4.23089L414.148 4.23631L415.013 4.73792ZM418.493 1.39986L418.974 2.27697L418.979 2.27401L418.493 1.39986ZM428.738 1.34659L428.248 2.21801L428.256 2.22281L428.738 1.34659ZM432.005 4.47159L431.141 4.97451L431.146 4.98377L432.005 4.47159ZM431.881 13.4027L431.027 12.8818L431.026 12.8839L431.881 13.4027ZM428.33 17.1314L428.914 17.9429L428.915 17.9426L428.33 17.1314ZM420.908 22.4759L420.324 21.6643L420.319 21.6679L420.908 22.4759ZM418.671 24.7308L417.825 24.1973L417.823 24.2008L418.671 24.7308ZM418.6 29.2408L417.75 29.7681L418.6 29.2408ZM420.411 30.8743L419.953 31.7633L419.964 31.7687L420.411 30.8743ZM426.945 30.5902L427.368 31.4964L427.372 31.4946L426.945 30.5902ZM430.354 28.0866L429.627 27.3996L429.627 27.3998L430.354 28.0866ZM432.822 24.2159L433.746 24.5974L432.822 24.2159ZM433.745 19.2621V18.2621H432.745V19.2621H433.745ZM440.013 19.2621H441.013V18.2621H440.013V19.2621ZM439.285 25.2812L440.25 25.5449L440.25 25.5433L439.285 25.2812ZM437.261 29.9332L438.097 30.4827L438.099 30.4793L437.261 29.9332ZM434.296 33.1648L434.831 34.0096L434.866 33.9876L434.899 33.9627L434.296 33.1648ZM433.266 33.804L433.785 34.6588L433.266 33.804ZM432.236 34.4432L431.701 33.5984L431.653 33.629L431.608 33.665L432.236 34.4432ZM427.708 36.8047L427.429 35.8445L427.427 35.845L427.708 36.8047ZM422.79 36.5327C420.399 36.5327 418.391 36.1041 416.734 35.2865L415.849 37.08C417.838 38.0616 420.162 38.5327 422.79 38.5327V36.5327ZM416.734 35.2865C415.056 34.4582 413.8 33.3554 412.926 31.9874L411.241 33.0637C412.332 34.7734 413.882 36.109 415.849 37.08L416.734 35.2865ZM412.931 31.995C412.064 30.6102 411.627 29.0673 411.627 27.3409H409.627C409.627 29.4261 410.161 31.3396 411.236 33.0561L412.931 31.995ZM411.627 27.3409C411.627 26.0565 411.883 24.9571 412.368 24.0176L410.591 23.1003C409.94 24.3625 409.627 25.7844 409.627 27.3409H411.627ZM412.368 24.0176C412.876 23.034 413.592 22.1152 414.531 21.2634L413.187 19.782C412.09 20.7769 411.22 21.8822 410.591 23.1003L412.368 24.0176ZM414.536 21.2592C415.513 20.3615 416.658 19.4615 417.975 18.5604L416.845 16.9098C415.464 17.8553 414.241 18.8137 413.183 19.7863L414.536 21.2592ZM417.96 18.5707L425.009 13.9364L423.91 12.2653L416.861 16.8995L417.96 18.5707ZM424.996 13.9445C425.981 13.318 426.77 12.6187 427.298 11.8267L425.634 10.7173C425.309 11.2037 424.761 11.7236 423.922 12.2572L424.996 13.9445ZM427.302 11.8197C427.832 11.0105 428.105 10.1167 428.105 9.15909H426.105C426.105 9.71661 425.952 10.2314 425.629 10.7244L427.302 11.8197ZM428.105 9.15909C428.105 8.13896 427.685 7.234 426.963 6.4669L425.507 7.8385C425.944 8.30245 426.105 8.7351 426.105 9.15909H428.105ZM426.963 6.46689C426.144 5.59779 425.023 5.23314 423.756 5.24722L423.778 7.2471C424.641 7.2375 425.166 7.47655 425.507 7.8385L426.963 6.46689ZM423.767 5.24716C422.902 5.24716 422.099 5.4433 421.397 5.87424L422.443 7.57889C422.783 7.37062 423.211 7.24716 423.767 7.24716V5.24716ZM421.411 5.86563C420.747 6.25794 420.215 6.78799 419.83 7.44908L421.559 8.45432C421.767 8.09742 422.051 7.81072 422.429 7.58749L421.411 5.86563ZM419.827 7.45556C419.45 8.11511 419.269 8.84466 419.269 9.62074H421.269C421.269 9.16576 421.372 8.78262 421.563 8.44784L419.827 7.45556ZM419.269 9.62074C419.269 10.5727 419.538 11.5054 420.03 12.4078L421.786 11.4501C421.426 10.79 421.269 10.1839 421.269 9.62074H419.269ZM420.03 12.4078C420.492 13.2543 421.097 14.1333 421.836 15.0446L423.389 13.785C422.708 12.9443 422.177 12.1662 421.786 11.4501L420.03 12.4078ZM421.84 15.0497C422.552 15.9162 423.329 16.8534 424.171 17.8612L425.706 16.5791C424.867 15.5746 424.093 14.6416 423.385 13.7798L421.84 15.0497ZM424.185 17.8772L441.426 37.6571L442.933 36.3429L425.692 16.5631L424.185 17.8772ZM442.179 36H434.296V38H442.179V36ZM435.04 36.3319L420.658 20.3162L419.17 21.6525L433.552 37.6681L435.04 36.3319ZM420.665 20.3241C419.727 19.2578 418.789 18.1439 417.851 16.9823L416.295 18.2393C417.25 19.4214 418.206 20.5566 419.163 21.6446L420.665 20.3241ZM417.857 16.9909C416.968 15.8648 416.227 14.6743 415.633 13.4189L413.825 14.2743C414.486 15.6704 415.307 16.9893 416.288 18.2307L417.857 16.9909ZM415.634 13.422C415.073 12.2248 414.788 10.9208 414.788 9.49645H412.788C412.788 11.1971 413.13 12.7931 413.824 14.2712L415.634 13.422ZM414.788 9.49645C414.788 7.89376 415.157 6.48318 415.878 5.23953L414.148 4.23631C413.236 5.8099 412.788 7.57167 412.788 9.49645H414.788ZM415.875 5.24495C416.608 3.99832 417.634 3.01072 418.974 2.27695L418.013 0.52276C416.37 1.42252 415.075 2.6603 414.151 4.2309L415.875 5.24495ZM418.979 2.27401C420.299 1.54069 421.866 1.15696 423.713 1.15696V-0.84304C421.583 -0.84304 419.671 -0.398172 418.008 0.525699L418.979 2.27401ZM423.713 1.15696C425.517 1.15696 427.016 1.52464 428.248 2.21797L429.229 0.475211C427.643 -0.417639 425.792 -0.84304 423.713 -0.84304V1.15696ZM428.256 2.22281C429.53 2.92352 430.482 3.84117 431.141 4.97448L432.87 3.9687C432.014 2.49784 430.787 1.33216 429.22 0.470375L428.256 2.22281ZM431.146 4.98377C431.82 6.11399 432.159 7.35653 432.159 8.73295H434.159C434.159 7.00806 433.729 5.40969 432.864 3.95941L431.146 4.98377ZM432.159 8.73295C432.159 10.275 431.779 11.6498 431.027 12.8818L432.735 13.9236C433.687 12.3621 434.159 10.6237 434.159 8.73295H432.159ZM431.026 12.8839C430.266 14.1372 429.181 15.2852 427.745 16.3202L428.915 17.9426C430.533 16.7759 431.816 15.438 432.736 13.9215L431.026 12.8839ZM427.746 16.3199L420.324 21.6644L421.492 23.2873L428.914 17.9429L427.746 16.3199ZM420.319 21.6679C419.246 22.4506 418.398 23.2895 417.825 24.1973L419.517 25.2643C419.915 24.6333 420.558 23.9689 421.497 23.2838L420.319 21.6679ZM417.823 24.2008C417.277 25.0735 416.961 25.9832 416.961 26.9148H418.961C418.961 26.4495 419.117 25.9033 419.519 25.2608L417.823 24.2008ZM416.961 26.9148C416.961 27.9518 417.219 28.9122 417.75 29.7681L419.449 28.7134C419.128 28.1963 418.961 27.606 418.961 26.9148H416.961ZM417.75 29.7681C418.28 30.6218 419.025 31.2854 419.953 31.7633L420.869 29.9853C420.234 29.6582 419.772 29.2328 419.449 28.7134L417.75 29.7681ZM419.964 31.7687C420.91 32.2416 421.986 32.4602 423.163 32.4602V30.4602C422.233 30.4602 421.475 30.2882 420.858 29.9799L419.964 31.7687ZM423.163 32.4602C424.598 32.4602 426.002 32.1336 427.368 31.4964L426.522 29.684C425.402 30.2068 424.285 30.4602 423.163 30.4602V32.4602ZM427.372 31.4946C428.747 30.846 429.983 29.935 431.081 28.7735L429.627 27.3998C428.689 28.3926 427.653 29.1506 426.518 29.6858L427.372 31.4946ZM431.081 28.7737C432.201 27.5892 433.088 26.1933 433.746 24.5974L431.898 23.8344C431.325 25.2215 430.567 26.406 429.627 27.3996L431.081 28.7737ZM433.746 24.5974C434.418 22.971 434.745 21.188 434.745 19.2621H432.745C432.745 20.9583 432.458 22.4779 431.898 23.8344L433.746 24.5974ZM433.745 20.2621H440.013V18.2621H433.745V20.2621ZM439.013 19.2621C439.013 21.4161 438.778 23.3323 438.32 25.0192L440.25 25.5433C440.763 23.6553 441.013 21.5588 441.013 19.2621H439.013ZM438.321 25.0176C437.858 26.709 437.222 28.1613 436.423 29.3872L438.099 30.4793C439.028 29.0537 439.741 27.4047 440.25 25.5449L438.321 25.0176ZM436.426 29.3838C435.616 30.6142 434.704 31.6035 433.693 32.3668L434.899 33.9627C436.113 33.0452 437.178 31.8801 438.097 30.4827L436.426 29.3838ZM433.761 32.32C433.411 32.5418 433.073 32.7515 432.747 32.9492L433.785 34.6588C434.122 34.454 434.471 34.2376 434.831 34.0096L433.761 32.32ZM432.747 32.9492C432.41 33.1539 432.061 33.3704 431.701 33.5984L432.771 35.288C433.121 35.0662 433.459 34.8565 433.785 34.6588L432.747 32.9492ZM431.608 33.665C430.362 34.6706 428.971 35.396 427.429 35.8445L427.988 37.7649C429.784 37.2427 431.411 36.3938 432.864 35.2214L431.608 33.665ZM427.427 35.845C425.856 36.3053 424.311 36.5327 422.79 36.5327V38.5327C424.513 38.5327 426.247 38.2747 427.99 37.7644L427.427 35.845ZM0.355824 123H-0.644176V124H0.355824V123ZM0.355824 86.6364V85.6364H-0.644176V86.6364H0.355824ZM21.7514 88.2166L21.2744 89.0955L21.2786 89.0978L21.7514 88.2166ZM26.1903 92.5668L25.3133 93.0472L25.317 93.0538L26.1903 92.5668ZM21.6449 109.665L21.1829 108.779L21.1807 108.78L21.6449 109.665ZM5.36293 111.21H4.36293V112.21H5.36293V111.21ZM5.36293 105.049V104.049H4.36293V105.049H5.36293ZM16.9219 104.286L17.3908 105.169L17.3947 105.167L16.9219 104.286ZM19.0881 102.137L18.2029 101.672L18.2007 101.676L19.0881 102.137ZM19.0881 95.7983L18.2007 96.2593L18.2043 96.2662L18.208 96.2731L19.0881 95.7983ZM16.9219 93.6854L16.4574 94.571L16.466 94.5754L16.9219 93.6854ZM8.04403 92.9219V91.9219H7.04403V92.9219H8.04403ZM8.04403 123V124H9.04403V123H8.04403ZM1.35582 123V86.6364H-0.644176V123H1.35582ZM0.355824 87.6364H14.7024V85.6364H0.355824V87.6364ZM14.7024 87.6364C17.3346 87.6364 19.5116 88.1389 21.2744 89.0955L22.2284 87.3377C20.1086 86.1873 17.5863 85.6364 14.7024 85.6364V87.6364ZM21.2786 89.0978C23.0563 90.0517 24.3922 91.3656 25.3133 93.0472L27.0674 92.0863C25.9525 90.051 24.3291 88.4649 22.2242 87.3355L21.2786 89.0978ZM25.317 93.0538C26.2526 94.7315 26.7351 96.69 26.7351 98.9588H28.7351C28.7351 96.3981 28.1878 94.0952 27.0637 92.0797L25.317 93.0538ZM26.7351 98.9588C26.7351 101.226 26.2475 103.183 25.3016 104.86L27.0436 105.842C28.181 103.826 28.7351 101.521 28.7351 98.9588H26.7351ZM25.3016 104.86C24.3601 106.529 22.9972 107.833 21.1829 108.779L22.1069 110.552C24.2462 109.438 25.9017 107.866 27.0436 105.842L25.3016 104.86ZM21.1807 108.78C19.3913 109.718 17.18 110.21 14.5071 110.21V112.21C17.4214 112.21 19.9685 111.673 22.1091 110.551L21.1807 108.78ZM14.5071 110.21H5.36293V112.21H14.5071V110.21ZM6.36293 111.21V105.049H4.36293V111.21H6.36293ZM5.36293 106.049H13.2642V104.049H5.36293V106.049ZM13.2642 106.049C14.8508 106.049 16.2447 105.777 17.3908 105.169L16.453 103.402C15.6814 103.812 14.6369 104.049 13.2642 104.049V106.049ZM17.3947 105.167C18.5291 104.558 19.4024 103.701 19.9755 102.598L18.2007 101.676C17.8268 102.396 17.2559 102.971 16.4491 103.404L17.3947 105.167ZM19.9732 102.602C20.5444 101.516 20.8161 100.293 20.8161 98.9588H18.8161C18.8161 100.016 18.6024 100.912 18.2029 101.672L19.9732 102.602ZM20.8161 98.9588C20.8161 97.6157 20.5453 96.3933 19.9682 95.3235L18.208 96.2731C18.6015 97.0025 18.8161 97.8871 18.8161 98.9588H20.8161ZM19.9755 95.3373C19.4001 94.2298 18.5212 93.381 17.3778 92.7953L16.466 94.5754C17.2638 94.9841 17.829 95.5439 18.2007 96.2593L19.9755 95.3373ZM17.3863 92.7998C16.2301 92.1935 14.8263 91.9219 13.2287 91.9219V93.9219C14.614 93.9219 15.6723 94.1593 16.4575 94.571L17.3863 92.7998ZM13.2287 91.9219H8.04403V93.9219H13.2287V91.9219ZM7.04403 92.9219V123H9.04403V92.9219H7.04403ZM8.04403 122H0.355824V124H8.04403V122ZM32.7289 123H31.7289V124H32.7289V123ZM32.7289 86.6364V85.6364H31.7289V86.6364H32.7289ZM57.2317 86.6364H58.2317V85.6364H57.2317V86.6364ZM57.2317 92.9751V93.9751H58.2317V92.9751H57.2317ZM40.4171 92.9751V91.9751H39.4171V92.9751H40.4171ZM40.4171 101.64H39.4171V102.64H40.4171V101.64ZM55.9711 101.64H56.9711V100.64H55.9711V101.64ZM55.9711 107.979V108.979H56.9711V107.979H55.9711ZM40.4171 107.979V106.979H39.4171V107.979H40.4171ZM40.4171 116.661H39.4171V117.661H40.4171V116.661ZM57.3027 116.661H58.3027V115.661H57.3027V116.661ZM57.3027 123V124H58.3027V123H57.3027ZM33.7289 123V86.6364H31.7289V123H33.7289ZM32.7289 87.6364H57.2317V85.6364H32.7289V87.6364ZM56.2317 86.6364V92.9751H58.2317V86.6364H56.2317ZM57.2317 91.9751H40.4171V93.9751H57.2317V91.9751ZM39.4171 92.9751V101.64H41.4171V92.9751H39.4171ZM40.4171 102.64H55.9711V100.64H40.4171V102.64ZM54.9711 101.64V107.979H56.9711V101.64H54.9711ZM55.9711 106.979H40.4171V108.979H55.9711V106.979ZM39.4171 107.979V116.661H41.4171V107.979H39.4171ZM40.4171 117.661H57.3027V115.661H40.4171V117.661ZM56.3027 116.661V123H58.3027V116.661H56.3027ZM57.3027 122H32.7289V124H57.3027V122ZM63.3441 123H62.3441V124H63.3441V123ZM63.3441 86.6364V85.6364H62.3441V86.6364H63.3441ZM84.7219 88.1101L84.2704 89.0023L84.2769 89.0056L84.7219 88.1101ZM89.1786 92.2472L88.3096 92.7421L88.3136 92.7489L89.1786 92.2472ZM89.1609 104.747L90.0173 105.263L90.0189 105.261L89.1609 104.747ZM84.6332 108.724L84.21 107.818L84.2079 107.819L84.6332 108.724ZM67.8896 110.109H66.8896V111.109H67.8896V110.109ZM67.8896 103.93V102.93H66.8896V103.93H67.8896ZM79.9102 103.327L80.2932 104.25H80.2932L79.9102 103.327ZM82.0763 101.516L81.2199 100.999L81.2144 101.009L82.0763 101.516ZM82.0763 95.4609L81.2081 95.9571L81.2135 95.9663L82.0763 95.4609ZM79.8924 93.5788L79.4811 94.4903L79.4878 94.4933L79.4945 94.4963L79.8924 93.5788ZM71.0323 92.9219V91.9219H70.0323V92.9219H71.0323ZM71.0323 123V124H72.0323V123H71.0323ZM82.9819 106.452L83.8595 105.972L83.5752 105.452H82.9819V106.452ZM92.0195 123V124H93.7051L92.8972 122.521L92.0195 123ZM83.5323 123L82.6503 123.471L82.9328 124H83.5323V123ZM74.69 106.452V105.452H73.0218L73.808 106.923L74.69 106.452ZM64.3441 123V86.6364H62.3441V123H64.3441ZM63.3441 87.6364H77.6907V85.6364H63.3441V87.6364ZM77.6907 87.6364C80.3201 87.6364 82.5009 88.1068 84.2704 89.0023L85.1735 87.2178C83.0604 86.1484 80.5537 85.6364 77.6907 85.6364V87.6364ZM84.2769 89.0056C86.0634 89.8934 87.3961 91.138 88.3097 92.7421L90.0476 91.7523C88.9252 89.7815 87.2868 88.2681 85.167 87.2146L84.2769 89.0056ZM88.3136 92.7489C89.2409 94.3478 89.7234 96.2578 89.7234 98.5149H91.7234C91.7234 95.9661 91.176 93.6977 90.0437 91.7454L88.3136 92.7489ZM89.7234 98.5149C89.7234 100.784 89.2353 102.676 88.3029 104.234L90.0189 105.261C91.1698 103.338 91.7234 101.076 91.7234 98.5149H89.7234ZM88.3044 104.231C87.3736 105.775 86.0222 106.972 84.21 107.818L85.0564 109.63C87.1978 108.63 88.8648 107.176 90.0173 105.263L88.3044 104.231ZM84.2079 107.819C82.4084 108.665 80.1825 109.109 77.4954 109.109V111.109C80.3953 111.109 82.928 110.631 85.0584 109.629L84.2079 107.819ZM77.4954 109.109H67.8896V111.109H77.4954V109.109ZM68.8896 110.109V103.93H66.8896V110.109H68.8896ZM67.8896 104.93H76.2525V102.93H67.8896V104.93ZM76.2525 104.93C77.8032 104.93 79.1632 104.719 80.2932 104.25L79.5271 102.403C78.7159 102.739 77.6374 102.93 76.2525 102.93V104.93ZM80.2932 104.25C81.4381 103.776 82.341 103.038 82.9383 102.023L81.2144 101.009C80.8647 101.603 80.3235 102.073 79.5271 102.403L80.2932 104.25ZM82.9327 102.032C83.5344 101.034 83.8043 99.8436 83.8043 98.5149H81.8043C81.8043 99.5773 81.589 100.387 81.22 100.999L82.9327 102.032ZM83.8043 98.5149C83.8043 97.175 83.5347 95.9722 82.9392 94.9555L81.2135 95.9663C81.5886 96.6069 81.8043 97.44 81.8043 98.5149H83.8043ZM82.9446 94.9648C82.351 93.926 81.4456 93.1625 80.2903 92.6614L79.4945 94.4963C80.3042 94.8475 80.8548 95.3387 81.2081 95.9571L82.9446 94.9648ZM80.3037 92.6673C79.1637 92.153 77.7867 91.9219 76.217 91.9219V93.9219C77.6065 93.9219 78.6798 94.1288 79.4811 94.4903L80.3037 92.6673ZM76.217 91.9219H71.0323V93.9219H76.217V91.9219ZM70.0323 92.9219V123H72.0323V92.9219H70.0323ZM71.0323 122H63.3441V124H71.0323V122ZM82.1042 106.931L91.1419 123.479L92.8972 122.521L83.8595 105.972L82.1042 106.931ZM92.0195 122H83.5323V124H92.0195V122ZM84.4143 122.529L75.572 105.98L73.808 106.923L82.6503 123.471L84.4143 122.529ZM74.69 107.452H82.9819V105.452H74.69V107.452ZM115.883 97.0945L114.888 97.1931L114.977 98.0945H115.883V97.0945ZM106.49 93.0994L106.86 94.0288L106.871 94.0244L106.49 93.0994ZM104.502 94.5376L103.702 93.9376L103.694 93.9476L104.502 94.5376ZM103.827 96.6328L104.826 96.6692L104.827 96.651V96.6328H103.827ZM104.235 98.3374L103.382 98.858L103.386 98.8655L103.391 98.8729L104.235 98.3374ZM105.496 99.598L104.941 100.43L104.948 100.434L104.954 100.439L105.496 99.598ZM107.343 100.504L106.993 101.441L107 101.443L107.007 101.446L107.343 100.504ZM109.58 101.143L109.812 100.17L109.805 100.168L109.798 100.167L109.58 101.143ZM112.847 101.924L112.614 102.897L112.621 102.898L112.628 102.9L112.847 101.924ZM117.215 103.344L116.807 104.258L117.215 103.344ZM120.659 105.528L121.324 104.782L120.659 105.528ZM122.914 108.582L122.004 108.996L122.008 109.004L122.914 108.582ZM123.749 112.613L124.749 112.618L124.749 112.605L123.749 112.613ZM122.044 118.401L121.221 117.834L121.22 117.836L122.044 118.401ZM117.215 122.183L117.605 123.104L117.608 123.103L117.215 122.183ZM101.963 122.165L101.579 123.089L101.581 123.09L101.963 122.165ZM96.8846 118.17L96.0576 118.733L96.062 118.739L96.8846 118.17ZM94.9847 111.583V110.583H93.9619L93.985 111.606L94.9847 111.583ZM102.424 111.583L103.422 111.515L103.359 110.583H102.424V111.583ZM103.472 114.637L102.673 115.239L102.678 115.245L102.683 115.252L103.472 114.637ZM105.975 116.466L105.606 117.395L105.619 117.4L105.975 116.466ZM112.936 116.501L112.572 115.57L112.568 115.571L112.936 116.501ZM115.191 114.921L115.976 115.541L115.191 114.921ZM115.262 110.536L114.5 111.184L114.508 111.193L115.262 110.536ZM113.167 109.115L112.773 110.034L112.777 110.036L113.167 109.115ZM109.811 108.05L109.567 109.02L109.576 109.022L109.811 108.05ZM105.851 107.055L106.095 106.085L106.088 106.084L105.851 107.055ZM98.5891 103.558L97.9229 104.303L98.5891 103.558ZM95.9435 97.1477L96.9436 97.1521L96.9435 97.1423L95.9435 97.1477ZM97.7013 91.3771L96.8923 90.7893L96.8896 90.7931L97.7013 91.3771ZM116.789 87.5241L116.372 88.433L116.374 88.434L116.789 87.5241ZM121.512 91.3771L120.686 91.9414L121.512 91.3771ZM123.252 97.0945V98.0945H124.268L124.252 97.0781L123.252 97.0945ZM116.878 96.9958C116.711 95.3057 115.971 93.926 114.647 92.9511L113.461 94.5617C114.292 95.173 114.772 96.0186 114.888 97.1931L116.878 96.9958ZM114.647 92.9511C113.344 91.9914 111.649 91.5668 109.669 91.5668V93.5668C111.381 93.5668 112.611 93.9352 113.461 94.5617L114.647 92.9511ZM109.669 91.5668C108.326 91.5668 107.129 91.756 106.11 92.1745L106.871 94.0244C107.58 93.7327 108.502 93.5668 109.669 93.5668V91.5668ZM106.121 92.1701C105.122 92.5671 104.295 93.1467 103.702 93.9376L105.302 95.1376C105.632 94.6975 106.131 94.3183 106.86 94.0288L106.121 92.1701ZM103.694 93.9476C103.116 94.7389 102.827 95.6451 102.827 96.6328H104.827C104.827 96.0581 104.988 95.5674 105.309 95.1277L103.694 93.9476ZM102.828 96.5965C102.798 97.414 102.969 98.1818 103.382 98.858L105.089 97.8167C104.91 97.5223 104.809 97.1537 104.826 96.6692L102.828 96.5965ZM103.391 98.8729C103.782 99.489 104.306 100.006 104.941 100.43L106.051 98.766C105.621 98.4795 105.305 98.1563 105.08 97.8018L103.391 98.8729ZM104.954 100.439C105.557 100.827 106.239 101.159 106.993 101.441L107.692 99.5666C107.05 99.327 106.501 99.0556 106.038 98.7574L104.954 100.439ZM107.007 101.446C107.747 101.709 108.532 101.933 109.361 102.119L109.798 100.167C109.041 99.9974 108.335 99.7952 107.678 99.5614L107.007 101.446ZM109.347 102.115L112.614 102.897L113.08 100.951L109.812 100.17L109.347 102.115ZM112.628 102.9C114.157 103.242 115.549 103.696 116.807 104.258L117.622 102.431C116.229 101.809 114.709 101.316 113.065 100.948L112.628 102.9ZM116.807 104.258C118.05 104.812 119.109 105.487 119.995 106.275L121.324 104.782C120.269 103.842 119.031 103.06 117.622 102.431L116.807 104.258ZM119.995 106.275C120.862 107.048 121.53 107.952 122.004 108.996L123.825 108.169C123.234 106.869 122.398 105.737 121.324 104.782L119.995 106.275ZM122.008 109.004C122.482 110.026 122.738 111.224 122.749 112.621L124.749 112.605C124.736 110.971 124.436 109.483 123.821 108.161L122.008 109.004ZM122.749 112.608C122.738 114.658 122.218 116.386 121.221 117.834L122.868 118.968C124.12 117.15 124.736 115.019 124.749 112.618L122.749 112.608ZM121.22 117.836C120.231 119.276 118.784 120.426 116.822 121.264L117.608 123.103C119.86 122.141 121.632 120.77 122.869 118.967L121.22 117.836ZM116.825 121.262C114.884 122.085 112.497 122.515 109.633 122.515V124.515C112.688 124.515 115.355 124.057 117.605 123.104L116.825 121.262ZM109.633 122.515C106.797 122.515 104.376 122.08 102.344 121.241L101.581 123.09C103.906 124.05 106.598 124.515 109.633 124.515V122.515ZM102.346 121.242C100.34 120.409 98.807 119.193 97.7072 117.602L96.062 118.739C97.4007 120.676 99.2529 122.123 101.579 123.089L102.346 121.242ZM97.7115 117.608C96.6342 116.024 96.0403 114.026 95.9845 111.56L93.985 111.606C94.0476 114.372 94.7202 116.766 96.0577 118.733L97.7115 117.608ZM94.9847 112.583H102.424V110.583H94.9847V112.583ZM101.427 111.651C101.52 113.025 101.92 114.239 102.673 115.239L104.271 114.035C103.793 113.401 103.494 112.579 103.422 111.515L101.427 111.651ZM102.683 115.252C103.43 116.211 104.416 116.922 105.606 117.395L106.345 115.537C105.452 115.181 104.768 114.673 104.261 114.022L102.683 115.252ZM105.619 117.4C106.804 117.853 108.118 118.07 109.544 118.07V116.07C108.32 116.07 107.254 115.884 106.332 115.532L105.619 117.4ZM109.544 118.07C110.94 118.07 112.201 117.867 113.303 117.431L112.568 115.571C111.753 115.894 110.752 116.07 109.544 116.07V118.07ZM113.299 117.433C114.4 117.003 115.311 116.382 115.976 115.541L114.406 114.302C114.005 114.81 113.412 115.242 112.572 115.57L113.299 117.433ZM115.976 115.541C116.65 114.686 116.99 113.691 116.99 112.595H114.99C114.99 113.251 114.796 113.807 114.406 114.302L115.976 115.541ZM116.99 112.595C116.99 111.564 116.677 110.636 116.015 109.878L114.508 111.193C114.817 111.547 114.99 111.993 114.99 112.595H116.99ZM116.023 109.887C115.418 109.177 114.572 108.624 113.556 108.194L112.777 110.036C113.607 110.387 114.158 110.782 114.5 111.184L116.023 109.887ZM113.56 108.196C112.582 107.777 111.407 107.406 110.045 107.078L109.576 109.022C110.866 109.333 111.928 109.672 112.773 110.034L113.56 108.196ZM110.054 107.08L106.095 106.086L105.608 108.025L109.567 109.02L110.054 107.08ZM106.088 106.084C103.131 105.365 100.875 104.259 99.2553 102.812L97.9229 104.303C99.8544 106.029 102.439 107.255 105.615 108.027L106.088 106.084ZM99.2553 102.812C97.7221 101.442 96.9328 99.5938 96.9435 97.1521L94.9436 97.1433C94.9306 100.076 95.9051 102.501 97.9229 104.303L99.2553 102.812ZM96.9435 97.1423C96.9327 95.1328 97.4636 93.4199 98.5131 91.9611L96.8896 90.7931C95.5716 92.6251 94.9307 94.7592 94.9436 97.1531L96.9435 97.1423ZM98.5103 91.965C99.5903 90.4786 101.083 89.2991 103.025 88.4384L102.215 86.6099C99.99 87.5958 98.2035 88.9849 96.8924 90.7893L98.5103 91.965ZM103.025 88.4384C104.961 87.5801 107.187 87.1392 109.722 87.1392V85.1392C106.953 85.1392 104.445 85.6216 102.215 86.6099L103.025 88.4384ZM109.722 87.1392C112.308 87.1392 114.516 87.5814 116.372 88.433L117.206 86.6152C115.037 85.6203 112.534 85.1392 109.722 85.1392V87.1392ZM116.374 88.434C118.252 89.2907 119.676 90.4635 120.686 91.9414L122.337 90.8129C121.098 89.0001 119.374 87.6042 117.204 86.6143L116.374 88.434ZM120.686 91.9414C121.691 93.411 122.219 95.1226 122.252 97.1108L124.252 97.0781C124.213 94.7339 123.582 92.6339 122.337 90.8129L120.686 91.9414ZM123.252 96.0945H115.883V98.0945H123.252V96.0945ZM160.081 114.939L159.202 114.463L159.2 114.466L160.081 114.939ZM153.974 121.313L154.467 122.183L154.468 122.182L153.974 121.313ZM136.608 121.295L137.105 120.427L136.608 121.295ZM130.518 114.921L129.637 115.394L130.518 114.921ZM130.518 94.6974L131.4 95.17L130.518 94.6974ZM136.608 88.3409L137.102 89.2109L137.105 89.2092L136.608 88.3409ZM153.974 88.3409L153.477 89.2092L153.482 89.2118L153.974 88.3409ZM160.081 94.6974L159.2 95.17L159.202 95.1729L160.081 94.6974ZM153.388 98.3196L152.469 98.7143L152.471 98.7195L153.388 98.3196ZM150.174 94.3068L149.624 95.1422L150.174 94.3068ZM140.444 94.3068L140.993 95.1422L140.444 94.3068ZM137.212 98.3196L136.296 97.9197L136.293 97.9249L137.212 98.3196ZM137.212 111.317L136.293 111.711L136.296 111.717L137.212 111.317ZM140.444 115.33L140.993 114.494L140.444 115.33ZM150.174 115.33L149.624 114.494L150.174 115.33ZM153.388 111.317L152.471 110.917L152.469 110.922L153.388 111.317ZM161.336 104.818C161.336 108.659 160.609 111.86 159.202 114.463L160.961 115.414C162.561 112.454 163.336 108.908 163.336 104.818H161.336ZM159.2 114.466C157.792 117.093 155.885 119.075 153.479 120.444L154.468 122.182C157.223 120.616 159.388 118.348 160.963 115.411L159.2 114.466ZM153.48 120.443C151.075 121.807 148.359 122.497 145.309 122.497V124.497C148.674 124.497 151.735 123.732 154.467 122.183L153.48 120.443ZM145.309 122.497C142.235 122.497 139.508 121.801 137.105 120.427L136.112 122.164C138.846 123.726 141.92 124.497 145.309 124.497V122.497ZM137.105 120.427C134.71 119.059 132.809 117.076 131.4 114.449L129.637 115.394C131.211 118.329 133.37 120.596 136.112 122.164L137.105 120.427ZM131.4 114.449C130.003 111.844 129.281 108.648 129.281 104.818H127.281C127.281 108.896 128.05 112.434 129.637 115.394L131.4 114.449ZM129.281 104.818C129.281 100.976 130.004 97.7738 131.4 95.17L129.637 94.2249C128.05 97.1845 127.281 100.729 127.281 104.818H129.281ZM131.4 95.17C132.808 92.5427 134.709 90.5672 137.102 89.2109L136.115 87.4709C133.371 89.0266 131.211 91.2887 129.637 94.2249L131.4 95.17ZM137.105 89.2092C139.508 87.8355 142.235 87.1392 145.309 87.1392V85.1392C141.92 85.1392 138.846 85.9107 136.112 87.4727L137.105 89.2092ZM145.309 87.1392C148.358 87.1392 151.072 87.8349 153.477 89.2092L154.47 87.4727C151.737 85.9113 148.676 85.1392 145.309 85.1392V87.1392ZM153.482 89.2118C155.887 90.5685 157.792 92.5439 159.2 95.17L160.963 94.2249C159.388 91.2875 157.221 89.0253 154.465 87.47L153.482 89.2118ZM159.202 95.1729C160.609 97.776 161.336 100.977 161.336 104.818H163.336C163.336 100.728 162.561 97.1823 160.961 94.222L159.202 95.1729ZM155.542 104.818C155.542 102.156 155.144 99.8443 154.304 97.9198L152.471 98.7195C153.17 100.322 153.542 102.343 153.542 104.818H155.542ZM154.306 97.9249C153.484 96.0104 152.297 94.5067 150.724 93.4715L149.624 95.1422C150.821 95.9298 151.776 97.1013 152.469 98.7143L154.306 97.9249ZM150.724 93.4715C149.156 92.4399 147.338 91.9396 145.309 91.9396V93.9396C146.996 93.9396 148.422 94.3508 149.624 95.1422L150.724 93.4715ZM145.309 91.9396C143.279 91.9396 141.461 92.4399 139.894 93.4715L140.993 95.1422C142.196 94.3508 143.621 93.9396 145.309 93.9396V91.9396ZM139.894 93.4715C138.322 94.5057 137.13 96.0076 136.296 97.9198L138.129 98.7195C138.833 97.1042 139.795 95.9308 140.993 95.1422L139.894 93.4715ZM136.293 97.9249C135.467 99.8479 135.076 102.157 135.076 104.818H137.076C137.076 102.342 137.442 100.319 138.131 98.7143L136.293 97.9249ZM135.076 104.818C135.076 107.479 135.467 109.789 136.293 111.711L138.131 110.922C137.442 109.318 137.076 107.295 137.076 104.818H135.076ZM136.296 111.717C137.13 113.629 138.322 115.131 139.894 116.165L140.993 114.494C139.795 113.706 138.833 112.532 138.129 110.917L136.296 111.717ZM139.894 116.165C141.461 117.196 143.279 117.697 145.309 117.697V115.697C143.621 115.697 142.196 115.286 140.993 114.494L139.894 116.165ZM145.309 117.697C147.338 117.697 149.156 117.196 150.724 116.165L149.624 114.494C148.422 115.286 146.996 115.697 145.309 115.697V117.697ZM150.724 116.165C152.297 115.13 153.484 113.626 154.306 111.711L152.469 110.922C151.776 112.535 150.821 113.707 149.624 114.494L150.724 116.165ZM154.304 111.717C155.144 109.792 155.542 107.481 155.542 104.818H153.542C153.542 107.293 153.17 109.314 152.471 110.917L154.304 111.717ZM198.447 86.6364H199.447V85.6364H198.447V86.6364ZM198.447 123V124H199.447V123H198.447ZM191.806 123L190.984 123.569L191.282 124H191.806V123ZM175.986 100.113L176.809 99.5443L176.511 99.1129H175.986V100.113ZM175.72 100.113V99.1129H174.72V100.113H175.72ZM175.72 123V124H176.72V123H175.72ZM168.032 123H167.032V124H168.032V123ZM168.032 86.6364V85.6364H167.032V86.6364H168.032ZM174.779 86.6364L175.603 86.0705L175.305 85.6364H174.779V86.6364ZM190.475 109.506L189.65 110.072L189.948 110.506H190.475V109.506ZM190.794 109.506V110.506H191.794V109.506H190.794ZM190.794 86.6364V85.6364H189.794V86.6364H190.794ZM197.447 86.6364V123H199.447V86.6364H197.447ZM198.447 122H191.806V124H198.447V122ZM192.629 122.431L176.809 99.5443L175.164 100.682L190.984 123.569L192.629 122.431ZM175.986 99.1129H175.72V101.113H175.986V99.1129ZM174.72 100.113V123H176.72V100.113H174.72ZM175.72 122H168.032V124H175.72V122ZM169.032 123V86.6364H167.032V123H169.032ZM168.032 87.6364H174.779V85.6364H168.032V87.6364ZM173.954 87.2022L189.65 110.072L191.299 108.94L175.603 86.0705L173.954 87.2022ZM190.475 110.506H190.794V108.506H190.475V110.506ZM191.794 109.506V86.6364H189.794V109.506H191.794ZM190.794 87.6364H198.447V85.6364H190.794V87.6364ZM211.067 123V124H211.793L212.018 123.309L211.067 123ZM202.828 123L201.883 122.674L201.425 124H202.828V123ZM215.382 86.6364V85.6364H214.669L214.436 86.31L215.382 86.6364ZM225.289 86.6364L226.235 86.3105L226.002 85.6364H225.289V86.6364ZM237.825 123V124H239.227L238.77 122.674L237.825 123ZM229.586 123L228.635 123.309L228.859 124H229.586V123ZM220.477 94.946L221.429 94.6372L221.204 93.946H220.477V94.946ZM220.193 94.946V93.946H219.467L219.242 94.6367L220.193 94.946ZM210.552 108.707V107.707H209.552V108.707H210.552ZM230.012 108.707H231.012V107.707H230.012V108.707ZM230.012 114.708V115.708H231.012V114.708H230.012ZM210.552 114.708H209.552V115.708H210.552V114.708ZM211.067 122H202.828V124H211.067V122ZM203.774 123.326L216.327 86.9627L214.436 86.31L201.883 122.674L203.774 123.326ZM215.382 87.6364H225.289V85.6364H215.382V87.6364ZM224.344 86.9623L236.879 123.326L238.77 122.674L226.235 86.3105L224.344 86.9623ZM237.825 122H229.586V124H237.825V122ZM230.537 122.691L221.429 94.6372L219.526 95.2548L228.635 123.309L230.537 122.691ZM220.477 93.946H220.193V95.946H220.477V93.946ZM219.242 94.6367L210.116 122.691L212.018 123.309L221.144 95.2554L219.242 94.6367ZM210.552 109.707H230.012V107.707H210.552V109.707ZM229.012 108.707V114.708H231.012V108.707H229.012ZM230.012 113.708H210.552V115.708H230.012V113.708ZM211.552 114.708V108.707H209.552V114.708H211.552ZM242.202 123H241.202V124H242.202V123ZM242.202 86.6364V85.6364H241.202V86.6364H242.202ZM249.89 86.6364H250.89V85.6364H249.89V86.6364ZM249.89 116.661H248.89V117.661H249.89V116.661ZM265.479 116.661H266.479V115.661H265.479V116.661ZM265.479 123V124H266.479V123H265.479ZM243.202 123V86.6364H241.202V123H243.202ZM242.202 87.6364H249.89V85.6364H242.202V87.6364ZM248.89 86.6364V116.661H250.89V86.6364H248.89ZM249.89 117.661H265.479V115.661H249.89V117.661ZM264.479 116.661V123H266.479V116.661H264.479ZM265.479 122H242.202V124H265.479V122ZM280.758 92.9751H279.758V93.9751H280.758V92.9751ZM280.758 86.6364V85.6364H279.758V86.6364H280.758ZM310.623 86.6364H311.623V85.6364H310.623V86.6364ZM310.623 92.9751V93.9751H311.623V92.9751H310.623ZM299.49 92.9751V91.9751H298.49V92.9751H299.49ZM299.49 123V124H300.49V123H299.49ZM291.891 123H290.891V124H291.891V123ZM291.891 92.9751H292.891V91.9751H291.891V92.9751ZM281.758 92.9751V86.6364H279.758V92.9751H281.758ZM280.758 87.6364H310.623V85.6364H280.758V87.6364ZM309.623 86.6364V92.9751H311.623V86.6364H309.623ZM310.623 91.9751H299.49V93.9751H310.623V91.9751ZM298.49 92.9751V123H300.49V92.9751H298.49ZM299.49 122H291.891V124H299.49V122ZM292.891 123V92.9751H290.891V123H292.891ZM291.891 91.9751H280.758V93.9751H291.891V91.9751ZM315.541 123H314.541V124H315.541V123ZM315.541 86.6364V85.6364H314.541V86.6364H315.541ZM336.919 88.1101L336.468 89.0023L336.474 89.0056L336.919 88.1101ZM341.376 92.2472L340.507 92.7421L340.511 92.7489L341.376 92.2472ZM341.358 104.747L342.215 105.263L342.216 105.261L341.358 104.747ZM336.83 108.724L336.407 107.818L336.405 107.819L336.83 108.724ZM320.087 110.109H319.087V111.109H320.087V110.109ZM320.087 103.93V102.93H319.087V103.93H320.087ZM332.107 103.327L332.49 104.25L332.107 103.327ZM334.274 101.516L333.417 100.999L333.412 101.009L334.274 101.516ZM334.274 95.4609L333.405 95.9571L333.411 95.9663L334.274 95.4609ZM332.09 93.5788L331.678 94.4903L331.685 94.4933L331.692 94.4963L332.09 93.5788ZM323.23 92.9219V91.9219H322.23V92.9219H323.23ZM323.23 123V124H324.23V123H323.23ZM335.179 106.452L336.057 105.972L335.772 105.452H335.179V106.452ZM344.217 123V124H345.902L345.094 122.521L344.217 123ZM335.73 123L334.848 123.471L335.13 124H335.73V123ZM326.887 106.452V105.452H325.219L326.005 106.923L326.887 106.452ZM316.541 123V86.6364H314.541V123H316.541ZM315.541 87.6364H329.888V85.6364H315.541V87.6364ZM329.888 87.6364C332.517 87.6364 334.698 88.1068 336.468 89.0023L337.371 87.2178C335.258 86.1484 332.751 85.6364 329.888 85.6364V87.6364ZM336.474 89.0056C338.261 89.8934 339.593 91.138 340.507 92.7421L342.245 91.7523C341.122 89.7815 339.484 88.2681 337.364 87.2146L336.474 89.0056ZM340.511 92.7489C341.438 94.3478 341.921 96.2578 341.921 98.5149H343.921C343.921 95.9661 343.373 93.6977 342.241 91.7454L340.511 92.7489ZM341.921 98.5149C341.921 100.784 341.433 102.676 340.5 104.234L342.216 105.261C343.367 103.338 343.921 101.076 343.921 98.5149H341.921ZM340.502 104.231C339.571 105.775 338.219 106.972 336.407 107.818L337.254 109.63C339.395 108.63 341.062 107.176 342.215 105.263L340.502 104.231ZM336.405 107.819C334.606 108.665 332.38 109.109 329.693 109.109V111.109C332.593 111.109 335.125 110.631 337.256 109.629L336.405 107.819ZM329.693 109.109H320.087V111.109H329.693V109.109ZM321.087 110.109V103.93H319.087V110.109H321.087ZM320.087 104.93H328.45V102.93H320.087V104.93ZM328.45 104.93C330 104.93 331.36 104.719 332.49 104.25L331.724 102.403C330.913 102.739 329.835 102.93 328.45 102.93V104.93ZM332.49 104.25C333.635 103.776 334.538 103.038 335.136 102.023L333.412 101.009C333.062 101.603 332.521 102.073 331.724 102.403L332.49 104.25ZM335.13 102.032C335.732 101.034 336.002 99.8436 336.002 98.5149H334.002C334.002 99.5773 333.786 100.387 333.417 100.999L335.13 102.032ZM336.002 98.5149C336.002 97.175 335.732 95.9722 335.137 94.9555L333.411 95.9663C333.786 96.6069 334.002 97.44 334.002 98.5149H336.002ZM335.142 94.9648C334.548 93.926 333.643 93.1625 332.488 92.6614L331.692 94.4963C332.501 94.8475 333.052 95.3387 333.405 95.9571L335.142 94.9648ZM332.501 92.6673C331.361 92.153 329.984 91.9219 328.414 91.9219V93.9219C329.804 93.9219 330.877 94.1288 331.678 94.4903L332.501 92.6673ZM328.414 91.9219H323.23V93.9219H328.414V91.9219ZM322.23 92.9219V123H324.23V92.9219H322.23ZM323.23 122H315.541V124H323.23V122ZM334.302 106.931L343.339 123.479L345.094 122.521L336.057 105.972L334.302 106.931ZM344.217 122H335.73V124H344.217V122ZM336.612 122.529L327.769 105.98L326.005 106.923L334.848 123.471L336.612 122.529ZM326.887 107.452H335.179V105.452H326.887V107.452ZM354.622 123V124H355.348L355.573 123.309L354.622 123ZM346.383 123L345.438 122.674L344.98 124H346.383V123ZM358.936 86.6364V85.6364H358.224L357.991 86.31L358.936 86.6364ZM368.844 86.6364L369.789 86.3105L369.557 85.6364H368.844V86.6364ZM381.379 123V124H382.782L382.325 122.674L381.379 123ZM373.141 123L372.19 123.309L372.414 124H373.141V123ZM364.032 94.946L364.983 94.6372L364.759 93.946H364.032V94.946ZM363.748 94.946V93.946H363.022L362.797 94.6367L363.748 94.946ZM354.107 108.707V107.707H353.107V108.707H354.107ZM373.567 108.707H374.567V107.707H373.567V108.707ZM373.567 114.708V115.708H374.567V114.708H373.567ZM354.107 114.708H353.107V115.708H354.107V114.708ZM354.622 122H346.383V124H354.622V122ZM347.328 123.326L359.882 86.9627L357.991 86.31L345.438 122.674L347.328 123.326ZM358.936 87.6364H368.844V85.6364H358.936V87.6364ZM367.899 86.9623L380.434 123.326L382.325 122.674L369.789 86.3105L367.899 86.9623ZM381.379 122H373.141V124H381.379V122ZM374.092 122.691L364.983 94.6372L363.081 95.2548L372.19 123.309L374.092 122.691ZM364.032 93.946H363.748V95.946H364.032V93.946ZM362.797 94.6367L353.671 122.691L355.573 123.309L364.699 95.2554L362.797 94.6367ZM354.107 109.707H373.567V107.707H354.107V109.707ZM372.567 108.707V114.708H374.567V108.707H372.567ZM373.567 113.708H354.107V115.708H373.567V113.708ZM355.107 114.708V108.707H353.107V114.708H355.107ZM393.444 86.6364H394.444V85.6364H393.444V86.6364ZM393.444 123V124H394.444V123H393.444ZM385.756 123H384.756V124H385.756V123ZM385.756 86.6364V85.6364H384.756V86.6364H385.756ZM392.444 86.6364V123H394.444V86.6364H392.444ZM393.444 122H385.756V124H393.444V122ZM386.756 123V86.6364H384.756V123H386.756ZM385.756 87.6364H393.444V85.6364H385.756V87.6364ZM430.185 86.6364H431.185V85.6364H430.185V86.6364ZM430.185 123V124H431.185V123H430.185ZM423.545 123L422.722 123.569L423.02 124H423.545V123ZM407.724 100.113L408.547 99.5443L408.249 99.1129H407.724V100.113ZM407.458 100.113V99.1129H406.458V100.113H407.458ZM407.458 123V124H408.458V123H407.458ZM399.77 123H398.77V124H399.77V123ZM399.77 86.6364V85.6364H398.77V86.6364H399.77ZM406.517 86.6364L407.342 86.0705L407.044 85.6364H406.517V86.6364ZM422.213 109.506L421.389 110.072L421.687 110.506H422.213V109.506ZM422.533 109.506V110.506H423.533V109.506H422.533ZM422.533 86.6364V85.6364H421.533V86.6364H422.533ZM429.185 86.6364V123H431.185V86.6364H429.185ZM430.185 122H423.545V124H430.185V122ZM424.367 122.431L408.547 99.5443L406.902 100.682L422.722 123.569L424.367 122.431ZM407.724 99.1129H407.458V101.113H407.724V99.1129ZM406.458 100.113V123H408.458V100.113H406.458ZM407.458 122H399.77V124H407.458V122ZM400.77 123V86.6364H398.77V123H400.77ZM399.77 87.6364H406.517V85.6364H399.77V87.6364ZM405.693 87.2022L421.389 110.072L423.038 108.94L407.342 86.0705L405.693 87.2022ZM422.213 110.506H422.533V108.506H422.213V110.506ZM423.533 109.506V86.6364H421.533V109.506H423.533ZM422.533 87.6364H430.185V85.6364H422.533V87.6364ZM436.537 123H435.537V124H436.537V123ZM436.537 86.6364V85.6364H435.537V86.6364H436.537ZM461.04 86.6364H462.04V85.6364H461.04V86.6364ZM461.04 92.9751V93.9751H462.04V92.9751H461.04ZM444.226 92.9751V91.9751H443.226V92.9751H444.226ZM444.226 101.64H443.226V102.64H444.226V101.64ZM459.78 101.64H460.78V100.64H459.78V101.64ZM459.78 107.979V108.979H460.78V107.979H459.78ZM444.226 107.979V106.979H443.226V107.979H444.226ZM444.226 116.661H443.226V117.661H444.226V116.661ZM461.111 116.661H462.111V115.661H461.111V116.661ZM461.111 123V124H462.111V123H461.111ZM437.537 123V86.6364H435.537V123H437.537ZM436.537 87.6364H461.04V85.6364H436.537V87.6364ZM460.04 86.6364V92.9751H462.04V86.6364H460.04ZM461.04 91.9751H444.226V93.9751H461.04V91.9751ZM443.226 92.9751V101.64H445.226V92.9751H443.226ZM444.226 102.64H459.78V100.64H444.226V102.64ZM458.78 101.64V107.979H460.78V101.64H458.78ZM459.78 106.979H444.226V108.979H459.78V106.979ZM443.226 107.979V116.661H445.226V107.979H443.226ZM444.226 117.661H461.111V115.661H444.226V117.661ZM460.111 116.661V123H462.111V116.661H460.111ZM461.111 122H436.537V124H461.111V122ZM467.153 123H466.153V124H467.153V123ZM467.153 86.6364V85.6364H466.153V86.6364H467.153ZM488.531 88.1101L488.079 89.0023L488.086 89.0056L488.531 88.1101ZM492.987 92.2472L492.118 92.7421L492.122 92.7489L492.987 92.2472ZM492.969 104.747L493.826 105.263L493.827 105.261L492.969 104.747ZM488.442 108.724L488.019 107.818L488.016 107.819L488.442 108.724ZM471.698 110.109H470.698V111.109H471.698V110.109ZM471.698 103.93V102.93H470.698V103.93H471.698ZM483.719 103.327L484.102 104.25L483.719 103.327ZM485.885 101.516L485.029 100.999L485.023 101.009L485.885 101.516ZM485.885 95.4609L485.017 95.9571L485.022 95.9663L485.885 95.4609ZM483.701 93.5788L483.29 94.4903L483.296 94.4933L483.303 94.4963L483.701 93.5788ZM474.841 92.9219V91.9219H473.841V92.9219H474.841ZM474.841 123V124H475.841V123H474.841ZM486.79 106.452L487.668 105.972L487.384 105.452H486.79V106.452ZM495.828 123V124H497.514L496.706 122.521L495.828 123ZM487.341 123L486.459 123.471L486.741 124H487.341V123ZM478.499 106.452V105.452H476.83L477.617 106.923L478.499 106.452ZM468.153 123V86.6364H466.153V123H468.153ZM467.153 87.6364H481.499V85.6364H467.153V87.6364ZM481.499 87.6364C484.129 87.6364 486.31 88.1068 488.079 89.0023L488.982 87.2178C486.869 86.1484 484.362 85.6364 481.499 85.6364V87.6364ZM488.086 89.0056C489.872 89.8934 491.205 91.138 492.118 92.7421L493.856 91.7523C492.734 89.7815 491.095 88.2681 488.976 87.2146L488.086 89.0056ZM492.122 92.7489C493.05 94.3478 493.532 96.2578 493.532 98.5149H495.532C495.532 95.9661 494.985 93.6977 493.852 91.7454L492.122 92.7489ZM493.532 98.5149C493.532 100.784 493.044 102.676 492.111 104.234L493.827 105.261C494.978 103.338 495.532 101.076 495.532 98.5149H493.532ZM492.113 104.231C491.182 105.775 489.831 106.972 488.019 107.818L488.865 109.63C491.006 108.63 492.673 107.176 493.826 105.263L492.113 104.231ZM488.016 107.819C486.217 108.665 483.991 109.109 481.304 109.109V111.109C484.204 111.109 486.737 110.631 488.867 109.629L488.016 107.819ZM481.304 109.109H471.698V111.109H481.304V109.109ZM472.698 110.109V103.93H470.698V110.109H472.698ZM471.698 104.93H480.061V102.93H471.698V104.93ZM480.061 104.93C481.612 104.93 482.972 104.719 484.102 104.25L483.336 102.403C482.524 102.739 481.446 102.93 480.061 102.93V104.93ZM484.102 104.25C485.247 103.776 486.15 103.038 486.747 102.023L485.023 101.009C484.673 101.603 484.132 102.073 483.336 102.403L484.102 104.25ZM486.741 102.032C487.343 101.034 487.613 99.8436 487.613 98.5149H485.613C485.613 99.5773 485.398 100.387 485.029 100.999L486.741 102.032ZM487.613 98.5149C487.613 97.175 487.343 95.9722 486.748 94.9555L485.022 95.9663C485.397 96.6069 485.613 97.44 485.613 98.5149H487.613ZM486.753 94.9648C486.16 93.926 485.254 93.1625 484.099 92.6614L483.303 94.4963C484.113 94.8475 484.663 95.3387 485.017 95.9571L486.753 94.9648ZM484.112 92.6673C482.972 92.153 481.595 91.9219 480.026 91.9219V93.9219C481.415 93.9219 482.488 94.1288 483.29 94.4903L484.112 92.6673ZM480.026 91.9219H474.841V93.9219H480.026V91.9219ZM473.841 92.9219V123H475.841V92.9219H473.841ZM474.841 122H467.153V124H474.841V122ZM485.913 106.931L494.95 123.479L496.706 122.521L487.668 105.972L485.913 106.931ZM495.828 122H487.341V124H495.828V122ZM488.223 122.529L479.381 105.98L477.617 106.923L486.459 123.471L488.223 122.529ZM478.499 107.452H486.79V105.452H478.499V107.452Z" fill="white" mask="url(#path-1-outside-1_6_95)"/>
</svg>
