<svg width="1440" height="570" viewBox="0 0 1440 570" fill="none" xmlns="http://www.w3.org/2000/svg">
<mask id="mask0_6_5" style="mask-type:luminance" maskUnits="userSpaceOnUse" x="0" y="0" width="1440" height="570">
<path d="M1440 570H0V0H1440V570Z" fill="white"/>
</mask>
<g mask="url(#mask0_6_5)">
<g style="mix-blend-mode:multiply">
<path d="M1440 570H0V0H1440V570Z" fill="url(#paint0_radial_6_5)"/>
</g>
<g opacity="0.9">
<mask id="mask1_6_5" style="mask-type:luminance" maskUnits="userSpaceOnUse" x="1412" y="404" width="19" height="14">
<path d="M1412.64 407.224L1413.03 406.95C1417.12 404.073 1423.75 404.073 1427.84 406.95C1431.93 409.828 1431.93 414.495 1427.84 417.377L1427.45 417.65L1412.64 407.224Z" fill="white"/>
</mask>
<g mask="url(#mask1_6_5)">
<path d="M1457.47 396.54C1455 394.798 1453.76 393.927 1453.76 393.927L1424.11 414.788C1424.11 414.788 1425.35 415.645 1427.83 417.36L1457.47 396.54ZM1427.88 417.4C1425.41 415.658 1424.17 414.788 1424.17 414.788L1423.78 415.065C1423.78 415.065 1425.01 415.935 1427.49 417.677L1427.88 417.4ZM1453.81 393.927L1450.1 391.354L1420.46 412.175L1424.17 414.788L1453.81 393.927ZM1424.17 414.788L1420.46 412.175L1420.06 412.452L1423.78 415.065L1424.17 414.788ZM1450.1 391.315L1446.39 388.702L1416.75 409.563L1420.46 412.175L1450.1 391.315ZM1420.51 412.175L1416.8 409.563L1416.41 409.84L1420.12 412.452L1420.51 412.175ZM1446.45 388.702C1446.45 388.702 1445.21 387.831 1442.73 386.09L1413.09 406.95C1415.56 408.692 1416.8 409.563 1416.8 409.563L1446.45 388.702ZM1416.8 409.563C1416.8 409.563 1415.56 408.692 1413.09 406.95L1412.7 407.227C1415.17 408.942 1416.41 409.8 1416.41 409.8L1416.8 409.563Z" fill="url(#paint1_linear_6_5)"/>
</g>
<path d="M1427.82 417.36C1425.35 415.645 1424.11 414.787 1424.11 414.787C1423.89 414.946 1423.77 415.025 1423.77 415.025C1423.77 415.025 1424.99 415.896 1427.43 417.637C1427.43 417.637 1427.56 417.545 1427.82 417.36ZM1427.43 417.637C1424.99 415.896 1423.77 415.025 1423.77 415.025L1386.76 441.071C1386.76 441.071 1388 441.942 1390.47 443.683L1427.43 417.637ZM1390.42 443.644C1387.98 441.902 1386.76 441.031 1386.76 441.031L1040.37 684.785C1040.37 684.785 1041.61 685.656 1044.09 687.398L1390.42 443.644ZM1044.09 687.358C1041.61 685.617 1040.37 684.746 1040.37 684.746C1040.37 684.746 1040.24 684.838 1039.98 685.023C1039.98 685.023 1041.22 685.894 1043.69 687.635C1043.96 687.451 1044.09 687.358 1044.09 687.358ZM1424.11 414.708L1420.4 412.096C1420.14 412.28 1420.01 412.373 1420.01 412.373L1423.72 414.985C1423.72 414.985 1423.85 414.893 1424.11 414.708ZM1423.72 414.985L1420.01 412.373L1382.99 438.419L1386.71 441.031L1423.72 414.985ZM1386.76 440.992L1383.05 438.379L1036.72 682.133L1040.43 684.706L1386.76 440.992ZM1040.37 684.746L1036.66 682.133C1036.66 682.133 1036.55 682.226 1036.32 682.41L1039.98 685.023C1040.24 684.838 1040.37 684.746 1040.37 684.746ZM1420.4 412.096L1416.69 409.483C1416.42 409.668 1416.29 409.76 1416.29 409.76L1420.01 412.373C1420.01 412.373 1420.14 412.28 1420.4 412.096ZM1420.01 412.373L1416.29 409.76L1379.34 435.806L1383.05 438.419L1420.01 412.373ZM1382.99 438.379L1379.28 435.767L1032.95 679.481L1036.66 682.094L1382.99 438.379ZM1036.66 682.133L1032.95 679.521C1032.95 679.521 1032.82 679.613 1032.56 679.798L1036.27 682.371C1036.53 682.212 1036.66 682.133 1036.66 682.133ZM1416.69 409.483C1416.69 409.483 1415.45 408.612 1412.97 406.871C1412.71 407.055 1412.58 407.148 1412.58 407.148C1415.06 408.889 1416.29 409.76 1416.29 409.76C1416.29 409.76 1416.42 409.668 1416.69 409.483ZM1416.29 409.76C1416.29 409.76 1415.06 408.889 1412.58 407.148L1375.57 433.194C1378.04 434.909 1379.28 435.767 1379.28 435.767L1416.29 409.76ZM1379.34 435.806C1379.34 435.806 1378.1 434.935 1375.62 433.194L1029.29 676.908C1031.73 678.65 1032.95 679.521 1032.95 679.521L1379.34 435.806ZM1033.01 679.521C1033.01 679.521 1031.77 678.663 1029.29 676.948C1029.29 676.948 1029.16 677.04 1028.9 677.225C1031.37 678.94 1032.61 679.798 1032.61 679.798C1032.87 679.613 1033.01 679.521 1033.01 679.521Z" fill="url(#paint2_linear_6_5)"/>
</g>
<g opacity="0.9">
<mask id="mask2_6_5" style="mask-type:luminance" maskUnits="userSpaceOnUse" x="712" y="437" width="19" height="14">
<path d="M712.205 439.735L712.593 439.458C716.682 436.58 723.32 436.58 727.409 439.458C731.499 442.339 731.499 447.006 727.409 449.884L727.021 450.157L712.205 439.735Z" fill="white"/>
</mask>
<g mask="url(#mask2_6_5)">
<path d="M757.013 429.044C754.575 427.302 753.356 426.431 753.356 426.431L723.713 447.292C723.713 447.292 724.95 448.149 727.425 449.864L757.013 429.044ZM727.369 449.904C724.894 448.162 723.656 447.292 723.656 447.292L723.263 447.569C723.263 447.569 724.5 448.439 726.975 450.181L727.369 449.904ZM753.3 426.471L749.588 423.858L719.944 444.679L723.656 447.292L753.3 426.471ZM723.656 447.331L720 444.719L719.606 444.996L723.319 447.608L723.656 447.331ZM749.531 423.858L745.875 421.285L716.231 442.106L719.944 444.719L749.531 423.858ZM719.888 444.719L716.175 442.106L715.781 442.383L719.494 444.996L719.888 444.719ZM745.819 421.246C745.819 421.246 744.581 420.375 742.106 418.633L712.463 439.494C714.938 441.235 716.175 442.106 716.175 442.106L745.819 421.246ZM716.175 442.106C716.175 442.106 714.956 441.235 712.519 439.494L712.125 439.771C714.6 441.512 715.838 442.383 715.838 442.383L716.175 442.106Z" fill="url(#paint3_linear_6_5)"/>
</g>
<path d="M727.425 449.865C724.95 448.149 723.712 447.292 723.712 447.292C723.45 447.476 723.319 447.569 723.319 447.569C723.319 447.569 724.556 448.426 727.031 450.142C727.031 450.142 727.162 450.049 727.425 449.865ZM727.031 450.142C724.556 448.426 723.319 447.569 723.319 447.569L686.306 473.575C686.306 473.575 687.544 474.446 690.019 476.187L727.031 450.142ZM690.075 476.148C687.6 474.433 686.362 473.575 686.362 473.575L340.031 717.289C340.031 717.289 341.269 718.16 343.744 719.902L690.075 476.148ZM343.688 719.862C341.213 718.121 339.975 717.25 339.975 717.25C339.975 717.25 339.863 717.342 339.638 717.527C339.638 717.527 340.856 718.398 343.294 720.14C343.556 719.955 343.688 719.862 343.688 719.862ZM723.712 447.212L720 444.64C719.737 444.798 719.606 444.877 719.606 444.877L723.319 447.49C723.319 447.49 723.45 447.397 723.712 447.212ZM723.319 447.49L719.606 444.877L682.65 470.923L686.362 473.535L723.319 447.49ZM686.306 473.496L682.594 470.883L336.263 714.637L339.975 717.25L686.306 473.496ZM339.975 717.21L336.263 714.598C336.263 714.598 336.131 714.69 335.869 714.875L339.581 717.487C339.844 717.303 339.975 717.21 339.975 717.21ZM720 444.56L716.287 441.948C716.025 442.133 715.894 442.225 715.894 442.225L719.606 444.837C719.606 444.837 719.737 444.745 720 444.56ZM719.606 444.837L715.894 442.225L678.881 468.271L682.594 470.883L719.606 444.837ZM682.65 470.844L678.937 468.231L332.606 711.985L336.263 714.558L682.65 470.844ZM336.319 714.598L332.606 711.985C332.606 711.985 332.475 712.078 332.213 712.262L335.925 714.875C336.188 714.69 336.319 714.598 336.319 714.598ZM716.344 441.948C716.344 441.948 715.106 441.077 712.631 439.335C712.369 439.52 712.237 439.612 712.237 439.612C714.712 441.354 715.95 442.225 715.95 442.225C715.95 442.225 716.081 442.133 716.344 441.948ZM715.95 442.225C715.95 442.225 714.712 441.354 712.237 439.612L675.281 465.658C677.756 467.4 678.994 468.271 678.994 468.271L715.95 442.225ZM678.937 468.231C678.937 468.231 677.7 467.36 675.225 465.619L328.894 709.333C331.369 711.075 332.606 711.946 332.606 711.946L678.937 468.231ZM332.606 711.985C332.606 711.985 331.369 711.114 328.894 709.373C328.894 709.373 328.763 709.465 328.5 709.65C330.975 711.392 332.213 712.262 332.213 712.262C332.475 712.078 332.606 711.985 332.606 711.985Z" fill="url(#paint4_linear_6_5)"/>
</g>
<g opacity="0.9">
<path d="M1345.44 -70.7749C1342.52 -72.8332 1341.06 -73.8624 1341.06 -73.8624C1340.79 -73.6776 1340.66 -73.5853 1340.66 -73.5853C1340.66 -73.5853 1342.13 -72.5561 1345.05 -70.4978C1345.05 -70.4978 1345.18 -70.5901 1345.44 -70.7749ZM1345.05 -70.4978C1342.13 -72.5561 1340.66 -73.5853 1340.66 -73.5853L1314.23 -54.9415C1314.23 -54.9415 1315.67 -53.9123 1318.56 -51.854L1345.05 -70.4978ZM1318.61 -51.8936C1315.69 -53.9519 1314.23 -54.9811 1314.23 -54.9811L1065.49 120.096C1065.49 120.096 1066.95 121.112 1069.88 123.144L1318.61 -51.8936ZM1069.82 123.184C1066.93 121.125 1065.49 120.096 1065.49 120.096C1065.49 120.096 1065.36 120.188 1065.09 120.373C1065.09 120.373 1066.54 121.402 1069.43 123.461C1069.69 123.276 1069.82 123.184 1069.82 123.184ZM1341.06 -73.8624L1336.73 -76.9498C1336.46 -76.7651 1336.33 -76.6728 1336.33 -76.6728L1340.66 -73.5853C1340.66 -73.5853 1340.79 -73.6776 1341.06 -73.8624ZM1340.66 -73.5853L1336.33 -76.6728L1309.84 -58.029L1314.23 -54.9415L1340.66 -73.5853ZM1314.17 -54.9811L1309.84 -58.0686L1061.04 117.009L1065.43 120.056L1314.17 -54.9811ZM1065.43 120.096L1061.04 117.009C1061.04 117.009 1060.91 117.101 1060.65 117.286L1065.04 120.373C1065.3 120.188 1065.43 120.096 1065.43 120.096ZM1336.67 -76.9498L1332.28 -80.0374C1332.02 -79.8526 1331.89 -79.7603 1331.89 -79.7603L1336.28 -76.6728C1336.28 -76.6728 1336.41 -76.7651 1336.67 -76.9498ZM1336.28 -76.6728L1331.89 -79.7603L1305.45 -61.1165L1309.78 -58.029L1336.28 -76.6728ZM1309.84 -58.0686L1305.45 -61.1561L1056.71 113.921L1061.1 116.969L1309.84 -58.0686ZM1061.04 117.009L1056.66 113.921C1056.66 113.921 1056.53 114.013 1056.26 114.198L1060.65 117.286C1060.91 117.101 1061.04 117.009 1061.04 117.009ZM1332.28 -80.0374C1332.28 -80.0374 1330.82 -81.0533 1327.89 -83.0853C1327.63 -82.9269 1327.5 -82.8478 1327.5 -82.8478C1330.43 -80.7894 1331.89 -79.7603 1331.89 -79.7603C1331.89 -79.7603 1332.02 -79.8526 1332.28 -80.0374ZM1331.89 -79.7603C1331.89 -79.7603 1330.43 -80.7894 1327.5 -82.8478L1301.06 -64.204C1303.99 -62.1457 1305.45 -61.1165 1305.45 -61.1165L1331.89 -79.7603ZM1305.39 -61.1561C1305.39 -61.1561 1303.93 -62.1853 1301.01 -64.2436L1052.27 110.834C1055.19 112.892 1056.66 113.921 1056.66 113.921L1305.39 -61.1561ZM1056.66 113.881C1056.66 113.881 1055.19 112.852 1052.27 110.794C1052.27 110.794 1052.14 110.886 1051.88 111.071C1054.8 113.129 1056.26 114.159 1056.26 114.159C1056.53 113.974 1056.66 113.881 1056.66 113.881Z" fill="url(#paint5_linear_6_5)"/>
<mask id="mask3_6_5" style="mask-type:luminance" maskUnits="userSpaceOnUse" x="1048" y="110" width="22" height="17">
<path d="M1069.83 123.183L1069.44 123.456C1064.61 126.857 1056.77 126.857 1051.94 123.456C1047.11 120.056 1047.11 114.542 1051.94 111.142L1052.33 110.865L1069.83 123.183Z" fill="white"/>
</mask>
<g mask="url(#mask3_6_5)">
<path d="M1069.82 123.187C1066.89 121.129 1065.43 120.1 1065.43 120.1L1065.04 120.377C1065.04 120.377 1066.5 121.406 1069.42 123.464L1069.82 123.187ZM1069.42 123.464C1066.54 121.406 1065.09 120.377 1065.09 120.377L1030.05 144.997C1030.05 144.997 1031.51 146.027 1034.44 148.085L1069.42 123.464ZM1065.43 120.1L1061.04 117.052L1060.65 117.329L1065.04 120.377L1065.43 120.1ZM1065.04 120.377L1060.71 117.289L1025.66 141.95L1030.05 144.997L1065.04 120.377ZM1061.04 117.052L1056.66 113.964L1056.32 114.241L1060.65 117.329L1061.04 117.052ZM1060.65 117.329L1056.32 114.241L1021.27 138.862L1025.66 141.95L1060.65 117.329ZM1056.66 113.964C1056.66 113.964 1055.19 112.935 1052.27 110.877L1051.93 111.154C1054.82 113.212 1056.26 114.241 1056.26 114.241L1056.66 113.964ZM1056.26 114.241C1056.26 114.241 1054.82 113.212 1051.93 111.154L1016.89 135.775C1019.81 137.833 1021.27 138.862 1021.27 138.862L1056.26 114.241Z" fill="url(#paint6_linear_6_5)"/>
</g>
</g>
<g opacity="0.9">
<mask id="mask4_6_5" style="mask-type:luminance" maskUnits="userSpaceOnUse" x="167" y="182" width="24" height="17">
<path d="M167.913 185.859L168.301 185.586C173.358 182.032 181.548 182.032 186.599 185.586C191.651 189.141 191.651 194.904 186.599 198.463L186.211 198.736L167.913 185.859Z" fill="white"/>
</mask>
<g mask="url(#mask4_6_5)">
<path d="M223.219 172.702C220.144 170.565 218.607 169.496 218.607 169.496L182.044 195.225C182.044 195.225 183.563 196.307 186.601 198.471L223.219 172.702ZM186.601 198.431C183.563 196.294 182.044 195.225 182.044 195.225L181.651 195.502C181.651 195.502 183.188 196.571 186.263 198.708L186.601 198.431ZM218.607 169.456L213.994 166.25L177.432 192.019L181.988 195.225L218.607 169.456ZM182.044 195.185L177.432 191.979L177.038 192.256L181.651 195.462L182.044 195.185ZM214.051 166.25L209.494 163.004L172.876 188.773L177.432 191.979L214.051 166.25ZM177.488 192.019L172.932 188.773L172.538 189.05L177.094 192.296L177.488 192.019ZM209.494 163.044C209.494 163.044 207.976 161.962 204.938 159.798L168.319 185.567C171.394 187.704 172.932 188.773 172.932 188.773L209.494 163.044ZM172.876 188.812C172.876 188.812 171.357 187.731 168.319 185.567L167.926 185.844C170.963 188.008 172.482 189.09 172.482 189.09L172.876 188.812Z" fill="url(#paint7_linear_6_5)"/>
</g>
<path d="M186.6 198.471C183.563 196.307 182.044 195.225 182.044 195.225C181.781 195.41 181.65 195.502 181.65 195.502C181.65 195.502 183.169 196.584 186.206 198.748C186.206 198.748 186.338 198.656 186.6 198.471ZM186.206 198.748C183.169 196.584 181.65 195.502 181.65 195.502L156.281 213.354C156.281 213.354 157.8 214.436 160.838 216.6L186.206 198.748ZM160.838 216.6C157.8 214.463 156.281 213.394 156.281 213.394L-82.3875 381.306C-82.3875 381.306 -80.8687 382.388 -77.8312 384.552L160.838 216.6ZM-77.8312 384.512C-80.8687 382.375 -82.3875 381.306 -82.3875 381.306C-82.3875 381.306 -82.5187 381.399 -82.7812 381.583C-82.7812 381.583 -81.2625 382.652 -78.225 384.79C-77.9625 384.605 -77.8312 384.512 -77.8312 384.512ZM182.044 195.225L177.431 192.019C177.206 192.203 177.094 192.296 177.094 192.296L181.65 195.502C181.65 195.502 181.781 195.41 182.044 195.225ZM181.65 195.502L177.094 192.296L151.669 210.148L156.281 213.354L181.65 195.502ZM156.281 213.394L151.669 210.148L-86.9437 378.1L-82.3875 381.306L156.281 213.394ZM-82.3875 381.346L-86.9437 378.14C-86.9437 378.14 -87.075 378.232 -87.3375 378.417L-82.7812 381.623C-82.5187 381.438 -82.3875 381.346 -82.3875 381.346ZM177.488 192.058L172.875 188.852C172.613 189.037 172.481 189.129 172.481 189.129L177.094 192.335C177.094 192.335 177.225 192.243 177.488 192.058ZM177.094 192.335L172.481 189.129L147.113 206.981L151.725 210.188L177.094 192.335ZM151.669 210.188L147.113 206.981L-91.5562 374.933L-86.9437 378.14L151.669 210.188ZM-87 378.14L-91.5562 374.894C-91.5562 374.894 -91.6875 374.986 -91.95 375.171L-87.3937 378.417C-87.1312 378.232 -87 378.14 -87 378.14ZM172.819 188.852C172.819 188.852 171.3 187.77 168.263 185.606C168 185.791 167.869 185.883 167.869 185.883C170.906 188.021 172.425 189.09 172.425 189.09C172.425 189.09 172.556 189.01 172.819 188.852ZM172.425 189.09C172.425 189.09 170.906 188.021 167.869 185.883L142.5 203.735C145.538 205.899 147.056 206.981 147.056 206.981L172.425 189.09ZM147.056 206.942C147.056 206.942 145.538 205.86 142.5 203.696L-96.1688 371.648C-93.1313 373.785 -91.6125 374.854 -91.6125 374.854L147.056 206.942ZM-91.5562 374.894C-91.5562 374.894 -93.0938 373.825 -96.1688 371.687C-96.1688 371.687 -96.3 371.78 -96.5625 371.965C-93.4875 374.102 -91.95 375.171 -91.95 375.171C-91.6875 374.986 -91.5562 374.894 -91.5562 374.894Z" fill="url(#paint8_linear_6_5)"/>
</g>
<path d="M238.275 74.2187C236.081 74.2187 234.281 72.952 234.281 71.4083C234.281 69.8645 236.081 68.5978 238.275 68.5978C240.525 68.5978 242.269 69.8645 242.269 71.4083C242.269 72.952 240.525 74.2187 238.275 74.2187Z" fill="white"/>
<path d="M214.312 74.2187C212.119 74.2187 210.319 72.952 210.319 71.4083C210.319 69.8645 212.119 68.5978 214.312 68.5978C216.506 68.5978 218.306 69.8645 218.306 71.4083C218.306 72.952 216.506 74.2187 214.312 74.2187Z" fill="white"/>
<path d="M190.349 74.2187C188.156 74.2187 186.356 72.952 186.356 71.4083C186.356 69.8645 188.156 68.5978 190.349 68.5978C192.543 68.5978 194.343 69.8645 194.343 71.4083C194.343 72.952 192.543 74.2187 190.349 74.2187Z" fill="white"/>
<path d="M166.388 74.2187C164.194 74.2187 162.394 72.952 162.394 71.4083C162.394 69.8645 164.194 68.5978 166.388 68.5978C168.582 68.5978 170.382 69.8645 170.382 71.4083C170.382 72.952 168.582 74.2187 166.388 74.2187Z" fill="white"/>
<path d="M142.426 74.2187C140.232 74.2187 138.432 72.952 138.432 71.4083C138.432 69.8645 140.232 68.5978 142.426 68.5978C144.619 68.5978 146.419 69.8645 146.419 71.4083C146.419 72.952 144.619 74.2187 142.426 74.2187Z" fill="white"/>
<path d="M118.463 74.2187C116.269 74.2187 114.469 72.952 114.469 71.4083C114.469 69.8645 116.269 68.5978 118.463 68.5978C120.656 68.5978 122.456 69.8645 122.456 71.4083C122.456 72.952 120.656 74.2187 118.463 74.2187Z" fill="white"/>
<path d="M221.119 94.8395C218.925 94.8395 217.125 93.5729 217.125 92.0291C217.125 90.4458 218.925 89.2187 221.119 89.2187C223.313 89.2187 225.113 90.4458 225.113 92.0291C225.113 93.5729 223.313 94.8395 221.119 94.8395Z" fill="white"/>
<path d="M197.156 94.8395C194.962 94.8395 193.162 93.5729 193.162 92.0291C193.162 90.4458 194.962 89.2187 197.156 89.2187C199.35 89.2187 201.15 90.4458 201.15 92.0291C201.15 93.5729 199.35 94.8395 197.156 94.8395Z" fill="white"/>
<path d="M173.193 94.8395C171 94.8395 169.2 93.5729 169.2 92.0291C169.2 90.4458 171 89.2187 173.193 89.2187C175.387 89.2187 177.187 90.4458 177.187 92.0291C177.187 93.5729 175.387 94.8395 173.193 94.8395Z" fill="white"/>
<path d="M149.232 94.8395C147.038 94.8395 145.238 93.5729 145.238 92.0291C145.238 90.4458 147.038 89.2187 149.232 89.2187C151.425 89.2187 153.225 90.4458 153.225 92.0291C153.225 93.5729 151.425 94.8395 149.232 94.8395Z" fill="white"/>
<path d="M125.269 94.8395C123.075 94.8395 121.275 93.5729 121.275 92.0291C121.275 90.4458 123.075 89.2187 125.269 89.2187C127.463 89.2187 129.263 90.4458 129.263 92.0291C129.263 93.5729 127.463 94.8395 125.269 94.8395Z" fill="white"/>
<path d="M101.306 94.8395C99.0563 94.8395 97.3125 93.5729 97.3125 92.0291C97.3125 90.4458 99.0563 89.2187 101.306 89.2187C103.5 89.2187 105.3 90.4458 105.3 92.0291C105.3 93.5729 103.5 94.8395 101.306 94.8395Z" fill="white"/>
<path d="M1196.02 511.621C1193.77 511.621 1192.02 510.394 1192.02 508.81C1192.02 507.267 1193.77 506 1196.02 506C1198.21 506 1200.01 507.267 1200.01 508.81C1200.01 510.394 1198.21 511.621 1196.02 511.621Z" fill="white"/>
<path d="M1172.06 511.621C1169.81 511.621 1168.06 510.394 1168.06 508.81C1168.06 507.267 1169.81 506 1172.06 506C1174.25 506 1176.05 507.267 1176.05 508.81C1176.05 510.394 1174.25 511.621 1172.06 511.621Z" fill="white"/>
<path d="M1148.04 511.621C1145.84 511.621 1144.04 510.394 1144.04 508.81C1144.04 507.267 1145.84 506 1148.04 506C1150.29 506 1152.03 507.267 1152.03 508.81C1152.03 510.394 1150.29 511.621 1148.04 511.621Z" fill="white"/>
<path d="M1124.08 511.621C1121.88 511.621 1120.08 510.394 1120.08 508.81C1120.08 507.267 1121.88 506 1124.08 506C1126.33 506 1128.07 507.267 1128.07 508.81C1128.07 510.394 1126.33 511.621 1124.08 511.621Z" fill="white"/>
<path d="M1100.11 511.621C1097.92 511.621 1096.12 510.394 1096.12 508.81C1096.12 507.267 1097.92 506 1100.11 506C1102.36 506 1104.1 507.267 1104.1 508.81C1104.1 510.394 1102.36 511.621 1100.11 511.621Z" fill="white"/>
<path d="M1076.15 511.621C1073.96 511.621 1072.16 510.394 1072.16 508.81C1072.16 507.267 1073.96 506 1076.15 506C1078.4 506 1080.14 507.267 1080.14 508.81C1080.14 510.394 1078.4 511.621 1076.15 511.621Z" fill="white"/>
<path d="M1178.81 531.242C1176.61 531.242 1174.81 529.975 1174.81 528.431C1174.81 526.888 1176.61 525.621 1178.81 525.621C1181 525.621 1182.8 526.888 1182.8 528.431C1182.8 529.975 1181 531.242 1178.81 531.242Z" fill="white"/>
<path d="M1154.84 531.242C1152.65 531.242 1150.85 529.975 1150.85 528.431C1150.85 526.888 1152.65 525.621 1154.84 525.621C1157.04 525.621 1158.84 526.888 1158.84 528.431C1158.84 529.975 1157.04 531.242 1154.84 531.242Z" fill="white"/>
<path d="M1130.88 531.242C1128.69 531.242 1126.89 529.975 1126.89 528.431C1126.89 526.888 1128.69 525.621 1130.88 525.621C1133.07 525.621 1134.87 526.888 1134.87 528.431C1134.87 529.975 1133.07 531.242 1130.88 531.242Z" fill="white"/>
<path d="M1106.92 531.242C1104.73 531.242 1102.93 529.975 1102.93 528.431C1102.93 526.888 1104.73 525.621 1106.92 525.621C1109.11 525.621 1110.91 526.888 1110.91 528.431C1110.91 529.975 1109.11 531.242 1106.92 531.242Z" fill="white"/>
<path d="M1082.96 531.242C1080.76 531.242 1078.96 529.975 1078.96 528.431C1078.96 526.888 1080.76 525.621 1082.96 525.621C1085.15 525.621 1086.95 526.888 1086.95 528.431C1086.95 529.975 1085.15 531.242 1082.96 531.242Z" fill="white"/>
<path d="M1058.99 531.242C1056.8 531.242 1055 529.975 1055 528.431C1055 526.888 1056.8 525.621 1058.99 525.621C1061.19 525.621 1062.99 526.888 1062.99 528.431C1062.99 529.975 1061.19 531.242 1058.99 531.242Z" fill="white"/>
</g>
<defs>
<radialGradient id="paint0_radial_6_5" cx="0" cy="0" r="1" gradientUnits="userSpaceOnUse" gradientTransform="translate(720 285) scale(719.999 506.666)">
<stop stop-color="#111111" stop-opacity="0.6"/>
<stop offset="1" stop-color="#111111"/>
</radialGradient>
<linearGradient id="paint1_linear_6_5" x1="nan" y1="nan" x2="nan" y2="nan" gradientUnits="userSpaceOnUse">
<stop stop-color="#FF3340"/>
<stop offset="1" stop-color="#FF3340"/>
</linearGradient>
<linearGradient id="paint2_linear_6_5" x1="nan" y1="nan" x2="nan" y2="nan" gradientUnits="userSpaceOnUse">
<stop stop-color="#FF3340"/>
<stop offset="1" stop-color="#FF3340"/>
</linearGradient>
<linearGradient id="paint3_linear_6_5" x1="nan" y1="nan" x2="nan" y2="nan" gradientUnits="userSpaceOnUse">
<stop stop-color="#FF3340"/>
<stop offset="1" stop-color="#FF3340"/>
</linearGradient>
<linearGradient id="paint4_linear_6_5" x1="nan" y1="nan" x2="nan" y2="nan" gradientUnits="userSpaceOnUse">
<stop stop-color="#FF3340"/>
<stop offset="1" stop-color="#FF3340"/>
</linearGradient>
<linearGradient id="paint5_linear_6_5" x1="nan" y1="nan" x2="nan" y2="nan" gradientUnits="userSpaceOnUse">
<stop stop-color="#FF3340"/>
<stop offset="1" stop-color="#FF3340"/>
</linearGradient>
<linearGradient id="paint6_linear_6_5" x1="nan" y1="nan" x2="nan" y2="nan" gradientUnits="userSpaceOnUse">
<stop stop-color="#FF3340"/>
<stop offset="1" stop-color="#FF3340"/>
</linearGradient>
<linearGradient id="paint7_linear_6_5" x1="nan" y1="nan" x2="nan" y2="nan" gradientUnits="userSpaceOnUse">
<stop stop-color="#FF3340"/>
<stop offset="1" stop-color="#FF3340"/>
</linearGradient>
<linearGradient id="paint8_linear_6_5" x1="-96.5625" y1="285.198" x2="186.6" y2="285.198" gradientUnits="userSpaceOnUse">
<stop stop-color="#FF3340"/>
<stop offset="1" stop-color="#FF3340"/>
</linearGradient>
</defs>
</svg>
