<svg width="34" height="38" viewBox="0 0 34 38" fill="none" xmlns="http://www.w3.org/2000/svg">
<g clip-path="url(#clip0_26_56)">
<path d="M17.0077 10.5771C12.2755 10.5771 8.45858 14.3345 8.45858 18.9927C8.45858 23.6509 12.2755 27.4082 17.0077 27.4082C21.7398 27.4082 25.5568 23.6509 25.5568 18.9927C25.5568 14.3345 21.7398 10.5771 17.0077 10.5771ZM17.0077 24.4639C13.9496 24.4639 11.4496 22.0102 11.4496 18.9927C11.4496 15.9751 13.9422 13.5215 17.0077 13.5215C20.0732 13.5215 22.5657 15.9751 22.5657 18.9927C22.5657 22.0102 20.0657 24.4639 17.0077 24.4639ZM27.9005 10.2329C27.9005 11.3242 27.0077 12.1958 25.9065 12.1958C24.7979 12.1958 23.9124 11.3169 23.9124 10.2329C23.9124 9.14892 24.8053 8.27002 25.9065 8.27002C27.0077 8.27002 27.9005 9.14892 27.9005 10.2329ZM33.5627 12.2251C33.4362 9.5957 32.8261 7.2666 30.8693 5.34766C28.9199 3.42871 26.5538 2.82812 23.8827 2.69629C21.1297 2.54248 12.8782 2.54248 10.1252 2.69629C7.46155 2.8208 5.09548 3.42139 3.13864 5.34033C1.1818 7.25928 0.579119 9.58838 0.44519 12.2178C0.28894 14.9277 0.28894 23.0503 0.44519 25.7602C0.571678 28.3896 1.1818 30.7187 3.13864 32.6377C5.09548 34.5566 7.45411 35.1572 10.1252 35.289C12.8782 35.4429 21.1297 35.4429 23.8827 35.289C26.5538 35.1645 28.9199 34.564 30.8693 32.6377C32.8187 30.7187 33.4288 28.3896 33.5627 25.7602C33.719 23.0503 33.719 14.9351 33.5627 12.2251ZM30.0062 28.668C29.4258 30.1035 28.3023 31.2095 26.8365 31.7881C24.6416 32.645 19.4333 32.4473 17.0077 32.4473C14.5821 32.4473 9.36631 32.6377 7.17882 31.7881C5.72048 31.2168 4.59697 30.1108 4.00918 28.668C3.13864 26.5073 3.33953 21.3804 3.33953 18.9927C3.33953 16.605 3.14608 11.4707 4.00918 9.31738C4.58953 7.88183 5.71304 6.77588 7.17882 6.19726C9.37376 5.34033 14.5821 5.53808 17.0077 5.53808C19.4333 5.53808 24.649 5.34765 26.8365 6.19726C28.2949 6.76855 29.4184 7.87451 30.0062 9.31738C30.8767 11.478 30.6758 16.605 30.6758 18.9927C30.6758 21.3804 30.8767 26.5146 30.0062 28.668Z" fill="white"/>
</g>
<defs>
<clipPath id="clip0_26_56">
<rect width="33.3333" height="37.5" fill="white" transform="translate(0.333557 0.25)"/>
</clipPath>
</defs>
</svg>
