<svg width="118" height="22" viewBox="0 0 118 22" fill="none" xmlns="http://www.w3.org/2000/svg">
<path d="M26.9482 16V5.09091H34.1712V6.99254H29.2546V9.59197H33.6918V11.4936H29.2546V16H26.9482ZM36.2406 16H33.769L37.535 5.09091H40.5073L44.2679 16H41.7963L39.0637 7.58381H38.9785L36.2406 16ZM36.0861 11.712H41.9242V13.5124H36.0861V11.712ZM47.8874 5.09091V16H45.581V5.09091H47.8874ZM49.6679 16V14.631L55.1118 6.99254H49.6572V5.09091H58.0095V6.45987L52.5603 14.0984H58.0202V16H49.6679ZM61.6703 16H59.1987L62.9647 5.09091H65.937L69.6976 16H67.226L64.4934 7.58381H64.4082L61.6703 16ZM61.5158 11.712H67.3539V13.5124H61.5158V11.712ZM72.891 16H70.4194L74.1854 5.09091H77.1577L80.9183 16H78.4467L75.7141 7.58381H75.6289L72.891 16ZM72.7365 11.712H78.5746V13.5124H72.7365V11.712ZM91.356 5.09091V16H89.3638L84.6177 9.13388H84.5378V16H82.2314V5.09091H84.2555L88.9643 11.9517H89.0602V5.09091H91.356Z" fill="white"/>
<rect x="16" width="7" height="22" rx="3.5" fill="white"/>
<rect width="7" height="22" rx="3.5" transform="matrix(-1 0 0 1 102 0)" fill="white"/>
<rect x="8" y="3" width="7" height="16" rx="3.5" fill="white"/>
<rect width="7" height="16" rx="3.5" transform="matrix(-1 0 0 1 110 3)" fill="white"/>
<rect y="5" width="7" height="12" rx="3.5" fill="white"/>
<rect x="111" y="5" width="7" height="12" rx="3.5" fill="white"/>
</svg>
