<svg width="300" height="300" viewBox="0 0 300 300" fill="none" xmlns="http://www.w3.org/2000/svg">
<g clip-path="url(#clip0_79_220)">
<path d="M65.625 234.375C49.6875 234.375 37.5 222.188 37.5 206.25V93.75C37.5 77.8125 49.6875 65.625 65.625 65.625C81.5625 65.625 93.75 77.8125 93.75 93.75V206.25C93.75 222.188 81.5625 234.375 65.625 234.375Z" fill="#242424" style="mix-blend-mode:soft-light"/>
<path d="M234.375 234.375C218.438 234.375 206.25 222.188 206.25 206.25V93.75C206.25 77.8125 218.438 65.625 234.375 65.625C250.312 65.625 262.5 77.8125 262.5 93.75V206.25C262.5 222.188 250.312 234.375 234.375 234.375Z" fill="#242424" style="mix-blend-mode:soft-light"/>
<path d="M215.625 159.375H84.375C78.75 159.375 75 155.625 75 150C75 144.375 78.75 140.625 84.375 140.625H215.625C221.25 140.625 225 144.375 225 150C225 155.625 221.25 159.375 215.625 159.375Z" fill="#242424" style="mix-blend-mode:soft-light"/>
<path d="M18.75 95.625C7.5 99.375 0 109.688 0 121.875V178.125C0 190.312 7.5 200.625 18.75 204.375V95.625Z" fill="#242424" style="mix-blend-mode:soft-light"/>
<path d="M281.25 95.625V204.375C292.5 200.625 300 190.312 300 178.125V121.875C300 109.688 292.5 99.375 281.25 95.625Z" fill="#242424" style="mix-blend-mode:soft-light"/>
</g>
<defs>
<clipPath id="clip0_79_220">
<rect width="300" height="300" fill="white"/>
</clipPath>
</defs>
</svg>
